<svg width="64" height="64" viewBox="0 0 64 64" fill="none" xmlns="http://www.w3.org/2000/svg">
  <path
    d="M28.5406 39.4958C28.1947 39.4958 27.7911 39.3804 27.5028 39.0922L21.1605 32.7498C20.5839 32.1732 20.5839 31.2507 21.1605 30.7318C21.737 30.1552 22.6596 30.1552 23.1785 30.7318L28.483 36.0363L40.1298 24.3895C40.7064 23.8129 41.6289 23.8129 42.1479 24.3895C42.7244 24.966 42.7244 25.8886 42.1479 26.4075L29.4632 39.0345C29.2902 39.3228 28.9442 39.4958 28.5406 39.4958Z"
    fill="#0AB075" />
  <path
    d="M32.0001 59.9631C16.6055 59.9631 4.03613 47.3937 4.03613 31.9991C4.03613 16.6045 16.6055 4.03516 32.0001 4.03516C47.3947 4.03516 59.9641 16.6045 59.9641 31.9991C59.9641 47.3937 47.3947 59.9631 32.0001 59.9631ZM32.0001 6.91804C18.1623 6.91804 6.91902 18.1613 6.91902 31.9991C6.91902 45.837 18.1623 57.0802 32.0001 57.0802C45.8379 57.0802 57.0812 45.837 57.0812 31.9991C57.0812 18.1613 45.8379 6.91804 32.0001 6.91804Z"
    fill="#0AB075" />
</svg>