<svg width="25" height="19" viewBox="0 0 25 19" fill="none" xmlns="http://www.w3.org/2000/svg">
<path d="M15.8542 1.28235C15.989 1.28225 16.1224 1.30869 16.247 1.36018C16.3715 1.41167 16.4847 1.48719 16.58 1.58242L23.4073 8.40967C23.505 8.50521 23.5826 8.61931 23.6356 8.74527C23.6886 8.87123 23.7159 9.00652 23.7159 9.14318C23.7159 9.27983 23.6886 9.41512 23.6356 9.54108C23.5826 9.66704 23.505 9.78114 23.4073 9.87668L16.58 16.7014C16.3954 16.8863 16.1471 16.9937 15.8859 17.0018C15.6247 17.0099 15.3703 16.9181 15.1745 16.745C15.0719 16.6448 14.9903 16.5252 14.9346 16.3931C14.8788 16.2609 14.8501 16.119 14.8501 15.9755C14.8501 15.8321 14.8788 15.6902 14.9346 15.558C14.9903 15.4259 15.0719 15.3063 15.1745 15.2061L20.0295 10.3588C20.0449 10.3438 20.0554 10.3244 20.0597 10.3033C20.064 10.2822 20.0619 10.2603 20.0536 10.2405C20.0453 10.2206 20.0313 10.2036 20.0133 10.1918C19.9953 10.18 19.9741 10.1739 19.9526 10.1742H2.98194C2.83908 10.1748 2.69768 10.1455 2.56679 10.0883C2.4359 10.031 2.3184 9.94711 2.22183 9.84184C2.12525 9.73657 2.05173 9.6123 2.00596 9.47697C1.9602 9.34165 1.9432 9.19825 1.95606 9.05597C1.98659 8.79399 2.11354 8.55274 2.31219 8.37923C2.51084 8.20571 2.76695 8.11234 3.03067 8.11729H19.9577C19.9793 8.11761 20.0004 8.11146 20.0184 8.09965C20.0364 8.08783 20.0504 8.07089 20.0587 8.05102C20.067 8.03114 20.0691 8.00924 20.0648 7.98814C20.0606 7.96704 20.05 7.9477 20.0347 7.93263L15.1617 3.05969C14.9879 2.89218 14.8771 2.66983 14.8481 2.43014C14.8192 2.19045 14.8738 1.94811 15.0027 1.744C15.0961 1.60216 15.2233 1.48572 15.3728 1.40515C15.5223 1.32457 15.6895 1.28238 15.8593 1.28235H15.8542ZM15.8593 2.14147e-07C15.3994 -0.000197849 14.9499 0.136999 14.5685 0.393995C14.1871 0.65099 13.8912 1.01607 13.7186 1.4424C13.5461 1.86873 13.5049 2.33688 13.6003 2.7868C13.6956 3.23672 13.9232 3.6479 14.2538 3.9676L17.1212 6.83494H3.03067C2.44716 6.83116 1.88314 7.04466 1.4484 7.43389C1.01366 7.82311 0.739338 8.36019 0.678833 8.94056C0.650658 9.26028 0.689468 9.58236 0.792784 9.88622C0.896101 10.1901 1.06165 10.4691 1.27887 10.7054C1.49608 10.9416 1.76019 11.13 2.05431 11.2585C2.34844 11.3869 2.66612 11.4527 2.98707 11.4514H17.1212L14.2743 14.2982C14.0435 14.5302 13.8624 14.8067 13.742 15.111C13.6217 15.4152 13.5645 15.7408 13.5742 16.0679C13.58 16.3773 13.6498 16.6821 13.7791 16.9633C13.9084 17.2444 14.0945 17.4958 14.3256 17.7016C14.7657 18.0933 15.3388 18.302 15.9277 18.2848C16.5166 18.2676 17.0766 18.026 17.493 17.6093L24.3177 10.782C24.5341 10.5674 24.7058 10.3121 24.823 10.0309C24.9402 9.74959 25.0005 9.44789 25.0005 9.14318C25.0005 8.83846 24.9402 8.53676 24.823 8.25548C24.7058 7.9742 24.5341 7.71891 24.3177 7.50433L17.4879 0.677082C17.2735 0.462375 17.0188 0.292059 16.7385 0.175878C16.4581 0.0596962 16.1576 -6.99227e-05 15.8542 2.14147e-07H15.8593Z" fill="#333333"/>
</svg>
