<svg width="25" height="19" viewBox="0 0 25 19" fill="none" xmlns="http://www.w3.org/2000/svg">
<path d="M9.81573 17.0028C9.68097 17.0029 9.5475 16.9765 9.42297 16.925C9.29843 16.8735 9.18526 16.798 9.08991 16.7027L2.26267 9.87549C2.16496 9.77995 2.08732 9.66584 2.03431 9.53988C1.98131 9.41392 1.95401 9.27864 1.95401 9.14198C1.95401 9.00532 1.98131 8.87004 2.03431 8.74408C2.08732 8.61812 2.16496 8.50402 2.26267 8.40848L9.08991 1.58379C9.27456 1.3989 9.52281 1.29143 9.784 1.28333C10.0452 1.27522 10.2996 1.3671 10.4954 1.5402C10.5981 1.64031 10.6797 1.75996 10.7354 1.8921C10.7911 2.02425 10.8198 2.1662 10.8198 2.30961C10.8198 2.45301 10.7911 2.59497 10.7354 2.72711C10.6797 2.85925 10.5981 2.97891 10.4954 3.07902L5.64039 7.92631C5.625 7.94138 5.61449 7.96071 5.6102 7.98181C5.60591 8.00292 5.60805 8.02482 5.61633 8.0447C5.62461 8.06457 5.63866 8.08151 5.65666 8.09332C5.67466 8.10514 5.6958 8.11128 5.71733 8.11097L22.688 8.11097C22.8308 8.11039 22.9722 8.13965 23.1031 8.19688C23.234 8.25411 23.3515 8.33805 23.4481 8.44332C23.5447 8.54858 23.6182 8.67286 23.664 8.80818C23.7097 8.94351 23.7267 9.08691 23.7139 9.22918C23.6833 9.49117 23.5564 9.73241 23.3577 9.90593C23.1591 10.0795 22.903 10.1728 22.6393 10.1679L5.7122 10.1679C5.69067 10.1676 5.66954 10.1737 5.65153 10.1855C5.63353 10.1973 5.61948 10.2143 5.6112 10.2341C5.60292 10.254 5.60078 10.2759 5.60507 10.297C5.60936 10.3181 5.61987 10.3375 5.63526 10.3525L10.5082 15.2255C10.6821 15.393 10.7928 15.6153 10.8218 15.855C10.8508 16.0947 10.7962 16.337 10.6672 16.5412C10.5738 16.683 10.4466 16.7994 10.2971 16.88C10.1476 16.9606 9.98044 17.0028 9.8106 17.0028L9.81573 17.0028ZM9.8106 18.2852C10.2705 18.2854 10.72 18.1482 11.1014 17.8912C11.4828 17.6342 11.7788 17.2691 11.9513 16.8428C12.1238 16.4164 12.165 15.9483 12.0697 15.4984C11.9743 15.0484 11.7467 14.6373 11.4161 14.3176L8.54876 11.4502L22.6393 11.4502C23.2228 11.454 23.7868 11.2405 24.2215 10.8513C24.6563 10.462 24.9306 9.92496 24.9911 9.34459C25.0193 9.02488 24.9805 8.7028 24.8771 8.39893C24.7738 8.09506 24.6083 7.81608 24.3911 7.5798C24.1738 7.34352 23.9097 7.15513 23.6156 7.02667C23.3215 6.89822 23.0038 6.83251 22.6829 6.83375L8.54876 6.83375L11.3956 3.98692C11.6264 3.75499 11.8075 3.47846 11.9279 3.1742C12.0483 2.86994 12.1054 2.54434 12.0957 2.21728C12.0899 1.90787 12.0201 1.60301 11.8908 1.32186C11.7615 1.04071 11.5754 0.789342 11.3443 0.583558C10.9043 0.191836 10.3311 -0.0168103 9.74224 0.000355915C9.15336 0.0175202 8.59334 0.2592 8.17688 0.675887L1.3522 7.50314C1.13585 7.71772 0.964131 7.97301 0.846946 8.25429C0.72976 8.53557 0.669425 8.83727 0.669425 9.14198C0.669425 9.4467 0.72976 9.7484 0.846946 10.0297C0.964131 10.311 1.13585 10.5662 1.3522 10.7808L8.18201 17.6081C8.39645 17.8228 8.65112 17.9931 8.93145 18.1093C9.21178 18.2255 9.51227 18.2852 9.81573 18.2852L9.8106 18.2852Z" fill="#333333"/>
</svg>
