<svg width="25" height="24" viewBox="0 0 25 24" fill="none" xmlns="http://www.w3.org/2000/svg">
  <path fill-rule="evenodd" clip-rule="evenodd"
    d="M21.3064 7.62288L20.684 6.54279C20.1574 5.62887 18.9905 5.31359 18.0753 5.83798V5.83798C17.6397 6.09461 17.1198 6.16742 16.6305 6.04035C16.1411 5.91329 15.7224 5.59678 15.4666 5.16064C15.3021 4.88342 15.2137 4.56766 15.2103 4.24531V4.24531C15.2251 3.72849 15.0302 3.22767 14.6698 2.85694C14.3094 2.4862 13.8143 2.27713 13.2973 2.27734H12.0433C11.5367 2.27734 11.0511 2.47918 10.6938 2.83821C10.3364 3.19724 10.1369 3.68386 10.1394 4.19039V4.19039C10.1244 5.23619 9.27224 6.07608 8.22632 6.07597C7.90397 6.07262 7.58821 5.98421 7.31099 5.81968V5.81968C6.39582 5.29528 5.22887 5.61056 4.70229 6.52448L4.0341 7.62288C3.50817 8.53566 3.81916 9.70187 4.72975 10.2316V10.2316C5.32166 10.5733 5.68629 11.2049 5.68629 11.8883C5.68629 12.5718 5.32166 13.2033 4.72975 13.5451V13.5451C3.82031 14.0712 3.50898 15.2346 4.0341 16.1446V16.1446L4.66568 17.2339C4.9124 17.679 5.32636 18.0076 5.81595 18.1467C6.30554 18.2859 6.8304 18.2242 7.27438 17.9753V17.9753C7.71084 17.7206 8.23094 17.6508 8.7191 17.7815C9.20725 17.9121 9.62299 18.2323 9.87392 18.6709C10.0385 18.9482 10.1269 19.2639 10.1302 19.5863V19.5863C10.1302 20.6428 10.9867 21.4993 12.0433 21.4993H13.2973C14.3502 21.4993 15.2053 20.6484 15.2103 19.5954V19.5954C15.2079 19.0873 15.4086 18.5993 15.7679 18.24C16.1272 17.8807 16.6152 17.6799 17.1233 17.6824C17.4449 17.691 17.7594 17.779 18.0387 17.9387V17.9387C18.9515 18.4646 20.1177 18.1536 20.6474 17.243V17.243L21.3064 16.1446C21.5615 15.7068 21.6315 15.1853 21.501 14.6956C21.3704 14.206 21.05 13.7886 20.6108 13.5359V13.5359C20.1715 13.2832 19.8511 12.8658 19.7206 12.3762C19.59 11.8866 19.66 11.3651 19.9151 10.9272C20.081 10.6376 20.3211 10.3975 20.6108 10.2316V10.2316C21.5159 9.70216 21.8262 8.54276 21.3064 7.63203V7.63203V7.62288Z"
    stroke="#1F1D25" stroke-width="1.5" stroke-linecap="round" stroke-linejoin="round" />
  <circle cx="12.6742" cy="11.8901" r="2.63616" stroke="#1F1D25" stroke-width="1.5" stroke-linecap="round"
    stroke-linejoin="round" />
</svg>