<svg width="144" height="122" viewBox="0 0 144 122" fill="none" xmlns="http://www.w3.org/2000/svg">
  <path fill-rule="evenodd" clip-rule="evenodd"
    d="M119.819 25.1106C118.194 24.8371 114.32 24.5181 111.852 25.441C112.581 25.8854 113.144 26.4323 113.664 26.9336C113.904 27.1615 114.133 27.3894 114.372 27.5945C114.456 27.4805 114.799 27.1957 115.435 26.9906C116.236 26.7285 119.506 25.384 119.819 25.1106ZM118.58 115.488H43.9639L44.3388 115.055H91.5034V107.877C91.8575 107.911 92.5552 107.615 92.5552 106.122C92.5552 104.63 93.7528 92.0962 94.3568 86.0118L97.5643 52.1031C97.5643 51.7613 97.783 51.1118 98.6265 51.2144C99.1056 51.0548 99.5117 51.8524 99.4284 52.1031L102.199 71.0628L106.958 105.894C106.968 106.362 107.187 107.33 107.947 107.41C107.947 107.41 108.509 109.221 108.311 110.076L108.863 115.055H111.8L112.123 114.098L112.883 115.181H118.746C118.684 115.294 118.632 115.386 118.58 115.488ZM128.212 28.1072C150.967 41.199 132.513 89.5667 118.85 114.987C118.965 114.611 118.944 114.018 118.246 113.563C117.809 113.278 117.361 113.141 116.903 113.004C116.257 112.811 115.57 112.605 114.799 111.956C113.758 111.067 113.675 110.646 113.602 110.258C113.581 110.156 113.56 110.065 113.529 109.962C113.393 109.563 113.227 108.105 113.164 107.421C113.446 107.535 113.977 107.524 113.852 106.498C113.727 105.484 112.685 94.9105 112.175 89.7604L109.551 63.349L107.916 46.4175L107.364 37.8719L106.791 29.258L109.874 31.3431C110.592 32.1635 112.456 33.7245 114.122 33.3827C115.778 33.0522 118.902 31.3545 120.256 30.5455L125.859 27.1843L126.098 26.9564C126.786 27.3096 127.494 27.697 128.212 28.1072ZM67.6139 59.7143C70.9672 58.3698 76.4136 54.0401 78.7151 52.0461L85.7757 51.3739C85.807 51.3967 85.8591 51.4764 85.8591 51.6245C85.8591 51.8068 86.0569 52.0803 86.3069 52.1942C86.5151 52.2854 87.0462 52.1259 87.2754 52.0233C87.3274 52.0347 87.4628 52.0803 87.5565 52.1373C87.6398 52.1942 87.9939 52.2968 88.1501 52.331L87.3378 69.855C87.14 69.3195 86.7442 68.2029 86.7651 68.032C86.7859 67.8155 86.6922 67.542 85.7653 66.095C85.026 64.9328 83.2972 64.9328 82.5162 65.0809L80.8708 65.6734C80.3084 64.2263 78.3194 60.4321 77.3717 60.2498C75.9346 59.3839 74.3933 60.0106 73.8102 60.4321L68.7178 63.5199C68.6136 63.5199 68.3949 62.6312 68.1658 61.6969C67.9784 60.8423 67.7597 59.9764 67.6139 59.7143ZM63.4379 61.412C62.3236 61.8108 59.8347 62.6198 58.8349 62.654C59.616 66.4254 58.9703 68.032 58.2934 69.7411C58.2309 69.912 58.158 70.0715 58.0956 70.2538L65.1145 65.7759L63.4379 61.412Z"
    fill="#EDF2F8" />
  <path fill-rule="evenodd" clip-rule="evenodd"
    d="M41.4647 64.9559L35.3934 73.7977C34.227 75.3814 32.0505 79.2212 32.7482 81.9216C33.446 84.622 34.7998 89.1569 35.3934 91.0825L33.0919 97.3264C31.863 92.0168 28.5306 80.3037 25.0107 75.9853C20.616 70.5732 13.4825 63.1329 9.57724 66.1979C6.28644 70.4592 8.92117 75.2675 10.9519 77.0678C12.691 78.6857 16.2734 82.1837 16.7316 83.2092C16.8253 83.4143 16.9191 83.608 17.0128 83.7789C17.471 84.6676 17.7313 85.2031 16.7316 86.1488C16.7004 86.183 16.6587 86.2172 16.6171 86.2514C15.3778 87.4136 12.9826 89.681 13.2638 90.8204C13.4929 91.7547 13.7012 92.1307 13.7845 92.1991C11.7538 91.0027 7.09873 89.1683 4.64104 91.3103C1.56893 93.9993 3.99538 99.2634 5.86989 99.9356C7.74439 100.608 11.3684 101.987 11.8475 104.459C12.3369 106.932 13.2325 111.068 15.7215 110.749C16.742 110.623 17.4189 110.395 17.9605 110.213C18.7415 109.951 19.2309 109.791 20.0536 110.145C20.7722 110.452 21.0013 111.273 21.22 112.025C21.4283 112.743 21.6157 113.403 22.1781 113.54C22.9695 113.734 24.1671 113.426 25.0211 113.198C25.4272 113.096 25.7605 113.005 25.9271 113.005C26.1146 113.005 26.2812 112.936 26.4166 112.868C26.6665 112.754 26.8644 112.663 27.083 113.005C27.1976 113.175 27.2705 113.267 27.3122 113.301L26.1146 115.226H32.2275H35.008C34.9768 113.927 34.8935 111.216 34.8102 110.737C34.7373 110.259 34.6436 109.666 34.6123 109.427L38.4238 101.326L39.0382 104.653C39.0695 104.869 39.2465 105.325 39.7151 105.462C39.7151 105.576 39.7464 105.883 39.7776 106.282C39.8713 107.319 40.0276 109.051 39.9442 110.133C39.8818 110.669 39.5693 111.979 38.8404 113.005C38.5696 113.608 37.9864 114.349 37.3824 115.124C37.3303 115.181 37.2887 115.249 37.2366 115.306H10.7436C0.735822 99.1608 -11.2089 64.7052 20.9701 56.1483C29.447 54.6443 35.4142 59.2247 41.4647 64.9559ZM81.3292 115.056H44.3389L44.0994 115.329H81.1834C81.2355 115.238 81.2875 115.147 81.3292 115.056Z"
    fill="#ECF8FD" />
  <g opacity="0.29">
    <g opacity="0.29">
      <path opacity="0.29" fill-rule="evenodd" clip-rule="evenodd"
        d="M33.0619 97.4065C32.1038 92.1197 28.7193 79.8483 22.8771 73.1144C15.577 64.6942 10.2242 63.8624 8.59962 67.3832C6.97505 70.9039 8.59962 75.3818 10.9948 77.1251C12.9735 78.9481 16.7433 82.5145 17.0974 83.7564C17.1599 83.9957 17.2224 84.178 17.2848 84.3489C17.5244 85.0667 17.5973 85.2832 16.7537 86.1492C16.5767 86.3315 16.358 86.5366 16.1185 86.7758C14.9313 87.9266 13.1922 89.613 13.2859 90.5928C13.3692 91.5272 13.64 92.0513 13.7753 92.188C11.4947 90.8777 6.40229 88.9635 4.21536 91.812C1.96596 95.2986 4.3195 99.2409 5.77745 99.8904C7.54782 100.449 11.2239 102.124 11.8071 104.368C11.8696 104.608 11.9321 104.858 11.9946 105.109C12.6715 107.809 13.4838 111.022 15.8269 110.817C16.5559 110.749 17.1078 110.555 17.6077 110.373C18.3471 110.099 19.0031 109.86 20.0133 110.134C20.3569 110.225 21.1172 110.749 21.3671 112.139C21.6795 113.882 22.4085 113.803 23.2728 113.689C23.6061 113.643 24.1164 113.472 24.6475 113.301C25.491 113.016 26.3866 112.72 26.7719 112.857C27.2718 113.039 27.428 113.199 27.4384 113.256L29.1255 110.43C28.9276 110.236 28.5735 109.689 28.761 108.994C28.9276 108.288 31.6977 100.973 33.0619 97.4065ZM32.2184 115.17C32.1038 114.999 31.8643 114.555 31.8539 114.167C31.8435 113.677 31.8435 113.324 31.9893 112.777C32.1143 112.333 32.3121 112.036 32.4058 111.934C32.6662 112.014 33.2598 112.105 33.6034 111.763C33.9471 111.433 34.2803 110.658 34.4053 110.316L34.7906 109.496L35.0406 115.17H32.2184Z"
        fill="#3D3397" />
    </g>
  </g>
  <path
    d="M35.0498 115.203C34.9977 115.203 34.9456 115.158 34.9456 115.089C34.9352 113.551 34.8519 112.024 34.654 109.643C34.654 109.586 34.6957 109.529 34.7478 109.518C34.7998 109.506 34.8519 109.563 34.8623 109.62C35.0602 112.013 35.1435 113.551 35.1539 115.089C35.1539 115.146 35.1018 115.203 35.0498 115.203ZM33.0607 97.4514C33.0086 97.4514 32.967 97.4173 32.9566 97.3603C29.9053 82.2404 24.6358 74.6861 20.741 71.0172C17.6065 68.0662 11.9621 63.5541 9.30656 66.5508C8.46303 67.5079 8.04648 69.16 8.17144 71.097C8.286 72.8403 8.83793 74.5266 9.56691 75.404C10.4 76.3952 11.5664 77.5232 12.6911 78.6171C15.4716 81.3061 18.3354 84.0976 17.2211 85.6586C16.8046 86.2397 16.211 86.8208 15.6382 87.3791C14.0553 88.9287 12.5661 90.3871 13.8887 92.1532C13.9303 92.1988 13.9199 92.2785 13.8783 92.3127C13.8366 92.3583 13.7637 92.3469 13.7325 92.3013C12.2745 90.3643 13.9199 88.7578 15.5028 87.2082C16.0964 86.6271 16.6588 86.0802 17.0649 85.5105C18.0647 84.1204 15.2633 81.4086 12.5557 78.788C11.4206 77.6942 10.2542 76.5548 9.4107 75.5521C7.87985 73.729 7.18212 68.6017 9.15035 66.3799C10.0772 65.3316 11.4935 65.0695 13.243 65.6051C15.3154 66.2545 17.8772 68.0092 20.866 70.8349C23.9173 73.7176 26.5728 77.7169 28.7389 82.7303C30.5614 86.9347 32.0401 91.8456 33.144 97.3033C33.1544 97.3603 33.1232 97.4287 33.0607 97.44C33.0815 97.4514 33.0711 97.4514 33.0607 97.4514Z"
    fill="#3D3397" />
  <path
    d="M22.8758 113.802C21.699 113.802 21.5324 113.21 21.3033 112.401C21.2096 112.059 21.095 111.672 20.8868 111.25C20.1161 109.655 18.9498 109.894 16.6483 110.76C16.3151 110.851 16.0026 110.897 15.7215 110.897C13.3263 110.897 12.6181 107.9 11.9725 105.223C11.3268 102.534 9.87926 101.884 6.70301 100.448C6.41142 100.323 6.10942 100.186 5.78659 100.038C4.06829 99.2521 2.88111 96.5175 3.19352 94.0678C3.31849 93.1107 3.72463 91.789 4.96389 90.9572C6.44267 89.9659 8.69207 89.9887 11.483 91.0256C19.5538 94.0336 26.3645 104.573 28.843 109.723C28.8742 109.78 28.8534 109.849 28.8013 109.883C28.7493 109.917 28.6868 109.894 28.6555 109.837C26.1874 104.71 19.4184 94.2387 11.4101 91.2535C8.68166 90.2394 6.49473 90.2052 5.06803 91.1623C3.95374 91.9143 3.5476 93.0879 3.41222 93.9881C8.83786 94.3413 20.8243 98.5229 28.0932 111.934C28.1244 111.991 28.1036 112.059 28.062 112.093C28.0099 112.127 27.9474 112.105 27.9162 112.059C20.6785 98.728 8.76497 94.5691 3.38097 94.2273C3.12063 96.5631 4.24533 99.1154 5.85949 99.856C6.18232 100.004 6.48432 100.141 6.77591 100.266C9.92091 101.679 11.5038 102.385 12.1703 105.188C12.8993 108.219 13.6491 111.353 16.5858 110.566C18.7832 109.735 20.189 109.359 21.0638 111.17C21.2721 111.615 21.3866 112.013 21.4908 112.367C21.7719 113.347 21.9073 113.837 23.7922 113.517C24.8232 113.347 25.4585 113.119 25.9167 112.948C26.6248 112.697 26.9164 112.583 27.4788 113.198C27.5204 113.244 27.5204 113.312 27.4788 113.358C27.4371 113.404 27.3746 113.404 27.333 113.358C26.8644 112.845 26.6769 112.902 25.9792 113.153C25.5105 113.324 24.8753 113.552 23.8235 113.734C23.4486 113.768 23.1362 113.802 22.8758 113.802Z"
    fill="#3D3397" />
  <path
    d="M30.1971 105.086C30.145 105.086 30.1034 105.052 30.093 104.995C28.8641 96.7458 25.5733 88.3597 20.5642 80.7371C16.3466 74.3223 11.6707 69.5937 8.70278 67.3149C8.65071 67.2807 8.6403 67.2124 8.68195 67.1554C8.7132 67.0984 8.77568 67.087 8.82775 67.1326C11.8165 69.4228 16.5132 74.1741 20.7413 80.6118C25.7712 88.2686 29.0828 96.6888 30.3117 104.972C30.3221 105.029 30.2804 105.098 30.2284 105.098C30.2075 105.086 30.1971 105.086 30.1971 105.086Z"
    fill="#3D3397" />
  <path
    d="M22.4182 83.4936C22.4078 83.4936 22.3974 83.4936 22.387 83.4936C22.3349 83.4822 22.2932 83.4138 22.3141 83.3569L24.2823 75.0506C24.2927 74.9936 24.3552 74.948 24.4073 74.9708C24.4593 74.9822 24.501 75.0506 24.4802 75.1076L22.5119 83.4138C22.5015 83.4594 22.4599 83.4936 22.4182 83.4936Z"
    fill="#3D3397" />
  <path
    d="M24.6354 87.6412C24.625 87.6412 24.6146 87.6412 24.6042 87.6412C24.5521 87.6298 24.5209 87.5614 24.5313 87.5045L26.6974 79.0273C26.7078 78.9703 26.7703 78.9361 26.8224 78.9475C26.8744 78.9589 26.9057 79.0273 26.8952 79.0842L24.7292 87.5614C24.7187 87.607 24.6771 87.6412 24.6354 87.6412Z"
    fill="#3D3397" />
  <path
    d="M13.7947 97.4975C13.7427 97.4975 13.701 97.4519 13.6906 97.3949L13.1803 91.9828C13.1699 91.9258 13.2115 91.8688 13.274 91.8574C13.3261 91.8574 13.3782 91.8916 13.3886 91.96L13.8989 97.3722C13.9093 97.4291 13.8676 97.4861 13.8051 97.4975C13.8051 97.4975 13.8051 97.4975 13.7947 97.4975Z"
    fill="#3D3397" />
  <path
    d="M16.6793 99.252C16.6272 99.252 16.5751 99.2065 16.5751 99.1495L16.3252 93.9652C16.3252 93.8968 16.3669 93.8512 16.4189 93.8398C16.471 93.8398 16.5231 93.8854 16.5335 93.9424L16.7834 99.1267C16.7834 99.1951 16.7418 99.252 16.6793 99.252Z"
    fill="#3D3397" />
  <path
    d="M11.9414 104.824C11.8998 104.824 11.8685 104.801 11.8477 104.767C11.8164 104.71 11.8373 104.641 11.8893 104.619L18.7729 100.71C18.825 100.676 18.8875 100.699 18.9083 100.756C18.9396 100.813 18.9187 100.881 18.8667 100.904L11.9831 104.812C11.9727 104.824 11.9622 104.824 11.9414 104.824Z"
    fill="#3D3397" />
  <path
    d="M12.8478 108.06C12.8061 108.06 12.7749 108.037 12.7541 107.991C12.7332 107.934 12.7541 107.866 12.8061 107.843L21.6163 103.297C21.6684 103.274 21.7309 103.297 21.7517 103.354C21.7725 103.411 21.7517 103.479 21.6996 103.502L12.8895 108.048C12.879 108.048 12.8686 108.06 12.8478 108.06Z"
    fill="#3D3397" />
  <path
    d="M91.524 115.169H88.8789C89.5454 115.021 90.1598 114.383 90.5347 113.813C91.1908 113.164 91.2012 111.751 91.1283 111.124H91.524V115.169Z"
    fill="#1F1D25" />
  <path
    d="M108.884 115.136L108.395 111.478C110.196 111.752 111.019 112.082 113.622 110.749C115.164 113.142 116.715 112.743 118.007 113.392C119.038 113.917 118.913 114.771 118.725 115.136H112.841L112.081 114.053L111.8 115.136H108.884Z"
    fill="#1F1D25" />
  <path fill-rule="evenodd" clip-rule="evenodd"
    d="M92.7127 12.1325L92.2649 18.6158C92.369 19.0031 93.0355 19.8235 94.8371 19.9944C96.6387 20.1653 97.3156 18.8892 97.4302 18.2284L97.1594 15.8128C98.2008 15.5166 98.5028 15.3571 98.8985 14.6962C99.4296 14.1151 99.2734 11.9161 99.1797 10.6855C99.1589 10.3551 99.1381 10.093 99.1381 9.95627C99.1381 9.56887 99.2214 9.27263 99.3047 8.97639C99.3776 8.72572 99.4401 8.49783 99.4505 8.22438C99.4713 7.64328 99.0235 7.64328 98.5861 7.83698C98.232 7.9965 97.4927 8.16741 97.1594 8.22438C96.5762 8.12183 96.243 7.85977 95.9202 7.58631C95.5244 7.26728 95.1495 6.94824 94.3268 6.94824C92.8168 7.11915 93.0876 9.48912 93.4104 10.6513C93.2854 10.2525 92.7023 10.0132 92.2545 10.3551C91.6505 11.0843 92.3065 11.8477 92.7127 12.1325ZM88.0368 49.2772C87.5057 49.8355 86.2769 50.1545 85.7354 50.2457C85.777 50.5191 85.8707 51.1116 85.8707 51.3281C85.8707 51.5901 85.9749 52.0459 86.2456 52.1485C86.4643 52.2282 86.985 52.1143 87.2245 52.0459C87.3391 52.0801 87.6411 52.1712 87.9327 52.251C88.193 52.3194 88.318 52.1826 88.4326 52.0459C88.4846 51.9889 88.5263 51.9434 88.5783 51.9092C88.6721 51.8522 88.7658 51.9206 88.8699 52.0003C88.9532 52.0573 89.047 52.1257 89.1615 52.1485C89.3386 52.1826 89.401 52.1371 89.5156 52.0459C89.5677 52.0117 89.6302 51.9548 89.7239 51.9092C89.9009 51.8066 89.9322 51.818 90.0259 51.8522C90.0884 51.875 90.1613 51.8978 90.3175 51.9092C90.5987 51.932 90.5882 51.7041 90.5674 51.4078C90.557 51.2939 90.557 51.18 90.557 51.066C90.5778 50.6672 91.1089 50.6786 91.4942 50.6786C91.5255 50.6786 91.5567 50.6786 91.588 50.6786C91.6088 50.6786 91.6296 50.6786 91.6505 50.6786C92.0358 50.6786 92.5773 50.6786 92.6294 50.2457C92.6814 49.8013 91.9004 49.7557 91.338 49.7329H91.286C90.7132 49.6987 90.0155 49.129 89.7968 48.6619C89.6197 48.2973 89.1303 48.0922 88.9012 48.0352C88.8283 48.2061 88.5679 48.7188 88.0368 49.2772ZM124.819 23.2645L126.881 21.9998C126.954 21.7377 127.172 21.1111 127.453 20.6211C127.808 20.0172 128.058 19.3108 127.974 18.7411C127.891 18.1714 127.88 17.6928 128.276 17.6928C128.672 17.6928 129.047 18.5474 129.036 19.0715C129.036 19.3222 128.995 19.5501 128.964 19.721C128.932 19.9147 128.911 20.04 128.953 20.0514C129.016 20.0856 129.151 20.1198 129.203 20.1312C129.536 19.9375 130.296 19.5956 130.682 19.7552C131.15 19.9489 131.192 20.1426 131.13 20.3135C131.088 20.4502 130.973 20.5755 130.921 20.6325C131.15 20.7009 131.609 20.8946 131.567 21.2136C131.525 21.5212 131.348 21.7035 131.255 21.7605C131.442 21.8631 131.817 22.1365 131.796 22.3758C131.775 22.6151 131.598 22.8316 131.505 22.9113C131.661 22.9911 131.963 23.219 131.921 23.4696C131.859 23.7887 131.473 24.1533 131.13 24.2444C130.848 24.3128 130.369 24.3584 130.161 24.3697C129.994 24.5748 129.557 24.985 129.099 24.985C128.651 24.985 128.12 24.7572 127.849 24.6432C127.776 24.609 127.724 24.5862 127.703 24.5862C127.599 24.5521 126.6 25.4864 126.11 25.9535L124.819 23.2645ZM108.438 111.386L107.99 107.512H113.145L113.613 110.725C113.416 110.896 112.728 111.329 111.551 111.637C110.375 111.944 108.99 111.603 108.438 111.386ZM91.161 111.124H91.5984V107.865H91.161V111.124ZM95.8369 12.8618L98.18 13.1238C98.1592 13.5226 97.8988 14.343 96.9824 14.3772C96.066 14.4 95.8369 13.3745 95.8369 12.8618Z"
    fill="#BB3624" />
  <g opacity="0.29">
    <g opacity="0.29">
      <path opacity="0.29" fill-rule="evenodd" clip-rule="evenodd"
        d="M87.9106 30.8985L88.4312 29.9186L103.084 28.6653C103.542 28.6311 103.938 28.9957 103.979 29.5085C104.01 30.0098 103.667 30.4542 103.209 30.4884L87.4211 31.8442L87.9106 30.8985ZM70.8526 32.357C70.8213 31.8556 71.165 31.4227 71.6232 31.3771L81.9017 30.4884L81.5164 31.3999L81.0165 32.4595L71.7482 33.2001C71.2899 33.2343 70.8942 32.8583 70.8526 32.357Z"
        fill="#1F1D25" />
    </g>
  </g>
  <path
    d="M72.0084 36.8918C71.9564 36.8918 71.9043 36.8462 71.9043 36.7893C71.9043 36.7209 71.946 36.6753 71.998 36.6639L79.0587 36.0828C79.1107 36.0828 79.1628 36.1284 79.1732 36.1854C79.1732 36.2537 79.1316 36.2993 79.0795 36.3107L72.0084 36.8918C72.0188 36.8918 72.0084 36.8918 72.0084 36.8918ZM85.4424 35.7866C85.3903 35.7866 85.3383 35.741 85.3383 35.684C85.3383 35.6157 85.3799 35.5701 85.432 35.5587L103.448 33.9521C103.5 33.9521 103.552 33.9977 103.563 34.0547C103.563 34.1231 103.521 34.1686 103.469 34.18L85.4424 35.7866C85.4528 35.7866 85.4528 35.7866 85.4424 35.7866Z"
    fill="#3D3397" />
  <g opacity="0.1">
    <path opacity="0.1"
      d="M72.967 42.4978C73.289 42.4978 73.5501 42.2121 73.5501 41.8597C73.5501 41.5073 73.289 41.2217 72.967 41.2217C72.6449 41.2217 72.3838 41.5073 72.3838 41.8597C72.3838 42.2121 72.6449 42.4978 72.967 42.4978Z"
      fill="#1F1D25" />
  </g>
  <g opacity="0.1">
    <path opacity="0.1"
      d="M74.592 42.3504C74.9141 42.3504 75.1752 42.0647 75.1752 41.7123C75.1752 41.3599 74.9141 41.0742 74.592 41.0742C74.2699 41.0742 74.0088 41.3599 74.0088 41.7123C74.0088 42.0647 74.2699 42.3504 74.592 42.3504Z"
      fill="#1F1D25" />
  </g>
  <g opacity="0.1">
    <path opacity="0.1"
      d="M76.216 42.2127C76.5381 42.2127 76.7992 41.927 76.7992 41.5746C76.7992 41.2222 76.5381 40.9365 76.216 40.9365C75.8939 40.9365 75.6328 41.2222 75.6328 41.5746C75.6328 41.927 75.8939 42.2127 76.216 42.2127Z"
      fill="#1F1D25" />
  </g>
  <g opacity="0.1">
    <path opacity="0.1"
      d="M77.8517 42.076C78.1738 42.076 78.4349 41.7903 78.4349 41.4379C78.4349 41.0855 78.1738 40.7998 77.8517 40.7998C77.5297 40.7998 77.2686 41.0855 77.2686 41.4379C77.2686 41.7903 77.5297 42.076 77.8517 42.076Z"
      fill="#1F1D25" />
  </g>
  <g opacity="0.1">
    <path opacity="0.1"
      d="M86.3185 41.3474C86.6406 41.3474 86.9017 41.0617 86.9017 40.7094C86.9017 40.357 86.6406 40.0713 86.3185 40.0713C85.9964 40.0713 85.7354 40.357 85.7354 40.7094C85.7354 41.0617 85.9964 41.3474 86.3185 41.3474Z"
      fill="#1F1D25" />
  </g>
  <g opacity="0.1">
    <path opacity="0.1"
      d="M89.8996 41.0398C90.2217 41.0398 90.4828 40.7541 90.4828 40.4017C90.4828 40.0493 90.2217 39.7637 89.8996 39.7637C89.5775 39.7637 89.3164 40.0493 89.3164 40.4017C89.3164 40.7541 89.5775 41.0398 89.8996 41.0398Z"
      fill="#1F1D25" />
  </g>
  <g opacity="0.1">
    <path opacity="0.1"
      d="M91.5246 40.8914C91.8467 40.8914 92.1077 40.6057 92.1077 40.2533C92.1077 39.9009 91.8467 39.6152 91.5246 39.6152C91.2025 39.6152 90.9414 39.9009 90.9414 40.2533C90.9414 40.6057 91.2025 40.8914 91.5246 40.8914Z"
      fill="#1F1D25" />
  </g>
  <g opacity="0.1">
    <path opacity="0.1"
      d="M93.1496 40.7546C93.4717 40.7546 93.7328 40.469 93.7328 40.1166C93.7328 39.7642 93.4717 39.4785 93.1496 39.4785C92.8275 39.4785 92.5664 39.7642 92.5664 40.1166C92.5664 40.469 92.8275 40.7546 93.1496 40.7546Z"
      fill="#1F1D25" />
  </g>
  <g opacity="0.1">
    <path opacity="0.1"
      d="M94.7843 40.6179C95.1064 40.6179 95.3675 40.3323 95.3675 39.9799C95.3675 39.6275 95.1064 39.3418 94.7843 39.3418C94.4623 39.3418 94.2012 39.6275 94.2012 39.9799C94.2012 40.3323 94.4623 40.6179 94.7843 40.6179Z"
      fill="#1F1D25" />
  </g>
  <g opacity="0.1">
    <path opacity="0.1"
      d="M98.3664 40.3103C98.6884 40.3103 98.9495 40.0246 98.9495 39.6722C98.9495 39.3198 98.6884 39.0342 98.3664 39.0342C98.0443 39.0342 97.7832 39.3198 97.7832 39.6722C97.7832 40.0246 98.0443 40.3103 98.3664 40.3103Z"
      fill="#1F1D25" />
  </g>
  <g opacity="0.1">
    <path opacity="0.1"
      d="M99.9914 40.1619C100.313 40.1619 100.575 39.8762 100.575 39.5238C100.575 39.1714 100.313 38.8857 99.9914 38.8857C99.6693 38.8857 99.4082 39.1714 99.4082 39.5238C99.4082 39.8762 99.6693 40.1619 99.9914 40.1619Z"
      fill="#1F1D25" />
  </g>
  <g opacity="0.1">
    <path opacity="0.1"
      d="M102.2 39.4476C102.226 39.0964 101.987 38.7882 101.666 38.7592C101.345 38.7302 101.064 38.9914 101.037 39.3426C101.011 39.6938 101.249 40.002 101.57 40.031C101.891 40.06 102.173 39.7988 102.2 39.4476Z"
      fill="#1F1D25" />
  </g>
  <g opacity="0.1">
    <path opacity="0.1"
      d="M103.251 39.8894C103.573 39.8894 103.834 39.6037 103.834 39.2514C103.834 38.899 103.573 38.6133 103.251 38.6133C102.929 38.6133 102.668 38.899 102.668 39.2514C102.668 39.6037 102.929 39.8894 103.251 39.8894Z"
      fill="#1F1D25" />
  </g>
  <g opacity="0.29">
    <path opacity="0.29"
      d="M96.6486 45.4607C96.2216 45.4607 95.8572 45.0961 95.8155 44.6176C95.7843 44.1162 96.1175 43.6719 96.5757 43.6377L103.845 43.011C104.303 42.9768 104.709 43.3414 104.74 43.8428C104.771 44.3441 104.438 44.7885 103.98 44.8227L96.7111 45.4493C96.6903 45.4607 96.6694 45.4607 96.6486 45.4607Z"
      fill="#1F1D25" />
  </g>
  <path
    d="M85.4843 50.3376C85.3593 50.3376 85.2552 50.3262 85.151 50.3148C85.1198 50.3148 85.0885 50.292 85.0781 50.2692C83.5681 47.7625 80.444 42.3959 79.3817 40.0715C78.2987 37.7016 78.9131 35.9583 79.3921 35.3544C81.3708 31.6172 85.5884 22.6386 86.057 21.636C86.7964 20.0522 87.8586 19.5736 88.3169 19.5395L92.2429 18.5368C92.2845 18.5254 92.3366 18.5482 92.3574 18.5938C92.6907 19.2204 93.857 20.2687 95.8878 19.7787C96.5647 19.6192 97.3145 18.7533 97.3249 18.2747L97.002 15.8478C96.9916 15.7908 97.0333 15.7225 97.0853 15.7225C97.1374 15.7111 97.1999 15.7566 97.1999 15.8136L97.5227 18.2519V18.2633C97.5227 18.8786 96.6584 19.8243 95.9294 19.9952C93.857 20.4966 92.6178 19.4483 92.2116 18.7647L88.3481 19.756C88.3377 19.756 88.3377 19.756 88.3273 19.756C87.9107 19.7787 86.9318 20.2231 86.2237 21.7271C85.7446 22.7412 81.527 31.7311 79.5484 35.4683C79.5484 35.4797 79.5379 35.4797 79.5379 35.4911C79.0901 36.0494 78.5174 37.7016 79.5484 39.969C80.6002 42.2706 83.6931 47.5688 85.2031 50.0983C86.2757 50.1895 88.3689 49.7337 89.0458 47.2954C87.4942 44.9938 85.0261 39.7867 84.3179 37.28C84.2971 37.223 84.3283 37.1547 84.3908 37.1319C84.4429 37.1091 84.5054 37.1433 84.5262 37.2116C85.2448 39.7069 87.7233 44.9368 89.2541 47.2042C89.2749 47.2384 89.2749 47.2726 89.2749 47.3068C88.6397 49.7223 86.6715 50.3376 85.4843 50.3376Z"
    fill="#1F1D25" />
  <path
    d="M113.759 29.9192C113.727 29.9192 113.707 29.9078 113.686 29.885C113.644 29.8394 113.654 29.7711 113.696 29.7255C114.435 28.9849 114.415 28.0847 114.3 27.686C110.624 24.4386 103.355 18.1263 101.991 17.3287C100.647 16.5425 98.3772 16.9869 97.3566 17.3401C97.3046 17.3629 97.2421 17.3287 97.2213 17.2604C97.2004 17.192 97.2317 17.135 97.2942 17.1122C98.3356 16.759 100.679 16.3033 102.085 17.1236C103.459 17.9326 110.78 24.2791 114.456 27.5264C114.467 27.5378 114.488 27.5606 114.488 27.572C114.633 28.005 114.675 29.0532 113.842 29.885C113.8 29.9192 113.779 29.9192 113.759 29.9192Z"
    fill="#1F1D25" />
  <path
    d="M113.811 33.4969C111.79 33.4969 110.468 32.1296 109.968 31.6168C109.458 31.0927 107.583 29.8736 106.667 29.3152C106.615 29.2811 106.594 29.2127 106.625 29.1557C106.656 29.0988 106.719 29.076 106.771 29.1101C107.698 29.6799 109.583 30.9104 110.114 31.4459C110.739 32.084 112.623 34.0324 115.529 32.9386C117.206 32.3119 119.601 30.8193 121.715 29.5089C123.298 28.5291 124.787 27.5947 125.766 27.1618C125.974 27.0706 126.13 26.8883 126.182 26.6718C126.245 26.4325 126.182 26.1819 126.005 25.9312L125.995 25.9198L124.756 23.4359C124.756 23.4245 124.745 23.4245 124.745 23.4131C124.714 23.3106 124.631 23.1624 124.485 23.1055C124.318 23.0257 124.12 23.0599 123.881 23.1852C123.079 23.6182 117.872 26.1819 117.331 26.4325C117.154 26.5123 116.82 26.6376 116.445 26.763C115.716 27.025 114.613 27.4124 114.467 27.6517C114.435 27.7087 114.373 27.7201 114.321 27.6859C114.269 27.6517 114.258 27.5833 114.29 27.5264C114.456 27.2415 115.3 26.9225 116.383 26.5351C116.758 26.3984 117.081 26.2844 117.247 26.2047C117.789 25.954 122.985 23.3903 123.787 22.9574C124.079 22.7978 124.339 22.7751 124.568 22.8776C124.818 22.9915 124.922 23.2308 124.943 23.322L126.172 25.7831C126.38 26.0793 126.453 26.4098 126.38 26.7174C126.307 27.0022 126.109 27.2415 125.849 27.3555C124.881 27.7884 123.391 28.7114 121.819 29.6912C119.694 31.013 117.289 32.5056 115.602 33.1323C114.946 33.3943 114.352 33.4969 113.811 33.4969Z"
    fill="#1F1D25" />
  <path
    d="M83.9753 37.4738C83.6733 37.4738 83.3609 37.394 83.1109 37.2801C82.9651 37.2117 82.7881 37.1091 82.736 36.9724C82.7152 36.9154 82.7464 36.8471 82.7985 36.8243C82.8506 36.8015 82.9131 36.8357 82.9339 36.8927C82.9443 36.9154 83.0276 36.9952 83.2255 37.0864C83.5691 37.2345 84.0898 37.3142 84.4231 37.1547C84.6209 37.0294 85.704 34.9443 86.8391 32.7338C88.4324 29.6574 90.4215 25.829 91.8482 23.6414C91.8794 23.5958 91.9419 23.573 91.994 23.6186C92.0461 23.6528 92.0565 23.7211 92.0148 23.7781C90.5985 25.943 88.6095 29.7714 87.0161 32.8478C85.3603 36.0381 84.7147 37.2573 84.496 37.3598C84.3502 37.4396 84.1627 37.4738 83.9753 37.4738Z"
    fill="#1F1D25" />
  <path
    d="M87.9847 52.3652C87.8702 52.3652 87.7973 52.331 87.6515 52.2741C87.6098 52.2513 87.5473 52.2285 87.4849 52.2057C87.4432 52.1943 87.4224 52.1829 87.3911 52.1715C87.287 52.1259 87.287 52.1259 87.1724 52.1601C87.0891 52.1829 86.9433 52.2285 86.683 52.2854C86.433 52.3424 86.2144 52.2968 86.0477 52.1487C85.8603 51.9778 85.7457 51.6816 85.7457 51.3283C85.7457 50.9751 85.6832 50.451 85.652 50.2345C85.6416 50.1775 85.6832 50.1092 85.7353 50.1092C85.7978 50.0978 85.8499 50.1434 85.8499 50.2003C85.8811 50.4282 85.9436 50.9637 85.9436 51.3283C85.9436 51.6018 86.0269 51.8525 86.1623 51.9664C86.2768 52.069 86.433 52.1031 86.6205 52.0576C86.8704 52.0006 87.0058 51.955 87.0995 51.9322C87.2662 51.8753 87.2974 51.8866 87.4536 51.9436C87.4744 51.955 87.5057 51.9664 87.5473 51.9778C87.6098 52.0006 87.6723 52.0234 87.714 52.0462C87.9014 52.1259 87.9327 52.1373 88.1201 52.1031C88.2242 52.0804 88.2867 52.012 88.3596 51.9436C88.4325 51.8639 88.5263 51.7727 88.6512 51.7727C88.7554 51.7727 88.8283 51.8297 88.9012 51.8866C88.9949 51.955 89.0886 52.0234 89.2448 52.0006C89.3698 51.9892 89.4323 51.9208 89.5156 51.8525C89.6093 51.7613 89.7134 51.6588 89.9113 51.6816C89.9946 51.693 90.0675 51.7043 90.13 51.7271C90.3279 51.7727 90.3903 51.7727 90.432 51.6816C90.4528 51.636 90.4424 51.5448 90.432 51.4537C90.4112 51.2144 90.3695 50.8498 90.7965 50.6561C91.0777 50.5308 91.4317 50.5308 91.7442 50.5308C92.0357 50.5308 92.3378 50.5308 92.4419 50.4054C92.5044 50.3257 92.5252 50.2573 92.5044 50.1775C92.4627 50.0408 92.3065 49.9269 92.1191 49.9041C92.0358 49.8927 91.942 49.8813 91.8275 49.8813C91.4213 49.8585 90.8798 49.8357 90.3591 49.4369C90.1092 49.2432 89.9113 48.9925 89.7239 48.7761C89.4427 48.4342 89.2136 48.1494 88.8907 48.1608C88.8387 48.1608 88.7866 48.1152 88.7866 48.0468C88.7866 47.9785 88.8283 47.9329 88.8907 47.9329C89.3073 47.9215 89.5885 48.2633 89.8905 48.6279C90.0675 48.8444 90.255 49.0723 90.4841 49.2546C90.9527 49.6192 91.463 49.642 91.8379 49.6648C91.9524 49.6762 92.0566 49.6762 92.1503 49.6876C92.4107 49.7332 92.6398 49.9041 92.7022 50.1206C92.7543 50.2801 92.7127 50.451 92.5877 50.5877C92.4211 50.77 92.1086 50.77 91.7337 50.7814C91.4422 50.7814 91.1089 50.7814 90.8694 50.8954C90.5882 51.0207 90.609 51.2258 90.6299 51.4537C90.6403 51.5904 90.6611 51.7271 90.5986 51.8297C90.4632 52.069 90.2654 52.0234 90.0779 51.9778C90.0154 51.9664 89.953 51.955 89.8801 51.9436C89.7759 51.9322 89.7343 51.9778 89.6405 52.0576C89.5572 52.1487 89.4427 52.2513 89.2552 52.2627C89.0261 52.2854 88.8803 52.1829 88.7762 52.1031C88.7241 52.0576 88.672 52.0348 88.6304 52.0234C88.5887 52.0234 88.5471 52.0576 88.4846 52.1259C88.4013 52.2171 88.2971 52.3196 88.1305 52.3538C88.0889 52.3652 88.0264 52.3652 87.9847 52.3652Z"
    fill="#1F1D25" />
  <path
    d="M72.3003 52.6725C71.5089 52.6725 70.7591 52.3649 70.1447 51.8066C69.4678 51.1799 69.0616 50.2912 68.9887 49.3227L67.6245 29.7021C67.4891 27.7082 68.8533 25.9421 70.6758 25.7712L84.6617 24.4836C84.7137 24.4836 84.7658 24.5292 84.7762 24.5862C84.7762 24.6545 84.7346 24.7001 84.6825 24.7115L70.6966 25.999C68.9887 26.1586 67.6974 27.8107 67.8328 29.6793L69.2074 49.2999C69.2699 50.2114 69.6552 51.0318 70.2905 51.6243C70.9257 52.2168 71.7276 52.5016 72.5607 52.4332L85.828 51.2824C85.8801 51.2824 85.9322 51.328 85.9426 51.385C85.9426 51.4534 85.9009 51.4989 85.8488 51.5103L72.5815 52.6725C72.4774 52.6725 72.3837 52.6725 72.3003 52.6725ZM92.3992 50.6786C92.3471 50.6786 92.2951 50.633 92.2951 50.576C92.2951 50.5076 92.3367 50.4621 92.3888 50.4507L104.875 49.5278C105.719 49.4708 106.479 49.0492 107.031 48.3428C107.583 47.6477 107.853 46.759 107.791 45.8361L106.427 26.3067C106.364 25.3952 105.979 24.5634 105.333 23.9709C104.698 23.3784 103.886 23.0936 103.042 23.1733L91.6598 24.2785C91.6077 24.2785 91.5557 24.233 91.5453 24.176C91.5453 24.1076 91.5869 24.0621 91.639 24.0507L103.032 22.9454C103.927 22.8543 104.792 23.1619 105.469 23.7886C106.146 24.4153 106.562 25.304 106.635 26.2839L107.999 45.8133C108.072 46.7932 107.781 47.7389 107.187 48.4909C106.593 49.2429 105.781 49.6873 104.885 49.7442L92.3992 50.6786C92.4096 50.6786 92.3992 50.6786 92.3992 50.6786Z"
    fill="#1F1D25" />
  <path
    d="M87.3795 69.9694C87.317 69.9694 87.2754 69.9124 87.2754 69.8554L88.046 52.2516C88.046 52.1833 88.0981 52.1377 88.1502 52.1377C88.2126 52.1377 88.2543 52.1947 88.2543 52.2516L87.4837 69.8554C87.4837 69.9124 87.4316 69.9694 87.3795 69.9694Z"
    fill="#1F1D25" />
  <path
    d="M90.4313 71.7009C90.3688 71.7009 90.3271 71.6439 90.3271 71.5755L91.8059 50.827C91.8059 50.7586 91.858 50.713 91.9205 50.7244C91.983 50.7244 92.0246 50.7814 92.0142 50.8497L90.5354 71.5869C90.5354 71.6553 90.4938 71.7009 90.4313 71.7009Z"
    fill="#3D3397" />
  <path
    d="M91.493 107.934C91.3681 107.934 91.2535 107.923 91.1494 107.9C91.0973 107.889 91.0556 107.832 91.0661 107.763C91.0765 107.706 91.1285 107.661 91.191 107.672C91.4722 107.741 91.8888 107.729 92.1699 107.479C92.3782 107.296 92.4719 107.011 92.4719 106.635C92.4719 105.086 92.4928 103.479 92.6698 102.226C92.8052 101.212 95.8669 68.7729 97.4602 51.773C97.4602 51.7616 97.4602 51.7502 97.4706 51.7388C97.5747 51.5223 97.7934 51.2375 98.1371 51.1349C98.4912 51.021 98.8765 51.1007 99.293 51.3742C99.3035 51.3856 99.3243 51.397 99.3243 51.4084C99.6679 52.0464 102.323 71.348 105.25 92.803C106.197 99.7647 106.947 105.268 107.093 106.18C107.093 106.191 107.093 106.191 107.093 106.202C107.093 106.613 107.343 107.376 108.301 107.376H113.373C113.383 107.376 113.393 107.376 113.404 107.376C113.435 107.387 113.508 107.399 113.57 107.342C113.643 107.273 113.8 107.034 113.695 106.214C113.518 104.869 108.728 56.0458 107.77 46.2697C107.76 46.2127 107.801 46.1557 107.864 46.1443C107.926 46.1329 107.968 46.1785 107.978 46.2469C108.936 56.023 113.727 104.835 113.904 106.18C113.997 106.863 113.925 107.308 113.716 107.513C113.612 107.604 113.487 107.638 113.362 107.604H108.301C107.187 107.604 106.895 106.704 106.885 106.214C106.729 105.268 105.989 99.7875 105.042 92.8372C102.99 77.7742 99.5638 52.6503 99.1472 51.5451C98.7932 51.3172 98.4599 51.2489 98.1788 51.3514C97.9184 51.4426 97.731 51.6477 97.6476 51.8186C96.0543 68.8299 92.9926 101.246 92.8573 102.271C92.6906 103.525 92.6594 105.12 92.6594 106.658C92.6594 107.114 92.5344 107.456 92.2741 107.684C92.0658 107.855 91.7638 107.934 91.493 107.934Z"
    fill="#1F1D25" />
  <path
    d="M91.5563 115.261C91.4938 115.261 91.4521 115.215 91.4521 115.147V107.832C91.4521 107.763 91.4938 107.718 91.5563 107.718C91.6188 107.718 91.6604 107.763 91.6604 107.832V115.147C91.6604 115.204 91.6084 115.261 91.5563 115.261Z"
    fill="#1F1D25" />
  <path
    d="M118.778 115.284H112.894C112.863 115.284 112.832 115.273 112.811 115.238L112.113 114.327L111.915 115.193C111.905 115.238 111.863 115.284 111.811 115.284H108.874C108.822 115.284 108.781 115.238 108.77 115.181L107.875 107.49C107.864 107.433 107.906 107.376 107.968 107.365C108.031 107.354 108.073 107.399 108.083 107.468L108.968 115.056H111.738L111.957 114.053C111.967 114.008 111.999 113.974 112.03 113.974C112.071 113.962 112.113 113.974 112.134 114.008L112.925 115.056H118.684C118.788 114.691 118.768 113.996 118.049 113.563C117.757 113.381 117.414 113.301 117.008 113.199C116.029 112.96 114.81 112.652 113.519 110.76C113.509 110.749 113.498 110.726 113.498 110.715L113.009 107.502C112.998 107.445 113.04 107.376 113.092 107.376C113.144 107.365 113.207 107.411 113.207 107.468L113.686 110.658C114.925 112.458 116.102 112.754 117.039 112.982C117.435 113.085 117.809 113.176 118.132 113.37C119.028 113.905 118.986 114.817 118.83 115.216C118.851 115.25 118.82 115.284 118.778 115.284Z"
    fill="#1F1D25" />
  <path
    d="M110.291 111.854C109.51 111.854 108.843 111.705 108.437 111.557C108.385 111.535 108.354 111.478 108.375 111.409C108.396 111.352 108.448 111.318 108.51 111.341C109.416 111.683 111.634 111.979 113.55 110.634C113.602 110.6 113.665 110.612 113.696 110.669C113.727 110.726 113.717 110.794 113.665 110.828C112.54 111.614 111.311 111.854 110.291 111.854Z"
    fill="#1F1D25" />
  <path
    d="M92.2643 18.6957C92.2643 18.6957 92.2539 18.6957 92.2643 18.6957C92.2018 18.6843 92.1602 18.6387 92.1602 18.5704C92.3164 16.6903 92.6288 12.9075 92.7121 12.0416C92.7954 11.2212 92.6079 10.9819 92.5559 10.9705C92.5038 10.9591 92.4622 10.8908 92.483 10.8338C92.5038 10.7768 92.5559 10.7313 92.6079 10.754C92.8058 10.811 93.0037 11.187 92.9204 12.0758C92.837 12.9531 92.5246 16.7245 92.3788 18.6046C92.358 18.6501 92.3164 18.6957 92.2643 18.6957Z"
    fill="#1F1D25" />
  <path
    d="M97.1276 15.8925C95.93 15.8925 94.9095 14.7303 94.4929 14.0011C94.4617 13.9441 94.4721 13.8757 94.5242 13.8415C94.5762 13.8074 94.6387 13.8188 94.6699 13.8757C95.149 14.6961 96.4091 16.0976 97.7733 15.5279C99.2833 14.9012 99.2 13.3174 99.1583 12.3717C99.1479 12.2236 99.1479 12.0983 99.1479 11.9843C99.1479 11.7223 99.1271 11.3918 99.1063 11.0386C99.0542 10.2866 99.0125 9.50042 99.1583 9.1472C99.325 8.74841 99.4395 8.22429 99.3041 7.9964C99.2521 7.90525 99.1583 7.85967 99.0229 7.84828C98.7626 7.83689 98.471 7.95083 98.1482 8.06477C97.6796 8.23568 97.2005 8.40659 96.7736 8.23568C96.5861 8.15592 96.3778 8.0078 96.1279 7.82549C95.451 7.34694 94.6075 6.74306 93.8368 7.25579C93.0766 7.75713 93.2432 9.55739 93.5452 10.6398C93.5557 10.6968 93.5348 10.7538 93.4932 10.7766C93.4515 10.7993 93.389 10.7879 93.3578 10.7424C93.2224 10.5373 92.9621 10.298 92.6913 10.2866C92.5351 10.2752 92.3893 10.3436 92.2539 10.4917C92.0769 10.6854 92.0144 10.9247 92.0873 11.1867C92.1914 11.6083 92.5663 11.9615 92.785 12.0185C92.8371 12.0299 92.8788 12.0983 92.8579 12.1552C92.8475 12.2122 92.785 12.2578 92.733 12.235C92.431 12.1438 92.004 11.7109 91.879 11.2437C91.7957 10.9019 91.8686 10.5829 92.0977 10.3208C92.2748 10.1271 92.4726 10.0359 92.6913 10.0473C92.8892 10.0587 93.0662 10.1613 93.2224 10.2866C93.1391 9.9106 93.0558 9.35229 93.0558 8.7712C93.0662 7.90525 93.2849 7.32416 93.7119 7.03931C94.5866 6.4696 95.5343 7.13045 96.2216 7.6204C96.4611 7.79131 96.6694 7.93943 96.836 8.0078C97.1901 8.15592 97.6379 7.99641 98.0649 7.83689C98.3877 7.72295 98.7105 7.59761 99.0021 7.60901C99.2625 7.6204 99.3874 7.74573 99.4499 7.85967C99.6894 8.28125 99.377 9.07884 99.3145 9.22696C99.1896 9.5346 99.2416 10.3094 99.2833 11.0044C99.3041 11.3576 99.325 11.6881 99.325 11.9615C99.325 12.0641 99.3354 12.1894 99.3354 12.3375C99.377 13.2832 99.4707 15.0379 97.8149 15.7216C97.5962 15.8469 97.3567 15.8925 97.1276 15.8925Z"
    fill="#1F1D25" />
  <path
    d="M96.9405 14.4796C96.6384 14.4796 96.3781 14.3657 96.1802 14.1492C95.8574 13.8074 95.7324 13.2377 95.7324 12.8503C95.7324 12.8161 95.7428 12.7819 95.7637 12.7705C95.7845 12.7591 95.8157 12.7363 95.847 12.7363L98.1901 12.9984C98.2422 13.0098 98.2839 13.0554 98.2839 13.1123C98.263 13.5681 97.961 14.434 96.9821 14.4682C96.9717 14.4796 96.9509 14.4796 96.9405 14.4796ZM95.9511 12.987C95.9719 13.3174 96.0761 13.7276 96.326 13.9897C96.4926 14.172 96.7113 14.2631 96.9821 14.2517C97.7319 14.229 98.0131 13.6137 98.0652 13.2149L95.9511 12.987Z"
    fill="#1F1D25" />
  <path
    d="M124.817 23.3447C124.776 23.3447 124.744 23.3219 124.724 23.2877C124.692 23.2307 124.713 23.1624 124.765 23.1282L126.796 21.9204C126.869 21.6355 127.025 21.1 127.192 20.8494C127.463 20.4506 127.962 19.5504 127.9 19.0263C127.89 18.9238 127.869 18.8098 127.858 18.7073C127.785 18.2401 127.723 17.7616 128.191 17.6134C128.327 17.5793 128.452 17.6021 128.577 17.7046C128.91 17.9781 129.139 18.7415 129.15 19.1516C129.15 19.3567 129.118 19.539 129.098 19.6986C129.077 19.8467 129.045 20.0062 129.087 20.029C129.108 20.0404 129.139 20.029 129.181 20.0176C129.191 20.0176 129.202 20.0176 129.202 20.0062C129.337 19.972 129.556 19.8809 129.712 19.8125C130.024 19.6872 130.358 19.5504 130.545 19.5618C130.795 19.5732 131.035 19.71 131.159 19.9151C131.253 20.0746 131.264 20.2455 131.201 20.405C131.045 20.8038 129.847 21.3393 129.389 21.3393C129.129 21.3393 128.889 21.157 128.806 20.8949C128.775 20.781 128.723 20.5075 128.962 20.2113C128.806 20.1087 128.848 19.8809 128.879 19.6416C128.91 19.4935 128.931 19.3226 128.931 19.1516C128.92 18.7984 128.712 18.1034 128.441 17.8869C128.369 17.8299 128.296 17.8071 128.233 17.8299C127.962 17.9097 127.973 18.1262 128.046 18.6731C128.056 18.7756 128.077 18.8896 128.087 18.9921C128.171 19.7214 127.421 20.8494 127.338 20.9747C127.192 21.1912 127.036 21.7153 126.963 22.0116C126.952 22.0457 126.942 22.0685 126.911 22.0799L124.838 23.3105C124.849 23.3447 124.838 23.3447 124.817 23.3447ZM129.264 20.2341C129.045 20.4278 128.952 20.6443 129.014 20.838C129.066 21.0089 129.233 21.1342 129.4 21.1342C129.795 21.1342 130.92 20.6215 131.024 20.3366C131.066 20.2227 131.035 20.1201 130.993 20.0518C130.91 19.9037 130.732 19.8011 130.545 19.8011C130.389 19.7897 130.066 19.9264 129.785 20.0404C129.577 20.1315 129.4 20.1999 129.264 20.2341Z"
    fill="#1F1D25" />
  <path
    d="M129.795 22.3187C129.691 22.3187 129.608 22.3073 129.545 22.2731C129.358 22.1934 129.212 22.0225 129.17 21.8174C129.118 21.6009 129.181 21.3616 129.327 21.1679C129.368 21.1223 129.431 21.1109 129.472 21.1565C129.514 21.2021 129.525 21.2705 129.483 21.316C129.379 21.4528 129.337 21.6123 129.368 21.7604C129.4 21.8971 129.483 21.9997 129.618 22.0566C129.931 22.1934 131.274 21.7718 131.451 21.3274C131.482 21.2591 131.482 21.1907 131.451 21.1223C131.368 20.94 131.097 20.7919 130.868 20.7236C130.816 20.7122 130.774 20.6438 130.795 20.5868C130.805 20.5299 130.868 20.4957 130.92 20.5071C131.014 20.5299 131.493 20.6894 131.639 21.0312C131.691 21.1565 131.691 21.2933 131.639 21.43C131.451 21.9199 130.368 22.3187 129.795 22.3187Z"
    fill="#1F1D25" />
  <path
    d="M129.984 23.5384C129.942 23.5384 129.9 23.5384 129.88 23.527C129.734 23.4814 129.484 23.2991 129.432 23.0028C129.39 22.8091 129.432 22.4901 129.838 22.1369C129.88 22.1027 129.952 22.1027 129.984 22.1597C130.015 22.2052 130.015 22.285 129.963 22.3192C129.702 22.5471 129.588 22.7636 129.63 22.9686C129.661 23.151 129.827 23.2877 129.932 23.3219C130.119 23.3788 131.462 22.9914 131.66 22.5015C131.692 22.4103 131.702 22.3306 131.66 22.2622C131.587 22.1027 131.337 21.9774 131.14 21.9318C131.088 21.9204 131.046 21.8634 131.056 21.7951C131.067 21.7381 131.119 21.6925 131.181 21.7039C131.265 21.7267 131.702 21.8292 131.848 22.1483C131.91 22.285 131.91 22.4331 131.848 22.5926C131.629 23.1168 130.421 23.5384 129.984 23.5384Z"
    fill="#1F1D25" />
  <path
    d="M130.368 24.4615C130.181 24.4615 129.994 24.4273 129.889 24.302C129.723 24.1197 129.66 23.9146 129.702 23.7209C129.744 23.5386 129.879 23.3791 130.077 23.3107C130.129 23.2879 130.191 23.3221 130.212 23.3791C130.233 23.436 130.202 23.5044 130.15 23.5272C130.025 23.5728 129.941 23.6639 129.921 23.7665C129.9 23.8804 129.941 24.0171 130.056 24.1311C130.129 24.2108 130.41 24.2564 130.827 24.1653C131.327 24.0513 131.743 23.7893 131.826 23.5614C131.858 23.4588 131.858 23.3677 131.816 23.2993C131.743 23.1626 131.556 23.0714 131.389 23.0373C131.337 23.0259 131.295 22.9689 131.306 22.9005C131.316 22.8436 131.368 22.798 131.431 22.8094C131.629 22.8436 131.889 22.9689 132.003 23.1854C132.076 23.3221 132.087 23.4816 132.024 23.6411C131.899 23.9943 131.358 24.2792 130.879 24.3931C130.743 24.4159 130.556 24.4615 130.368 24.4615Z"
    fill="#1F1D25" />
  <path
    d="M126.13 26.0226C126.099 26.0226 126.068 26.0112 126.047 25.9771C126.005 25.9315 126.016 25.8517 126.057 25.8175L127.599 24.4275C127.64 24.3933 127.692 24.3933 127.734 24.4275C128.151 24.7807 129.202 25.2137 130.192 24.2566C130.233 24.211 130.296 24.2224 130.338 24.2679C130.379 24.3135 130.369 24.3819 130.327 24.4275C129.286 25.4415 128.171 25.0541 127.672 24.6667L126.193 25.9998C126.172 26.0226 126.151 26.0226 126.13 26.0226Z"
    fill="#1F1D25" />
  <path
    d="M91.7129 13.2264C91.2756 13.2264 90.859 13.1352 90.557 12.896C90.2967 12.6795 90.1613 12.3718 90.1613 11.9844C90.1509 11.7224 90.1509 11.5059 90.1509 11.3236C90.1509 10.3779 90.1509 10.3779 89.3698 9.43218C88.8804 8.82829 88.6513 8.2358 88.6825 7.6661C88.7137 7.17616 88.9533 6.7204 89.3802 6.333C90.1821 5.61517 90.4945 5.26196 90.1613 3.87188C89.9218 2.892 90.0988 1.80956 90.5987 1.11453C91.0256 0.510643 91.6817 0.203001 92.4836 0.225789C93.4 0.248578 93.9623 0.544823 94.4726 0.806886C95.1183 1.14871 95.6702 1.44495 96.8262 1.11453C97.274 0.989192 97.6905 0.84107 98.055 0.715735C99.0339 0.373914 99.7421 0.123244 100.242 0.408095C100.481 0.544823 100.658 0.806886 100.763 1.19428C100.95 1.84374 100.908 2.73248 100.877 3.51867C100.836 4.52134 100.804 5.46705 101.231 5.50123C101.419 5.51263 101.606 5.51263 101.762 5.52402C102.356 5.52402 102.814 5.52402 102.877 6.42415C102.95 7.44961 101.408 10.0589 99.2109 10.7767C99.1589 10.7995 99.0964 10.7653 99.086 10.6969C99.0756 10.6286 99.0964 10.5716 99.1589 10.5602C101.2 9.88794 102.752 7.41543 102.679 6.43554C102.627 5.7519 102.356 5.7519 101.773 5.7519C101.606 5.7519 101.429 5.7519 101.231 5.72912C100.596 5.67214 100.638 4.66947 100.69 3.50728C100.721 2.74388 100.752 1.86653 100.586 1.26265C100.492 0.932221 100.356 0.715733 100.169 0.613186C99.7525 0.373911 99.0756 0.613188 98.1487 0.932222C97.7842 1.05756 97.3677 1.20568 96.9095 1.34241C95.6806 1.69562 95.0662 1.37659 94.4101 1.02337C93.9103 0.749915 93.3792 0.476459 92.5148 0.465065C91.7754 0.453671 91.1818 0.727129 90.7965 1.27404C90.3383 1.91211 90.1821 2.91478 90.4008 3.82631C90.7653 5.35311 90.38 5.77469 89.5573 6.5267C89.1719 6.86852 88.9637 7.26731 88.9324 7.70028C88.9012 8.20162 89.1095 8.73714 89.5677 9.29545C90.38 10.2867 90.4008 10.3209 90.4008 11.335C90.4008 11.5173 90.4008 11.7224 90.4112 11.9844C90.4216 12.3035 90.5258 12.5541 90.7236 12.7251C91.2235 13.1352 92.1816 13.0213 92.671 12.8846C92.7231 12.8732 92.7856 12.9074 92.796 12.9643C92.8064 13.0213 92.7752 13.0897 92.7231 13.1011C92.4003 13.1694 92.0462 13.2264 91.7129 13.2264Z"
    fill="black" />
  <path
    d="M90.2649 11.9847C90.2962 13.3064 91.8687 13.2038 92.6601 12.9873V12.8848L92.7643 12.1784C92.3894 11.9277 91.7333 11.2554 92.1186 10.5034C92.5039 9.75143 93.1808 10.3097 93.462 10.6743C93.1392 9.56912 92.8372 7.29031 94.2014 6.98267C95.6177 6.81176 96.0759 8.14486 97.1069 8.17905C97.2318 8.20184 97.5651 8.20183 97.8879 8.03092C98.2941 7.82583 99.1688 7.47261 99.3563 7.86001C99.5437 8.24741 99.45 8.68038 99.2625 9.2273C99.1063 9.67167 99.148 10.3667 99.1896 10.6629C101.304 9.96791 102.855 7.42704 102.782 6.42436C102.71 5.42168 102.147 5.69514 101.231 5.61538C100.314 5.53563 101.085 2.72129 100.668 1.21728C100.241 -0.286736 98.9814 0.602 96.8673 1.21728C94.7533 1.83256 94.545 0.374118 92.5039 0.328542C90.4628 0.29436 89.9317 2.36808 90.2857 3.83791C90.6398 5.30774 90.2857 5.68375 89.4735 6.42436C88.6612 7.15358 88.5258 8.20183 89.4735 9.35263C90.4003 10.5148 90.2233 10.3211 90.2649 11.9847Z"
    fill="#1F1D25" />
  <path
    d="M91.1489 111.785V73.7288C91.1489 71.8373 89.7534 70.3105 88.0247 70.3105H59.5114C58.5429 70.3105 57.6369 70.8005 57.0433 71.6323C54.4919 75.2328 50.5346 80.7931 49.8265 81.8071C48.8164 83.2428 44.0676 89.7602 43.6823 90.1476C43.5782 90.2501 43.474 90.3983 43.3699 90.5464C43.047 91.0591 42.9846 91.6972 43.047 92.3125L44.1613 102.647C44.1822 102.852 44.2134 103 44.2551 103.194C44.4738 104.253 43.9531 105.518 43.901 106.601C43.8281 108.059 43.7448 110.099 43.7968 111.603C43.8073 111.99 43.901 112.366 44.0572 112.719C44.1613 112.97 44.2863 113.221 44.3696 113.38C44.4633 113.551 44.6195 113.779 44.7549 113.961C44.8695 114.121 44.8695 114.36 44.7445 114.519C44.5258 114.793 44.7029 115.215 45.0361 115.215H88.0351C89.7534 115.203 91.1489 113.665 91.1489 111.785Z"
    fill="#ECF8FD" />
  <g opacity="0.29">
    <path opacity="0.29"
      d="M65.063 65.7646L58.2627 70.2311H68.1976C67.5727 70.0488 67.0416 69.7639 66.7188 68.1118C66.1981 68.1802 65.8128 67.713 65.6878 67.4737L65.063 65.7646Z"
      fill="#3D3397" />
  </g>
  <g opacity="0.29">
    <path opacity="0.29"
      d="M73.9465 60.3406L68.75 63.5309C69.1457 64.7159 69.9059 67.177 69.8435 67.5986C69.7601 68.1341 68.9895 67.7353 69.0103 67.9746C69.0312 68.2139 69.6352 68.4645 70.2392 68.7038C70.8432 68.9431 74.4881 69.5242 75.0712 69.7179C75.5399 69.8774 75.467 70.1281 75.3733 70.2306H87.4534C87.4846 69.9686 87.0681 68.8975 86.4224 66.9605C85.5372 64.978 83.5065 64.8754 82.6005 65.0805L80.851 65.6388C80.4136 64.4424 78.8932 61.856 77.8413 60.5001C76.4771 59.2581 74.6755 59.8734 73.9465 60.3406Z"
      fill="#3D3397" />
  </g>
  <path
    d="M91.1505 99.2516H75.1651C71.8847 99.2516 69.2188 96.3347 69.2188 92.757C69.2188 89.1679 71.8847 86.251 75.1651 86.251H91.1609C91.2234 86.251 91.265 86.2966 91.265 86.3649V99.1377C91.2546 99.206 91.213 99.2516 91.1505 99.2516ZM75.1651 86.4789C71.9993 86.4789 69.427 89.2932 69.427 92.757C69.427 96.2208 71.9993 99.0237 75.1651 99.0237H91.0568V86.4789H75.1651Z"
    fill="#3FB4E5" />
  <path
    d="M75.4457 96.6086C73.4983 96.6086 71.9258 94.8767 71.9258 92.7574C71.9258 90.6268 73.5087 88.9062 75.4457 88.9062C77.3827 88.9062 78.9656 90.6381 78.9656 92.7574C78.9656 94.8767 77.3931 96.6086 75.4457 96.6086ZM75.4457 89.1341C73.6233 89.1341 72.1341 90.7635 72.1341 92.7574C72.1341 94.7514 73.6233 96.3807 75.4457 96.3807C77.2681 96.3807 78.7573 94.7514 78.7573 92.7574C78.7573 90.7521 77.2786 89.1341 75.4457 89.1341Z"
    fill="#3FB4E5" />
  <path
    d="M87.4734 70.3789C87.4317 70.3789 87.3901 70.3447 87.3692 70.2991L86.5986 67.6899C86.3174 66.7214 85.703 65.9466 84.8699 65.4908C84.0368 65.0351 83.0995 64.9667 82.2248 65.2858L71.7796 69.1711C71.7275 69.1939 71.665 69.1597 71.6442 69.1027C71.6234 69.0458 71.6546 68.9774 71.7067 68.9546L82.1623 65.0693C83.0891 64.7274 84.0889 64.7958 84.9636 65.2858C85.8384 65.7643 86.4945 66.5961 86.7965 67.6215L87.5671 70.2307C87.5879 70.2877 87.5567 70.3561 87.5046 70.3789C87.5046 70.3789 87.4838 70.3789 87.4734 70.3789Z"
    fill="#3D3397" />
  <path
    d="M58.2318 70.3674C58.2006 70.3674 58.1589 70.3446 58.1381 70.3104C58.1068 70.2534 58.1277 70.1851 58.1693 70.1509L65.0217 65.6616C65.0738 65.6275 65.1362 65.6502 65.1675 65.6958C65.1987 65.7414 65.1779 65.8212 65.1362 65.8553L58.2839 70.3446C58.2735 70.3674 58.2526 70.3674 58.2318 70.3674ZM80.8717 65.787C80.8404 65.787 80.7987 65.7642 80.7779 65.73L78.716 61.7991C77.7787 60.0102 75.6855 59.3835 74.0505 60.3976L68.8019 63.6335C68.7499 63.6677 68.6874 63.6449 68.6561 63.5879C68.6249 63.5309 68.6457 63.4626 68.6978 63.4284L73.9464 60.1925C75.6855 59.1215 77.9037 59.7937 78.893 61.6851L80.955 65.6161C80.9862 65.673 80.9654 65.7414 80.9133 65.7756C80.9029 65.7756 80.8925 65.787 80.8717 65.787Z"
    fill="#3D3397" />
  <path
    d="M88.0259 115.318H44.1832C44.1208 115.318 44.0791 115.272 44.0791 115.204C44.0791 115.135 44.1208 115.09 44.1832 115.09H88.0259C89.6921 115.09 91.0459 113.609 91.0459 111.786V73.7294C91.0459 71.9064 89.6921 70.4251 88.0259 70.4251H58.065C58.0025 70.4251 57.9609 70.3796 57.9609 70.3112C57.9609 70.2428 58.0025 70.1973 58.065 70.1973H88.0259C89.8067 70.1973 91.2542 71.781 91.2542 73.7294V111.786C91.2542 113.734 89.8067 115.318 88.0259 115.318Z"
    fill="black" />
  <path
    d="M86.9843 112.606H49.2234C47.4427 112.606 45.9951 111.022 45.9951 109.074V87.0831C45.9951 87.0147 46.0368 86.9691 46.0993 86.9691C46.1617 86.9691 46.2034 87.0147 46.2034 87.0831V109.074C46.2034 110.897 47.5572 112.378 49.2234 112.378H86.9843C87.0468 112.378 87.0884 112.423 87.0884 112.492C87.0884 112.56 87.0468 112.606 86.9843 112.606ZM86.9843 73.1253H56.1279C56.0654 73.1253 56.0237 73.0798 56.0237 73.0114C56.0237 72.943 56.0654 72.8975 56.1279 72.8975H86.9843C87.0468 72.8975 87.0884 72.943 87.0884 73.0114C87.0884 73.0798 87.0468 73.1253 86.9843 73.1253Z"
    fill="#3D3397" />
  <g opacity="0.81">
    <path opacity="0.81"
      d="M29.2079 116.207C28.0103 116.514 26.6981 115.648 26.1878 115.181C25.4797 115.887 23.8343 117.551 22.9075 118.576C21.9702 119.602 21.7203 120.149 21.7099 120.297C21.4079 121.22 22.3347 122.029 23.5635 121.835C24.959 122.28 28.4372 120.012 30.0097 118.827H30.4575L31.0199 118.702C31.4573 118.314 32.4049 117.471 32.7174 117.141C33.0194 116.822 32.9465 116.377 32.8736 116.207L31.8634 114.543C31.4677 114.965 30.3951 115.899 29.2079 116.207Z"
      fill="#1F1D25" />
  </g>
  <g opacity="0.81">
    <path opacity="0.81"
      d="M35.6645 117.938C35.727 117.22 37.8931 114.36 38.9657 113.016C39.3823 114.235 39.5906 114.292 39.9447 114.394C41.2776 114.805 43.0272 112.959 43.7353 111.99C43.7561 112.036 43.829 112.195 43.9332 112.446C44.0373 112.697 44.6726 113.745 44.9746 114.235L43.35 116.16L42.5898 115.876L40.1946 118.861C39.9238 119.362 39.0491 120.376 38.143 120.672C35.9665 120.98 35.5916 118.838 35.6645 117.938Z"
      fill="#1F1D25" />
  </g>
  <path
    d="M45.3389 40.0147C45.3389 40.0147 44.5266 38.6588 45.5993 37.5649C46.6823 36.4711 45.391 35.7305 44.9953 35.3317C44.5995 34.9329 43.1207 34.3518 44.5995 32.5857C46.0783 30.8197 47.3905 31.002 47.4946 28.4269C47.5987 25.8519 49.2545 21.2145 53.3472 21.9551C57.4295 22.6957 55.9923 25.191 59.1165 25.7151C62.2303 26.2393 66.073 24.1427 68.6661 27.7661C71.2591 31.3894 67.229 33.1896 67.3123 35.3317C67.3956 37.4738 68.2599 37.9523 69.5409 39.0917C70.8218 40.2312 71.1238 41.9744 68.916 45.1306C66.7083 48.2754 64.438 49.3236 64.438 49.3236C64.438 49.3236 63.2717 45.3243 62.7718 43.9342C62.1157 42.6581 62.3761 42.2365 62.022 41.3364C61.5221 40.3907 60.7307 37.4738 59.908 37.2231C59.0853 36.9724 58.5646 36.6648 56.1381 36.9725C55.9195 36.8015 54.2116 37.3143 54.2116 37.3143L54.097 31.3894C54.097 31.3894 55.0759 31.0362 54.8781 30.2272C54.6802 29.4182 53.7742 30.136 53.7742 30.136C53.7742 30.136 52.7224 29.122 52.5558 28.632C52.4412 28.2104 52.1704 27.7547 52.0975 27.3331C52.0975 27.3331 51.0666 28.2674 50.5667 28.2218C50.0668 28.1762 48.0674 28.2218 48.0674 28.2218C48.0674 28.2218 48.0986 31.3438 48.5568 32.392C49.0046 33.4289 49.7752 34.3746 50.1293 34.4772C50.3063 34.5341 50.2543 34.4658 50.4417 34.4772V37.7245C50.4417 37.7245 50.2335 37.7586 49.7023 37.9865C49.1712 38.2258 48.7338 38.0207 46.2553 39.4336C45.7763 39.7298 45.3389 40.0147 45.3389 40.0147Z"
    fill="#1F1D25" />
  <path
    d="M68.2808 70.2765C67.2603 70.2082 66.8333 68.7839 66.75 68.0889L69.0098 67.9863C69.3431 69.1599 74.6021 69.1485 75.3727 69.9461C75.5706 70.2196 75.3311 70.2879 75.1853 70.2879C73.3108 70.2993 69.3014 70.3449 68.2808 70.2765Z"
    fill="#F5BAB2" />
  <path
    d="M29.0826 110.44L26.3125 115.112C28.4994 117.379 30.905 115.659 31.8319 114.519C31.8423 114.417 31.8527 114.064 31.8319 113.448C31.811 112.833 32.1859 112.172 32.3734 111.922L31.7069 111.648L29.0826 110.44Z"
    fill="#F5BAB2" />
  <path
    d="M39.8711 110.646C40.0377 109.848 39.8711 106.909 39.7565 105.541L43.9429 104.869L43.7763 111.945C43.6721 112.104 43.4118 112.469 43.1827 112.708C42.8911 113.004 41.4748 114.349 40.4543 114.497C39.4233 114.645 38.788 113.164 39.1109 112.834C39.4337 112.515 39.6628 111.649 39.8711 110.646Z"
    fill="#F5BAB2" />
  <path
    d="M31.499 31.8224L31.9989 33.5885C32.5716 33.4403 33.8734 33.5543 34.342 33.5885L33.9463 31.6059C33.9463 31.6059 33.8629 31.4919 33.9463 31.4236C34.0296 31.3552 34.1441 30.9792 34.1962 30.7969C34.3524 30.3753 34.9043 29.5094 35.1959 29.2701C35.4875 29.0422 35.6021 28.6662 35.675 28.5637C35.7583 28.4497 36.3415 27.8686 36.2686 27.6294C36.2061 27.4015 35.4563 27.4357 35.0189 28.1079C34.5815 28.7802 34.3003 28.8371 34.0296 28.7802C33.8109 28.746 33.7276 27.9142 33.7067 27.504C33.9567 26.49 34.3628 24.439 34.0296 24.3821C33.613 24.3251 33.5818 25.0543 33.5089 25.4189C33.4464 25.7721 33.0819 27.2534 32.9257 27.2534C32.7695 27.2534 32.7382 27.0825 32.7382 26.7292C32.7382 26.376 32.9257 23.7896 32.4987 23.7554C32.0093 23.7212 32.1655 25.4303 32.1655 25.624C32.1655 25.8177 32.0509 27.2875 31.8947 27.3217C31.7385 27.3559 31.6031 26.7406 31.3636 25.9203C31.1241 25.0999 31.0304 24.5302 30.6867 24.5872C30.343 24.6441 30.6242 25.6012 30.7492 26.114C30.8846 26.6153 31.2491 27.6749 31.197 27.88C31.1449 28.0851 30.9991 27.8572 30.8846 27.7775C30.6867 27.6408 29.8952 25.567 29.5516 25.9203C29.2079 26.2735 30.0827 27.7547 30.3326 28.2446C30.5826 28.7346 30.6346 29.3954 30.6763 30.2728C30.7492 30.9564 31.2491 31.5945 31.499 31.8224Z"
    fill="#F5BAB2" />
  <path fill-rule="evenodd" clip-rule="evenodd"
    d="M50.3996 37.6671V34.4426C49.6707 34.5565 48.1919 34.2261 48.0565 31.9587C48.0565 31.0358 48.0461 30.2951 48.0357 29.7027C48.0253 28.8481 48.0149 28.3468 48.0565 28.1531C49.0979 28.2556 51.3786 28.21 52.1388 27.1504C52.6595 29.1444 53.1906 29.5204 53.7009 29.885C53.7529 29.9305 53.8154 29.9647 53.8675 30.0103C54.0862 29.8394 54.6069 29.4406 54.8152 29.7141C55.0755 30.0559 55.0339 30.5914 54.6381 30.9902C54.3257 31.3092 54.1695 31.4004 54.1383 31.4004L54.2424 37.2911C54.0029 37.7355 53.2218 38.6128 52.0555 38.5217C50.8995 38.4419 50.4725 37.9178 50.3996 37.6671ZM48.9834 31.6966H50.962C50.8787 32.4144 50.3892 32.8474 49.8685 32.836C49.5353 32.8246 48.9209 32.4828 48.9834 31.6966Z"
    fill="#F5BAB2" />
  <path
    d="M37.6435 52.035C37.3207 52.035 37.0291 51.9553 36.7687 51.7958C35.9044 51.2716 35.6024 49.9955 35.4358 49.3119C35.4149 49.2207 35.3941 49.1409 35.3733 49.0726C35.3004 48.8105 34.9463 47.4888 34.4881 45.8025C33.4363 41.8943 31.8326 35.9808 31.7909 35.7073C31.7805 35.6276 31.7597 35.525 31.7284 35.4225C31.6243 34.9553 31.4889 34.3173 31.6243 33.8843C31.8221 33.2462 34.3423 33.3488 34.8109 33.4513C35.342 33.5767 35.5503 34.0438 35.592 34.2831L39.3097 45.2784C39.3306 45.3353 39.2993 45.4037 39.2473 45.4265C39.1952 45.4493 39.1327 45.4151 39.1119 45.3581L35.3941 34.3515C35.3941 34.3401 35.3941 34.3401 35.3941 34.3287C35.3629 34.1464 35.1962 33.7704 34.7693 33.6678C34.0924 33.5083 31.9367 33.5767 31.8221 33.9527C31.7076 34.3173 31.843 34.9439 31.9367 35.3541C31.9575 35.4681 31.9888 35.5706 31.9992 35.6504C32.0408 35.9124 33.6966 42.0538 34.686 45.7227C35.1442 47.409 35.4983 48.7308 35.5711 48.9928C35.592 49.0612 35.6128 49.1409 35.6336 49.2321C35.8003 49.9271 36.0814 51.1007 36.8729 51.5793C37.2894 51.8299 37.8101 51.8527 38.4141 51.6476C40.7364 50.5538 43.9127 47.7964 45.2769 46.4861C45.3186 46.4405 45.3811 46.4519 45.4227 46.4975C45.4644 46.5431 45.454 46.6115 45.4123 46.657C43.9439 48.0699 40.8302 50.7475 38.4975 51.8527H38.487C38.1746 51.9781 37.8935 52.035 37.6435 52.035Z"
    fill="#1F1D25" />
  <path
    d="M70.6763 70.4251C69.6037 70.4251 68.6873 70.4138 68.2707 70.391C67.1981 70.3226 66.7399 68.8642 66.6461 68.1008C66.6357 68.0438 66.6774 67.9755 66.7399 67.9755C66.7919 67.9641 66.8544 68.0096 66.8544 68.078C66.9377 68.773 67.3439 70.1061 68.2915 70.1745C69.3017 70.2428 73.2485 70.2087 75.1959 70.1745C75.2793 70.1745 75.3417 70.1517 75.3521 70.1289C75.3521 70.1289 75.3521 70.0833 75.3001 70.015C74.9772 69.6959 73.7588 69.5022 72.582 69.3085C70.8013 69.0237 69.1246 68.7502 68.9164 68.0096C68.8955 67.9527 68.9268 67.8843 68.9893 67.8615C69.0413 67.8387 69.1038 67.8729 69.1246 67.9413C69.2913 68.5338 71.1449 68.8414 72.6237 69.0807C73.9567 69.2972 75.1022 69.4795 75.4563 69.8555L75.4667 69.8668C75.5604 70.0036 75.5917 70.1175 75.5396 70.2201C75.4667 70.3796 75.2584 70.391 75.1959 70.391C74.0504 70.4024 72.2071 70.4251 70.6763 70.4251Z"
    fill="#1F1D25" />
  <path
    d="M66.5308 68.192C66.2913 68.192 65.8435 68.0439 65.604 67.44C65.3645 66.8361 60.4804 53.7215 57.9394 46.8623C57.9185 46.8053 57.9394 46.737 57.9914 46.7142C58.0435 46.6914 58.106 46.7142 58.1268 46.7712C60.6678 53.619 65.5415 66.7336 65.7915 67.3375C66.0101 67.8844 66.3955 67.9755 66.5725 67.9527C67.2494 67.9185 68.6865 67.8388 69.3114 67.8388C69.4571 67.8388 69.6446 67.816 69.7279 67.6793C69.7904 67.5653 69.7696 67.4058 69.7279 67.3033L62.9693 44.9595C62.886 44.6974 62.761 44.2873 62.6152 43.8201C61.9904 41.735 60.6886 37.3938 59.7097 37.2002C59.6993 37.2002 59.6993 37.2002 59.6889 37.2002C58.0747 36.5735 55.4817 37.0748 54.2945 37.428C54.1174 37.8268 53.3989 38.5219 52.42 38.67C51.2953 38.7839 50.5871 38.1914 50.3372 37.8154C50.0768 37.8952 49.4104 38.1231 48.3586 38.5219C47.2026 38.9662 46.5257 39.3536 46.3278 39.5017L38.9548 44.4468C38.9027 44.481 38.8402 44.4582 38.809 44.4126C38.7777 44.367 38.7986 44.2873 38.8402 44.2531L46.2237 39.3081C46.4216 39.1599 47.1297 38.7497 48.2961 38.3054C49.4624 37.861 50.1602 37.6331 50.358 37.5762C50.3997 37.5648 50.4517 37.5875 50.4726 37.6217C50.66 37.9522 51.3057 38.556 52.3991 38.4421C53.3052 38.3054 54.0133 37.6103 54.1174 37.2913C54.1279 37.2571 54.1591 37.2343 54.1903 37.2229C55.3775 36.8583 58.0539 36.3342 59.7514 36.9837C60.7719 37.2001 61.8654 40.5956 62.8131 43.7517C62.9484 44.2189 63.0734 44.6291 63.1671 44.8911L69.9154 67.2235C69.9778 67.383 70.0091 67.6223 69.8945 67.8046C69.7904 67.9755 69.5925 68.0667 69.3009 68.0667C68.6761 68.0667 67.2494 68.135 66.5829 68.1806C66.5725 68.192 66.5517 68.192 66.5308 68.192Z"
    fill="#1F1D25" />
  <path
    d="M35.3833 91.219C35.3417 91.219 35.3 91.1848 35.2896 91.1392C34.8105 89.5782 33.915 86.593 33.5609 85.3511C33.4776 85.0662 33.3838 84.7927 33.2901 84.4851C32.8111 83.0381 32.2591 81.4087 32.7902 78.7653C33.2901 76.2472 40.5799 65.9128 44.3705 60.7855C44.5476 59.9651 44.6621 59.2017 44.7871 58.3927C45.0891 56.4785 45.4223 54.3023 46.6512 50.189C45.037 48.9585 45.0787 46.7822 45.3286 45.7909C45.339 45.734 45.4015 45.6998 45.4536 45.7112C45.5057 45.7226 45.5369 45.7909 45.5265 45.8479C45.287 46.7936 45.2557 48.8901 46.8386 50.0523C46.8803 50.0751 46.8907 50.1321 46.8803 50.1776C45.641 54.3251 45.2974 56.5013 45.0058 58.4269C44.8808 59.2473 44.7558 60.0221 44.5788 60.8652C44.5788 60.8766 44.5684 60.8994 44.558 60.9108C40.7777 66.0154 33.4984 76.327 32.9985 78.8109C32.4882 81.3859 33.0194 82.9925 33.488 84.4053C33.5921 84.7016 33.6858 84.9864 33.7692 85.2713C34.1232 86.5132 35.0292 89.4985 35.4979 91.0595C35.5187 91.1164 35.4875 91.1848 35.4354 91.2076C35.4041 91.219 35.3937 91.219 35.3833 91.219Z"
    fill="#1F1D25" />
  <path
    d="M32.8947 112.115C32.7385 112.115 32.5823 112.092 32.4052 112.035C31.2909 111.682 29.7809 110.919 29.1353 110.565C28.802 110.36 28.3126 109.665 28.8124 108.446C29.2811 107.295 34.1756 94.2149 36.6958 87.4582C37.2165 85.8061 38.7057 81.9891 40.5802 79.3685C43.1524 75.7793 47.7658 68.7606 47.8074 67.5414C47.8387 66.516 47.8178 64.8866 47.8074 64.1688C47.8074 64.1004 47.8491 64.0548 47.9116 64.0548C47.974 64.0548 48.0157 64.1004 48.0157 64.1688C48.0261 64.898 48.0469 66.5388 48.0157 67.5642C47.974 68.9885 42.6005 76.9415 40.7468 79.5166C38.8827 82.1144 37.4143 85.8972 36.8936 87.538C34.3735 94.2947 29.4789 107.386 29.0103 108.537C28.5729 109.608 28.9686 110.189 29.2394 110.36C29.8746 110.713 31.3743 111.465 32.4677 111.819C32.8426 111.933 33.1654 111.91 33.4466 111.728C33.8215 111.488 34.0402 111.021 34.1131 110.702C34.1131 110.691 34.1131 110.691 34.1235 110.679L40.8822 95.6733C41.3508 94.6593 41.7049 93.8389 41.9964 93.178C42.9649 90.9562 43.3294 90.1244 45.1727 88.0279C48.578 83.5273 54.993 74.4348 57.9089 70.2646C59.8355 67.0743 58.992 63.6333 58.4921 61.5823C58.3671 61.0582 58.263 60.648 58.2317 60.329C58.2317 60.2948 58.2422 60.2606 58.263 60.2378C59.3356 59.1668 58.742 57.1956 58.4504 56.2499C58.4296 56.1702 58.4088 56.1018 58.388 56.0448C58.138 55.2017 57.6486 52.4785 57.4819 51.0201C57.3466 49.8465 57.8985 48.2057 58.2109 47.4993C58.2317 47.4423 58.2942 47.4195 58.3463 47.4423C58.3984 47.4651 58.4192 47.5335 58.3984 47.5904C58.0964 48.2741 57.5548 49.8579 57.6902 50.9859C57.8568 52.4101 58.3567 55.1561 58.5858 55.9765C58.6066 56.0334 58.6275 56.1018 58.6483 56.1816C58.9503 57.1615 59.5647 59.1896 58.44 60.3632C58.4713 60.6594 58.5754 61.0582 58.69 61.5254C59.2002 63.6219 60.0542 67.1199 58.0755 70.4013C55.1596 74.583 48.7447 83.664 45.3289 88.1875C43.4961 90.2726 43.142 91.0929 42.1839 93.292C41.8923 93.9528 41.5382 94.7732 41.0696 95.7873L34.3214 110.759C34.2277 111.146 33.9881 111.648 33.5508 111.921C33.3529 112.058 33.1238 112.115 32.8947 112.115Z"
    fill="#1F1D25" />
  <path
    d="M50.5144 61.5604C47.2756 61.5604 45.3074 60.854 44.5368 60.2729C44.4847 60.2387 44.4743 60.1704 44.5159 60.1134C44.5472 60.0564 44.6097 60.045 44.6617 60.0906C45.901 61.0363 50.3373 62.2782 58.2727 60.2615C58.3248 60.2501 58.3873 60.2843 58.3977 60.3413C58.4081 60.3983 58.3769 60.4666 58.3248 60.478C55.1902 61.2756 52.5971 61.5604 50.5144 61.5604Z"
    fill="#1F1D25" />
  <path
    d="M39.871 105.621C39.6523 105.621 39.4649 105.553 39.3087 105.416C39.0796 105.211 38.9859 104.892 38.9754 104.664L38.3506 101.291C38.3402 101.234 38.3714 101.166 38.4339 101.155C38.486 101.143 38.5485 101.177 38.5589 101.246L39.1837 104.63V104.641C39.1941 104.812 39.267 105.074 39.4441 105.234C39.6003 105.371 39.8086 105.416 40.0793 105.359C40.8916 105.211 43.0473 104.892 43.8075 104.789C43.8492 104.789 43.9845 104.755 44.0991 104.596C44.2032 104.448 44.2969 104.151 44.1928 103.593C44.0054 102.59 43.2868 95.0817 42.9327 91.2533C42.9223 91.1963 42.964 91.1393 43.0265 91.1279C43.0889 91.1279 43.1306 91.1621 43.141 91.2305C43.4951 95.0589 44.2136 102.556 44.4011 103.559C44.5156 104.197 44.3907 104.562 44.2657 104.744C44.1512 104.903 43.9949 105.006 43.8283 105.029C43.0681 105.131 40.9228 105.45 40.121 105.598C40.0272 105.61 39.9439 105.621 39.871 105.621Z"
    fill="#1F1D25" />
  <path
    d="M23.3026 122.006C22.532 122.006 21.9071 121.732 21.6468 121.265C21.501 121.003 21.3969 120.547 21.7613 119.909C22.3341 118.895 24.8855 116.332 26.1664 115.112L29.0094 110.372C29.0407 110.315 29.1032 110.304 29.1552 110.338C29.2073 110.372 29.2177 110.441 29.1865 110.498L26.3331 115.249C26.3331 115.261 26.3226 115.261 26.3122 115.272C25.0417 116.48 22.5007 119.043 21.9384 120.023C21.6989 120.445 21.6572 120.832 21.8238 121.14C22.0738 121.584 22.7507 121.835 23.563 121.767L23.8545 121.744C24.9688 121.653 25.1667 121.641 26.1977 121.106C27.0933 120.639 29.0511 119.34 29.9675 118.724C29.9883 118.713 29.9988 118.702 30.0196 118.702H30.5715C30.7902 118.702 31.0089 118.622 31.1755 118.462L32.5918 117.163C32.8313 116.947 32.8834 116.582 32.7272 116.286L31.7899 114.565C31.7795 114.554 31.7795 114.543 31.7795 114.52C31.7691 114.44 31.5504 112.537 32.3315 111.854C32.3731 111.82 32.446 111.82 32.4773 111.876C32.5085 111.933 32.5085 112.002 32.4564 112.036C31.9462 112.48 31.8941 113.722 31.9774 114.474L32.9042 116.172C33.1125 116.559 33.0396 117.049 32.7272 117.334L31.3109 118.633C31.1026 118.815 30.8423 118.929 30.5715 118.929H30.0508C29.124 119.556 27.1766 120.844 26.2914 121.311C25.2292 121.869 24.9897 121.88 23.8754 121.972L23.5838 121.994C23.4901 122.006 23.3963 122.006 23.3026 122.006ZM37.653 120.866C37.226 120.866 36.8095 120.707 36.4241 120.399C35.8722 119.955 35.5598 119.408 35.5077 118.781C35.4348 117.858 35.9451 116.924 36.4033 116.4C37.2364 115.352 38.9547 113.061 39.4962 111.911C40.0274 110.771 39.8295 107.25 39.6525 105.541C39.642 105.484 39.6837 105.427 39.7462 105.416C39.7982 105.405 39.8503 105.45 39.8607 105.519C40.0482 107.251 40.246 110.828 39.6837 112.013C39.1318 113.187 37.3926 115.5 36.5491 116.548C36.1117 117.038 35.6327 117.904 35.7056 118.758C35.7472 119.328 36.0284 119.818 36.5283 120.217C36.9865 120.582 37.4759 120.707 37.9862 120.604C38.9027 120.411 39.7149 119.488 40.1315 118.758L40.1419 118.747L42.5163 115.83C42.5475 115.796 42.5892 115.785 42.6308 115.796L43.339 116.047L44.8386 114.246C44.6095 113.916 43.7347 112.651 43.6826 111.979C43.641 111.398 43.7764 107.034 43.8493 104.812C43.8493 104.744 43.9013 104.698 43.9534 104.698C44.0159 104.698 44.0575 104.755 44.0575 104.812C43.9846 107.034 43.8493 111.387 43.8909 111.956C43.9326 112.469 44.6095 113.563 45.0573 114.178C45.0885 114.224 45.0885 114.281 45.0573 114.326L43.4535 116.252C43.4223 116.286 43.3806 116.297 43.3494 116.286L42.6412 116.035L40.3189 118.895C39.8711 119.659 39.0172 120.627 38.0383 120.832C37.9029 120.855 37.778 120.866 37.653 120.866Z"
    fill="#1F1D25" />
  <path
    d="M40.3609 114.634C40.2151 114.634 40.0797 114.611 39.9444 114.565C39.4028 114.383 39.0071 113.779 38.903 112.959C38.8925 112.902 38.9342 112.833 38.9967 112.833C39.0488 112.822 39.1112 112.868 39.1112 112.936C39.1425 113.209 39.3091 114.121 40.0068 114.36C40.59 114.565 41.7043 114.315 43.6725 111.967C43.7142 111.922 43.7767 111.922 43.8183 111.956C43.86 112.002 43.86 112.07 43.8287 112.116C42.4229 113.79 41.2565 114.634 40.3609 114.634Z"
    fill="#1F1D25" />
  <path
    d="M32.6339 109.723C32.6235 109.723 32.6027 109.723 32.5923 109.711C32.5402 109.688 32.5194 109.62 32.5402 109.563C34.9771 103.33 39.9862 91.0249 41.4858 89.0765C42.9958 87.1281 49.7961 78.1724 53.1806 73.7059C53.7325 72.9539 54.7635 71.0283 54.701 69.0799C54.6385 67.2113 54.6594 67.1429 55.5341 66.5618C55.8882 66.3225 56.3673 66.0035 57.0442 65.411C57.0858 65.3768 57.1587 65.3768 57.19 65.4338C57.2212 65.4794 57.2212 65.5591 57.1691 65.5933C56.4714 66.1972 55.9924 66.5276 55.6279 66.7669C54.8364 67.291 54.8364 67.291 54.8989 69.0913C54.9614 71.0967 53.8992 73.0906 53.3368 73.8654C49.9523 78.3319 43.1416 87.2876 41.6316 89.236C40.1528 91.1616 35.1541 103.433 32.7172 109.666C32.7172 109.7 32.6756 109.723 32.6339 109.723Z"
    fill="#3D3397" />
  <path
    d="M28.7288 116.377C27.6249 116.377 26.6981 115.785 26.1982 115.215C26.1566 115.169 26.1566 115.101 26.1982 115.055C26.2399 115.01 26.3024 115.01 26.344 115.055C26.8231 115.591 27.7082 116.161 28.7705 116.149C29.8223 116.138 30.8324 115.557 31.7801 114.44C31.8217 114.394 31.8842 114.394 31.9259 114.429C31.9675 114.463 31.9675 114.543 31.9363 114.588C30.9574 115.75 29.8952 116.354 28.7809 116.377C28.7601 116.377 28.7496 116.377 28.7288 116.377Z"
    fill="#1F1D25" />
  <path
    d="M50.0663 34.5789C49.6498 34.5789 49.2957 34.4764 48.9833 34.2713C48.1918 33.7472 47.9315 32.6419 47.9523 31.776V28.1413C47.9523 28.0729 47.994 28.0273 48.0565 28.0273C48.1189 28.0273 48.1606 28.0729 48.1606 28.1413V31.776C48.1398 32.5736 48.3793 33.599 49.0978 34.0776C49.8685 34.5903 51.014 34.3852 52.5032 33.4965C52.5553 33.4623 52.6178 33.4851 52.649 33.5421C52.6802 33.599 52.6594 33.6674 52.6073 33.7016C51.618 34.2827 50.7745 34.5789 50.0663 34.5789Z"
    fill="#1F1D25" />
  <path
    d="M54.1178 31.5599C54.0762 31.5599 54.0449 31.5371 54.0241 31.503C53.9929 31.446 54.0137 31.3776 54.0657 31.3434C54.399 31.1497 54.9926 30.6256 54.8364 30.0445C54.7947 29.8964 54.7322 29.8052 54.6385 29.7824C54.4406 29.7255 54.1282 29.9078 53.92 30.1015C53.8783 30.1357 53.8262 30.1357 53.795 30.1129C53.0348 29.5204 52.337 28.8709 52.0767 27.4125C51.129 28.438 49.0567 28.4152 48.0361 28.2557C47.984 28.2443 47.9424 28.1873 47.9528 28.1303C47.9632 28.0733 48.0153 28.0278 48.0673 28.0392C49.0983 28.2101 51.2644 28.2215 52.0663 27.0935C52.0871 27.0593 52.1392 27.0365 52.1704 27.0479C52.2121 27.0593 52.2433 27.0935 52.2433 27.139C52.4516 28.6431 53.0868 29.2811 53.8471 29.8736C54.0033 29.7369 54.3782 29.4634 54.701 29.566C54.8156 29.6001 54.9613 29.7027 55.0447 29.9875C55.2425 30.7054 54.5552 31.3206 54.1699 31.5485C54.1491 31.5599 54.1386 31.5599 54.1178 31.5599Z"
    fill="#1F1D25" />
  <path
    d="M50.3893 37.8378C50.3268 37.8378 50.2852 37.7922 50.2852 37.7239V34.4538C50.2852 34.3854 50.3268 34.3398 50.3893 34.3398C50.4518 34.3398 50.4934 34.3854 50.4934 34.4538V37.7239C50.4934 37.7922 50.4518 37.8378 50.3893 37.8378Z"
    fill="#1F1D25" />
  <path
    d="M54.2109 37.4738C54.1588 37.4738 54.1068 37.4283 54.1068 37.3599C54.0755 35.5027 54.013 31.6515 54.0026 31.0362C53.9922 30.626 54.1068 30.4095 54.2109 30.2956C54.2942 30.2044 54.3983 30.1475 54.5025 30.1475C54.565 30.1475 54.6066 30.193 54.6066 30.2614C54.6066 30.3298 54.565 30.3753 54.5025 30.3753C54.4712 30.3753 54.4088 30.3981 54.3567 30.4551C54.2838 30.5349 54.2109 30.6944 54.2109 31.0248C54.2213 31.6401 54.2838 35.5027 54.315 37.3485C54.315 37.4169 54.2734 37.4738 54.2109 37.4738Z"
    fill="#1F1D25" />
  <path
    d="M31.9678 33.8266C31.9261 33.8266 31.8844 33.7924 31.8636 33.7468L31.3846 31.7985C31.1138 31.5364 30.6348 30.8983 30.5931 30.2033C30.5515 29.3146 30.4994 28.6993 30.2599 28.2549C30.2286 28.1979 30.187 28.1296 30.1453 28.0498C29.635 27.1155 29.1664 26.1698 29.4997 25.828C29.5517 25.771 29.6246 25.7482 29.6975 25.7596C29.9683 25.8052 30.2495 26.3293 30.6244 27.0699C30.7493 27.3092 30.8951 27.6054 30.9472 27.6396C30.9784 27.6624 31.0201 27.6966 31.0513 27.7308C31.0617 27.7422 31.0826 27.765 31.1034 27.7764C31.1138 27.6168 30.9264 27.0129 30.8118 26.6483C30.7493 26.4546 30.6973 26.2609 30.6556 26.1128L30.6452 26.0786C30.4786 25.4406 30.3328 24.8595 30.489 24.5974C30.5306 24.529 30.5931 24.4835 30.6764 24.4721C31.0513 24.4151 31.1867 24.8936 31.3637 25.5545C31.395 25.6571 31.4158 25.7596 31.4471 25.8735C31.4887 26.0217 31.5304 26.1584 31.5616 26.2837C31.6553 26.6369 31.7699 27.0243 31.8428 27.1497C31.9365 26.8876 32.0406 25.8621 32.0406 25.6229C32.0406 25.6001 32.0406 25.5545 32.0302 25.4975C31.999 24.8367 31.9886 24.0391 32.2385 23.7656C32.301 23.6973 32.3843 23.6631 32.478 23.6631C32.8113 23.6859 32.905 24.4265 32.8217 26.4091C32.8113 26.5572 32.8113 26.6597 32.8113 26.7167C32.8113 27.0357 32.8425 27.1041 32.8738 27.1155C32.9987 26.9332 33.2903 25.8621 33.3736 25.4064C33.384 25.3494 33.3945 25.2924 33.4049 25.2241C33.4674 24.8253 33.5507 24.2328 33.9985 24.2898C34.0401 24.3012 34.0922 24.3125 34.1338 24.3923C34.3942 24.8139 33.8839 27.0129 33.7694 27.5029C33.8006 28.1637 33.9256 28.6081 34.0089 28.6423C34.2172 28.6765 34.4671 28.6651 34.8836 28.0156C35.2377 27.4573 35.7688 27.332 36.0396 27.3776C36.175 27.4003 36.2687 27.4687 36.2999 27.5713C36.3624 27.7763 36.1541 28.0612 35.7897 28.4828C35.748 28.5284 35.7063 28.5739 35.6959 28.5967C35.6855 28.6195 35.6543 28.6651 35.6334 28.7221C35.5501 28.893 35.4252 29.1436 35.1961 29.3259C34.9253 29.5424 34.3942 30.3856 34.2484 30.7844C34.2276 30.8414 34.2067 30.8869 34.1963 30.9439C34.0714 31.3427 33.9047 31.844 33.03 31.7643C32.9675 31.7643 32.9258 31.7073 32.9362 31.6389C32.9467 31.5706 32.9883 31.525 33.0508 31.5364C33.7694 31.6048 33.8839 31.2515 34.0089 30.8755C34.0297 30.8186 34.0505 30.7616 34.0714 30.7046C34.238 30.2717 34.7899 29.3943 35.0919 29.155C35.2794 29.0069 35.3939 28.779 35.4668 28.6309C35.4981 28.5625 35.5189 28.517 35.5501 28.4714C35.571 28.4486 35.6022 28.403 35.6543 28.3461C36.0917 27.8447 36.1333 27.6966 36.1229 27.651C36.1229 27.651 36.0917 27.6168 36.0188 27.6054C35.8001 27.5713 35.3731 27.6966 35.0815 28.1524C34.6441 28.8246 34.3317 28.9272 33.9985 28.8702C33.686 28.8132 33.6027 27.8903 33.5923 27.5029C33.5923 27.4915 33.5923 27.4801 33.5923 27.4687C33.9776 25.8735 34.113 24.6658 33.9985 24.529C33.7798 24.5062 33.7069 24.8481 33.6444 25.2697C33.634 25.338 33.6236 25.4064 33.6131 25.4633C33.5819 25.6343 33.4778 26.09 33.3528 26.5116C33.1237 27.2978 33.03 27.3662 32.9362 27.3662C32.6447 27.3662 32.6447 26.9788 32.6447 26.7281C32.6447 26.6711 32.6447 26.5572 32.6551 26.4091C32.7488 24.1075 32.5718 23.9138 32.5093 23.9024C32.478 23.9024 32.4572 23.9138 32.426 23.9365C32.2802 24.0961 32.2385 24.6202 32.2802 25.4975C32.2802 25.5659 32.2906 25.6115 32.2906 25.6343C32.2906 25.6457 32.2281 27.3548 31.9365 27.4231C31.7178 27.4801 31.6137 27.1041 31.4054 26.3635C31.3742 26.2381 31.3325 26.1014 31.2908 25.9533C31.2596 25.8394 31.2284 25.7368 31.1971 25.6343C31.0201 25.0076 30.9264 24.6772 30.7285 24.7113C30.7077 24.7113 30.6973 24.7227 30.6868 24.7341C30.5723 24.9278 30.7806 25.7026 30.8639 26.0331L30.8743 26.0672C30.9159 26.204 30.968 26.3977 31.0305 26.5914C31.2388 27.275 31.3637 27.708 31.3221 27.8789C31.3013 27.97 31.2596 28.0156 31.1971 28.0384C31.093 28.0726 31.0097 27.9928 30.9368 27.9131C30.9055 27.8903 30.8847 27.8561 30.8535 27.8447C30.7701 27.7877 30.666 27.594 30.4577 27.1839C30.2495 26.7737 29.8641 26.0217 29.6767 25.9875C29.6663 25.9875 29.6663 25.9875 29.6559 25.9989C29.4163 26.2495 30.1141 27.5257 30.3432 27.9473C30.3848 28.027 30.4265 28.0954 30.4577 28.1524C30.7181 28.6423 30.7701 29.2804 30.8118 30.2033C30.843 30.8414 31.3117 31.4452 31.5512 31.6617C31.572 31.6731 31.5824 31.6959 31.5824 31.7187L32.0719 33.7013C32.0823 33.7582 32.0511 33.8266 31.999 33.838C31.9782 33.8266 31.9678 33.8266 31.9678 33.8266Z"
    fill="#1F1D25" />
  <path
    d="M49.8682 32.9724C49.8578 32.9724 49.8578 32.9724 49.8474 32.9724C49.6391 32.9724 49.3371 32.8585 49.1184 32.5964C48.983 32.4369 48.8164 32.1407 48.8581 31.6963C48.8581 31.6393 48.9101 31.5938 48.9622 31.5938H50.9617C50.9929 31.5938 51.0242 31.6051 51.0346 31.6279C51.0554 31.6507 51.0658 31.6849 51.0554 31.7191C50.9825 32.4483 50.4826 32.9724 49.8682 32.9724ZM49.0664 31.8216C49.0664 32.0609 49.1392 32.2774 49.2746 32.4369C49.4517 32.642 49.7016 32.7445 49.8578 32.7445C50.3369 32.7559 50.7326 32.3685 50.8367 31.8216H49.0664Z"
    fill="#1F1D25" />
  <path
    d="M34.3101 33.542C34.2997 33.542 34.2892 33.542 34.2788 33.542C34.2059 33.5192 34.1643 33.5078 34.0081 32.6418C33.9248 32.1861 33.8519 31.6847 33.8102 31.4113C33.7998 31.3543 33.8414 31.2859 33.8935 31.2859C33.9456 31.2745 34.0081 31.3201 34.0081 31.3771C34.1018 32.0607 34.2997 33.1887 34.3726 33.3597C34.4038 33.3824 34.4142 33.428 34.4038 33.4736C34.4038 33.5078 34.3621 33.542 34.3101 33.542Z"
    fill="#1F1D25" />
  <path fill-rule="evenodd" clip-rule="evenodd"
    d="M0.298475 115.032C0.235992 115.032 0.194336 115.078 0.194336 115.146C0.194336 115.215 0.235992 115.26 0.298475 115.26H26.2812C26.3437 115.26 26.3853 115.215 26.3853 115.146C26.3853 115.078 26.3437 115.032 26.2812 115.032H0.298475ZM88.5773 115.032C88.5148 115.032 88.4731 115.078 88.4731 115.146C88.4731 115.215 88.5148 115.26 88.5773 115.26H143.896C143.958 115.26 144 115.215 144 115.146C144 115.078 143.958 115.032 143.896 115.032H88.5773ZM32.3317 115.032C32.2692 115.032 32.2276 115.078 32.2276 115.146C32.2276 115.215 32.2692 115.26 32.3317 115.26H37.497C37.5595 115.26 37.6011 115.215 37.6011 115.146C37.6011 115.078 37.5595 115.032 37.497 115.032H32.3317Z"
    fill="#1F1D25" />
  <path
    d="M34.7898 6.32228C34.7898 6.32228 33.9775 6.2881 34.1129 5.76397C34.2483 5.23984 35.425 5.37657 35.8937 5.6956C36.3623 6.02603 36.8517 6.41343 36.8101 6.89198C36.7684 7.37053 36.633 7.71236 36.2998 7.53005C35.9666 7.34775 35.3625 6.32228 34.7898 6.32228Z"
    fill="#1F1D25" />
  <path
    d="M41.7772 11.8365C42.0479 12.2353 42.4436 12.4974 42.8914 12.5885C43.6308 12.7252 43.9224 12.7366 43.9016 13.1012C43.8808 13.4659 43.6308 13.9672 43.1414 13.9558C42.6623 13.9444 41.2877 13.1468 41.1732 12.7594C41.0482 12.372 41.3814 11.7909 41.7772 11.8365Z"
    fill="#1F1D25" />
  <path
    d="M60.7723 21.4879C60.7723 21.4879 61.7512 20.0636 62.4593 19.9383C63.1674 19.8129 63.1362 20.2117 63.1466 20.2801C63.1466 20.3485 62.9592 20.5877 62.803 20.7586C62.6468 20.9296 61.8345 21.9778 61.6887 22.012C61.5429 22.0462 60.6681 22.2627 60.7723 21.4879Z"
    fill="#1F1D25" />
  <path
    d="M76.5074 10.857C76.4137 10.7772 76.3512 10.6747 76.3304 10.5607C76.3095 10.4468 76.32 10.3215 76.372 10.2075C76.5491 9.78594 77.0906 8.79466 77.8404 8.52121C78.6006 8.23636 78.8089 8.98836 78.6423 9.3074C78.4756 9.62643 77.6009 10.1392 77.4551 10.3101C77.3093 10.4696 77.0698 11.233 76.5074 10.857Z"
    fill="#1F1D25" />
  <path
    d="M73.6855 33.8731L74.3937 33.1895C74.3937 33.1895 75.0394 34.0098 75.3934 34.158C75.7475 34.3061 76.2474 34.534 76.1536 34.9327C76.0703 35.3315 75.8412 35.5936 75.2268 35.3657C74.6124 35.1264 73.7064 34.1238 73.6855 33.8731Z"
    fill="#3D3397" />
  <path
    d="M62.6151 6.81216C62.6151 6.81216 62.1361 6.60707 62.261 5.90064C62.386 5.19421 62.9067 5.29675 63.1775 5.46766C63.4482 5.63857 64.5521 6.66404 64.5417 7.1084C64.5313 7.55277 64.198 7.92878 63.9168 7.86041C63.6357 7.79205 63.0421 6.78937 62.6151 6.81216Z"
    fill="#3D3397" />
  <path
    d="M26.5413 19.1174C26.5413 19.1174 27.6972 18.0122 27.7597 17.2829C27.8222 16.5537 28.0513 16.1777 28.4054 16.36C28.7594 16.5423 28.7594 17.226 28.6761 17.7159C28.5928 18.2173 27.9471 19.7782 27.2911 20.177C26.6246 20.5872 25.9372 19.7896 26.5413 19.1174Z"
    fill="#3D3397" />
</svg>