<svg width="108" height="108" viewBox="0 0 108 108" fill="none" xmlns="http://www.w3.org/2000/svg">
  <g opacity="0.06">
    <path opacity="0.06"
      d="M29.9852 85.4799C32.5714 86.7637 35.2124 90.5566 35.2124 90.5566L35.2009 63.0469H29.2767C29.2767 63.0469 28.7785 63.0858 28.0527 62.702C27.327 62.3182 27.4674 60.8703 27.4674 60.8703C27.4674 60.8703 27.4782 54.1196 27.4674 53.5018C27.4566 52.8841 27.229 52.2994 28.0333 50.786C28.8375 49.2726 30.6584 49.2812 30.6584 49.2812L33.1676 49.2531L33.1777 48.3092C24.4635 49.2027 15.9841 50.4044 11.5367 63.6625C4.29778 85.2344 26.54 93.1105 26.54 93.1105H33.9517C33.9517 93.1105 33.47 92.6562 33.2655 92.451C33.061 92.2458 32.3698 92.2206 31.2495 92.2026C30.1292 92.1846 30.4856 90.8799 30.4856 90.0562C30.4856 89.2326 29.5086 88.9834 27.9757 88.6947C26.4428 88.406 25.6386 88.0834 25.6141 86.493C25.5896 84.9025 27.399 84.1962 29.9852 85.4799Z"
      fill="#1F1D25" />
    <path opacity="0.06"
      d="M34.6322 48.1595L34.6113 49.269L46.0889 49.359C48.7248 50.1136 48.6348 52.2635 48.6348 52.2635C48.6348 52.2635 48.6729 60.4528 48.6348 61.5911C48.5966 62.7294 47.4965 62.9857 47.4965 62.9857L37.3495 63.0368L37.3229 84.8622C37.3229 84.8622 39.4353 78.11 41.0856 75.436C42.7358 72.7619 46.1911 71.1361 47.0738 71.0224C47.9565 70.9086 49.0315 71.2513 49.4023 72.4544C49.7731 73.6576 49.2108 74.4251 48.5966 75.0644C47.9825 75.7038 46.2674 77.1373 46.14 78.0841C46.0125 79.0309 47.0357 79.8884 47.3553 80.4133C47.675 80.9382 47.2783 81.7309 47.2783 81.7309C47.2783 81.7309 48.1229 81.3472 49.4541 81.4004C50.7854 81.4537 52.1282 82.2428 52.2859 83.5604C52.4436 84.878 50.1979 85.9789 49.7479 86.2352C49.2979 86.4916 48.9804 88.2311 48.6218 89.1152C48.2633 89.9994 46.9716 89.8957 46.1018 89.8064C45.2321 89.7172 44.8483 89.8316 44.5286 90.4458C44.2089 91.0599 44.0966 91.2133 42.2894 91.5078C40.4822 91.8023 40.3123 93.1141 40.3123 93.1141H64.0457V89.5472L63.3322 89.5228L63.2818 93.0918H61.3961V92.2451L60.5746 93.0918H55.4438L55.4618 92.9831C55.4798 92.8744 55.8312 92.6324 55.8312 92.6324C55.8312 92.6324 59.1943 90.854 59.3722 90.8058C59.55 90.7575 59.8351 90.3414 59.8351 90.3414C59.8351 90.3414 59.969 89.5148 59.8351 89.4544C59.339 89.35 59.3513 88.5796 59.3513 88.5796L56.8802 50.8069C56.8802 50.8069 56.6642 45.9196 56.6988 45.1816C56.7333 44.4436 57.3763 43.802 57.3763 43.802C57.2638 43.7615 57.158 43.7045 57.0624 43.6328C56.8464 43.4888 56.832 43.0158 56.7744 42.7134C56.7168 42.411 57.2402 39.698 57.2402 39.3906C57.2402 39.0832 57.8472 36.9476 57.8472 36.9476C55.145 39.2725 52.2693 41.7904 48.9062 44.0872C44.6121 47.0204 39.6175 47.6461 34.6322 48.1595Z"
      fill="#1F1D25" />
    <path opacity="0.06" d="M65.8484 93.1126H66.9248L66.0903 92.2681L65.8484 93.1126Z" fill="#1F1D25" />
    <path opacity="0.06"
      d="M81.3182 30.1745C77.9918 28.8569 75.1262 28.4465 72.5342 28.6935C72.6302 28.8303 72.7236 28.9714 72.8143 29.1169C73.6063 30.4006 73.0245 32.3345 73.0245 32.3345C73.0245 32.3345 70.5045 38.3458 70.3145 38.8901C70.1244 39.4345 69.9033 40.2092 70.3389 41.0926C70.7745 41.9761 70.8948 42.992 70.8948 42.992C70.8948 42.992 70.9668 43.496 70.169 43.8387C71.0258 44.7841 70.8811 46.4401 70.8811 46.4401L68.5216 87.1503C68.5216 87.1503 68.5699 88.2757 68.4734 88.7955C68.3769 89.3153 67.4978 89.4723 67.4978 89.4723L67.59 90.4292C67.59 90.4292 71.7278 92.5705 71.9215 92.7152C72.1152 92.8599 72.0655 93.1126 72.0655 93.1126H75.3897C75.3897 93.1126 88.2375 89.3859 96.2849 68.912C104.332 48.4381 95.7183 35.8784 81.3182 30.1745Z"
      fill="#1F1D25" />
  </g>
  <path
    d="M35.2801 90.6071C35.0333 90.2002 34.7611 89.8091 34.465 89.4364C33.7232 88.475 32.897 87.5817 31.9962 86.7674C31.1048 85.9595 30.0623 85.3403 28.9002 85.0199C28.3441 84.8562 27.7662 84.7783 27.1866 84.7888C26.8656 84.7978 26.5532 84.895 26.2837 85.0696C25.9978 85.2635 25.7825 85.5449 25.6703 85.8717C25.5052 86.3453 25.4891 86.8581 25.6242 87.3412C25.7588 87.7941 26.0821 88.1332 26.4932 88.3542C26.7746 88.5032 27.0768 88.6088 27.3896 88.6674C27.6373 88.7142 27.89 88.7351 28.1384 88.7798C28.443 88.8345 28.7442 88.9066 29.0406 88.9958C29.3516 89.0894 29.6778 89.1895 29.9543 89.3637C30.1331 89.4681 30.2736 89.6271 30.3553 89.8173C30.4169 89.995 30.4415 90.1834 30.4273 90.371C30.4179 90.587 30.3884 90.7994 30.369 91.0139C30.3495 91.2285 30.3265 91.4639 30.3956 91.6778C30.5245 92.0716 30.9162 92.2286 31.2942 92.2891C31.5415 92.3242 31.791 92.3418 32.0408 92.3416C32.3187 92.3467 32.5959 92.3301 32.8681 92.3999C33.2351 92.4954 33.5606 92.7086 33.7947 93.0069C33.8318 93.0519 33.8648 93.1001 33.8934 93.1509C33.9402 93.2359 34.0712 93.1596 34.0244 93.0746C33.9149 92.8896 33.7703 92.7277 33.5989 92.5979C33.435 92.468 33.2505 92.3663 33.0531 92.297C32.8067 92.2193 32.5489 92.1837 32.2907 92.1919C32.0315 92.1919 31.7723 92.1919 31.5145 92.1645C31.3023 92.1527 31.0937 92.1039 30.8982 92.0205C30.8184 91.9858 30.7464 91.9356 30.6862 91.8728C30.626 91.81 30.5789 91.7359 30.5475 91.6547C30.4755 91.4503 30.5007 91.2227 30.5202 91.0139C30.5555 90.6266 30.644 90.2061 30.5202 89.8259C30.3668 89.3514 29.9053 89.1355 29.4697 88.9778C28.9242 88.7828 28.3594 88.6472 27.7849 88.5731C27.2247 88.5011 26.6444 88.3571 26.2081 87.9777C25.8431 87.6587 25.6984 87.2073 25.694 86.7328C25.6897 86.3008 25.7725 85.8465 26.0418 85.4987C26.2152 85.279 26.4493 85.1151 26.715 85.0271C26.8542 84.9786 26.9997 84.9502 27.147 84.9429C27.5296 84.93 27.9125 84.9607 28.2882 85.0343C29.3335 85.2315 30.3215 85.6596 31.1804 86.2871C31.7456 86.6968 32.2525 87.1893 32.7421 87.6854C33.1573 88.1068 33.554 88.5453 33.9323 89.0008C34.361 89.5095 34.7548 90.0466 35.1109 90.6086C35.126 90.6338 35.1418 90.6583 35.157 90.6806C35.1671 90.6979 35.1837 90.7104 35.203 90.7155C35.2224 90.7205 35.243 90.7177 35.2603 90.7076C35.2776 90.6975 35.2901 90.6809 35.2952 90.6615C35.3002 90.6421 35.2974 90.6215 35.2873 90.6043L35.2801 90.6071Z"
    fill="#3D3397" />
  <path
    d="M35.28 92.7361C35.1555 92.5424 35.0187 92.3567 34.8804 92.1731C34.5161 91.6878 34.1259 91.222 33.7162 90.7741C33.133 90.1357 32.5076 89.5373 31.8442 88.9828C31.0577 88.3216 30.2117 87.7347 29.317 87.2295C28.3311 86.6721 27.2791 86.2405 26.1857 85.9451C26.0417 85.9069 25.8977 85.8731 25.7537 85.8392C25.6587 85.8176 25.6184 85.9631 25.7134 85.9832C26.8239 86.2405 27.8961 86.6413 28.903 87.1755C29.8184 87.6614 30.6847 88.2346 31.49 88.887C32.1734 89.4382 32.8179 90.0361 33.4188 90.6762C33.8549 91.1374 34.2672 91.6204 34.6543 92.1234C34.8235 92.3452 34.9762 92.5777 35.1418 92.8017L35.1483 92.811C35.2001 92.8924 35.3311 92.8168 35.2786 92.7347L35.28 92.7361Z"
    fill="#3D3397" />
  <path
    d="M30.991 86.1387L31.3121 88.3973L31.3574 88.717C31.3711 88.8135 31.5165 88.7724 31.5014 88.6774L31.181 86.4188L31.1357 86.0984C31.122 86.0026 30.9758 86.0436 30.9917 86.1387H30.991Z"
    fill="#3D3397" />
  <path
    d="M32.6881 87.6089L32.7896 89.6796L32.8048 89.9792C32.8091 90.0756 32.9603 90.0764 32.956 89.9792L32.8537 87.9077L32.8393 87.6089C32.8343 87.5117 32.6831 87.511 32.6881 87.6089Z"
    fill="#3D3397" />
  <path
    d="M37.3962 85.4109V85.3951C37.3912 85.4311 37.3962 85.3807 37.3998 85.3677C37.4077 85.3108 37.4164 85.2532 37.425 85.1963C37.4588 84.9803 37.497 84.7643 37.538 84.5483C37.682 83.7931 37.8613 83.045 38.0687 82.3048C38.3558 81.2765 38.7052 80.2667 39.1149 79.2808C39.5854 78.1403 40.1594 77.0454 40.8299 76.0098C41.5303 74.9197 42.3784 73.9318 43.3499 73.0744C43.8468 72.6417 44.3818 72.255 44.9483 71.9188C45.5762 71.5465 46.2616 71.2261 46.991 71.1267C47.4813 71.0547 47.999 71.1008 48.441 71.3427C48.8007 71.5432 49.0849 71.8557 49.2503 72.2327C49.583 72.9678 49.4915 73.9016 49.0005 74.5453C48.7679 74.8499 48.472 75.1156 48.1948 75.3769C47.8838 75.6693 47.5641 75.9529 47.2545 76.2453C46.7714 76.7039 46.2227 77.2446 46.0982 77.9293C45.9815 78.5709 46.2904 79.2196 46.6972 79.6998C46.9802 80.0339 47.4035 80.3291 47.4222 80.8065C47.4359 81.1398 47.3063 81.4725 47.1731 81.772C47.1342 81.8606 47.2646 81.9376 47.3034 81.8483C47.4474 81.5308 47.5806 81.1845 47.5742 80.8317C47.5694 80.6039 47.492 80.3837 47.3531 80.2031C47.2091 80.0123 47.0334 79.851 46.875 79.6739C46.6637 79.445 46.4932 79.1815 46.371 78.8949C46.2414 78.5802 46.1774 78.2469 46.253 77.9092C46.3363 77.5891 46.4914 77.2921 46.7066 77.0409C47.2271 76.3929 47.9018 75.8716 48.4979 75.2927C48.742 75.0558 49.0019 74.8153 49.1913 74.5324C49.3078 74.3587 49.4 74.17 49.4656 73.9715C49.5976 73.5675 49.6273 73.137 49.552 72.7187C49.4819 72.3041 49.2956 71.9179 49.0149 71.6048C48.7081 71.2764 48.3013 71.0587 47.8578 70.9856C47.2602 70.8827 46.6446 71.0007 46.0809 71.2059C45.381 71.4601 44.7302 71.8453 44.1253 72.2752C43.0523 73.052 42.1052 73.9894 41.3173 75.0544C40.5581 76.0746 39.9066 77.1708 39.3733 78.3253C38.8904 79.3603 38.479 80.4272 38.1421 81.5186C37.8815 82.3542 37.6607 83.2017 37.4797 84.0609C37.3912 84.4835 37.3098 84.9083 37.25 85.336C37.25 85.3612 37.2428 85.3864 37.24 85.408C37.2277 85.5038 37.3789 85.5031 37.3912 85.408L37.3962 85.4109Z"
    fill="#3D3397" />
  <path
    d="M38.3704 93.1329C38.4661 92.627 38.5958 92.1281 38.7585 91.6396C39.1393 90.4343 39.6461 89.2726 40.2705 88.1735C41.1058 86.6868 42.1786 85.3467 43.4464 84.2063C44.2223 83.5076 45.0784 82.9034 45.9966 82.4063C46.7312 82.0015 47.5251 81.715 48.3489 81.5574C49.4159 81.3695 50.6529 81.4681 51.5169 82.1953C51.8138 82.4349 52.0347 82.7556 52.1526 83.1184C52.3038 83.6317 52.1562 84.1984 51.8243 84.6109C51.4254 85.1056 50.8465 85.4073 50.3173 85.7399C50.0713 85.8837 49.8428 86.0555 49.6362 86.2518C49.4629 86.4359 49.3308 86.6549 49.2489 86.8941C49.0329 87.4643 48.9472 88.0742 48.7276 88.643C48.6338 88.9105 48.4885 89.1571 48.2999 89.3687C48.1005 89.5775 47.8338 89.7091 47.5468 89.7402C47.3061 89.7602 47.0645 89.7664 46.8232 89.759C46.6149 89.759 46.4073 89.7542 46.2004 89.7446C45.9273 89.7231 45.6533 89.7178 45.3796 89.7287C45.1805 89.739 44.9878 89.8024 44.8216 89.9123C44.6128 90.0563 44.5113 90.2802 44.3975 90.4984C44.2535 90.7749 44.0627 90.9916 43.7711 91.1183C43.4413 91.2623 43.0633 91.294 42.7113 91.348C42.0496 91.4495 41.3814 91.5971 40.8825 92.0766C40.5978 92.3648 40.3786 92.7108 40.2395 93.0911C40.2042 93.1811 40.3504 93.2207 40.3835 93.1315C40.5294 92.7311 40.7726 92.3733 41.0913 92.0903C41.3557 91.8775 41.6633 91.7247 41.9927 91.6425C42.3125 91.5637 42.6366 91.5032 42.9633 91.4611C43.3276 91.4049 43.7121 91.353 44.0296 91.1514C44.2816 90.9909 44.4349 90.754 44.5674 90.4926C44.6769 90.2766 44.7899 90.0858 45.0131 89.9735C45.1955 89.8944 45.3943 89.8601 45.5927 89.8734C45.921 89.8734 46.2486 89.9015 46.5762 89.9073C46.8297 89.9123 47.0802 89.9073 47.3373 89.903C47.5095 89.9033 47.6809 89.879 47.8463 89.831C48.1176 89.7393 48.3544 89.5667 48.5245 89.3363C48.8989 88.8467 49.0321 88.2081 49.1855 87.6242C49.2497 87.3454 49.3364 87.0724 49.4447 86.8077C49.5472 86.5774 49.7029 86.3748 49.899 86.2165C50.3814 85.8169 50.9646 85.5592 51.4578 85.1733C51.715 84.9821 51.9347 84.7451 52.1058 84.4741C52.2779 84.1827 52.3673 83.8499 52.3643 83.5115C52.354 83.141 52.2265 82.7832 52 82.4898C51.7271 82.1338 51.3694 81.8519 50.9596 81.6697C50.4465 81.4423 49.8914 81.325 49.3302 81.3256C48.5925 81.3286 47.8612 81.4625 47.1702 81.7208C46.2342 82.0542 45.3702 82.5525 44.5631 83.127C43.7727 83.6908 43.0405 84.3319 42.3772 85.0408C41.7889 85.6727 41.2532 86.3515 40.7752 87.0705C40.3498 87.7091 39.9671 88.3751 39.6297 89.0642C39.3445 89.6452 39.0905 90.241 38.8686 90.849C38.703 91.3012 38.5564 91.7594 38.4287 92.2235C38.3567 92.4777 38.2955 92.734 38.2437 92.9925C38.2372 93.0256 38.2307 93.0595 38.2249 93.0933C38.2084 93.1883 38.3538 93.2294 38.3689 93.1336L38.3704 93.1329Z"
    fill="#3D3397" />
  <path
    d="M39.1552 93.1508C39.1948 93.0587 39.2373 92.9687 39.2805 92.8787C39.3993 92.631 39.5246 92.3862 39.6542 92.1435C39.8522 91.7742 40.0617 91.4106 40.2799 91.052C40.5554 90.5994 40.8468 90.1559 41.154 89.7215C41.5058 89.2237 41.878 88.7413 42.2707 88.2743C42.702 87.7618 43.16 87.2724 43.643 86.8083C44.1518 86.3186 44.693 85.8638 45.263 85.4468C45.85 85.0178 46.4716 84.6383 47.1213 84.3121C47.7976 83.9729 48.5063 83.7025 49.2367 83.505C50.0085 83.2982 50.8012 83.1791 51.5997 83.15C51.8035 83.1428 52.0072 83.1421 52.211 83.1457C52.231 83.1457 52.2503 83.1377 52.2644 83.1235C52.2786 83.1094 52.2866 83.0901 52.2866 83.0701C52.2866 83.05 52.2786 83.0308 52.2644 83.0166C52.2503 83.0024 52.231 82.9945 52.211 82.9945C51.3946 82.9782 50.579 83.054 49.7796 83.2206C49.025 83.3801 48.2891 83.6176 47.5836 83.929C46.9053 84.2279 46.2547 84.5862 45.6396 84.9997C45.0451 85.3996 44.4794 85.8409 43.9468 86.3202C43.4379 86.7776 42.9554 87.2637 42.5018 87.776C42.0784 88.2519 41.6788 88.7487 41.3001 89.2614C40.968 89.7102 40.6528 90.1707 40.3548 90.6431C40.1119 91.0271 39.8805 91.4173 39.6607 91.8138C39.5066 92.0917 39.3583 92.3725 39.2186 92.6576C39.1531 92.7901 39.089 92.9233 39.0292 93.0587C39.0269 93.0648 39.0243 93.0708 39.0213 93.0767C38.9832 93.1645 39.1135 93.2423 39.1524 93.153L39.1552 93.1508Z"
    fill="#3D3397" />
  <path
    d="M48.6721 71.3794C48.5965 71.4399 48.5231 71.5033 48.4504 71.5673C48.2437 71.7473 48.0436 71.9331 47.8456 72.1217C47.536 72.4189 47.2343 72.7249 46.9405 73.0397C46.5565 73.4487 46.1857 73.8696 45.8281 74.3026C45.3961 74.8248 44.9816 75.3617 44.5847 75.9132C44.1325 76.544 43.7053 77.192 43.3031 77.8572C42.86 78.5912 42.4504 79.3436 42.074 80.1144C41.6625 80.9536 41.2934 81.8129 40.9681 82.6891C40.2473 84.6411 39.7584 86.671 39.5116 88.7371C39.4785 89.0098 39.4499 89.2826 39.4259 89.5558C39.4173 89.653 39.5699 89.6522 39.5771 89.5558C39.7649 87.4521 40.2036 85.3784 40.8839 83.3789C41.1881 82.483 41.539 81.6037 41.9351 80.7444C42.3008 79.95 42.7031 79.1739 43.1418 78.416C43.5373 77.732 43.9597 77.065 44.409 76.4151C44.805 75.8434 45.2209 75.2861 45.6568 74.7432C46.0254 74.2848 46.408 73.8377 46.8044 73.4019C47.1131 73.0635 47.4311 72.7333 47.7584 72.4112C47.9809 72.1952 48.207 71.9792 48.4403 71.7718C48.5447 71.6782 48.6563 71.5918 48.7593 71.4968L48.7729 71.4853C48.8493 71.4248 48.7412 71.3182 48.6664 71.3787L48.6721 71.3794Z"
    fill="#3D3397" />
  <path
    d="M42.0257 74.2393L42.3965 75.5807L42.9862 77.7084L43.1223 78.2001C43.1297 78.2167 43.1428 78.23 43.1592 78.2377C43.1756 78.2453 43.1942 78.2469 43.2116 78.242C43.2291 78.2371 43.2442 78.2261 43.2542 78.211C43.2643 78.196 43.2685 78.1778 43.2663 78.1598L42.8948 76.8184L42.3051 74.6901L42.169 74.199C42.1663 74.1896 42.1619 74.1807 42.1558 74.173C42.1497 74.1653 42.1422 74.1588 42.1336 74.154C42.1251 74.1492 42.1157 74.1461 42.1059 74.1449C42.0962 74.1438 42.0863 74.1445 42.0768 74.1472C42.0674 74.1498 42.0585 74.1543 42.0508 74.1604C42.0431 74.1664 42.0366 74.174 42.0318 74.1825C42.027 74.1911 42.0239 74.2005 42.0228 74.2103C42.0216 74.22 42.0223 74.2299 42.025 74.2393H42.0257Z"
    fill="#3D3397" />
  <path
    d="M40.7204 75.9551L41.1193 77.4987L41.7543 79.9553L41.8983 80.5148C41.9037 80.5339 41.9164 80.55 41.9337 80.5598C41.951 80.5695 41.9714 80.5719 41.9905 80.5666C42.0096 80.5612 42.0258 80.5485 42.0355 80.5313C42.0452 80.514 42.0477 80.4935 42.0423 80.4744L41.6435 78.9315L41.0084 76.4749L40.8644 75.9155C40.8592 75.8964 40.8466 75.8801 40.8294 75.8704C40.8121 75.8606 40.7917 75.858 40.7726 75.8633C40.7535 75.8685 40.7373 75.8811 40.7275 75.8984C40.7177 75.9156 40.7152 75.936 40.7204 75.9551Z"
    fill="#3D3397" />
  <path
    d="M47.3566 81.71L47.0823 83.9254L47.0434 84.2408C47.0312 84.3373 47.1831 84.3365 47.1946 84.2408L47.4689 82.0254L47.5078 81.71C47.5201 81.6136 47.3689 81.6143 47.3566 81.71Z"
    fill="#3D3397" />
  <path
    d="M45.8837 82.3422L45.613 84.765L45.5762 85.1042C45.5654 85.2006 45.7166 85.1999 45.7274 85.1042L45.9981 82.6814L46.0363 82.3394C46.0471 82.2422 45.8923 82.2429 45.8851 82.3394L45.8837 82.3422Z"
    fill="#3D3397" />
  <path
    d="M49.1192 87.6529L47.6331 87.015L45.2636 85.9984L44.7178 85.7644C44.6293 85.7262 44.5522 85.8565 44.6415 85.8947L46.1276 86.5326L48.4971 87.5521L49.0429 87.7861C49.1314 87.8243 49.2085 87.694 49.1192 87.6558V87.6529Z"
    fill="#3D3397" />
  <path
    d="M48.4668 89.2685L46.7216 88.5205L43.9409 87.3281L43.303 87.0553C43.2145 87.0171 43.1374 87.1474 43.2267 87.1856L44.972 87.9337L47.7526 89.126L48.3905 89.3989C48.4791 89.437 48.5561 89.3067 48.4668 89.2685Z"
    fill="#3D3397" />
  <path
    d="M11.536 93.1882H89.2578C90.3069 93.1882 91.3588 93.2084 92.4078 93.1882C92.4539 93.1882 92.5 93.1882 92.5461 93.1882C92.5661 93.1882 92.5854 93.1803 92.5995 93.1661C92.6137 93.1519 92.6217 93.1327 92.6217 93.1126C92.6217 93.0926 92.6137 93.0733 92.5995 93.0591C92.5854 93.045 92.5661 93.037 92.5461 93.037H14.825C13.7752 93.037 12.7233 93.0161 11.6743 93.037H11.536C11.516 93.037 11.4968 93.045 11.4826 93.0591C11.4684 93.0733 11.4604 93.0926 11.4604 93.1126C11.4604 93.1327 11.4684 93.1519 11.4826 93.1661C11.4968 93.1803 11.516 93.1882 11.536 93.1882Z"
    fill="#1F1D25" />
  <g opacity="0.55">
    <path opacity="0.55"
      d="M45.7893 52.6249H41.3577C40.8805 52.6249 40.4937 53.0117 40.4937 53.4889V53.5112C40.4937 53.9884 40.8805 54.3752 41.3577 54.3752H45.7893C46.2664 54.3752 46.6533 53.9884 46.6533 53.5112V53.4889C46.6533 53.0117 46.2664 52.6249 45.7893 52.6249Z"
      fill="#3D3397" />
  </g>
  <g opacity="0.29">
    <path opacity="0.29"
      d="M46.132 49.3675C46.1003 49.3611 46.0693 49.3539 46.0376 49.3452C45.8206 49.2905 45.5966 49.2685 45.3731 49.2797H30.7276C29.8742 49.2807 29.0553 49.6169 28.4473 50.2157C27.8389 50.7751 27.4617 51.5383 27.4617 52.3757V61.6874C27.4636 61.8599 27.5007 62.0302 27.5708 62.1878C27.6408 62.3454 27.7424 62.487 27.8692 62.604L27.8893 62.6234L27.9095 62.6421C28.1708 62.8899 28.5171 63.0283 28.8772 63.0288H47.2235C47.5986 63.0276 47.9579 62.8781 48.2231 62.6129C48.4884 62.3477 48.6379 61.9883 48.639 61.6133V54.985C49.2632 49.8809 46.4588 49.4374 46.132 49.3675Z"
      fill="#3D3397" />
  </g>
  <path
    d="M38.1255 62.1814V54.3427C38.1255 53.8267 38.1255 53.3105 38.1255 52.794C38.1224 52.0376 38.3464 51.2977 38.7685 50.67C39.1911 50.053 39.8254 49.5771 40.562 49.4151C40.7448 49.3754 40.9314 49.3554 41.1185 49.3553C41.1386 49.3553 41.1578 49.3473 41.172 49.3332C41.1862 49.319 41.1941 49.2998 41.1941 49.2797C41.1941 49.2597 41.1862 49.2404 41.172 49.2262C41.1578 49.2121 41.1386 49.2041 41.1185 49.2041H30.9788C30.1695 49.2041 29.3732 49.4201 28.713 49.8996C27.9152 50.4756 27.3889 51.3835 27.386 52.3793C27.386 52.6608 27.386 52.9423 27.386 53.2239V61.6608C27.385 62.0047 27.5135 62.3363 27.746 62.5896C27.9023 62.754 28.0907 62.8845 28.2995 62.9731C28.5083 63.0616 28.7331 63.1063 28.9599 63.1044H38.7908C38.8108 63.1044 38.8301 63.0965 38.8442 63.0823C38.8584 63.0681 38.8664 63.0489 38.8664 63.0288C38.8664 63.0088 38.8584 62.9895 38.8442 62.9754C38.8301 62.9612 38.8108 62.9532 38.7908 62.9532C38.384 62.946 38.1313 62.5587 38.1255 62.1814C38.1255 62.1613 38.1175 62.1421 38.1034 62.1279C38.0892 62.1138 38.0699 62.1058 38.0499 62.1058C38.0298 62.1058 38.0106 62.1138 37.9964 62.1279C37.9823 62.1421 37.9743 62.1613 37.9743 62.1814C37.9808 62.6422 38.3005 63.0958 38.7908 63.1044V62.9532H28.9671C28.2255 62.9532 27.5372 62.4226 27.5372 61.6464V52.3793C27.5383 51.9307 27.6485 51.4891 27.8583 51.0927C28.3724 50.1207 29.4056 49.4979 30.4863 49.3783C30.8037 49.3534 31.1221 49.3457 31.4403 49.3553H41.1185V49.2041C40.3604 49.2168 39.6362 49.5208 39.0961 50.053C38.5203 50.621 38.145 51.361 38.0269 52.1611C37.9881 52.4474 37.9715 52.7363 37.9772 53.0251V60.3742C37.9772 60.9675 37.9628 61.5622 37.9772 62.1555C37.9772 62.1641 37.9772 62.1727 37.9772 62.1814C37.9806 62.1986 37.9898 62.214 38.0034 62.2251C38.0169 62.2362 38.0338 62.2423 38.0513 62.2423C38.0688 62.2423 38.0858 62.2362 38.0993 62.2251C38.1128 62.214 38.1221 62.1986 38.1255 62.1814Z"
    fill="#1F1D25" />
  <path
    d="M34.3996 45.6941C34.2131 45.4968 33.9676 45.4832 33.7141 45.4832H31.0732C30.8363 45.4832 30.6095 45.494 30.3942 45.6135C30.1934 45.7256 30.0351 45.9008 29.9437 46.1118C29.8523 46.3229 29.8329 46.5582 29.8885 46.7814C29.9441 47.0046 30.0716 47.2033 30.2514 47.3468C30.4311 47.4903 30.6531 47.5707 30.8831 47.5755C31.0581 47.5755 31.233 47.5755 31.408 47.5755H33.1835L33.1079 47.5035V54.7034C33.1079 54.9562 33.1597 55.1974 33.3584 55.3766C33.4618 55.4709 33.589 55.5351 33.7262 55.5621C33.8635 55.5891 34.0055 55.5779 34.1368 55.5298C34.2682 55.4817 34.3838 55.3985 34.4711 55.2892C34.5585 55.1799 34.6141 55.0488 34.6321 54.9101C34.6414 54.8055 34.6438 54.7004 34.6393 54.5954V46.3875C34.6435 46.2912 34.6384 46.1948 34.6242 46.0995C34.5919 45.945 34.5136 45.804 34.3996 45.6948C34.3276 45.6272 34.2232 45.7337 34.293 45.8021C34.3537 45.86 34.4022 45.9295 34.4357 46.0064C34.4692 46.0833 34.487 46.1661 34.4881 46.2499C34.4881 46.3291 34.4881 46.4083 34.4881 46.4875V54.7344C34.4881 54.7596 34.4881 54.7848 34.4881 54.8064C34.4866 54.9321 34.447 55.0544 34.3747 55.1572C34.3023 55.26 34.2006 55.3385 34.0828 55.3824C33.6637 55.5322 33.2605 55.2024 33.2591 54.7769C33.2591 54.3686 33.2591 53.9604 33.2591 53.5529V47.4999C33.2589 47.4799 33.2509 47.4608 33.2367 47.4466C33.2226 47.4325 33.2035 47.4245 33.1835 47.4243H30.9875C30.6808 47.4243 30.3978 47.3357 30.1998 47.0859C30.0627 46.9072 29.9966 46.684 30.0143 46.4594C30.032 46.2349 30.1322 46.0248 30.2956 45.8698C30.4972 45.6826 30.7441 45.6344 31.0077 45.6344H33.5384C33.6863 45.6265 33.8345 45.6292 33.982 45.6423C34.101 45.6576 34.2109 45.7139 34.293 45.8014C34.36 45.872 34.4665 45.7654 34.3996 45.6941Z"
    fill="#1F1D25" />
  <path
    d="M34.3441 45.7481C34.2401 45.6359 34.096 45.5691 33.9431 45.5624C33.9193 45.5624 33.8956 45.5624 33.8711 45.5624H30.896C30.6414 45.5629 30.3973 45.6643 30.2172 45.8443C30.0371 46.0243 29.9356 46.2682 29.9348 46.5229V46.5423C29.9356 46.797 30.0371 47.041 30.2172 47.2211C30.3973 47.4012 30.6413 47.5027 30.896 47.5035H33.1835V54.8108C33.1805 54.9033 33.1961 54.9954 33.2295 55.0818C33.2628 55.1681 33.3131 55.2469 33.3775 55.3134C33.4419 55.3799 33.519 55.4327 33.6042 55.4688C33.6894 55.5049 33.781 55.5235 33.8736 55.5235C33.9661 55.5235 34.0578 55.5049 34.143 55.4688C34.2282 55.4327 34.3053 55.3799 34.3697 55.3134C34.434 55.2469 34.4844 55.1681 34.5177 55.0818C34.5511 54.9954 34.5667 54.9033 34.5637 54.8108V46.2485C34.5632 46.1546 34.5435 46.0617 34.5057 45.9756C34.4679 45.8896 34.4129 45.8121 34.3441 45.7481Z"
    fill="#1F1D25" />
  <g opacity="0.55">
    <path opacity="0.55"
      d="M37.0411 61.0237H29.8879C29.5589 61.0237 29.227 61.01 28.8987 61.0237H28.8843C28.8613 61.0237 28.8394 61.0328 28.8232 61.049C28.807 61.0652 28.7979 61.0871 28.7979 61.1101C28.7979 61.133 28.807 61.155 28.8232 61.1712C28.8394 61.1874 28.8613 61.1965 28.8843 61.1965H36.0381C36.3665 61.1965 36.6984 61.2101 37.0274 61.1965H37.0411C37.064 61.1965 37.086 61.1874 37.1022 61.1712C37.1184 61.155 37.1275 61.133 37.1275 61.1101C37.1275 61.0871 37.1184 61.0652 37.1022 61.049C37.086 61.0328 37.064 61.0237 37.0411 61.0237Z"
      fill="#1F1D25" />
  </g>
  <path
    d="M37.3083 93.037H35.2009L35.2765 93.109V63.4824C35.2833 63.3483 35.2833 63.214 35.2765 63.0799C35.2754 63.0629 35.2754 63.0458 35.2765 63.0288L35.2009 63.1044H37.3083L37.2363 63.0288V91.8914C37.2363 92.2809 37.2298 92.6712 37.2363 93.0614V93.1125C37.2363 93.1326 37.2443 93.1518 37.2585 93.166C37.2726 93.1802 37.2919 93.1881 37.3119 93.1881C37.332 93.1881 37.3512 93.1802 37.3654 93.166C37.3795 93.1518 37.3875 93.1326 37.3875 93.1125V64.2499C37.3875 63.8604 37.394 63.4694 37.3875 63.0799V63.0288C37.3864 63.0094 37.378 62.9912 37.3639 62.9778C37.3499 62.9645 37.3313 62.9569 37.3119 62.9568H35.2009C35.1821 62.9578 35.1644 62.9657 35.1511 62.979C35.1378 62.9923 35.1299 63.01 35.1289 63.0288V91.8914C35.1289 92.2809 35.1224 92.6712 35.1289 93.0614V93.1125C35.13 93.1313 35.138 93.1489 35.1513 93.1621C35.1645 93.1754 35.1822 93.1834 35.2009 93.1845H37.3083C37.3251 93.1808 37.3401 93.1715 37.3509 93.1581C37.3616 93.1446 37.3675 93.1279 37.3675 93.1107C37.3675 93.0935 37.3616 93.0769 37.3509 93.0634C37.3401 93.05 37.3251 93.0407 37.3083 93.037Z"
    fill="#1F1D25" />
  <path
    d="M45.7921 54.2995H43.573C42.835 54.2995 42.0956 54.3089 41.3576 54.2995C41.1661 54.2974 40.9818 54.2266 40.8382 54.1C40.6946 53.9734 40.6011 53.7994 40.5749 53.6098C40.5506 53.4285 40.5884 53.2443 40.6824 53.0874C40.7763 52.9304 40.9206 52.81 41.0919 52.7458C41.2152 52.7097 41.3439 52.6956 41.4721 52.704H44.9353C45.2161 52.704 45.4969 52.704 45.7777 52.704C45.921 52.7036 46.0618 52.7416 46.1855 52.814C46.3092 52.8864 46.4113 52.9906 46.4811 53.1158C46.5675 53.2776 46.5969 53.4637 46.5647 53.6442C46.5324 53.8247 46.4403 53.9891 46.3033 54.1109C46.1603 54.2342 45.978 54.3024 45.7892 54.3031C45.7691 54.3031 45.7499 54.3111 45.7357 54.3253C45.7215 54.3395 45.7136 54.3587 45.7136 54.3787C45.7136 54.3988 45.7215 54.418 45.7357 54.4322C45.7499 54.4464 45.7691 54.4543 45.7892 54.4543C45.9801 54.4519 46.1659 54.3924 46.3228 54.2835C46.4796 54.1746 46.6002 54.0212 46.669 53.8431C46.7251 53.6973 46.7443 53.5399 46.725 53.3849C46.7058 53.2299 46.6485 53.0821 46.5585 52.9545C46.4684 52.8269 46.3482 52.7235 46.2087 52.6534C46.0691 52.5833 45.9144 52.5488 45.7582 52.5528H42.2849C41.9804 52.5528 41.6758 52.5528 41.3713 52.5528C41.2251 52.5517 41.0806 52.5843 40.949 52.648C40.8174 52.7116 40.7022 52.8047 40.6124 52.92C40.4994 53.0699 40.4325 53.2495 40.4197 53.4367C40.4069 53.624 40.4489 53.8109 40.5404 53.9748C40.6236 54.1189 40.7431 54.2387 40.887 54.3223C41.0308 54.4059 41.1941 54.4504 41.3605 54.4515H45.7921C45.8122 54.4515 45.8315 54.4435 45.8458 54.4292C45.86 54.415 45.868 54.3956 45.868 54.3755C45.868 54.3554 45.86 54.336 45.8458 54.3218C45.8315 54.3075 45.8122 54.2995 45.7921 54.2995Z"
    fill="#1F1D25" />
  <g opacity="0.55">
    <path opacity="0.55"
      d="M36.1786 63.6624V90.9965C36.1786 91.3658 36.1728 91.7352 36.1786 92.1046C36.1786 92.1204 36.1786 92.137 36.1786 92.1528C36.1786 92.1728 36.1865 92.1921 36.2007 92.2062C36.2149 92.2204 36.2341 92.2284 36.2542 92.2284C36.2742 92.2284 36.2935 92.2204 36.3076 92.2062C36.3218 92.1921 36.3298 92.1728 36.3298 92.1528V64.8187C36.3298 64.4501 36.3363 64.08 36.3298 63.7106V63.6624C36.3298 63.6423 36.3218 63.6231 36.3076 63.6089C36.2935 63.5948 36.2742 63.5868 36.2542 63.5868C36.2341 63.5868 36.2149 63.5948 36.2007 63.6089C36.1865 63.6231 36.1786 63.6423 36.1786 63.6624Z"
      fill="#1F1D25" />
  </g>
  <path
    d="M47.2271 62.9532H29.1602C29.006 62.9595 28.8515 62.9554 28.6979 62.9409C28.4558 62.9056 28.2277 62.8054 28.0378 62.651C27.848 62.4966 27.7034 62.2938 27.6194 62.064C27.5632 61.8946 27.5366 61.7168 27.5409 61.5384V53.2037C27.5409 52.9877 27.5409 52.7659 27.5409 52.547C27.5418 52.1267 27.6256 51.7107 27.7874 51.3227C27.9492 50.9348 28.1859 50.5826 28.4839 50.2861C28.782 49.9897 29.1355 49.7549 29.5243 49.5952C29.9131 49.4355 30.3296 49.354 30.7499 49.3553H45.371C45.7913 49.3558 46.2074 49.439 46.5955 49.6004C46.9836 49.7617 47.3361 49.9979 47.6329 50.2955C47.9297 50.5931 48.165 50.9463 48.3253 51.3348C48.4855 51.7234 48.5677 52.1397 48.567 52.56V61.5737C48.5718 61.9341 48.4335 62.2818 48.1823 62.5404C47.9311 62.7991 47.5876 62.9475 47.2271 62.9532C47.2071 62.9532 47.1878 62.9611 47.1737 62.9753C47.1595 62.9895 47.1515 63.0087 47.1515 63.0288C47.1515 63.0488 47.1595 63.068 47.1737 63.0822C47.1878 63.0964 47.2071 63.1044 47.2271 63.1044C47.6245 63.0989 48.0037 62.9372 48.2828 62.6542C48.5618 62.3712 48.7183 61.9898 48.7182 61.5924C48.7182 61.3245 48.7182 61.0567 48.7182 60.7889V52.56C48.7196 51.672 48.3684 50.8197 47.7419 50.1904C47.1154 49.561 46.2647 49.206 45.3767 49.2034H30.7442C29.8691 49.2018 29.0281 49.5427 28.401 50.1531C27.774 50.7636 27.4108 51.5952 27.389 52.47C27.3839 52.686 27.389 52.9092 27.389 53.1288V61.5333C27.3848 61.7077 27.4068 61.8818 27.4545 62.0496C27.5239 62.2704 27.6431 62.4724 27.8028 62.6399C27.9626 62.8075 28.1587 62.9361 28.3761 63.0158C28.6144 63.1029 28.8534 63.1044 29.0997 63.1044H47.2271C47.2472 63.1044 47.2664 63.0964 47.2806 63.0822C47.2948 63.068 47.3027 63.0488 47.3027 63.0288C47.3027 63.0087 47.2948 62.9895 47.2806 62.9753C47.2664 62.9611 47.2472 62.9532 47.2271 62.9532Z"
    fill="#1F1D25" />
  <path
    d="M49.6124 17.4392C49.6125 17.3897 49.5997 17.3411 49.5752 17.2982C49.5507 17.2553 49.5154 17.2195 49.4728 17.1944L49.4217 17.1641L49.1373 16.9971L48.3647 16.5421L48.1754 16.4305C48.1582 16.42 48.1375 16.4167 48.1179 16.4214C48.0984 16.4262 48.0815 16.4385 48.071 16.4557C48.0605 16.4728 48.0572 16.4935 48.0619 16.5131C48.0667 16.5327 48.079 16.5496 48.0962 16.5601L49.2777 17.2548C49.3547 17.3002 49.4541 17.3362 49.4584 17.4377C49.4627 17.5392 49.6132 17.5356 49.6096 17.4377L49.6124 17.4392Z"
    fill="#1F1D25" />
  <path
    d="M40.7039 16.3808C40.2597 16.6349 39.8111 16.8848 39.3705 17.1447C39.2085 17.2404 39.2265 17.401 39.2265 17.5616V18.2096L39.2171 20.2903L39.2078 22.3128V22.8888C39.2078 22.9212 39.2078 22.9536 39.2078 22.986C39.2085 23.0457 39.2326 23.1027 39.2749 23.1448C39.3171 23.1869 39.3742 23.2108 39.4338 23.2114C39.7218 23.2243 40.0098 23.215 40.2942 23.2164L42.1749 23.2265L44.422 23.2395L46.4013 23.2503L47.4741 23.2567H47.5238C47.5438 23.2567 47.563 23.2488 47.5772 23.2346C47.5914 23.2204 47.5994 23.2012 47.5994 23.1811C47.5994 23.1611 47.5914 23.1419 47.5772 23.1277C47.563 23.1135 47.5438 23.1055 47.5238 23.1055L46.7937 23.1012L45.0153 23.0919L42.8135 23.0789L40.786 23.0681L39.5577 23.0609C39.4857 23.0609 39.3705 23.0832 39.359 22.9839C39.3518 22.8721 39.3518 22.7601 39.359 22.6483L39.3669 20.8707L39.377 18.6999C39.377 18.2772 39.377 17.8532 39.3827 17.4305C39.3791 17.4003 39.3844 17.3697 39.398 17.3424C39.4116 17.3152 39.4328 17.2925 39.459 17.2772C39.5397 17.2275 39.6239 17.1828 39.7067 17.1332L40.5988 16.622L40.7874 16.514C40.8047 16.5038 40.8173 16.4873 40.8223 16.4679C40.8274 16.4485 40.8246 16.4279 40.8144 16.4106C40.8043 16.3934 40.7878 16.3808 40.7684 16.3757C40.749 16.3707 40.7284 16.3735 40.7111 16.3836L40.7039 16.3808Z"
    fill="#1F1D25" />
  <path
    d="M48.2027 18.072L48.2142 16.2C48.2185 15.5139 48.2265 14.8277 48.2272 14.1423C48.2285 13.9126 48.139 13.6917 47.978 13.5278C47.8171 13.3639 47.5979 13.2703 47.3682 13.2675C47.1983 13.2675 47.0284 13.2675 46.8577 13.2675L44.3766 13.248L41.943 13.2329C41.7854 13.2329 41.627 13.2329 41.4693 13.2329C41.3549 13.2334 41.2416 13.2565 41.1362 13.3009C41.0307 13.3453 40.9351 13.4101 40.8548 13.4916C40.7745 13.5731 40.7111 13.6697 40.6683 13.7758C40.6254 13.8819 40.604 13.9955 40.6053 14.1099C40.6168 14.814 40.6391 15.5175 40.6557 16.2216L40.6859 17.5054L40.696 17.9172C40.6931 17.9688 40.6931 18.0205 40.696 18.072C40.7054 18.1404 40.7867 18.1685 40.84 18.1995L41.1654 18.3888L42.2382 19.008L44.2665 20.1888L44.3874 20.2608C44.399 20.2675 44.4122 20.2711 44.4256 20.2711C44.439 20.2711 44.4521 20.2675 44.4637 20.2608L45.7158 19.5408L47.7102 18.3982L48.1653 18.1376C48.1738 18.1325 48.1813 18.1259 48.1873 18.118C48.1933 18.1101 48.1977 18.1011 48.2002 18.0915C48.2027 18.0819 48.2033 18.0719 48.2019 18.0621C48.2006 18.0522 48.1973 18.0428 48.1923 18.0342C48.1873 18.0257 48.1806 18.0182 48.1727 18.0122C48.1648 18.0062 48.1558 18.0018 48.1462 17.9993C48.1366 17.9968 48.1266 17.9962 48.1168 17.9976C48.107 17.9989 48.0975 18.0022 48.0889 18.0072L46.8369 18.7272L44.8425 19.8699L44.3874 20.1312H44.4637L43.2282 19.4112L41.2677 18.2693L40.8148 18L40.8522 18.0648L40.8234 16.8596L40.7745 14.7924L40.7594 14.1617C40.7529 13.868 40.8695 13.5951 41.1424 13.454C41.2965 13.374 41.4549 13.3769 41.6205 13.3776H42.1965L44.129 13.3899L46.1925 13.4028L47.3524 13.41C47.5234 13.4074 47.6898 13.4657 47.8217 13.5746C47.9536 13.6834 48.0425 13.8356 48.0724 14.004C48.0857 14.1433 48.0879 14.2834 48.0789 14.4231L48.0623 16.344L48.0522 17.9849V18.072C48.0522 18.0921 48.0602 18.1113 48.0744 18.1255C48.0885 18.1397 48.1078 18.1476 48.1278 18.1476C48.1479 18.1476 48.1671 18.1397 48.1813 18.1255C48.1955 18.1113 48.2034 18.0921 48.2034 18.072H48.2027Z"
    fill="#1F1D25" />
  <path
    d="M47.5532 21.9219L46.5056 21.312L44.8352 20.3386L44.4507 20.1147V20.245L46.1672 19.2665L48.8881 17.7163L49.5159 17.3563L49.4245 17.3448C49.4965 17.4074 49.4627 17.6544 49.4627 17.7408V20.9376C49.4627 20.9577 49.4706 20.9769 49.4848 20.9911C49.499 21.0053 49.5182 21.0132 49.5383 21.0132C49.5583 21.0132 49.5776 21.0053 49.5917 20.9911C49.6059 20.9769 49.6139 20.9577 49.6139 20.9376V17.7739C49.6139 17.622 49.6542 17.3484 49.5318 17.2397C49.5196 17.2283 49.5041 17.2211 49.4876 17.219C49.471 17.2169 49.4542 17.2201 49.4396 17.2282L47.7239 18.2066L45.0001 19.7561L44.3715 20.1161C44.3604 20.1229 44.3511 20.1325 44.3447 20.1439C44.3383 20.1553 44.335 20.1682 44.335 20.1813C44.335 20.1943 44.3383 20.2072 44.3447 20.2186C44.3511 20.23 44.3604 20.2396 44.3715 20.2464L45.4191 20.857L47.0895 21.8311L47.474 22.0551C47.4914 22.0652 47.5121 22.068 47.5315 22.0629C47.551 22.0577 47.5676 22.0451 47.5777 22.0277C47.5878 22.0103 47.5906 21.9896 47.5855 21.9702C47.5804 21.9508 47.5677 21.9341 47.5503 21.924L47.5532 21.9219Z"
    fill="#1F1D25" />
  <g opacity="0.55">
    <path opacity="0.55"
      d="M41.647 15.3109H47.1003C47.1261 15.3109 47.1508 15.3006 47.169 15.2824C47.1872 15.2642 47.1975 15.2394 47.1975 15.2137C47.1975 15.1879 47.1872 15.1632 47.169 15.1449C47.1508 15.1267 47.1261 15.1165 47.1003 15.1165H41.647C41.6212 15.1165 41.5965 15.1267 41.5783 15.1449C41.56 15.1632 41.5498 15.1879 41.5498 15.2137C41.5498 15.2394 41.56 15.2642 41.5783 15.2824C41.5965 15.3006 41.6212 15.3109 41.647 15.3109Z"
      fill="#1F1D25" />
  </g>
  <g opacity="0.55">
    <path opacity="0.55"
      d="M41.647 16.4276H47.1003C47.1261 16.4276 47.1508 16.4173 47.169 16.3991C47.1872 16.3809 47.1975 16.3561 47.1975 16.3304C47.1975 16.3046 47.1872 16.2799 47.169 16.2616C47.1508 16.2434 47.1261 16.2332 47.1003 16.2332H41.647C41.6212 16.2332 41.5965 16.2434 41.5783 16.2616C41.56 16.2799 41.5498 16.3046 41.5498 16.3304C41.5498 16.3561 41.56 16.3809 41.5783 16.3991C41.5965 16.4173 41.6212 16.4276 41.647 16.4276Z"
      fill="#1F1D25" />
  </g>
  <g opacity="0.55">
    <path opacity="0.55"
      d="M41.647 17.5442H47.1003C47.1261 17.5442 47.1508 17.534 47.169 17.5158C47.1872 17.4975 47.1975 17.4728 47.1975 17.447C47.1975 17.4213 47.1872 17.3965 47.169 17.3783C47.1508 17.3601 47.1261 17.3499 47.1003 17.3499H41.647C41.6212 17.3499 41.5965 17.3601 41.5783 17.3783C41.56 17.3965 41.5498 17.4213 41.5498 17.447C41.5498 17.4728 41.56 17.4975 41.5783 17.5158C41.5965 17.534 41.6212 17.5442 41.647 17.5442Z"
      fill="#1F1D25" />
  </g>
  <g opacity="0.55">
    <path opacity="0.55"
      d="M41.7603 18.661H46.0421C46.0679 18.661 46.0926 18.6507 46.1109 18.6325C46.1291 18.6143 46.1393 18.5895 46.1393 18.5638C46.1393 18.538 46.1291 18.5132 46.1109 18.495C46.0926 18.4768 46.0679 18.4666 46.0421 18.4666H41.7603C41.7345 18.4666 41.7098 18.4768 41.6916 18.495C41.6733 18.5132 41.6631 18.538 41.6631 18.5638C41.6631 18.5895 41.6733 18.6143 41.6916 18.6325C41.7098 18.6507 41.7345 18.661 41.7603 18.661Z"
      fill="#1F1D25" />
  </g>
  <path
    d="M40.9682 18.0907L39.575 17.3138L39.3763 17.203C39.2906 17.1554 39.2143 17.2865 39.3 17.3333L40.6932 18.1102L40.8919 18.221C40.9769 18.2686 41.0532 18.1382 40.9682 18.0907Z"
    fill="#1F1D25" />
  <path
    d="M39.8219 26.856C41.5214 26.856 42.8992 25.4782 42.8992 23.7787C42.8992 22.0792 41.5214 20.7014 39.8219 20.7014C38.1224 20.7014 36.7446 22.0792 36.7446 23.7787C36.7446 25.4782 38.1224 26.856 39.8219 26.856Z"
    fill="#1F1D25" />
  <path
    d="M39.7284 22.829H39.719L39.2928 23.045C39.2808 23.0511 39.2675 23.0545 39.2541 23.0547C39.2406 23.055 39.2272 23.0521 39.215 23.0464C39.2028 23.0407 39.192 23.0323 39.1835 23.0218C39.175 23.0114 39.1691 22.9991 39.1661 22.9859L39.1121 22.7519C39.1077 22.7325 39.1099 22.7122 39.1184 22.6942C39.1269 22.6762 39.1411 22.6616 39.1589 22.6526L39.7781 22.3423C39.7904 22.3363 39.804 22.3331 39.8177 22.3329H40.1655C40.1772 22.3327 40.1888 22.3349 40.1997 22.3392C40.2106 22.3436 40.2204 22.3501 40.2288 22.3584C40.2371 22.3666 40.2437 22.3764 40.2481 22.3873C40.2526 22.3981 40.2548 22.4097 40.2547 22.4215L40.2699 25.133C40.27 25.1447 40.2679 25.1564 40.2635 25.1673C40.2592 25.1782 40.2527 25.1881 40.2444 25.1965C40.2362 25.2049 40.2264 25.2116 40.2155 25.2161C40.2047 25.2206 40.193 25.223 40.1813 25.223H39.8306C39.819 25.2232 39.8073 25.221 39.7965 25.2167C39.7856 25.2124 39.7757 25.206 39.7673 25.1978C39.759 25.1896 39.7523 25.1799 39.7477 25.1691C39.7431 25.1584 39.7407 25.1468 39.7406 25.1351L39.7284 22.829Z"
    fill="#F2F3F4" />
  <path
    d="M52.2261 31.8284L49.1416 33.2806L48.9875 27.0814C49.2114 26.7172 49.341 26.303 49.3648 25.8761C49.403 25.1662 49.5002 25.1389 49.6787 25.0085C49.8573 24.8782 50.4535 24.4505 50.3843 24.3101C50.3152 24.1697 50.2893 24.1208 50.2893 24.1208C50.2893 24.1208 50.6119 23.7838 50.4218 23.6557L50.231 23.5275C50.231 23.5275 50.4909 23.1322 50.2432 23.0955C49.9955 23.0588 49.102 23.0955 48.9875 23.156C48.8731 23.2165 48.1149 23.8673 48.1149 23.8673C48.1447 23.6647 48.2119 23.4694 48.3129 23.2913C48.467 23.0451 48.9055 22.3373 48.9055 22.3373C48.9055 22.3373 49.1215 21.6173 48.9055 21.7167C48.6895 21.816 48.3194 22.32 48.3194 22.32C48.3194 22.32 46.6562 24.2907 46.6511 24.6241C46.6461 24.9574 46.7469 26.6401 46.7469 26.6401L46.6504 29.2227L45.551 35.8827C45.551 35.8827 45.2932 37.9405 46.8909 38.3804C47.8759 38.7555 50.1244 37.5934 50.1244 37.5934L53.8842 36.1441C53.8842 36.1441 53.769 32.9041 52.2261 31.8284Z"
    fill="#AD262E" />
  <path
    d="M69.6063 35.2836L63.7498 39.6972C63.7498 39.6972 62.9326 40.1897 62.2687 39.8319C61.6049 39.474 61.1549 39.1565 60.5731 38.2774C59.9914 37.3983 54.1104 28.5646 54.1104 28.5646C54.1104 28.5646 54.0622 28.9592 53.3537 28.4645C52.6452 27.9699 52.6337 27.4659 52.6978 27.3845C52.7781 27.3091 52.8685 27.2451 52.9663 27.1945C52.9663 27.1945 52.4983 26.8388 52.6733 26.7747C52.8482 26.7106 52.9706 26.6588 52.9706 26.6588C52.9706 26.6588 52.651 26.2829 52.7871 26.2174C52.8915 26.1724 53.0014 26.1414 53.1139 26.1253L52.9922 26.0194L51.373 25.4521C51.373 25.4521 51.0655 25.0777 51.373 25.0085C51.6804 24.9394 53.7252 25.2634 54.6583 25.9323C55.5915 26.6012 55.7938 26.7963 56.5015 27.5825C57.2093 28.3688 62.7123 34.4643 62.7123 34.4643L66.1683 31.86C66.1683 31.86 68.6451 32.8673 69.6063 35.2836Z"
    fill="#AD262E" />
  <path
    d="M65.7974 26.5767C65.8996 26.5536 65.8816 26.1123 65.8816 26.1123L65.8032 23.0163C65.8032 23.0163 66.8587 22.5245 66.6859 21.6987C66.5131 20.8728 65.914 20.9902 65.914 20.9902C65.914 20.9902 65.8687 19.1477 65.0429 19.093C64.217 19.0383 62.9002 19.296 62.4646 19.296C62.029 19.296 60.9288 18.6992 60.998 19.3832C60.998 19.3832 60.8036 22.9284 61.1419 22.9781L63.6713 23.3511C63.6713 23.3511 63.0888 24.7911 62.8015 24.8631C62.5142 24.9351 62.2853 25.632 62.2853 25.632L62.2284 27.0303C62.2284 27.0303 62.9052 27.2024 63.0002 27.5717C63.0953 27.9411 63.0175 28.7842 63.4322 28.7828C63.847 28.7813 64.0298 28.6935 64.2386 28.1744C64.4474 27.6552 65.0421 26.7473 65.7974 26.5767Z"
    fill="#AD262E" />
  <path
    d="M66.4062 19.021C66.4228 18.6358 66.088 16.9603 64.697 16.6586C63.3059 16.357 62.0676 16.7422 61.3634 17.7977C60.9442 18.4292 60.7799 19.1961 60.9033 19.944C60.9559 20.2232 60.976 20.5076 60.9631 20.7914C60.9458 21.3026 61.0056 22.2134 60.9156 22.631C60.8256 23.0486 60.3756 23.9674 60.9156 24.6744C61.4556 25.3814 62.0042 25.8545 63.5306 25.4614C65.057 25.0682 65.6524 24.1373 65.6524 23.1962C65.6538 22.617 65.7041 22.039 65.8029 21.4682L66.407 21.1183C66.407 21.1183 66.389 19.4062 66.4062 19.021ZM62.7516 24.0854C62.0812 24.0854 61.9754 23.5814 61.9754 23.5814H63.3283C63.3283 23.5814 63.244 24.0854 62.7516 24.0854ZM65.3435 20.8087C65.3435 21.0247 65.1203 22.1674 64.6495 22.4258C64.1786 22.6843 63.8027 22.8852 63.3909 22.9298C62.9791 22.9745 63.0727 22.7772 62.6608 22.7297C62.249 22.6822 62.2497 23.0594 61.8256 23.0479C61.4016 23.0364 61.1438 22.8355 61.1438 22.4237V19.6589C61.1438 19.6589 61.5398 19.165 62.2886 19.4242C63.0374 19.6834 63.5212 19.4242 63.6731 19.3486C63.8251 19.273 64.4731 19.0001 64.9554 19.4119C65.4378 19.8238 65.3399 20.592 65.3399 20.808L65.3435 20.8087Z"
    fill="#1F1D25" />
  <path
    d="M62.2081 25.632L62.1584 26.856L62.1512 27.0324C62.1476 27.1296 62.2952 27.1296 62.3024 27.0324L62.3521 25.8084L62.3593 25.6327C62.3636 25.5355 62.2153 25.5355 62.2081 25.6327V25.632Z"
    fill="#1F1D25" />
  <path
    d="M66.0126 21.8966C66.0126 21.9067 66.0126 21.9168 66.0126 21.9276C66.0122 21.9324 66.0122 21.9372 66.0126 21.942C66.0126 21.9557 66.0126 21.9182 66.0126 21.9333C66.0126 21.9333 66.0126 21.9398 66.0126 21.9434C66.0098 21.9578 66.0062 21.9719 66.0018 21.9859L65.9932 22.0097C65.9932 22.0053 66.0004 21.9924 65.9932 22.0061L65.9867 22.0197L65.9723 22.0442L65.9637 22.0572L65.9593 22.0637C65.9536 22.0716 65.9493 22.0687 65.9593 22.0601C65.9512 22.0676 65.9439 22.0761 65.9377 22.0853L65.9118 22.1097L65.896 22.1234C65.8909 22.1277 65.8881 22.1234 65.901 22.1191C65.8983 22.1206 65.8959 22.1226 65.8938 22.1249L65.8549 22.1501C65.8398 22.1587 65.8247 22.1659 65.8096 22.1731L65.7973 22.1789C65.7923 22.1789 65.811 22.1738 65.7973 22.1789L65.7671 22.1897C65.7233 22.2044 65.6786 22.2159 65.6332 22.2242C65.6139 22.2296 65.5975 22.2424 65.5875 22.2597C65.5775 22.2771 65.5748 22.2977 65.5799 22.3171C65.5857 22.3362 65.5987 22.3523 65.6162 22.3621C65.6336 22.3719 65.6541 22.3746 65.6735 22.3696C65.8195 22.3509 65.955 22.2834 66.058 22.1781C66.1172 22.1106 66.154 22.0263 66.1631 21.9369C66.1645 21.9231 66.1645 21.9091 66.1631 21.8952C66.1625 21.8753 66.1544 21.8564 66.1403 21.8423C66.1263 21.8283 66.1074 21.8201 66.0875 21.8196C66.0681 21.8207 66.0499 21.8291 66.0365 21.8431C66.0232 21.8572 66.0156 21.8758 66.0155 21.8952L66.0126 21.8966Z"
    fill="#1F1D25" />
  <path
    d="M66.4828 21.1608C66.4756 20.4998 66.4648 19.8374 66.4784 19.1765C66.4822 18.5186 66.2632 17.8789 65.8571 17.3613C65.5732 16.9934 65.1703 16.7356 64.7173 16.632C64.1421 16.4973 63.5436 16.4973 62.9684 16.632C62.4427 16.7608 61.9654 17.0388 61.5939 17.4326C61.1729 17.8895 60.902 18.4644 60.8178 19.08C60.7711 19.3875 60.7752 19.7005 60.83 20.0066C60.9193 20.4617 60.8811 20.9282 60.8869 21.3883C60.8934 21.8851 60.9272 22.3963 60.7818 22.8751C60.6277 23.3791 60.4707 23.9378 60.6803 24.4534C60.7815 24.6736 60.9199 24.8747 61.0892 25.0481C61.214 25.1917 61.3562 25.3192 61.5126 25.4275C61.8855 25.6795 62.3377 25.7472 62.7798 25.7155C63.826 25.632 65.0478 25.1719 65.5237 24.1625C65.6138 23.9726 65.6748 23.7701 65.7044 23.562C65.7448 23.2776 65.7275 22.986 65.7433 22.698C65.7592 22.41 65.788 22.1177 65.8283 21.8297C65.8391 21.7512 65.8513 21.6734 65.8643 21.5957C65.8659 21.5777 65.869 21.5599 65.8736 21.5424C65.8931 21.5212 65.9143 21.5017 65.937 21.4841C66.0515 21.3746 66.2754 21.1723 66.4547 21.2486C66.6174 21.3206 66.6152 21.5834 66.608 21.7274C66.5864 22.1789 66.405 22.6735 65.9759 22.883C65.9331 22.9036 65.8885 22.9203 65.8427 22.9327C65.8304 22.9363 65.7584 22.9493 65.8031 22.9428C65.7838 22.9442 65.7658 22.9527 65.7525 22.9667C65.7392 22.9807 65.7316 22.9991 65.7311 23.0184L65.7613 24.2093L65.8096 26.0964L65.8204 26.5327C65.8204 26.6299 65.9744 26.6299 65.9716 26.5327L65.9377 25.344L65.8895 23.4569L65.8801 23.0184L65.8045 23.094C66.0441 23.0506 66.2596 22.9213 66.4108 22.7304C66.5704 22.529 66.677 22.2909 66.7211 22.0378C66.7657 21.8102 66.7981 21.5453 66.7081 21.3235C66.6834 21.2506 66.6354 21.1878 66.5715 21.1448C66.5077 21.1017 66.4315 21.0808 66.3546 21.0852C66.1343 21.101 65.9399 21.2666 65.7916 21.4157C65.7515 21.4481 65.7257 21.4948 65.7196 21.546C65.7066 21.618 65.6951 21.6958 65.6843 21.7714C65.6454 22.0421 65.6168 22.3142 65.5986 22.5878C65.5648 23.0918 65.6173 23.6016 65.3963 24.0746C65.1831 24.5063 64.8385 24.8592 64.412 25.0826C64.1413 25.2296 63.8535 25.3427 63.5552 25.4196C63.2537 25.5052 62.9432 25.5557 62.63 25.5701C62.2031 25.5823 61.7912 25.4772 61.4586 25.2C61.0986 24.9019 60.7645 24.4886 60.7328 24.0091C60.7229 23.7364 60.7595 23.4639 60.8408 23.2034C60.9071 23.008 60.9615 22.8086 61.0035 22.6066C61.0835 22.0759 61.0309 21.5266 61.0352 20.9945C61.0453 20.7167 61.0359 20.4386 61.0071 20.1621C60.9971 20.0815 60.9805 20.0023 60.9668 19.9224C60.7955 18.9144 61.2548 17.7941 62.0821 17.1993C62.5319 16.8862 63.0616 16.7078 63.6092 16.6853C63.9095 16.6699 64.2105 16.6892 64.5064 16.7429C64.7602 16.781 65.0046 16.867 65.2264 16.9963C65.8621 17.3844 66.2444 18.1749 66.3208 18.9007C66.3284 19.0008 66.3296 19.1014 66.3244 19.2017C66.3244 19.3838 66.3244 19.566 66.3244 19.7481C66.3244 20.1449 66.3244 20.5402 66.3301 20.939C66.3301 21.011 66.3301 21.0874 66.3301 21.1615C66.3301 21.1816 66.3381 21.2008 66.3523 21.215C66.3664 21.2291 66.3857 21.2371 66.4057 21.2371C66.4258 21.2371 66.445 21.2291 66.4592 21.215C66.4734 21.2008 66.4813 21.1816 66.4813 21.1615L66.4828 21.1608Z"
    fill="#1F1D25" />
  <path
    d="M61.2159 22.4705V19.7057L61.1936 19.759C61.2701 19.6736 61.3627 19.6042 61.4661 19.5548C61.5695 19.5054 61.6817 19.4769 61.7962 19.471C62.0633 19.4537 62.2959 19.5689 62.5522 19.6193C62.7726 19.6639 62.9994 19.6676 63.2211 19.6301C63.4861 19.5833 63.7035 19.4357 63.9577 19.3637C64.3897 19.2399 64.862 19.3392 65.0989 19.7525C65.2781 20.065 65.2789 20.4344 65.2666 20.7843C65.2521 21.0427 65.2037 21.2981 65.1226 21.5439C65.024 21.8628 64.8857 22.2502 64.5769 22.4201C64.3321 22.564 64.0764 22.6884 63.8122 22.7924C63.6956 22.8362 63.575 22.869 63.4522 22.8903C63.3508 22.9143 63.2449 22.9131 63.1441 22.8867C63.0842 22.8583 63.0267 22.8253 62.972 22.788C62.8844 22.7426 62.7892 22.7138 62.6912 22.7031C62.6058 22.6905 62.5187 22.6969 62.4361 22.7218C62.3535 22.7467 62.2773 22.7895 62.2131 22.8471C62.1559 22.9001 62.0914 22.9447 62.0216 22.9796C61.9274 23.0139 61.8259 23.0231 61.7271 23.0062C61.5485 22.9868 61.3671 22.9148 61.28 22.7492C61.2362 22.6597 61.2151 22.5607 61.2188 22.4612C61.2188 22.4411 61.2108 22.4219 61.1966 22.4077C61.1824 22.3935 61.1632 22.3856 61.1432 22.3856C61.1231 22.3856 61.1039 22.3935 61.0897 22.4077C61.0755 22.4219 61.0676 22.4411 61.0676 22.4612C61.0676 22.7448 61.1993 22.9889 61.4708 23.0955C61.6176 23.153 61.7764 23.1733 61.933 23.1545C62.0577 23.1338 62.1739 23.0778 62.2678 22.9932C62.3621 22.9169 62.4493 22.8442 62.5767 22.8392C62.7187 22.8373 62.8578 22.8796 62.9749 22.9601C63.242 23.1286 63.5933 23.0278 63.8684 22.9263C64.056 22.8547 64.2386 22.7705 64.4149 22.6743C64.5657 22.6084 64.7063 22.5214 64.8325 22.4158C65.0218 22.2315 65.1341 21.9723 65.2213 21.7275C65.3627 21.3352 65.432 20.9205 65.4257 20.5035C65.4307 20.2166 65.3641 19.933 65.2321 19.6783C65.1495 19.5337 65.0329 19.4114 64.8924 19.3219C64.7518 19.2325 64.5917 19.1786 64.4257 19.165C64.1648 19.1478 63.904 19.1989 63.6689 19.3133C63.489 19.4079 63.2942 19.4707 63.0929 19.4991C62.9107 19.5176 62.7266 19.5064 62.5479 19.4659C62.3521 19.4227 62.1692 19.3428 61.9669 19.3219C61.7067 19.2969 61.4463 19.367 61.2339 19.5192C61.1676 19.5675 61.069 19.6315 61.0661 19.7208C61.0618 19.8295 61.0661 19.9368 61.0661 20.0477V22.4676C61.0683 22.4858 61.0769 22.5025 61.0904 22.5148C61.104 22.5271 61.1215 22.534 61.1398 22.5344C61.158 22.5347 61.1758 22.5284 61.1898 22.5167C61.2038 22.505 61.213 22.4886 61.2159 22.4705Z"
    fill="#1F1D25" />
  <path
    d="M57.4001 28.3234C57.6881 27.9468 58.3606 27.8546 58.7926 27.7747C59.3944 27.6693 60.0024 27.6029 60.6127 27.576C60.8208 27.5652 61.0296 27.5566 61.2377 27.5544C61.4126 27.5544 61.6301 27.5839 61.7784 27.4702C61.8504 27.4169 61.8735 27.3305 61.9397 27.2758C62.1154 27.1318 62.4473 27.1598 62.6259 27.2815C62.9247 27.4853 63.0139 27.7855 63.0348 28.1261C63.0456 28.3046 62.9974 28.5466 63.1191 28.6949C63.2631 28.8734 63.6346 28.9454 63.8434 28.867C64.0522 28.7885 64.1523 28.5329 64.2415 28.3457C64.4309 27.9504 64.6224 27.5695 64.9457 27.2657C65.1797 27.0486 65.4394 26.861 65.719 26.707C65.8378 26.6407 65.922 26.5975 66.0567 26.7185C66.12 26.7746 66.1395 26.8754 66.2201 26.9165C66.3886 27.0014 66.5765 26.8488 66.7335 26.807C66.6744 26.8229 66.7558 26.807 66.7738 26.807C66.8393 26.7991 66.907 26.7991 66.9725 26.7955C67.6111 26.7646 68.252 26.7739 68.8899 26.8049C69.4176 26.8308 70.0289 26.8049 70.5185 27.0209C70.9124 27.1876 71.2817 27.4071 71.6165 27.6732C72.1566 28.1154 72.5727 28.6902 72.824 29.3414C73.0162 29.8296 73.184 30.4085 73.2077 30.9362C73.2229 31.307 73.1048 31.6915 72.9989 32.0422C72.8441 32.5591 72.6526 33.0653 72.4539 33.5664C71.9866 34.7436 71.466 35.8978 70.9685 37.0613C70.6323 37.8418 70.2003 38.6791 70.0635 39.528C69.9699 40.1162 70.0916 40.6894 70.3256 41.2272C70.4855 41.5661 70.6132 41.9192 70.7072 42.282C70.7792 42.6118 70.8944 43.092 70.687 43.4002C70.5567 43.5938 70.3104 43.6644 70.1038 43.7458C70.0913 43.7495 70.0799 43.7564 70.0708 43.7658C70.0617 43.7752 70.0552 43.7868 70.0519 43.7995C70.0486 43.8121 70.0485 43.8254 70.0518 43.8381C70.0551 43.8507 70.0616 43.8623 70.0707 43.8718C71.0376 44.771 70.8116 46.2074 70.7439 47.3962L70.5848 50.1674L70.3068 55.0231L69.9468 61.2792L69.5516 68.1912L69.1613 74.9967L68.8157 81.0324L68.5594 85.536L68.4312 87.7781C68.401 88.3001 68.5709 88.9423 68.0194 89.2426C67.6191 89.4586 67.1086 89.3967 66.6629 89.3967H61.8554C61.2564 89.3967 60.6401 89.4384 60.0418 89.3967C59.5442 89.3621 59.4341 88.9762 59.4362 88.5399C59.4362 88.308 59.4247 88.0755 59.4146 87.8444C59.3743 86.9616 59.3196 86.0796 59.2642 85.1983C59.1202 82.9001 58.9651 80.6026 58.799 78.3058C58.7335 77.3698 58.663 76.4338 58.5996 75.4978L58.3404 71.64L57.8954 65.0232L57.4778 58.8168C57.421 57.9636 57.3598 57.1111 57.3058 56.2572C57.1999 54.5767 57.1027 52.8962 57.0012 51.2172C56.9141 49.7772 56.8644 48.3271 56.7305 46.8893C56.6721 46.2643 56.6491 45.5933 56.814 44.9813C56.9256 44.5658 57.1841 44.1893 57.39 43.8149C57.4368 43.7292 57.3065 43.6529 57.2597 43.7386C57.0538 44.1166 56.7982 44.491 56.6794 44.9064C56.5037 45.5184 56.5217 46.1938 56.575 46.8223C56.6117 47.2543 56.639 47.6921 56.665 48.1277L57.053 54.5551C57.102 55.3572 57.1495 56.1593 57.2035 56.9614L57.5362 61.9078L58.0027 68.8428L58.3757 74.3868C58.4179 75.0262 58.4618 75.6653 58.5074 76.3042C58.6514 78.3303 58.7926 80.3568 58.9308 82.3839C59.0611 84.3279 59.2188 86.2719 59.28 88.2238C59.2872 88.4556 59.2541 88.7213 59.3009 88.9438C59.3786 89.3203 59.6918 89.5284 60.0612 89.5464C60.6955 89.5781 61.3392 89.5464 61.9742 89.5464H66.7752C67.2166 89.5464 67.6961 89.5896 68.0972 89.3722C68.684 89.0525 68.5659 88.3951 68.5803 87.8299C68.5868 87.5895 68.6084 87.349 68.622 87.1099L68.8164 83.7108L69.1203 78.336L69.4976 71.7401L69.9022 64.6841L70.2888 57.9269L70.615 52.2274L70.8375 48.3451C70.8641 47.8872 70.8807 47.3134 70.9282 46.9181C71.0535 45.8726 71.0002 44.5313 70.1744 43.7666L70.1412 43.8926C70.5401 43.735 70.88 43.5823 70.9332 43.1093C71.0204 42.3554 70.6452 41.6534 70.3781 40.9766C69.9584 39.9125 70.3392 38.9707 70.7381 37.9829C71.2234 36.7884 71.7605 35.6148 72.258 34.4254C72.6721 33.4346 73.1537 32.3921 73.3215 31.3222C73.387 30.9024 73.3021 30.5006 73.2056 30.0902C73.0751 29.4825 72.8308 28.905 72.4856 28.3882C72.0576 27.7896 71.4842 27.3099 70.8195 26.9942C70.6482 26.8985 70.4675 26.8208 70.2802 26.7624C70.0304 26.7026 69.7395 26.7091 69.4839 26.6904C69.0317 26.6563 68.5788 26.6357 68.1252 26.6285C67.6788 26.6213 67.164 26.5709 66.7219 26.6587C66.5247 26.6976 66.3886 26.8502 66.2107 26.676C66.0617 26.532 65.9796 26.4247 65.7521 26.5147C65.274 26.7026 64.7679 27.144 64.4842 27.5623C64.3553 27.763 64.2417 27.9731 64.1443 28.1909C64.0723 28.3385 64.009 28.5458 63.8844 28.6574C63.7015 28.8202 63.2695 28.7482 63.1954 28.5012C63.1601 28.3831 63.1889 28.2132 63.1803 28.0894C63.1464 27.6084 62.8872 27.0562 62.3299 27.031C62.0419 27.018 61.9051 27.1109 61.7287 27.2966C61.5782 27.4543 61.2643 27.4003 61.0534 27.4061C60.4776 27.4206 59.903 27.465 59.3318 27.5393C58.781 27.6113 58.1964 27.6962 57.6888 27.9346C57.5245 28.0032 57.3794 28.111 57.2662 28.2485C57.2064 28.3255 57.3382 28.4004 57.3965 28.3248L57.4001 28.3234Z"
    fill="#1F1D25" />
  <path
    d="M71.5155 34.1942L70.1568 35.2691C70.0848 35.3282 70.0078 35.3879 69.9322 35.447L69.9185 35.4578C69.9502 35.4362 69.8955 35.4664 69.8804 35.4707C69.8026 35.4916 69.7565 35.4376 69.7263 35.3735C69.6068 35.1251 69.5031 34.8407 69.3598 34.5902C69.0595 34.076 68.6878 33.607 68.256 33.197C67.8439 32.7849 67.3892 32.4178 66.8996 32.1019C66.7537 32.0086 66.6009 31.9268 66.4424 31.8571C66.352 31.8121 66.2546 31.7832 66.1544 31.7714C66.1362 31.7689 66.1178 31.7689 66.0997 31.7714C66.1198 31.7678 66.0932 31.811 66.1054 31.7836C66.1107 31.7703 66.1167 31.7573 66.1234 31.7447C66.1447 31.7086 66.1688 31.6742 66.1954 31.6418C66.2242 31.6043 66.2545 31.5698 66.2825 31.5295C66.3596 31.4272 66.4352 31.3243 66.5115 31.222C66.7649 30.8822 67.0241 30.5467 67.2977 30.2227C67.5713 29.8987 67.8557 29.5675 68.1927 29.309C68.254 29.2613 68.3187 29.2183 68.3864 29.1801C68.4713 29.1333 68.395 29.003 68.3101 29.0498C67.958 29.2449 67.67 29.5703 67.4057 29.867C67.0969 30.214 66.8089 30.5798 66.5281 30.947C66.4273 31.0804 66.3272 31.2143 66.2278 31.3487L66.1378 31.4704L66.122 31.4906C66.0778 31.5424 66.0376 31.5975 66.0017 31.6555C65.9557 31.7354 65.9204 31.8563 66.0269 31.9046C66.063 31.9179 66.1018 31.9223 66.14 31.9175C66.1521 31.9157 66.1645 31.9169 66.176 31.9211C66.2874 31.9473 66.3948 31.988 66.4957 32.0421C66.95 32.2667 67.3597 32.5857 67.7384 32.9176C68.2481 33.364 68.7262 33.8536 69.0934 34.4296C69.2786 34.7269 69.4369 35.0402 69.5664 35.3656C69.6233 35.5017 69.7054 35.6399 69.8768 35.6219C69.9583 35.6088 70.0337 35.5709 70.0928 35.5132L71.5875 34.331L71.63 34.2979C71.7063 34.2374 71.5983 34.1308 71.5227 34.1906L71.5155 34.1942Z"
    fill="#1F1D25" />
  <path
    d="M58.2294 34.9344C58.1435 35.2469 58.059 35.5589 57.976 35.8704C57.8075 36.5006 57.6438 37.1318 57.485 37.764C57.3611 38.2601 57.2229 38.7619 57.1502 39.2688C57.1397 39.3486 57.134 39.4289 57.1329 39.5093C57.1186 39.7696 57.0866 40.0287 57.0371 40.2847C56.95 40.7923 56.8528 41.2985 56.7729 41.8075C56.6958 42.3007 56.6411 42.8379 56.8276 43.3138C56.8946 43.5042 57.0207 43.6682 57.1876 43.7818C57.3467 43.8761 57.5247 43.9339 57.7089 43.951C57.8918 43.9747 58.0768 43.9776 58.2604 43.9963C58.3825 44.0122 58.5029 44.0387 58.6204 44.0755C58.8278 44.1339 59.0416 44.172 59.2526 44.2102C60.0403 44.3542 60.8366 44.4535 61.6336 44.5291C62.6097 44.6293 63.5911 44.6663 64.572 44.64C65.6995 44.6004 66.8284 44.4449 67.9437 44.28C68.6464 44.1735 69.3477 44.0539 70.0447 43.9128L70.1441 43.8919C70.2391 43.8725 70.1988 43.7263 70.1037 43.7479C69.6213 43.8495 69.1353 43.9351 68.6486 44.0165C67.5492 44.2008 66.4425 44.3499 65.3316 44.4485C64.3617 44.5234 63.3875 44.5234 62.4177 44.4485C61.5436 44.3887 60.671 44.2923 59.8055 44.1605C59.5175 44.1159 59.2295 44.0676 58.9466 44.0078C58.7529 43.9668 58.5614 43.8963 58.3648 43.8682C58.0134 43.8185 57.6138 43.8682 57.2949 43.6824C56.8816 43.4427 56.8391 42.8486 56.8578 42.4224C56.8794 41.9357 56.9838 41.4482 57.0688 40.9694C57.1588 40.4611 57.2726 39.9521 57.2848 39.4344C57.2957 39.2857 57.3197 39.1382 57.3568 38.9938C57.4101 38.7331 57.4713 38.4746 57.5332 38.2162C57.6873 37.579 57.8522 36.9439 58.0199 36.3103C58.1318 35.8893 58.2448 35.4684 58.359 35.0474L58.3763 34.9826C58.379 34.9732 58.3797 34.9633 58.3786 34.9535C58.3774 34.9438 58.3743 34.9344 58.3695 34.9258C58.3647 34.9173 58.3582 34.9097 58.3505 34.9037C58.3428 34.8976 58.3339 34.8931 58.3245 34.8905C58.315 34.8878 58.3051 34.8871 58.2954 34.8882C58.2856 34.8894 58.2762 34.8925 58.2677 34.8973C58.2591 34.9021 58.2516 34.9086 58.2455 34.9163C58.2395 34.924 58.235 34.9328 58.2323 34.9423L58.2294 34.9344Z"
    fill="#1F1D25" />
  <path
    d="M58.9315 44.0489C58.6258 44.5018 58.2628 44.9132 57.8515 45.2729C57.6707 45.4344 57.4755 45.579 57.2683 45.7049C57.251 45.715 57.2385 45.7316 57.2334 45.751C57.2283 45.7703 57.2312 45.7909 57.2413 45.8082C57.2514 45.8255 57.268 45.8381 57.2874 45.8431C57.3068 45.8482 57.3273 45.8453 57.3446 45.8352C57.9854 45.4522 58.5125 44.8784 58.9524 44.2808C58.9891 44.2311 59.0244 44.1807 59.0596 44.1288C59.1136 44.0475 58.9833 43.9719 58.9293 44.0525L58.9315 44.0489Z"
    fill="#1F1D25" />
  <path
    d="M62.4998 44.5773C62.4767 44.8725 62.4695 45.1706 62.4703 45.4672C62.4703 46.0029 62.4947 46.5523 62.6207 47.075C62.6791 47.3155 62.7647 47.5624 62.9239 47.7547C62.9714 47.8101 63.0463 47.759 63.0535 47.7007L63.1759 46.6473L63.3717 44.9661L63.4171 44.5773C63.4286 44.4808 63.2774 44.4816 63.2659 44.5773L63.1442 45.6307L62.9484 47.3119L62.903 47.7007L63.0319 47.6474C62.9078 47.4817 62.822 47.2907 62.7806 47.0879C62.7172 46.831 62.6756 46.5692 62.656 46.3053C62.6181 45.8291 62.6111 45.351 62.6351 44.874C62.6395 44.7746 62.6438 44.676 62.6517 44.5773C62.6596 44.4787 62.5077 44.4808 62.5005 44.5773H62.4998Z"
    fill="#1F1D25" />
  <path
    d="M67.8552 44.2757C68.4982 44.7041 69.1433 45.1325 69.7669 45.589C69.8389 45.6401 69.9073 45.6919 69.9742 45.7466C69.9965 45.7646 70.0174 45.7826 70.0383 45.8014C70.0445 45.8086 70.0512 45.8153 70.0585 45.8215C70.0657 45.8258 70.0585 45.8165 70.0513 45.8057C70.0851 45.8957 70.2313 45.8568 70.1953 45.7654C70.1593 45.6739 70.0225 45.5933 69.944 45.5342C69.7712 45.4046 69.5948 45.2801 69.4177 45.1562C69.0181 44.8769 68.6134 44.6033 68.2088 44.3318L67.9301 44.1454C67.8488 44.0914 67.7732 44.2224 67.8538 44.2757H67.8552Z"
    fill="#1F1D25" />
  <path
    d="M63.8381 89.4723L63.8216 88.3664L63.7755 85.3834L63.7071 80.9439L63.6243 75.564L63.5336 69.6312L63.4421 63.6833L63.36 58.0997L63.288 53.4125L63.2362 50.0192C63.2283 49.4871 63.2268 48.9543 63.2117 48.4222C63.2117 48.3984 63.2117 48.3754 63.2117 48.3502C63.2106 48.3308 63.2022 48.3126 63.1881 48.2992C63.1741 48.2859 63.1555 48.2784 63.1361 48.2782H62.2116C62.1915 48.2782 62.1723 48.2862 62.1581 48.3003C62.144 48.3145 62.136 48.3337 62.136 48.3538C62.136 48.3738 62.144 48.3931 62.1581 48.4073C62.1723 48.4214 62.1915 48.4294 62.2116 48.4294H63.1303L63.0583 48.3538L63.0756 49.4597L63.1217 52.4427L63.1894 56.8822L63.2722 62.262L63.3636 68.1948L63.4551 74.1428L63.5408 79.7264L63.6128 84.4128L63.6653 87.8069C63.6732 88.339 63.6747 88.8718 63.6898 89.4039C63.6898 89.4269 63.6898 89.4507 63.6898 89.4759C63.6898 89.4959 63.6978 89.5151 63.7119 89.5293C63.7261 89.5435 63.7454 89.5515 63.7654 89.5515C63.7855 89.5515 63.8047 89.5435 63.8189 89.5293C63.833 89.5151 63.841 89.4959 63.841 89.4759L63.8381 89.4723Z"
    fill="#1F1D25" />
  <path
    d="M68.9331 46.8201L68.8697 47.9433L68.6962 50.999L68.442 55.4832L68.1303 60.9897L67.7883 67.0226L67.4441 73.0908L67.1237 78.7493L66.8515 83.5474L66.6564 86.9854C66.6262 87.5283 66.5844 88.0726 66.5643 88.6162C66.5643 88.6399 66.5643 88.6637 66.5599 88.6882C66.5549 88.7854 66.7039 88.7854 66.7111 88.6882L66.7752 87.5657L66.948 84.5093L67.2022 80.0251L67.5147 74.52L67.8567 68.4871L68.2001 62.4189L68.5212 56.7605L68.7927 51.9624L68.9878 48.5244C69.0188 47.9815 69.0598 47.4372 69.08 46.8936L69.0843 46.8216C69.09 46.7244 68.9403 46.7244 68.9331 46.8216V46.8201Z"
    fill="#3D3397" />
  <path
    d="M59.8242 89.4528V89.99C59.829 90.0831 59.8156 90.1763 59.7846 90.2643C59.6291 90.6963 59.1301 90.8194 58.7536 90.9987C57.8385 91.4343 56.9356 91.9073 56.0594 92.4157C55.9108 92.4974 55.7666 92.5868 55.6274 92.6835C55.5028 92.7735 55.3394 92.9715 55.3919 93.1328C55.3965 93.1485 55.406 93.1623 55.4189 93.1722C55.4318 93.1822 55.4476 93.1878 55.4639 93.1882H60.2497C60.3462 93.1882 60.4456 93.1954 60.5377 93.1882C60.5562 93.1863 60.5742 93.1805 60.5903 93.1712C60.6064 93.1619 60.6204 93.1493 60.6313 93.1342L60.8567 92.8937L61.3967 92.3177L61.4341 92.2781L61.3052 92.2248V93.1148C61.3065 93.1341 61.315 93.1522 61.329 93.1655C61.343 93.1789 61.3615 93.1865 61.3808 93.1868H63.2766C63.296 93.1866 63.3146 93.1791 63.3286 93.1657C63.3427 93.1523 63.3511 93.1341 63.3522 93.1148V89.496C63.3522 89.476 63.3442 89.4568 63.33 89.4426C63.3159 89.4284 63.2966 89.4204 63.2766 89.4204C63.2565 89.4204 63.2373 89.4284 63.2231 89.4426C63.2089 89.4568 63.201 89.476 63.201 89.496V93.1126L63.273 93.0406H61.3859L61.4579 93.1126V92.2227C61.4574 92.2079 61.4527 92.1935 61.4443 92.1813C61.4359 92.1691 61.4242 92.1596 61.4105 92.1539C61.3968 92.1482 61.3818 92.1465 61.3672 92.1492C61.3526 92.1518 61.3391 92.1586 61.3283 92.1687L60.4967 93.0586L60.55 93.037H55.4654L55.5374 93.0924C55.5374 93.0831 55.5316 93.1018 55.5374 93.0924C55.5402 93.078 55.5419 93.0633 55.5424 93.0485C55.5638 92.976 55.6029 92.9099 55.6562 92.8563C55.6794 92.8322 55.7058 92.8114 55.7347 92.7944C55.8635 92.7058 56.0003 92.6273 56.1357 92.5489C56.5713 92.2961 57.0155 92.0578 57.4612 91.8238C57.9069 91.5898 58.359 91.3558 58.8162 91.1384C59.2057 90.9526 59.6802 90.8273 59.8869 90.4104C59.9443 90.296 59.9746 90.1699 59.9754 90.0418C59.9754 89.846 59.9754 89.6508 59.9754 89.455C59.9754 89.4349 59.9674 89.4157 59.9533 89.4015C59.9391 89.3874 59.9199 89.3794 59.8998 89.3794C59.8798 89.3794 59.8605 89.3874 59.8464 89.4015C59.8322 89.4157 59.8242 89.4349 59.8242 89.455V89.4528Z"
    fill="#1F1D25" />
  <path
    d="M63.981 89.4722V93.1125C63.9821 93.1312 63.9901 93.1488 64.0034 93.1621C64.0166 93.1753 64.0343 93.1833 64.053 93.1845H65.8112C65.8274 93.1839 65.8431 93.1782 65.856 93.1683C65.8689 93.1583 65.8784 93.1446 65.8832 93.1291L66.1618 92.2521L66.0358 92.286L66.4743 92.7367L66.7623 93.0348C66.8041 93.0772 66.8545 93.1543 66.9106 93.1787C66.9668 93.2032 67.0748 93.1787 67.1381 93.1787L67.6781 93.1672L69.3687 93.1312L71.1118 93.0945L71.7331 93.0816C71.8325 93.0816 71.9354 93.0815 72.0348 93.0751H72.0485C72.0649 93.0745 72.0807 93.0688 72.0936 93.0587C72.1065 93.0486 72.1159 93.0347 72.1205 93.0189C72.1464 92.9287 72.1366 92.832 72.0932 92.7487C72.0498 92.6655 71.976 92.6021 71.8872 92.5718C71.9124 92.5819 71.8786 92.5718 71.8692 92.5639L71.8145 92.538L71.6705 92.466C71.3357 92.3004 71.0038 92.129 70.6719 91.962C69.8391 91.5328 69.0075 91.1008 68.1771 90.666L67.5766 90.3521L67.614 90.4176L67.5665 89.4686C67.5615 89.3721 67.4103 89.3714 67.4153 89.4686L67.447 90.1008C67.452 90.1994 67.4549 90.2988 67.4621 90.3974C67.4619 90.4161 67.4666 90.4344 67.4757 90.4507C67.4848 90.467 67.498 90.4807 67.514 90.4903C67.5968 90.5429 67.6925 90.5832 67.7796 90.6285L68.3124 90.9072C69.2801 91.4112 70.2485 91.9152 71.2219 92.4127C71.3875 92.4969 71.5531 92.5812 71.7202 92.6618C71.7634 92.682 71.8073 92.7021 71.8512 92.7208C71.9001 92.7415 71.9396 92.7794 71.9623 92.8273C71.985 92.8753 71.9893 92.9299 71.9743 92.9808L72.0463 92.9253L70.3241 92.9613L67.568 93.0196L66.938 93.0333L66.9912 93.0549L66.1395 92.1787C66.1301 92.1696 66.1185 92.1631 66.1058 92.1598C66.0931 92.1565 66.0799 92.1566 66.0672 92.1599C66.0546 92.1632 66.043 92.1697 66.0336 92.1788C66.0242 92.1879 66.0173 92.1993 66.0135 92.2118L65.7421 93.0959L65.8141 93.0405H64.0566L64.1322 93.1125V89.4722C64.1322 89.4522 64.1242 89.4329 64.11 89.4188C64.0958 89.4046 64.0766 89.3966 64.0566 89.3966C64.0365 89.3966 64.0173 89.4046 64.0031 89.4188C63.9889 89.4329 63.981 89.4522 63.981 89.4722Z"
    fill="#1F1D25" />
  <path
    d="M54.8045 29.7058C54.4229 29.9458 54.0425 30.1887 53.6633 30.4344C53.2111 30.7253 52.765 31.0244 52.3248 31.3316C52.165 31.4439 51.977 31.5569 51.8539 31.7117C51.7711 31.8154 51.7603 32.0379 51.9454 32.022C52.0418 32.0141 52.0426 31.8629 51.9454 31.8708C51.9324 31.8708 51.9346 31.8708 51.9374 31.8752C51.9446 31.8539 51.9538 31.8334 51.9648 31.814C52.0124 31.7554 52.0679 31.7038 52.1297 31.6606C52.2787 31.5425 52.4378 31.4381 52.5926 31.3294C52.7474 31.2207 52.8943 31.1134 53.0491 31.0126C53.5265 30.6987 54.0081 30.392 54.4891 30.0852L54.8801 29.8361C54.9614 29.7843 54.8858 29.6532 54.8037 29.7058H54.8045Z"
    fill="#1F1D25" />
  <path
    d="M58.1546 34.7645C57.6563 34.9815 57.1574 35.1955 56.6577 35.4067C55.9017 35.7264 55.1457 36.0547 54.3753 36.3334C54.2661 36.3761 54.1546 36.4124 54.0412 36.4421C54.029 36.4457 53.9872 36.4507 54.0131 36.4493C53.9571 36.4524 53.9011 36.4433 53.849 36.4227C53.7699 36.393 53.7048 36.335 53.6661 36.2599C53.6575 36.2456 53.6445 36.2345 53.6291 36.2282C53.6136 36.222 53.5965 36.221 53.5804 36.2254L52.4882 36.6315L50.2202 37.4767L48.2762 38.2018C48.1502 38.2493 48.0227 38.3083 47.8931 38.3458L47.8715 38.3508C47.8614 38.3535 47.851 38.355 47.8406 38.3551L47.752 38.3645C47.5667 38.3801 47.3803 38.3777 47.1954 38.3573C46.9454 38.3323 46.7026 38.2589 46.4805 38.1413C46.2275 38.0013 46.0222 37.7889 45.8908 37.5315C45.6446 37.0642 45.6028 36.5076 45.6402 35.9892C45.6474 35.8755 45.6611 35.7624 45.6726 35.6494C45.6726 35.6285 45.6726 35.6681 45.6726 35.6494C45.6726 35.6307 45.6762 35.6292 45.6777 35.6184C45.682 35.5882 45.687 35.5579 45.6914 35.5277C45.7281 35.298 45.7634 35.0691 45.8044 34.8401C45.934 34.0615 46.0643 33.283 46.1954 32.5044C46.3271 31.7124 46.4596 30.9247 46.5863 30.1335C46.658 29.7552 46.7061 29.3729 46.7303 28.9887C46.7598 28.1902 46.8153 27.391 46.8268 26.5918C46.8326 26.1691 46.7793 25.7422 46.7498 25.321C46.7361 25.1316 46.7181 24.9408 46.7181 24.7515C46.7181 24.5355 46.8506 24.3475 46.9787 24.1791C47.1227 23.9861 47.2876 23.8047 47.4381 23.6139C47.5886 23.4231 47.7203 23.2481 47.8593 23.0638C48.1223 22.7153 48.3825 22.3654 48.6398 22.014C48.67 21.9723 48.7002 21.9305 48.7312 21.8895C48.7377 21.8801 48.7442 21.8707 48.7514 21.8621V21.8578C48.7254 21.8887 48.7514 21.8578 48.76 21.852C48.832 21.7959 48.9537 21.7563 48.9846 21.8736C48.988 21.9343 48.9772 21.995 48.953 22.0507C48.8291 22.4107 48.593 22.7412 48.377 23.0494C48.2209 23.2811 48.0903 23.529 47.9874 23.7888C47.9666 23.8399 47.9262 23.917 47.9586 23.971C47.991 24.025 48.0587 24.0106 48.1026 23.9796C48.2466 23.8795 48.3676 23.7334 48.4972 23.6153C48.6614 23.4663 48.8399 23.3028 49.0466 23.215C49.1606 23.1776 49.2801 23.1593 49.4001 23.161C49.557 23.1495 49.7147 23.1408 49.8724 23.1387C49.9667 23.1387 50.1035 23.1192 50.1928 23.1574C50.2648 23.1876 50.2907 23.3503 50.2302 23.4094C50.2043 23.4346 50.1712 23.4425 50.1582 23.4814C50.1513 23.4986 50.1498 23.5176 50.1539 23.5357C50.158 23.5539 50.1676 23.5703 50.1813 23.5829C50.2238 23.6254 50.2922 23.6311 50.3368 23.67C50.421 23.742 50.3368 23.886 50.2958 23.9638C50.2612 24.0057 50.2366 24.055 50.2238 24.1078C50.2187 24.1798 50.272 24.2208 50.2958 24.2835C50.3512 24.4159 50.2331 24.5067 50.141 24.5801C50.0488 24.6535 49.9444 24.7241 49.845 24.7961C49.7457 24.8681 49.6434 24.9401 49.5477 25.0179C49.4707 25.0742 49.4049 25.1445 49.354 25.2252C49.3293 25.2857 49.3178 25.3507 49.3202 25.416C49.3166 25.5096 49.3158 25.6032 49.3122 25.6968C49.3087 25.9622 49.2734 26.2261 49.2071 26.4831C49.1692 26.6244 49.112 26.7598 49.0372 26.8855C48.9998 26.946 48.9206 27.013 48.9134 27.0843C48.9094 27.2002 48.9123 27.3164 48.922 27.432L48.9695 29.3487L49.0322 31.8478L49.0775 33.6759L49.084 33.9466C49.084 33.9666 49.092 33.9859 49.1061 34C49.1203 34.0142 49.1396 34.0222 49.1596 34.0222C49.1797 34.0222 49.1989 34.0142 49.2131 34C49.2272 33.9859 49.2352 33.9666 49.2352 33.9466L49.2179 33.2626L49.1776 31.6282L49.1286 29.6417L49.0862 27.9303L49.0718 27.3629C49.0786 27.2729 49.0765 27.1825 49.0653 27.0929C49.0646 27.0889 49.0646 27.0847 49.0653 27.0807L49.043 27.1339C49.3382 26.7804 49.4274 26.3153 49.4562 25.8675C49.4663 25.7055 49.4634 25.542 49.4742 25.38C49.4822 25.2569 49.5887 25.1763 49.6902 25.0963C49.853 24.9675 50.0279 24.8559 50.1942 24.7306C50.3426 24.6183 50.5161 24.4793 50.4563 24.2683C50.4488 24.2433 50.4387 24.2192 50.4261 24.1963C50.4174 24.1791 50.3894 24.151 50.385 24.1323C50.3764 24.0941 50.4297 24.0358 50.4455 24.0005C50.4981 23.9103 50.5232 23.8067 50.5175 23.7024C50.511 23.6674 50.4972 23.6342 50.4772 23.6048C50.4571 23.5754 50.4311 23.5506 50.4009 23.5318C50.3836 23.521 50.2936 23.4598 50.2742 23.467C50.3058 23.4562 50.2792 23.5534 50.2835 23.5548C50.2878 23.5563 50.241 23.5548 50.29 23.5548C50.303 23.5548 50.3267 23.5296 50.3361 23.5203C50.3727 23.4845 50.3977 23.4386 50.4081 23.3885C50.425 23.2977 50.4092 23.2038 50.3634 23.1235C50.277 22.9716 50.0754 22.9911 49.9221 22.9911C49.6659 22.9913 49.4099 23.0059 49.1553 23.035C48.9938 23.0659 48.8429 23.1375 48.7168 23.2431C48.5636 23.3588 48.4177 23.4838 48.2798 23.6175C48.2222 23.6715 48.166 23.7262 48.1084 23.7795C48.0734 23.8063 48.0402 23.8354 48.009 23.8666C48.009 23.8666 48.0033 23.8666 48.0026 23.8702H48.0083C48.0436 23.8536 48.0731 23.8752 48.0983 23.9335C48.1026 23.9299 48.0926 23.9371 48.0983 23.9235C48.1095 23.8969 48.1192 23.8698 48.1271 23.8421C48.1595 23.7658 48.1991 23.6916 48.233 23.6182C48.297 23.49 48.3597 23.3583 48.4331 23.2351C48.5382 23.0602 48.6671 22.8975 48.7751 22.7239C48.8695 22.5766 48.9544 22.4234 49.0293 22.2653C49.0818 22.1515 49.1445 22.0183 49.1373 21.8895C49.1335 21.8487 49.1202 21.8093 49.0985 21.7745C49.0769 21.7398 49.0474 21.7105 49.0125 21.6891C48.9775 21.6678 48.9381 21.6548 48.8972 21.6513C48.8564 21.6479 48.8153 21.654 48.7773 21.6691C48.7059 21.7009 48.6446 21.7517 48.6002 21.816C48.4384 22.0378 48.2752 22.2591 48.1106 22.4799C47.8758 22.7952 47.6411 23.1106 47.3999 23.4216C47.3063 23.5419 47.212 23.6607 47.1119 23.7773C46.944 23.9604 46.7951 24.1602 46.6677 24.3735C46.5158 24.6564 46.5719 24.9747 46.5957 25.2821C46.6223 25.6695 46.659 26.0575 46.6734 26.4463C46.6828 26.6897 46.6655 26.9345 46.6562 27.1771C46.6403 27.5611 46.624 27.9439 46.6072 28.3255C46.595 28.6013 46.5798 28.8778 46.5741 29.1535C46.5714 29.2393 46.5625 29.3247 46.5474 29.4091C46.4754 29.893 46.3955 30.3754 46.3163 30.8578C46.203 31.5461 46.0886 32.2347 45.9729 32.9235C45.8692 33.5475 45.765 34.1698 45.6604 34.7904C45.6122 35.0784 45.5531 35.3751 45.5164 35.6695C45.4329 36.414 45.4444 37.2535 45.9254 37.8735C46.3739 38.4495 47.1832 38.5935 47.8737 38.5027C47.9334 38.4917 47.9916 38.4738 48.0472 38.4495L48.5282 38.268L50.1842 37.6503L52.0893 36.9411L53.4263 36.4435L53.6193 36.3715L53.5343 36.3363C53.5805 36.4205 53.6496 36.49 53.7335 36.5367C53.8174 36.5835 53.9129 36.6056 54.0088 36.6005C54.0928 36.5894 54.1751 36.5676 54.2536 36.5357C54.579 36.4263 54.9016 36.2959 55.2155 36.1671C56.032 35.838 56.8413 35.4931 57.6498 35.1454L58.2259 34.8955C58.3151 34.8567 58.2381 34.7263 58.1495 34.7645H58.1546Z"
    fill="#1F1D25" />
  <path
    d="M66.1285 31.7945L64.9585 32.6765L63.0959 34.0798L62.6718 34.3995C62.5948 34.4571 62.6718 34.5881 62.7481 34.5298L63.9181 33.6485L65.7807 32.2453L66.2048 31.9256C66.2819 31.8673 66.2048 31.7362 66.1285 31.7945Z"
    fill="#1F1D25" />
  <path
    d="M69.5681 35.218L68.3376 36.1476L65.899 37.9893L64.0802 39.3645C63.9622 39.4538 63.8542 39.5467 63.731 39.6223C63.472 39.7847 63.1728 39.8718 62.867 39.8735C62.4394 39.8735 62.0282 39.6719 61.6819 39.4336C61.278 39.155 60.9922 38.7856 60.733 38.3759C60.6552 38.2521 60.5738 38.1311 60.4932 38.0095C60.114 37.4335 59.7329 36.8587 59.3498 36.2851C58.7902 35.4484 58.231 34.6125 57.6722 33.7773L55.914 31.1371L54.4812 28.9886C54.2616 28.6589 54.0492 28.3233 53.821 27.9986C53.7828 27.9408 53.7279 27.896 53.6635 27.8703C53.5992 27.8445 53.5285 27.8391 53.461 27.8546C53.3659 27.8748 53.4063 28.0202 53.5013 27.9986C53.5353 27.9926 53.5704 27.9962 53.6025 28.0089C53.6347 28.0216 53.6627 28.043 53.6835 28.0706C53.6986 28.0886 53.6734 28.0577 53.6835 28.0706L53.7007 28.0973L53.7893 28.2297L54.1615 28.787C54.6012 29.448 55.0414 30.1085 55.482 30.7685C56.0609 31.6363 56.6393 32.5041 57.2172 33.372C57.7951 34.2398 58.3692 35.1024 58.9394 35.9596C59.3614 36.5947 59.783 37.2302 60.2045 37.8662C60.3161 38.0339 60.4277 38.2024 60.5378 38.3702C60.6764 38.5996 60.8298 38.8197 60.9972 39.029C61.2255 39.2954 61.4975 39.5211 61.8014 39.6964C62.1614 39.9031 62.561 40.0564 62.9815 40.0233C63.2786 39.9999 63.5654 39.904 63.8167 39.7439C63.8812 39.704 63.9428 39.6595 64.001 39.6107C64.0363 39.5812 63.9881 39.6194 64.0126 39.6007C64.4741 39.2457 64.9421 38.8987 65.4065 38.5473L67.8631 36.6926L69.5594 35.4117L69.6444 35.3469C69.7214 35.2893 69.6444 35.1576 69.5681 35.2166V35.218Z"
    fill="#1F1D25" />
  <path
    d="M63.2976 35.0403L62.8418 34.5327L61.6898 33.246L60.1368 31.518L58.5038 29.6993L57.0883 28.1225L56.207 27.144L56.063 26.982C56.0825 27.0036 56.0695 26.9899 56.0544 26.9705C56.0393 26.9511 56.0198 26.928 56.0025 26.9079C55.9237 26.817 55.8403 26.7303 55.7527 26.6479C54.9074 25.8444 53.8173 25.38 52.6992 25.0999C52.3147 25.0035 51.8971 24.9084 51.4975 24.9415C51.3701 24.9523 51.1706 24.9696 51.1526 25.1273C51.1386 25.1997 51.1454 25.2746 51.1721 25.3433C51.2299 25.4485 51.3229 25.5301 51.4349 25.5737C51.5808 25.6377 51.7301 25.6939 51.882 25.7422C52.2823 25.8797 52.6869 26.0064 53.0909 26.1317L53.3299 26.2037L53.3501 26.0554C53.1679 26.041 52.9029 26.0287 52.7539 26.1519C52.6293 26.2541 52.6934 26.3974 52.7611 26.5119C52.8218 26.6297 52.9146 26.7278 53.0289 26.7948L53.0873 26.6566C52.9433 26.6242 52.6977 26.5983 52.6207 26.7603C52.5235 26.9655 52.7647 27.1865 52.9303 27.2643L52.9483 27.126C52.8429 27.1516 52.7479 27.2089 52.6761 27.2902C52.548 27.4428 52.5991 27.6271 52.6877 27.7855C52.8864 28.1412 53.1917 28.5055 53.5581 28.692C53.6573 28.7494 53.7685 28.7825 53.8829 28.7888C53.9972 28.795 54.1114 28.7742 54.2162 28.728C54.3048 28.687 54.2277 28.5567 54.1399 28.5977C53.8001 28.7568 53.4386 28.4631 53.2154 28.2334C53.0908 28.105 52.9793 27.9643 52.8828 27.8136C52.8108 27.7071 52.7006 27.5515 52.7661 27.4212C52.791 27.3823 52.8235 27.3487 52.8616 27.3225C52.8997 27.2963 52.9426 27.2779 52.9879 27.2686C53.0021 27.2645 53.0147 27.2563 53.0244 27.2451C53.034 27.2339 53.0402 27.2202 53.0422 27.2055C53.0442 27.1909 53.0419 27.176 53.0355 27.1627C53.0292 27.1493 53.0192 27.1381 53.0066 27.1303C52.9563 27.1083 52.9094 27.079 52.8677 27.0432C52.8223 27.0043 52.7179 26.8942 52.7568 26.8272C52.7957 26.7603 52.98 26.7898 53.0448 26.8042C53.124 26.8222 53.1845 26.7048 53.1031 26.6659C53.0232 26.6198 52.9571 26.5532 52.9116 26.473C52.8605 26.3931 52.7748 26.293 52.89 26.2447C53.0268 26.1871 53.2025 26.1951 53.3479 26.2066C53.435 26.2131 53.4465 26.082 53.3681 26.0575C53.0973 25.9755 52.8271 25.8912 52.5573 25.8048C52.2089 25.6939 51.8417 25.596 51.509 25.4448C51.4176 25.4023 51.3009 25.3383 51.293 25.2245C51.2929 25.1951 51.2953 25.1657 51.3002 25.1367C51.3053 25.092 51.3002 25.1367 51.2959 25.1367C51.2858 25.1626 51.2865 25.1367 51.2959 25.1367C51.2772 25.1367 51.2959 25.1367 51.3096 25.1302C51.3233 25.1237 51.3024 25.1302 51.3312 25.1223C51.3485 25.1165 51.3657 25.1115 51.3837 25.1071C51.6624 25.0438 52.008 25.1071 52.2938 25.1633C53.4415 25.3887 54.5885 25.8343 55.4805 26.6076C55.6499 26.7502 55.8056 26.9084 55.9457 27.0799C55.9226 27.0504 55.9608 27.0972 55.9687 27.1059L56.0407 27.1879L56.8161 28.0519L58.1424 29.5301L59.7264 31.2991L61.2852 33.0358L62.5322 34.416L63.1622 35.1173L63.1903 35.149C63.2558 35.221 63.3624 35.1144 63.2976 35.0424V35.0403Z"
    fill="#1F1D25" />
  <path
    d="M49.2662 33.3008L50.3167 32.8076L51.946 32.0401C52.0547 31.9958 52.1609 31.9458 52.2643 31.8903C52.2643 31.9018 52.2197 31.8996 52.2189 31.8996C52.2292 31.9031 52.2398 31.9052 52.2506 31.9061C52.287 31.9167 52.322 31.9314 52.355 31.9501C52.5065 32.043 52.6377 32.1654 52.7409 32.31C52.9497 32.6027 53.1113 32.9263 53.2197 33.2691C53.3573 33.6586 53.471 34.0568 53.5718 34.4571C53.6633 34.8171 53.7461 35.1828 53.8044 35.5515C53.825 35.6725 53.8385 35.7946 53.8447 35.9172V35.9784C53.8497 36.0021 53.8526 36.0262 53.8533 36.0504C53.8411 36.1066 53.7461 36.1462 53.7007 36.1685C53.6619 36.1877 53.6217 36.2038 53.5805 36.2168C53.4883 36.2463 53.5279 36.3924 53.6208 36.3608C53.7453 36.3289 53.8591 36.2646 53.9505 36.1743C54.029 36.0843 54.0002 35.9518 53.9916 35.8402C53.9588 35.5076 53.9025 35.1777 53.8231 34.8531C53.7288 34.4319 53.6186 34.0136 53.4897 33.601C53.3905 33.2505 53.2596 32.9098 53.0988 32.5829C52.9368 32.2733 52.6833 31.9033 52.3428 31.7701C52.2951 31.7445 52.2394 31.7383 52.1873 31.7528C52.1498 31.7665 52.1153 31.7873 52.0771 31.8039L50.5428 32.5239C50.1007 32.7312 49.6471 32.9235 49.2136 33.1481L49.1899 33.1589C49.1013 33.2007 49.1783 33.331 49.2662 33.2892V33.3008Z"
    fill="#1F1D25" />
  <path
    d="M47.5922 23.354V21.3761C47.5922 21.3322 47.5922 21.2876 47.5922 21.2444C47.5934 21.182 47.6192 21.1227 47.664 21.0794C47.7088 21.0361 47.769 21.0123 47.8313 21.0132C48.2431 20.9988 48.6586 21.0132 49.0704 21.0132H50.4499C50.6062 21.0132 50.7264 21.096 50.7278 21.2645C50.7278 21.3639 50.7278 21.4632 50.7278 21.5626V26.5681C50.7278 26.671 50.7408 26.7797 50.6602 26.8604C50.5795 26.941 50.501 26.9273 50.4096 26.9273H49.1165C49.0964 26.9273 49.0772 26.9353 49.063 26.9495C49.0488 26.9637 49.0409 26.9829 49.0409 27.0029C49.0409 27.023 49.0488 27.0422 49.063 27.0564C49.0772 27.0706 49.0964 27.0785 49.1165 27.0785H50.4456C50.681 27.0785 50.8718 26.9381 50.8776 26.6883C50.8776 26.5969 50.8776 26.5054 50.8776 26.414V21.3293C50.8776 21.1637 50.8452 21.0039 50.6854 20.9124C50.5586 20.8404 50.3866 20.862 50.2447 20.862H47.8205C47.7303 20.8633 47.6434 20.8961 47.5748 20.9548C47.5063 21.0134 47.4605 21.0942 47.4454 21.1832C47.4319 21.3333 47.43 21.4842 47.4396 21.6346V23.354C47.4396 23.374 47.4476 23.3932 47.4617 23.4074C47.4759 23.4216 47.4951 23.4296 47.5152 23.4296C47.5352 23.4296 47.5545 23.4216 47.5687 23.4074C47.5828 23.3932 47.5908 23.374 47.5908 23.354H47.5922Z"
    fill="#1F1D25" />
  <path
    d="M63.5358 30.1744C63.6543 30.1744 63.7504 30.0784 63.7504 29.9599C63.7504 29.8414 63.6543 29.7454 63.5358 29.7454C63.4173 29.7454 63.3213 29.8414 63.3213 29.9599C63.3213 30.0784 63.4173 30.1744 63.5358 30.1744Z"
    fill="#3D3397" />
  <path
    d="M63.5358 31.2502C63.6543 31.2502 63.7504 31.1541 63.7504 31.0356C63.7504 30.9171 63.6543 30.821 63.5358 30.821C63.4173 30.821 63.3213 30.9171 63.3213 31.0356C63.3213 31.1541 63.4173 31.2502 63.5358 31.2502Z"
    fill="#3D3397" />
  <path
    d="M48.552 24.3633C48.6968 24.2025 48.861 24.0603 49.0409 23.94C49.3814 23.7081 49.7918 23.5382 50.2108 23.6001C50.3059 23.6145 50.3469 23.4684 50.2512 23.4561C49.8033 23.3892 49.3685 23.5432 48.9984 23.7888C48.794 23.9199 48.6078 24.0775 48.4447 24.2575C48.3813 24.3295 48.4879 24.4382 48.552 24.3648V24.3633Z"
    fill="#1F1D25" />
  <path
    d="M48.971 24.8984C49.2338 24.4764 49.7472 24.1157 50.267 24.1935C50.3621 24.2079 50.4031 24.0624 50.3066 24.0495C49.7537 23.9667 49.2583 24.2756 48.9278 24.6975C48.8955 24.7375 48.8652 24.779 48.8371 24.822C48.786 24.9048 48.9163 24.9812 48.9681 24.8984H48.971Z"
    fill="#1F1D25" />
  <g opacity="0.66">
    <path opacity="0.66"
      d="M59.8998 89.4528V90.0626C59.8998 90.0626 59.9193 90.5968 59.2389 90.864C58.5585 91.1311 55.775 92.6013 55.6007 92.8029C55.4265 93.0045 55.4654 93.1125 55.4654 93.1125H60.5522L61.3845 92.2226V93.1125H63.2802V89.496"
      fill="#1F1D25" />
    <path opacity="0.66"
      d="M64.0564 89.4722V93.1125H65.8146L66.094 92.2355L66.9458 93.1125L72.0578 93.0045C72.0578 93.0045 72.1298 92.7381 71.8907 92.6546C71.6517 92.571 67.5491 90.4226 67.5491 90.4226L67.5016 89.4736"
      fill="#1F1D25" />
  </g>
</svg>