<svg width="107" height="107" viewBox="0 0 107 107" fill="none" xmlns="http://www.w3.org/2000/svg">
  <path
    d="M39.029 31.1398V36.4013L39.1408 36.2895H33.1503L33.2621 36.4013V29.4617C33.2684 29.3674 33.2684 29.2728 33.2621 29.1784C33.2617 29.1742 33.2617 29.17 33.2621 29.1658L33.1503 29.2776H37.0498C37.0794 29.2776 37.1079 29.2658 37.1289 29.2448C37.1498 29.2239 37.1616 29.1954 37.1616 29.1658C37.1616 29.1361 37.1498 29.1077 37.1289 29.0867C37.1079 29.0657 37.0794 29.054 37.0498 29.054H33.1503C33.1207 29.0543 33.0925 29.0662 33.0716 29.0871C33.0507 29.108 33.0388 29.1362 33.0384 29.1658V35.5082C33.0384 35.8012 33.025 36.0971 33.0384 36.3894V36.4013C33.0388 36.4308 33.0507 36.4591 33.0716 36.4799C33.0925 36.5008 33.1207 36.5127 33.1503 36.5131H39.1408C39.1704 36.5127 39.1986 36.5008 39.2195 36.4799C39.2404 36.4591 39.2523 36.4308 39.2526 36.4013V31.1398C39.2526 31.1101 39.2409 31.0817 39.2199 31.0607C39.1989 31.0397 39.1705 31.028 39.1408 31.028C39.1112 31.028 39.0827 31.0397 39.0618 31.0607C39.0408 31.0817 39.029 31.1101 39.029 31.1398Z"
    fill="#DBE5F0" />
  <path
    d="M47.6777 41.4333H41.6871L41.7989 41.5451V34.6048C41.8053 34.5105 41.8053 34.4158 41.7989 34.3215C41.7986 34.3175 41.7986 34.3135 41.7989 34.3096L41.6871 34.4214H47.6777L47.5659 34.3096V40.6513C47.5659 40.9442 47.5524 41.2402 47.5659 41.5324V41.5451C47.5659 41.5748 47.5776 41.6032 47.5986 41.6242C47.6196 41.6451 47.648 41.6569 47.6777 41.6569C47.7073 41.6569 47.7358 41.6451 47.7568 41.6242C47.7777 41.6032 47.7895 41.5748 47.7895 41.5451V35.2026C47.7895 34.9097 47.8022 34.6137 47.7895 34.3215C47.7891 34.3175 47.7891 34.3135 47.7895 34.3096C47.7891 34.28 47.7772 34.2518 47.7563 34.2309C47.7354 34.21 47.7072 34.1981 47.6777 34.1978H41.6871C41.6575 34.1979 41.6292 34.2098 41.6083 34.2307C41.5873 34.2517 41.5755 34.28 41.5753 34.3096V40.6513C41.5753 40.9442 41.5619 41.2402 41.5753 41.5324V41.5451C41.5757 41.5746 41.5876 41.6029 41.6085 41.6237C41.6294 41.6446 41.6576 41.6565 41.6871 41.6569H47.6777C47.7073 41.6569 47.7358 41.6451 47.7568 41.6242C47.7777 41.6032 47.7895 41.5748 47.7895 41.5451C47.7895 41.5154 47.7777 41.487 47.7568 41.466C47.7358 41.4451 47.7073 41.4333 47.6777 41.4333Z"
    fill="#DBE5F0" />
  <path
    d="M54.5697 35.775H48.5791L48.6909 35.8869V28.9473C48.6977 28.853 48.6977 28.7584 48.6909 28.664C48.6906 28.6598 48.6906 28.6556 48.6909 28.6514L48.5791 28.7632H54.5697L54.4579 28.6514V34.9938C54.4579 35.2868 54.4452 35.5827 54.4579 35.8749V35.8869C54.4579 35.9165 54.4697 35.945 54.4906 35.9659C54.5116 35.9869 54.54 35.9987 54.5697 35.9987C54.5993 35.9987 54.6278 35.9869 54.6488 35.9659C54.6697 35.945 54.6815 35.9165 54.6815 35.8869V29.5452C54.6815 29.2522 54.6949 28.9563 54.6815 28.664V28.6514C54.6811 28.6218 54.6692 28.5936 54.6483 28.5727C54.6274 28.5518 54.5992 28.5399 54.5697 28.5396H48.5791C48.5496 28.5399 48.5214 28.5518 48.5005 28.5727C48.4796 28.5936 48.4677 28.6218 48.4673 28.6514V34.9938C48.4673 35.2868 48.4546 35.5827 48.4673 35.8749V35.8869C48.4677 35.9164 48.4796 35.9446 48.5005 35.9655C48.5214 35.9864 48.5496 35.9983 48.5791 35.9987H54.5697C54.5993 35.9987 54.6278 35.9869 54.6488 35.9659C54.6697 35.945 54.6815 35.9165 54.6815 35.8869C54.6815 35.8572 54.6697 35.8288 54.6488 35.8078C54.6278 35.7868 54.5993 35.775 54.5697 35.775Z"
    fill="#DBE5F0" />
  <path
    d="M61.9765 39.3244H55.9859L56.0977 39.4362V32.4966C56.1044 32.4021 56.1044 32.3072 56.0977 32.2126C56.0973 32.2086 56.0973 32.2047 56.0977 32.2007L55.9859 32.3125H61.9765L61.8647 32.2007V38.5431C61.8647 38.8353 61.852 39.1313 61.8647 39.4235V39.4362C61.8647 39.4658 61.8764 39.4943 61.8974 39.5152C61.9184 39.5362 61.9468 39.548 61.9765 39.548C62.0061 39.548 62.0346 39.5362 62.0556 39.5152C62.0765 39.4943 62.0883 39.4658 62.0883 39.4362V33.0938C62.0883 32.8015 62.1017 32.5056 62.0883 32.2126V32.2007C62.0879 32.1712 62.076 32.1429 62.0551 32.122C62.0342 32.1012 62.006 32.0893 61.9765 32.0889H55.9859C55.9563 32.0893 55.9281 32.1012 55.9072 32.122C55.8863 32.1429 55.8744 32.1712 55.874 32.2007V38.5431C55.874 38.8353 55.8614 39.1313 55.874 39.4235V39.4362C55.8744 39.4657 55.8863 39.4939 55.9072 39.5148C55.9281 39.5357 55.9563 39.5476 55.9859 39.548H61.9765C62.0061 39.548 62.0346 39.5362 62.0556 39.5152C62.0765 39.4943 62.0883 39.4658 62.0883 39.4362C62.0883 39.4065 62.0765 39.3781 62.0556 39.3571C62.0346 39.3361 62.0061 39.3244 61.9765 39.3244Z"
    fill="#DBE5F0" />
  <path
    d="M61.4006 32.1627V28.9087L61.2888 29.0205H66.6525L66.5407 28.9087V35.3071C66.5343 35.3942 66.5343 35.4816 66.5407 35.5687V35.5806L66.6525 35.4688H62.0492C62.0195 35.4688 61.9911 35.4806 61.9701 35.5016C61.9492 35.5225 61.9374 35.551 61.9374 35.5806C61.9374 35.6103 61.9492 35.6387 61.9701 35.6597C61.9911 35.6807 62.0195 35.6925 62.0492 35.6925H66.6525C66.682 35.6921 66.7102 35.6802 66.7311 35.6593C66.752 35.6384 66.7639 35.6102 66.7643 35.5806V29.7339C66.7643 29.4641 66.7762 29.1905 66.7643 28.9206C66.7639 28.9167 66.7639 28.9127 66.7643 28.9087C66.7639 28.8792 66.752 28.8509 66.7311 28.8301C66.7102 28.8092 66.682 28.7973 66.6525 28.7969H61.2888C61.2593 28.7973 61.2311 28.8092 61.2102 28.8301C61.1893 28.8509 61.1774 28.8792 61.177 28.9087V32.1627C61.177 32.1923 61.1888 32.2208 61.2098 32.2417C61.2307 32.2627 61.2592 32.2745 61.2888 32.2745C61.3185 32.2745 61.3469 32.2627 61.3679 32.2417C61.3889 32.2208 61.4006 32.1923 61.4006 32.1627Z"
    fill="#DBE5F0" />
  <path
    d="M42.4767 30.9422H37.1093L37.2211 31.054V24.6564C37.2275 24.5693 37.2275 24.4819 37.2211 24.3948C37.2208 24.3908 37.2208 24.3868 37.2211 24.3828L37.1093 24.4947H42.4767L42.3649 24.3828V30.2296C42.3649 30.4994 42.3522 30.773 42.3649 31.0429V31.054C42.3649 31.0837 42.3767 31.1121 42.3976 31.1331C42.4186 31.1541 42.447 31.1659 42.4767 31.1659C42.5064 31.1659 42.5348 31.1541 42.5558 31.1331C42.5767 31.1121 42.5885 31.0837 42.5885 31.054V25.2066C42.5885 24.936 42.6004 24.6631 42.5885 24.3933C42.5881 24.3893 42.5881 24.3853 42.5885 24.3814C42.5881 24.3518 42.5762 24.3236 42.5553 24.3027C42.5345 24.2818 42.5062 24.2699 42.4767 24.2695H37.1093C37.0798 24.2699 37.0516 24.2818 37.0307 24.3027C37.0098 24.3236 36.9979 24.3518 36.9975 24.3814V30.2281C36.9975 30.4979 36.9856 30.7715 36.9975 31.0414V31.0526C36.9979 31.0821 37.0098 31.1103 37.0307 31.1312C37.0516 31.1521 37.0798 31.164 37.1093 31.1644H42.4767C42.5039 31.1612 42.5291 31.1481 42.5473 31.1277C42.5655 31.1072 42.5756 31.0807 42.5756 31.0533C42.5756 31.0259 42.5655 30.9994 42.5473 30.9789C42.5291 30.9584 42.5039 30.9454 42.4767 30.9422Z"
    fill="#DBE5F0" />
  <path
    d="M35.9323 14.9021V28.527C35.9323 28.7112 35.927 28.896 35.9323 29.0809V29.1048C35.9323 29.1344 35.944 29.1629 35.965 29.1838C35.986 29.2048 36.0144 29.2166 36.0441 29.2166C36.0737 29.2166 36.1021 29.2048 36.1231 29.1838C36.1441 29.1629 36.1559 29.1344 36.1559 29.1048V15.4806C36.1559 15.2957 36.1603 15.1079 36.1559 14.9267C36.1559 14.9185 36.1559 14.9103 36.1559 14.9021C36.1559 14.8724 36.1441 14.844 36.1231 14.823C36.1021 14.8021 36.0737 14.7903 36.0441 14.7903C36.0144 14.7903 35.986 14.8021 35.965 14.823C35.944 14.844 35.9323 14.8724 35.9323 14.9021Z"
    fill="#DBE5F0" />
  <path
    d="M39.636 14.9021V23.1194C39.636 23.4973 39.6211 23.879 39.636 24.257V24.2726C39.636 24.3023 39.6478 24.3307 39.6688 24.3517C39.6897 24.3727 39.7182 24.3845 39.7478 24.3845C39.7775 24.3845 39.8059 24.3727 39.8269 24.3517C39.8479 24.3307 39.8596 24.3023 39.8596 24.2726V16.0553C39.8596 15.6774 39.8745 15.2957 39.8596 14.9178V14.9021C39.8596 14.8724 39.8479 14.844 39.8269 14.823C39.8059 14.8021 39.7775 14.7903 39.7478 14.7903C39.7182 14.7903 39.6897 14.8021 39.6688 14.823C39.6478 14.844 39.636 14.8724 39.636 14.9021Z"
    fill="#DBE5F0" />
  <path
    d="M44.5223 14.9021V33.4896C44.5223 33.7408 44.5178 33.9928 44.5223 34.2433C44.5223 34.2545 44.5223 34.2657 44.5223 34.2761C44.5223 34.3058 44.534 34.3342 44.555 34.3552C44.576 34.3761 44.6044 34.3879 44.6341 34.3879C44.6637 34.3879 44.6922 34.3761 44.7131 34.3552C44.7341 34.3342 44.7459 34.3058 44.7459 34.2761V15.6886C44.7459 15.4381 44.7511 15.1861 44.7459 14.9349V14.9021C44.7459 14.8724 44.7341 14.844 44.7131 14.823C44.6922 14.8021 44.6637 14.7903 44.6341 14.7903C44.6044 14.7903 44.576 14.8021 44.555 14.823C44.534 14.844 44.5223 14.8724 44.5223 14.9021Z"
    fill="#DBE5F0" />
  <path
    d="M51.2632 14.9036V28.0984C51.2632 28.2773 51.2587 28.4562 51.2632 28.6351C51.2632 28.6426 51.2632 28.65 51.2632 28.6582C51.2632 28.6879 51.275 28.7163 51.296 28.7373C51.3169 28.7583 51.3454 28.7701 51.375 28.7701C51.4047 28.7701 51.4331 28.7583 51.4541 28.7373C51.475 28.7163 51.4868 28.6879 51.4868 28.6582V15.4634C51.4868 15.2845 51.492 15.1056 51.4868 14.9267V14.9036C51.4868 14.8739 51.475 14.8455 51.4541 14.8245C51.4331 14.8035 51.4047 14.7917 51.375 14.7917C51.3454 14.7917 51.3169 14.8035 51.296 14.8245C51.275 14.8455 51.2632 14.8739 51.2632 14.9036Z"
    fill="#DBE5F0" />
  <path
    d="M58.6671 14.8916V31.4448C58.6671 31.6684 58.6619 31.8921 58.6671 32.1157V32.1448C58.6671 32.1744 58.6789 32.2029 58.6999 32.2238C58.7208 32.2448 58.7493 32.2566 58.7789 32.2566C58.8086 32.2566 58.8371 32.2448 58.858 32.2238C58.879 32.2029 58.8908 32.1744 58.8908 32.1448V15.5901C58.8908 15.3665 58.896 15.1429 58.8908 14.9192V14.8901C58.8908 14.8605 58.879 14.832 58.858 14.8111C58.8371 14.7901 58.8086 14.7783 58.7789 14.7783C58.7493 14.7783 58.7208 14.7901 58.6999 14.8111C58.6789 14.832 58.6671 14.8605 58.6671 14.8901V14.8916Z"
    fill="#DBE5F0" />
  <path
    d="M63.7577 15.0125V28.2393C63.7577 28.419 63.7525 28.5986 63.7577 28.7783V28.8014C63.7577 28.8311 63.7695 28.8595 63.7904 28.8805C63.8114 28.9014 63.8399 28.9132 63.8695 28.9132C63.8992 28.9132 63.9276 28.9014 63.9486 28.8805C63.9696 28.8595 63.9814 28.8311 63.9814 28.8014V15.5753C63.9814 15.3956 63.9866 15.2152 63.9814 15.0356V15.0125C63.9814 14.9828 63.9696 14.9544 63.9486 14.9334C63.9276 14.9124 63.8992 14.9006 63.8695 14.9006C63.8399 14.9006 63.8114 14.9124 63.7904 14.9334C63.7695 14.9544 63.7577 14.9828 63.7577 15.0125Z"
    fill="#DBE5F0" />
  <path
    d="M28.3293 15.0027H77.8442C78.0676 15.0146 78.2916 15.0146 78.5151 15.0027C78.5436 15.0008 78.5723 15.0008 78.6008 15.0027L78.489 14.8909V62.6874C78.489 63.3344 78.4786 63.9822 78.489 64.6301C78.489 64.6569 78.489 64.6837 78.489 64.7113C78.489 64.741 78.5008 64.7694 78.5218 64.7904C78.5427 64.8114 78.5712 64.8231 78.6008 64.8231C78.6305 64.8231 78.6589 64.8114 78.6799 64.7904C78.7009 64.7694 78.7126 64.741 78.7126 64.7113V16.9148C78.7126 16.2678 78.7231 15.6192 78.7126 14.9721C78.7126 14.9453 78.7126 14.9177 78.7126 14.8909C78.7123 14.8613 78.7004 14.8331 78.6795 14.8122C78.6586 14.7913 78.6304 14.7794 78.6008 14.7791H30.369C29.7182 14.7791 29.0666 14.7686 28.4158 14.7791H28.3293C28.2997 14.7791 28.2713 14.7908 28.2503 14.8118C28.2293 14.8328 28.2175 14.8612 28.2175 14.8909C28.2175 14.9205 28.2293 14.949 28.2503 14.9699C28.2713 14.9909 28.2997 15.0027 28.3293 15.0027Z"
    fill="#DBE5F0" />
  <path
    d="M67.6483 65.2935C62.2809 63.9159 57.9318 60.1192 53.5999 56.251L52.5481 58.4054L52.4802 58.9839L52.0501 60.1811L49.2382 61.2441C49.2382 61.2441 48.149 60.6522 47.7047 60.3138C47.5805 60.2249 47.4888 60.0978 47.4437 59.9518C47.3986 59.8059 47.4026 59.6492 47.455 59.5057L49.0503 56.5238C49.0503 56.5238 50.422 54.0489 50.5301 53.7656C50.5507 53.7104 50.588 53.663 50.6367 53.6299C49.3694 52.5348 48.0827 51.4785 46.7543 50.5176L48.492 53.0395L45.5101 55.4712L45.3103 57.9641L46.755 60.1065L50.1149 62.8156L52.1172 61.8532L54.6808 61.5252L58.1018 62.1022L58.6087 66.5332L58.7578 67.5769L59.0336 73.7427C59.0336 73.7427 59.2729 78.082 58.1659 79.0042C56.6414 79.9062 55.7059 79.116 55.7059 79.116C55.7059 79.116 55.9727 80.7128 55.9988 80.8671C56.0249 81.0214 56.4461 83.1512 56.5207 83.7148C56.5952 84.2784 56.1263 85.0455 56.1263 85.0455L58.1659 90.3047C58.1659 90.3047 58.2405 89.7128 58.4149 88.7519C58.529 88.1161 58.7444 86.9993 59.1156 85.6113C59.6181 83.7073 60.3516 81.4851 61.3908 79.4694C62.3525 77.5207 63.5989 75.5698 65.2076 73.9201C66.8544 72.2316 68.3177 71.1126 69.5783 70.4231C70.078 70.1291 70.6124 69.8984 71.1691 69.7365C72.8524 69.2214 74.0146 69.609 74.5804 70.3597C74.9628 70.7764 75.141 71.3065 75.1932 71.873C75.3391 72.5555 75.2858 73.2655 75.0396 73.9186C74.9792 74.0722 74.9211 74.2131 74.8637 74.345C74.8294 74.4635 74.7951 74.5783 74.7608 74.6872C74.6736 74.9608 74.4149 75.3238 74.0533 75.7375C73.9397 75.8747 73.8193 76.006 73.6925 76.1311C72.4834 77.4029 70.5914 78.9878 69.6767 79.9204C69.3465 80.311 69.0967 80.6807 68.9939 80.9923C68.9541 81.2054 68.9606 81.4245 69.0129 81.6348C69.0653 81.8451 69.1622 82.0417 69.2973 82.2112C69.2973 82.2112 69.7535 82.6257 70.2775 83.1274C70.4997 83.2866 70.7075 83.4649 70.8985 83.6604C71.1058 83.893 71.2862 84.098 71.4278 84.2881L71.4353 84.2955C72.1353 85.0745 71.4964 85.861 71.4964 85.861C72.3219 85.3929 73.2359 85.1017 74.1801 85.006C74.4931 84.9645 74.8101 84.9645 75.1231 85.006C75.4118 85.0322 75.6973 85.0857 75.9759 85.1655C76.5496 85.3247 77.0666 85.6431 77.4669 86.0839C77.839 86.4682 78.1027 86.9444 78.231 87.4638C78.4114 88.0549 78.4218 88.5708 78.3726 88.7572C78.2518 89.2186 78.1422 90.2481 76.0885 91.1181C74.0347 91.988 73.65 92.2415 73.1565 92.9631C72.9046 93.3314 72.7093 93.8897 72.5177 94.4831C72.2732 95.4 72.1218 96.2998 71.6179 96.7747C71.032 97.3263 70.4408 97.4627 69.7542 97.4001C69.1728 97.4255 68.8597 97.301 68.5093 97.1914C68.1999 97.0952 67.9666 96.9841 67.7355 96.9677H67.6788H67.6341H67.6088C67.47 96.9841 67.3377 97.0354 67.2241 97.1168C66.9925 97.2597 66.791 97.4463 66.6307 97.6663C66.4941 97.9044 66.3782 98.1538 66.2841 98.4117C66.2448 98.5689 66.183 98.7195 66.1007 98.859C66.0755 98.9163 66.0413 98.9691 65.9993 99.0155C65.9398 99.0669 65.8682 99.1023 65.7913 99.1184C65.6457 99.1785 65.4909 99.2133 65.3336 99.2213C64.8118 99.2608 64.3071 99.1192 63.8143 99.0021C63.6026 98.9656 63.3976 98.9276 63.2098 98.8911C62.4099 98.7375 61.9223 99.3562 61.7665 99.594L77.0568 99.5679C80.972 97.1757 84.2193 91.2649 85.1825 86.1726C86.1456 81.0803 87.7521 68.827 67.6483 65.2935ZM46.6022 58.6342C45.9559 58.6074 45.8344 57.6741 45.8344 57.6741H47.6742C47.5758 58.0073 47.2485 58.6611 46.6022 58.6342Z"
    fill="#EDF2F8" />
  <path
    d="M48.633 94.1688C47.9032 94.1107 48.2096 95.3019 48.2171 95.5621C48.2238 95.8006 48.1895 99.0658 48.1835 99.6219H49.0781C49.0602 99.0427 48.9536 95.58 48.9551 95.3429C48.9625 95.0828 49.0841 94.1688 48.633 94.1688Z"
    fill="#EDF2F8" />
  <path
    d="M35.3687 99.248C35.1503 99.0587 34.1558 99.3047 33.5751 99.3815C32.9944 99.4583 32.9042 99.1109 32.8669 98.9946C32.8297 98.8783 32.6932 98.3192 32.2422 98.0732C31.7912 97.8272 31.704 98.1321 30.4598 98.2484C29.2156 98.3647 29.0017 96.8625 28.6468 95.7756C28.292 94.6887 26.8823 94.3548 25.9281 93.8732C24.9739 93.3916 24.6504 91.7687 26.0683 90.7422C27.4861 89.7157 29.5257 90.9129 29.5257 90.9129C29.5257 90.9129 29.3155 90.7929 29.3155 90.321C29.3155 89.8492 30.2928 89.1044 30.8639 88.5968C31.4349 88.0891 30.9384 87.451 30.7237 87.1543C30.509 86.8576 29.2686 85.7603 28.2883 84.8657C27.308 83.9711 26.4246 81.3754 28.0281 80.6292C29.6316 79.883 31.3193 81.4492 33.1718 82.964C35.0243 84.4788 36.5831 88.347 37.1899 90.1086C37.7967 91.8701 38.3663 95.9687 38.3663 95.9687C38.3663 95.9687 38.3841 95.7451 38.578 94.1699C38.7718 92.5947 40.2053 88.6765 40.2053 88.6765C40.2053 88.6765 41.653 85.7983 41.5546 85.7908C41.4562 85.7834 41.1275 85.3025 41.0239 84.7166C40.9202 84.1307 41.527 82.384 41.527 82.384L41.8088 80.3765C41.8088 80.3765 36.352 77.0897 34.7269 77.0278C33.1018 76.966 32.2094 73.1514 32.2094 73.1514C32.2094 73.1514 29.4385 66.7791 29.1493 65.8697C28.6699 65.1145 29.2544 64.0403 29.2544 64.0403C29.9887 63.2784 31.5713 62.8393 31.9537 63.0093C32.1029 63.2751 32.2664 63.5327 32.4435 63.7809L34.829 68.5466L38.6585 65.9837C38.6585 65.9837 43.2237 62.9504 44.3151 61.4513C45.4065 59.9521 44.8257 56.7488 44.8257 54.5683C44.8257 52.3878 46.7513 50.5197 46.7543 50.5167C41.7164 46.8729 36.0672 44.6089 28.4784 46.8393C23.7819 48.2192 19.6252 50.9968 16.442 54.7167C-0.897589 74.9785 23.0021 99.6685 23.0021 99.6685L35.7064 99.6461C35.6109 99.4998 35.4975 99.3661 35.3687 99.248Z"
    fill="#EDF2F8" />
  <path opacity="0.29"
    d="M49.0818 99.6206C49.0818 99.6736 49.0818 99.7026 49.0818 99.7026L57.5704 99.6937V99.6042L49.0818 99.6206Z"
    fill="#EDF2F8" />
  <path opacity="0.29"
    d="M61.7107 99.6891C61.7107 99.6891 61.7286 99.6541 61.7644 99.5981H61.7509C61.7359 99.6277 61.7225 99.6581 61.7107 99.6891Z"
    fill="#EDF2F8" />
  <path opacity="0.29"
    d="M35.7383 99.6897L48.1839 99.7031C48.1839 99.7031 48.1839 99.674 48.1839 99.6226L35.7085 99.6434C35.7279 99.6718 35.7383 99.6897 35.7383 99.6897Z"
    fill="#EDF2F8" />
  <path opacity="0.29" d="M46.7551 50.5161L46.7544 50.5168H46.7551V50.5161Z" fill="#EDF2F8" />
  <path opacity="0.29" d="M57.5732 99.7031L61.7128 99.689L57.5732 99.6934V99.7031Z" fill="#EDF2F8" />
  <path
    d="M31.5567 62.9274C31.2264 62.2647 30.6822 61.7328 30.0121 61.4178C29.5069 61.0787 28.983 60.7683 28.4429 60.4882C28.4429 60.4882 26.2259 59.4729 25.7786 59.5825C25.3313 59.6921 25.9351 60.1654 25.9351 60.1654C25.9351 60.1654 26.8424 60.5009 27.0615 60.7737C27.2203 60.9803 27.3648 61.1975 27.4939 61.4238C27.4939 61.4238 26.5382 61.7443 25.666 61.6258C24.7938 61.5073 23.0613 60.9318 23.0613 60.9318C23.0613 60.9318 22.5328 60.7432 22.5693 61.0764C22.6059 61.4096 23.8948 61.9709 23.8948 61.9709L22.6491 62.12C22.6491 62.12 22.3121 62.3042 22.658 62.5599C23.0039 62.8156 24.9213 62.6911 24.9213 62.6911L25.6228 62.6709C25.6228 62.6709 26.2937 62.8834 26.6396 62.8849C26.9855 62.8864 27.9315 62.9184 28.1745 63.034C28.4175 63.1495 28.9744 63.5439 29.0892 63.6743C29.1703 63.7695 29.2462 63.8691 29.3166 63.9725C29.3166 63.9725 31.2429 62.8983 31.5567 62.9274Z"
    fill="#FFBFC3" />
  <path
    d="M49.8217 54.0243C49.6242 53.6769 49.6547 52.7905 49.6547 52.7905C49.6547 52.7905 48.5783 53.4614 47.633 53.6344C46.6878 53.8073 45.126 53.612 45.126 53.612C45.126 53.612 45.1432 53.9341 45.1186 55.6583C45.094 57.3826 45.2848 58.1929 45.7365 59.1099C46.1883 60.0268 47.352 60.0849 47.352 60.0849L47.478 59.3767L50.114 54.6363C50.0327 54.425 49.935 54.2203 49.8217 54.0243ZM46.6855 58.6626C45.9557 58.7371 45.8342 57.6741 45.8342 57.6741H47.674C47.674 57.6741 47.5369 58.5709 46.6855 58.6626Z"
    fill="#FFBFC3" />
  <path opacity="0.39"
    d="M52.7086 58.3734L54.0199 55.5346C54.0199 55.5346 54.04 55.2789 53.8872 55.1313C53.6814 54.9338 51.1163 53.6195 51.1163 53.6195C51.1163 53.6195 50.7435 53.3899 50.4841 53.9848C50.2247 54.5797 47.5582 59.4409 47.5582 59.4409C47.5582 59.4409 47.3561 59.8434 47.5164 60.1662C47.6767 60.489 49.3055 61.2583 49.3055 61.2583L52.1264 60.0335L52.52 59.1256L52.7086 58.3734Z"
    fill="#1F1D25" />
  <path opacity="0.39" fill-rule="evenodd" clip-rule="evenodd"
    d="M51.1342 53.5868L51.1339 53.5866C51.1329 53.586 51.1316 53.5853 51.1299 53.5843C51.1266 53.5825 51.1218 53.58 51.1158 53.5771C51.1037 53.5713 51.0865 53.564 51.0651 53.5573C51.0223 53.5439 50.962 53.5327 50.8924 53.542C50.7502 53.5612 50.5831 53.6642 50.4499 53.9698C50.321 54.2653 49.5907 55.6273 48.891 56.9181C48.5415 57.5629 48.2001 58.1891 47.9461 58.6541C47.819 58.8866 47.7139 59.0788 47.6405 59.2129C47.6038 59.2799 47.575 59.3324 47.5554 59.3682L47.5255 59.4227L47.5254 59.4229C47.5254 59.4229 47.5254 59.4229 47.5581 59.4408L47.5254 59.4229L47.5251 59.4235L47.5248 59.4241L47.5581 59.4408C47.5248 59.4241 47.5248 59.4241 47.5248 59.4241L47.5247 59.4243L47.5245 59.4246L47.524 59.4256C47.5236 59.4265 47.523 59.4278 47.5222 59.4294C47.5206 59.4327 47.5184 59.4374 47.5157 59.4435C47.5102 59.4557 47.5027 59.4733 47.4942 59.4954C47.4773 59.5395 47.4564 59.6018 47.4407 59.6746C47.4094 59.8192 47.3974 60.0104 47.4829 60.1828C47.5064 60.2301 47.5542 60.2814 47.6148 60.334C47.6763 60.3873 47.7544 60.4448 47.8427 60.504C48.0194 60.6224 48.2391 60.7495 48.4532 60.866C48.6673 60.9827 48.8764 61.0891 49.0318 61.1664C49.1096 61.2051 49.174 61.2365 49.2189 61.2582C49.2414 61.269 49.259 61.2775 49.2711 61.2832L49.2848 61.2898L49.2892 61.2919L49.2895 61.292C49.2895 61.292 49.2895 61.292 49.2924 61.2859L49.2895 61.292L49.3048 61.2992L52.1547 60.0618L52.5553 59.1375L52.7438 58.3858L54.0564 55.5441L54.057 55.5375L54.0198 55.5346C54.057 55.5375 54.057 55.5375 54.057 55.5375L54.057 55.5373L54.057 55.5371L54.0571 55.5364L54.0572 55.5338C54.0573 55.5316 54.0575 55.5285 54.0576 55.5246C54.0579 55.5167 54.0581 55.5055 54.0578 55.4916C54.0573 55.4639 54.0549 55.4254 54.0475 55.382C54.0328 55.2959 53.9976 55.1861 53.913 55.1044L53.9129 55.1044C53.8837 55.0763 53.8173 55.0321 53.7284 54.9778C53.638 54.9226 53.5205 54.8548 53.3856 54.7792C53.1158 54.628 52.7755 54.445 52.4419 54.2683C52.1083 54.0916 51.7811 53.9211 51.5374 53.7948C51.4155 53.7316 51.3145 53.6795 51.2439 53.6431C51.2086 53.625 51.1809 53.6108 51.1621 53.6011L51.1342 53.5868ZM53.983 55.5254C53.983 55.5244 53.9831 55.5232 53.9831 55.522C53.9834 55.5153 53.9835 55.5054 53.9833 55.493C53.9828 55.4681 53.9807 55.4335 53.974 55.3945C53.9606 55.3158 53.9295 55.224 53.8613 55.1581C53.839 55.1367 53.7802 55.0967 53.6896 55.0414C53.6003 54.9869 53.4837 54.9196 53.3491 54.8442C53.0801 54.6934 52.7405 54.5108 52.4071 54.3342C52.0737 54.1576 51.7467 53.9872 51.5031 53.861C51.3813 53.7978 51.2803 53.7457 51.2098 53.7094C51.1745 53.6913 51.1469 53.6771 51.128 53.6674L51.0992 53.6526C51.0992 53.6526 51.0992 53.6526 51.1162 53.6194L51.0992 53.6526L51.0979 53.6519L51.0968 53.6512L51.0967 53.6512L51.0963 53.651C51.0959 53.6507 51.0951 53.6503 51.094 53.6497C51.0918 53.6484 51.0883 53.6466 51.0836 53.6443C51.0742 53.6399 51.0603 53.6339 51.0428 53.6284C51.0075 53.6174 50.9585 53.6084 50.9024 53.6159C50.7934 53.6306 50.6444 53.7103 50.5182 53.9996C50.3877 54.299 49.655 55.6651 48.9565 56.9536C48.607 57.5985 48.2655 58.2248 48.0115 58.6898C47.8845 58.9224 47.7793 59.1146 47.7058 59.2487C47.6691 59.3157 47.6404 59.3683 47.6208 59.404L47.5911 59.4581L47.591 59.4584L47.5895 59.4615C47.5882 59.4642 47.5862 59.4685 47.5837 59.474C47.5788 59.4851 47.5718 59.5015 47.5638 59.5222C47.5479 59.5636 47.5283 59.6221 47.5135 59.6903C47.4838 59.8277 47.475 59.9992 47.5497 60.1496C47.5663 60.183 47.6045 60.2263 47.6636 60.2776C47.7219 60.3282 47.7973 60.3837 47.8843 60.4421C48.0581 60.5586 48.2756 60.6844 48.4888 60.8006C48.7019 60.9166 48.9101 61.0226 49.065 61.0997C49.1425 61.1382 49.2066 61.1694 49.2514 61.1911C49.2737 61.2019 49.2913 61.2103 49.3032 61.216L49.3062 61.2174L52.098 60.0052L52.4845 59.1135L52.6732 58.3609L53.983 55.5254Z"
    fill="#1F1D25" />
  <path
    d="M47.4726 63.5588C47.4726 63.5588 47.6917 62.1424 47.644 61.5729C47.5963 61.0033 47.436 60.1021 47.436 60.1021L49.2252 61.1942C49.2252 61.1942 49.5077 61.7697 49.6367 62.0403C49.7656 62.3109 50.0675 62.5569 50.0675 62.5569L50.3053 63.7638C50.3053 63.7638 49.4853 64.2529 48.8703 64.2335C48.2553 64.2141 47.4845 63.7787 47.4726 63.5588Z"
    fill="#FFBFC3" />
  <path
    d="M50.5676 65.2114L50.0644 62.5546C50.0644 62.5546 49.3339 61.5966 49.1937 61.0636C49.0536 60.5306 48.9537 59.5615 48.9365 59.4474C48.9194 59.3334 48.5638 58.0668 48.5362 57.9788C48.5086 57.8909 48.3871 57.3825 48.7106 57.4175C49.0342 57.4525 49.1758 58.1704 49.1758 58.1704C49.1758 58.1704 48.7449 56.4558 48.9902 56.4946C49.143 56.5169 49.2865 56.5819 49.404 56.6821C49.5215 56.7824 49.6083 56.9138 49.6544 57.0612C49.767 57.425 49.1602 55.8252 49.4867 55.7551C49.8132 55.685 50.1136 56.1457 50.1136 56.1457C50.1136 56.1457 49.5918 55.0074 49.9414 54.9664C50.291 54.9254 50.303 55.0685 50.3723 55.19C50.4416 55.3115 51.4741 57.1052 51.5308 57.2774C51.5874 57.4496 52.0414 60.0684 52.0414 60.0684L52.359 59.0687C52.359 59.0687 52.3284 58.2905 52.6281 58.3158C52.9278 58.3411 52.9911 58.7027 52.9837 58.9189C52.9762 59.1351 52.9032 59.771 52.8838 59.8962C52.8644 60.0214 52.4194 61.1337 52.4194 61.1337L52.3448 62.5352L53.179 64.8402C52.7401 64.625 52.2449 64.5523 51.7626 64.6322C51.3173 64.7076 50.9027 64.9086 50.5676 65.2114Z"
    fill="#FFBFC3" />
  <path
    d="M49.4687 58.9377C49.4628 58.7804 49.3882 58.6119 49.342 58.4643C49.2891 58.2951 49.2361 58.1266 49.1817 57.9582C49.0997 57.7062 48.809 57.1053 48.4743 57.4274C48.3013 57.5951 48.4109 57.8613 48.4787 58.0513C48.6412 58.4715 48.7635 58.906 48.844 59.3492C48.8947 59.6698 48.8962 59.9933 48.9402 60.3183C48.9795 60.613 49.05 60.9026 49.1504 61.1823C49.2946 61.5876 49.4986 61.9691 49.7557 62.314C49.822 62.4034 49.8926 62.4895 49.9675 62.5719C49.9675 62.5719 50.004 62.6159 50.0077 62.6144C49.9921 62.6218 49.9876 62.5518 49.9943 62.6144C50.0234 62.8559 50.086 63.0974 50.1315 63.336L50.4848 65.1997L50.4923 65.2377C50.5109 65.3368 50.6615 65.2951 50.6414 65.196L50.3499 63.6595L50.1769 62.7448C50.1683 62.6788 50.1559 62.6134 50.1397 62.5488C50.1224 62.5115 50.0969 62.4786 50.0651 62.4526C49.5194 61.8321 49.1765 61.0595 49.0826 60.2386C49.0453 59.9299 49.0401 59.6206 48.9909 59.3127C48.9513 59.0646 48.8947 58.8195 48.8217 58.5791C48.768 58.4032 48.7046 58.2303 48.6413 58.0573C48.5948 57.9458 48.5599 57.83 48.5369 57.7114C48.5265 57.6242 48.5369 57.5623 48.6182 57.5168C48.7672 57.4348 48.9044 57.7218 48.9521 57.8217C49.0077 57.9472 49.0541 58.0765 49.0908 58.2086C49.1527 58.401 49.2153 58.5926 49.2704 58.7871C49.2794 58.8207 49.2891 58.8542 49.2973 58.8878C49.301 58.9019 49.304 58.9161 49.307 58.9303C49.3099 58.9444 49.307 58.9407 49.307 58.9437C49.307 59.0443 49.4672 59.0443 49.4635 58.9437L49.4687 58.9377Z"
    fill="#1F1D25" />
  <path
    d="M49.2665 58.2267C49.1786 57.7794 49.0966 57.3254 48.99 56.8796C48.9661 56.7805 48.934 56.6291 49.06 56.5814C49.186 56.5337 49.3142 56.7126 49.3731 56.8051C49.7845 57.489 50.0125 58.2675 50.0351 59.0653C50.0351 59.0861 50.0434 59.106 50.058 59.1206C50.0727 59.1353 50.0926 59.1436 50.1134 59.1436C50.1341 59.1436 50.154 59.1353 50.1687 59.1206C50.1834 59.106 50.1917 59.0861 50.1917 59.0653C50.1701 58.236 49.9327 57.4266 49.5028 56.7171C49.4201 56.5911 49.318 56.4562 49.1607 56.4241C48.9743 56.3869 48.8289 56.5389 48.8103 56.7149C48.8113 56.8259 48.8299 56.9361 48.8655 57.0414C48.8983 57.1905 48.9296 57.3396 48.9601 57.4886C49.0128 57.7481 49.0645 58.0075 49.1152 58.2669C49.1346 58.3661 49.2852 58.3243 49.2643 58.2259L49.2665 58.2267Z"
    fill="#1F1D25" />
  <path
    d="M51.0022 58.682C50.9656 58.439 50.9187 58.1967 50.8672 57.9559C50.7823 57.5578 50.6883 57.1478 50.5154 56.7773C50.3944 56.5444 50.2574 56.3203 50.1054 56.1064C50.001 55.9461 49.8698 55.7292 49.6723 55.6755C49.6281 55.6638 49.582 55.6619 49.5371 55.6699C49.4921 55.678 49.4495 55.6958 49.4122 55.7221C49.3749 55.7484 49.3438 55.7825 49.3211 55.8221C49.2984 55.8617 49.2847 55.9058 49.2809 55.9513C49.2637 56.125 49.3361 56.3032 49.3927 56.4635C49.5493 56.9055 49.752 57.3319 49.8214 57.7994C49.8363 57.8985 49.9868 57.856 49.9704 57.7576C49.9145 57.3849 49.7729 57.0479 49.6424 56.6975C49.5925 56.5634 49.228 55.7694 49.6134 55.8231C49.6914 55.8461 49.7592 55.895 49.8057 55.9618C49.8833 56.0557 49.9535 56.1553 50.0159 56.2599C50.1511 56.4528 50.2731 56.6545 50.3812 56.8638C50.54 57.2067 50.6257 57.5876 50.7055 57.9552C50.7606 58.2094 50.8098 58.4658 50.8486 58.723C50.8643 58.8222 51.0148 58.7804 50.9977 58.6813L51.0022 58.682Z"
    fill="#1F1D25" />
  <path
    d="M50.2645 56.3674C50.2292 56.2187 50.1793 56.0739 50.1154 55.935C50.0347 55.7443 49.9704 55.547 49.9231 55.3454C49.9022 55.244 49.862 55.0666 49.9976 55.0315C50.0358 55.0224 50.0754 55.0214 50.1139 55.0286C50.1524 55.0358 50.189 55.051 50.2213 55.0733C50.2153 55.0688 50.2175 55.0733 50.228 55.0889C50.2384 55.1046 50.2533 55.1329 50.2667 55.1545L50.3987 55.3782C50.5359 55.6113 50.672 55.8451 50.8072 56.0797C50.9511 56.3301 51.0935 56.5814 51.2299 56.8348C51.3302 57.0043 51.4162 57.1818 51.4871 57.3656C51.5518 57.5728 51.6028 57.7839 51.6399 57.9978C51.6951 58.2788 51.7435 58.5606 51.789 58.8431C51.8345 59.1257 51.877 59.4134 51.918 59.6989C51.9306 59.7891 51.9433 59.8793 51.9552 59.9703L51.9619 60.0165C51.9657 60.0456 51.9619 60.0165 51.9619 60.0351C51.9619 60.0538 51.9619 60.053 51.9619 60.0627C51.9622 60.0815 51.9693 60.0995 51.9818 60.1136C51.9943 60.1276 52.0114 60.1366 52.03 60.1391C52.0487 60.1415 52.0675 60.1372 52.0832 60.1269C52.0989 60.1165 52.1104 60.1009 52.1155 60.0828C52.202 59.8309 52.2862 59.5781 52.3645 59.3239C52.4056 59.216 52.4341 59.1037 52.4495 58.9892C52.4497 58.8608 52.4657 58.7328 52.4972 58.6083C52.5315 58.4972 52.6575 58.3101 52.7954 58.4122C52.9124 58.5017 52.9012 58.7447 52.902 58.8729C52.902 59.2457 52.8856 59.6393 52.7633 59.9956C52.6888 60.2051 52.6053 60.4093 52.5225 60.6151C52.4519 60.7668 52.3972 60.9255 52.3593 61.0885C52.3425 61.2213 52.3335 61.3549 52.3324 61.4888C52.322 61.6796 52.3108 61.8705 52.3004 62.0613C52.2929 62.1962 52.2832 62.3312 52.278 62.4668C52.2772 62.5041 52.2841 62.5412 52.2981 62.5757L52.5345 63.2466C52.7201 63.7729 52.9027 64.3 53.0921 64.8248L53.1032 64.8576C53.1368 64.9515 53.2881 64.9112 53.2523 64.8158L52.7417 63.3719L52.4659 62.5913C52.4573 62.5617 52.4471 62.5326 52.4353 62.5041C52.4219 62.4743 52.4308 62.4959 52.4308 62.4974C52.4353 62.3819 52.4435 62.2656 52.4502 62.1493L52.4838 61.5529C52.4912 61.4157 52.489 61.2719 52.5076 61.1362C52.5452 60.965 52.603 60.7988 52.6798 60.6412C52.7655 60.4295 52.8543 60.2178 52.9266 60.0008C52.9826 59.8277 53.0157 59.648 53.025 59.4663C53.0391 59.2561 53.06 59.0459 53.0555 58.8349C53.0518 58.6709 53.0421 58.4622 52.9288 58.334C52.8748 58.2774 52.8014 58.2433 52.7233 58.2385C52.6453 58.2337 52.5682 58.2584 52.5076 58.3079C52.3734 58.4115 52.3265 58.5926 52.3049 58.7552C52.2959 58.8227 52.2907 58.8906 52.2892 58.9587C52.2914 58.9909 52.2873 59.0233 52.2773 59.0541C52.2027 59.3649 52.0902 59.6684 51.988 59.971L51.9612 60.05L52.1148 60.0709C52.0651 59.6967 52.0109 59.3239 51.9522 58.9527C51.906 58.6545 51.8561 58.3563 51.8032 58.0581C51.7634 57.8196 51.7086 57.5838 51.6391 57.3522C51.5685 57.1593 51.4806 56.9732 51.3767 56.7961C51.2277 56.521 51.0786 56.2496 50.9205 55.976C50.7811 55.7338 50.6395 55.4922 50.4978 55.2514C50.4412 55.1545 50.3815 54.9905 50.2794 54.9309C50.0513 54.796 49.7427 54.8944 49.7419 55.1851C49.7419 55.4169 49.8381 55.6592 49.9201 55.8732C49.9865 56.0476 50.0804 56.2258 50.1132 56.4114C50.1303 56.5105 50.2809 56.4681 50.2623 56.3696L50.2645 56.3674Z"
    fill="#1F1D25" />
  <path
    d="M57.4565 73.9022C57.3119 73.5004 57.1628 73.1008 57.0137 72.7012C56.6747 71.7908 56.3269 70.8843 55.97 69.9818C55.5772 68.9925 55.1724 68.007 54.7288 67.0394C54.5506 66.6518 54.3665 66.2664 54.1623 65.8914C53.9871 65.5686 53.7985 65.2332 53.5212 64.9849C52.7354 64.2827 51.3839 64.3475 50.6138 65.052C50.4542 65.1914 50.3359 65.3719 50.2717 65.5738C50.2415 65.6907 50.2265 65.811 50.2269 65.9317C50.2249 66.2119 50.2476 66.4918 50.2948 66.7681C50.4272 67.5673 50.615 68.3565 50.8568 69.1297C51.1491 70.113 51.486 71.0821 51.8513 72.037C52.235 73.0439 52.6532 74.0378 53.1059 75.0189C53.5018 75.8876 53.9455 76.7338 54.4351 77.5535C54.787 78.1334 55.1731 78.7387 55.6845 79.1935C55.8409 79.3456 56.0302 79.4599 56.2376 79.5274C56.349 79.5514 56.4629 79.5617 56.5768 79.558C56.7147 79.558 56.8527 79.558 56.9906 79.5491C57.4878 79.5148 57.9701 79.362 58.3078 78.978C58.7782 78.4443 58.9251 77.6779 59.0153 76.9951C59.1957 75.6361 59.1442 74.2436 59.0771 72.8794C59.0138 71.592 58.9534 70.3045 58.9109 69.0164C58.8938 68.511 58.8848 68.004 58.8282 67.5009C58.7998 67.2534 58.7618 67.0066 58.7215 66.7606C58.653 66.3402 58.6045 65.9018 58.4711 65.4933C58.2814 64.9178 57.9309 64.4087 57.461 64.0262C57.0567 63.7036 56.5983 63.4552 56.1072 63.2927C55.6191 63.1135 55.1018 63.027 54.582 63.0378L53.5226 63.0832L52.6042 63.1227C52.5043 63.1272 52.5036 63.2838 52.6042 63.2793L54.582 63.1943C55.0938 63.184 55.6029 63.2705 56.0826 63.4493C56.5662 63.6102 57.0156 63.8597 57.408 64.185C57.8708 64.5778 58.2049 65.1006 58.3667 65.6856C58.4711 66.0636 58.5158 66.4632 58.5799 66.8501C58.6527 67.2846 58.7007 67.7229 58.7238 68.1628C58.7618 68.9403 58.7782 69.7194 58.8103 70.4976C58.8744 72.0631 58.9951 73.6286 58.9735 75.2015C58.9711 75.7813 58.9357 76.3604 58.8677 76.9362C58.8223 77.342 58.7341 77.7418 58.6045 78.1289C58.4338 78.612 58.1371 79.0585 57.6578 79.2472C57.4364 79.3307 57.2031 79.3785 56.9667 79.3888C56.8303 79.397 56.6931 79.3977 56.556 79.3948C56.4557 79.3993 56.3553 79.3895 56.2578 79.3657C56.0666 79.294 55.8932 79.1819 55.7494 79.0369C55.5328 78.8303 55.3356 78.6042 55.1604 78.3615C54.664 77.6906 54.2532 76.9593 53.8693 76.2213C53.3996 75.3171 52.9747 74.3897 52.5819 73.4504C52.1763 72.4818 51.8036 71.5005 51.4637 70.5066C51.1655 69.6314 50.8889 68.7458 50.672 67.8468C50.5229 67.234 50.3738 66.5921 50.3827 65.9585C50.381 65.8538 50.3913 65.7492 50.4133 65.6469C50.4687 65.4526 50.5815 65.2796 50.7368 65.1504C51.1021 64.8231 51.618 64.6614 52.101 64.6487C52.6609 64.6338 53.2073 64.8366 53.5763 65.2674C53.7873 65.5127 53.9423 65.8116 54.0929 66.0964C54.5357 66.935 54.9092 67.811 55.2738 68.6861C55.6785 69.6553 56.0632 70.6355 56.4382 71.6181C56.6971 72.2939 56.9503 72.9713 57.1978 73.6502L57.3037 73.9432C57.3372 74.0371 57.4885 73.9961 57.4528 73.9014L57.4565 73.9022Z"
    fill="#1F1D25" />
  <path
    d="M43.469 87.8733C43.469 87.8905 43.4638 87.9076 43.46 87.924C43.4483 87.9845 43.4322 88.0441 43.4116 88.1022C43.3491 88.2813 43.2472 88.444 43.1134 88.5785C42.9009 88.7902 42.637 88.8812 42.3545 88.9594C42.1432 89.0054 41.9375 89.0742 41.741 89.1644C41.4629 89.3135 41.3965 89.6341 41.2996 89.9099C41.2475 90.059 41.1893 90.2021 41.1356 90.349C40.9339 90.8948 40.7639 91.4519 40.6265 92.0173C40.4055 92.9465 40.2525 93.8905 40.1687 94.8419C40.0499 96.2114 40.0312 97.5877 40.1128 98.9599C40.124 99.1626 40.1374 99.3647 40.1516 99.5667C40.1591 99.6666 40.3156 99.6673 40.3081 99.5667C40.1983 98.1402 40.1921 96.7076 40.2895 95.2802C40.3582 94.2769 40.5022 93.2801 40.7204 92.2984C40.8572 91.6918 41.0315 91.0943 41.2422 90.5093C41.3011 90.3445 41.3645 90.1813 41.4256 90.0165C41.4599 89.9248 41.4897 89.8309 41.5225 89.7385C41.5702 89.6013 41.6202 89.4403 41.7372 89.3493C41.8751 89.2375 42.0734 89.2002 42.2389 89.1503C42.5237 89.069 42.813 89.0012 43.059 88.8275C43.3502 88.6156 43.5501 88.3009 43.6181 87.9471C43.6225 87.921 43.627 87.8949 43.6293 87.8726C43.6382 87.7719 43.4802 87.7727 43.4727 87.8726L43.469 87.8733Z"
    fill="#3D3397" />
  <path
    d="M49.3 86.1974C49.3336 86.8601 49.3313 87.5266 49.3127 88.1893C49.2956 88.7812 49.2605 89.3738 49.1919 89.962C49.1366 90.5181 49.027 91.0674 48.8647 91.602C48.7365 91.9979 48.5434 92.4862 48.1438 92.6807L48.2616 92.7486V87.0085C48.2616 86.7446 48.281 86.4732 48.2616 86.2101V86.1989C48.2616 86.1781 48.2533 86.1582 48.2387 86.1435C48.224 86.1288 48.2041 86.1206 48.1833 86.1206C48.1625 86.1206 48.1426 86.1288 48.128 86.1435C48.1133 86.1582 48.105 86.1781 48.105 86.1989V92.4787C48.105 92.5637 48.0983 92.6517 48.105 92.7366C48.1054 92.7406 48.1054 92.7446 48.105 92.7486C48.1053 92.7622 48.1092 92.7756 48.1162 92.7873C48.1232 92.799 48.1331 92.8087 48.1449 92.8155C48.1568 92.8222 48.1702 92.8258 48.1838 92.8258C48.1975 92.8259 48.2109 92.8224 48.2228 92.8157C48.5896 92.6375 48.7946 92.2327 48.9347 91.8704C49.1338 91.359 49.2329 90.8104 49.3075 90.2684C49.4472 89.1625 49.5033 88.0475 49.4752 86.9332C49.4752 86.6879 49.4663 86.4434 49.4543 86.1989C49.4491 86.0982 49.2926 86.0975 49.2978 86.1989L49.3 86.1974Z"
    fill="#3D3397" />
  <path
    d="M38.4263 99.703C38.4002 98.918 38.3674 98.1375 38.3816 97.348C38.3979 96.1964 38.5046 95.0478 38.7006 93.9129C38.9458 92.593 39.3024 91.2962 39.7666 90.0365C40.1215 89.0475 40.5226 88.0769 40.9698 87.1247C41.1733 86.6923 41.3933 86.2696 41.6124 85.8455C41.6162 85.8395 41.6191 85.8335 41.6229 85.8283C41.6721 85.7396 41.5364 85.6606 41.4872 85.7493C41.2956 86.0922 41.1212 86.4463 40.9512 86.8012C40.5196 87.6957 40.1312 88.6149 39.7808 89.546C39.2973 90.7976 38.9153 92.0863 38.6388 93.3993C38.4066 94.5705 38.2715 95.7588 38.2347 96.9522C38.2064 97.7953 38.2295 98.6369 38.2615 99.4793C38.2615 99.5539 38.2675 99.6284 38.2697 99.703C38.2735 99.8036 38.43 99.8043 38.4263 99.703Z"
    fill="#1F1D25" />
  <path
    d="M49.163 99.7028C49.1489 98.8344 49.1243 97.9651 49.0833 97.0937C49.0519 96.4228 49.0273 95.7466 49.0408 95.0705C49.0452 94.8409 49.0997 94.5621 48.9819 94.3533C48.8641 94.1446 48.5905 94.0216 48.3609 94.1237C48.3056 94.1487 48.2564 94.1852 48.2165 94.2309C48.1767 94.2766 48.1471 94.3303 48.1298 94.3884C48.1111 94.476 48.106 94.5661 48.1149 94.6553C48.1194 94.8496 48.1246 95.0441 48.1305 95.239C48.1425 95.6743 48.1551 96.1099 48.1686 96.5458C48.1738 96.7209 48.1865 96.8976 48.1835 97.0736C48.179 97.3091 48.1693 97.5447 48.1626 97.781L48.1067 99.6596V99.6991C48.1067 99.7997 48.2603 99.7997 48.2632 99.6991L48.3102 98.1336C48.3221 97.7236 48.3505 97.3136 48.3378 96.9014C48.3147 96.1454 48.2901 95.3895 48.2722 94.6329C48.2576 94.5399 48.2727 94.4447 48.3154 94.3608C48.3519 94.3094 48.4046 94.2718 48.465 94.2539C48.5254 94.2361 48.5901 94.2391 48.6486 94.2624C48.709 94.2846 48.7626 94.3217 48.8046 94.3704C48.8466 94.419 48.8756 94.4775 48.8887 94.5404C48.9014 94.6532 48.9014 94.7669 48.8887 94.8796C48.8723 95.5215 48.8782 96.1626 48.9125 96.8037C48.9625 97.749 48.9871 98.6957 49.005 99.6417C49.005 99.6611 49.005 99.6797 49.005 99.6991C49.005 99.7199 49.0132 99.7398 49.0279 99.7545C49.0426 99.7691 49.0625 99.7774 49.0833 99.7774C49.104 99.7774 49.1239 99.7691 49.1386 99.7545C49.1533 99.7398 49.1615 99.7199 49.1615 99.6991L49.163 99.7028Z"
    fill="#1F1D25" />
  <path
    d="M56.0609 85.0877C56.2627 85.5594 56.4615 86.0315 56.6573 86.5041C57.0091 87.3562 57.358 88.2113 57.6763 89.0775C57.8254 89.4875 57.9745 89.9042 58.0937 90.3247C58.0992 90.3445 58.1122 90.3613 58.1301 90.3714C58.1479 90.3815 58.169 90.3842 58.1888 90.3787C58.2086 90.3733 58.2254 90.3602 58.2355 90.3424C58.2456 90.3246 58.2483 90.3035 58.2428 90.2837C58.0117 89.4786 57.7039 88.6936 57.3953 87.9153C57.0785 87.1147 56.7497 86.3185 56.4158 85.5253C56.3412 85.3516 56.2667 85.1779 56.1921 85.0035C56.1526 84.9111 56.0177 84.9908 56.0572 85.0825L56.0609 85.0877Z"
    fill="#1F1D25" />
  <path
    d="M55.6321 79.1398L56.0398 81.5797C56.1014 82.0101 56.1847 82.4371 56.2896 82.859C56.4715 83.5217 56.5796 84.3313 56.1353 84.9187C56.0823 84.9829 56.0106 85.029 55.9303 85.0506C55.7633 85.1207 55.5933 85.1848 55.4218 85.2459C54.8128 85.4622 54.1902 85.6382 53.5582 85.773C52.6483 85.969 51.7227 86.0831 50.7925 86.1137C50.1275 86.1345 49.4611 86.1271 48.7954 86.1137C47.3424 86.0816 45.888 86.0063 44.4403 85.9161C43.5229 85.8595 42.606 85.7954 41.6896 85.7238C41.656 85.7238 41.621 85.7238 41.5882 85.7156C41.5427 85.7074 41.583 85.7156 41.5509 85.6977C41.4385 85.6212 41.3434 85.522 41.2719 85.4064C41.2004 85.2908 41.154 85.1615 41.1357 85.0268C41.0268 84.449 41.1782 83.8221 41.3474 83.2697C41.4622 82.897 41.5867 82.5369 41.6456 82.147L41.7626 81.3218L42.192 78.2848L42.5245 75.9343L42.5424 75.8113C42.5461 75.7946 42.5447 75.7771 42.5381 75.7612C42.5316 75.7453 42.5203 75.7319 42.5058 75.7226C42.0123 75.4326 41.5718 75.0517 41.2922 74.5426C41.0782 74.1443 40.9649 73.6998 40.962 73.2477C40.95 72.5022 41.1767 71.7657 41.5047 71.106C41.5753 70.9605 41.6539 70.8192 41.7402 70.6825C41.7827 70.6184 41.6978 70.5334 41.6336 70.5759C41.1029 70.9397 40.5617 71.2908 40.019 71.6367C38.947 72.3196 37.8571 72.9786 36.7292 73.566C36.2309 73.8326 35.7157 74.0662 35.1868 74.2652C34.6918 74.4434 34.1655 74.5634 33.6459 74.4143C32.7991 74.1661 32.3153 73.3297 32.0633 72.5395C31.9888 72.3091 31.8434 72.0922 31.7368 71.8738C31.4446 71.2864 31.1591 70.6952 30.8885 70.0973C30.7498 69.7902 30.6141 69.4808 30.4889 69.1678C30.3942 68.9292 30.3167 68.6839 30.2213 68.4447C29.9939 67.8744 29.724 67.322 29.5019 66.7502C29.2782 66.1643 29.0494 65.5284 29.0613 64.8918C29.0558 64.6279 29.129 64.3684 29.2715 64.1463C29.4698 63.8645 29.8045 63.749 30.105 63.6096C30.4524 63.4485 30.8012 63.2868 31.1598 63.1511C31.332 63.0753 31.5143 63.0251 31.701 63.002C31.7403 62.9951 31.7807 62.9983 31.8184 63.0114C31.8561 63.0244 31.8898 63.0469 31.9165 63.0766C31.9699 63.1526 32.0151 63.234 32.0514 63.3196C32.5419 64.2999 33.0526 65.2697 33.5498 66.247C34.0085 67.148 34.4662 68.0501 34.9229 68.9531L35.0012 69.1066C35.006 69.1158 35.0126 69.124 35.0207 69.1305C35.0288 69.137 35.0382 69.1417 35.0482 69.1444C35.0583 69.147 35.0688 69.1476 35.079 69.1459C35.0893 69.1443 35.0991 69.1406 35.1078 69.135C35.74 68.716 36.3726 68.2988 37.0058 67.8833C38.1747 67.1162 39.3443 66.3514 40.5229 65.5992C40.9702 65.3144 41.4175 65.0304 41.8647 64.7576C42.0112 64.6647 42.1628 64.5801 42.3187 64.5041C42.5831 64.3916 42.8577 64.3047 43.1387 64.2447C44.4418 63.9301 45.7986 63.8079 47.133 63.7087L47.3693 63.6923C47.3916 63.6923 47.4729 63.699 47.4915 63.6841C47.5102 63.6692 47.4498 63.6513 47.4476 63.6647C47.4453 63.6781 47.4804 63.6998 47.4841 63.7035C47.5464 63.7656 47.6129 63.8234 47.6831 63.8764C47.9563 64.091 48.2804 64.2313 48.6238 64.2835C48.9672 64.3358 49.3183 64.2983 49.643 64.1746C49.8892 64.0771 50.1213 63.9472 50.3333 63.7885C50.413 63.7288 50.3333 63.5932 50.2542 63.6528C49.8472 63.951 49.3746 64.1746 48.861 64.156C48.5266 64.142 48.2022 64.0377 47.9224 63.8541C47.8309 63.7958 47.7444 63.7299 47.6637 63.6573C47.628 63.6252 47.5952 63.5827 47.5564 63.5514C47.4908 63.5037 47.379 63.5343 47.3022 63.5395C46.0349 63.6275 44.7534 63.7505 43.5048 64.0032C42.9829 64.1075 42.4611 64.2313 41.9974 64.4989C41.5934 64.733 41.199 64.9842 40.8047 65.2339C39.6403 65.9719 38.487 66.7249 37.3345 67.4808C36.8375 67.8073 36.3406 68.1343 35.8436 68.4618L35.3397 68.7943C35.2446 68.8491 35.153 68.9096 35.0653 68.9754C35.0542 68.9841 35.0425 68.9921 35.0303 68.9993L35.1376 69.0269C34.7798 68.3202 34.4215 67.614 34.0627 66.9082C33.4924 65.802 32.9355 64.6965 32.363 63.5984C32.2884 63.4538 32.2139 63.3091 32.1394 63.163C32.1015 63.069 32.0417 62.9854 31.9649 62.9193C31.7189 62.7396 31.3141 62.9282 31.0704 63.0214C30.7118 63.1593 30.3622 63.3196 30.0148 63.4813C29.7032 63.6252 29.3744 63.7475 29.159 64.0285C28.8131 64.481 28.8608 65.1094 28.9756 65.6335C29.1172 66.3044 29.3871 66.9403 29.6592 67.5643C29.7807 67.8438 29.9074 68.1219 30.0237 68.4037C30.1191 68.6362 30.1944 68.8755 30.2854 69.1096C30.7327 70.2554 31.285 71.3617 31.8404 72.4567C31.8598 72.494 31.8807 72.5313 31.8971 72.5678C31.8971 72.5604 31.8971 72.5566 31.903 72.5917C31.9363 72.7127 31.9779 72.8313 32.0275 72.9465C32.1988 73.3866 32.4648 73.7836 32.8065 74.1094C33.0248 74.311 33.2853 74.4614 33.569 74.5497C33.8527 74.638 34.1524 74.6621 34.4466 74.6201C34.9296 74.556 35.3933 74.3622 35.8354 74.1676C37.0222 73.6458 38.1463 72.9748 39.2496 72.2987C40.0398 71.8127 40.8193 71.31 41.5882 70.7906L41.7067 70.7101L41.5979 70.6058C41.3422 71.0111 41.1433 71.4495 41.0067 71.9088C40.7443 72.7542 40.6914 73.6935 41.0887 74.506C41.3742 75.0897 41.8655 75.5348 42.4194 75.8598L42.3836 75.7718L42.1309 77.5609L41.6776 80.7664L41.5188 81.8936C41.4853 82.2085 41.4229 82.5197 41.3325 82.8232C41.1618 83.3264 41.0075 83.8303 40.9597 84.3626C40.9128 84.8747 40.9597 85.5889 41.4927 85.8535C41.5533 85.877 41.6179 85.8884 41.6828 85.887L42.0817 85.9176C42.5632 85.9539 43.0448 85.9884 43.5264 86.0212C44.9569 86.1174 46.389 86.1994 47.8225 86.2493C49.388 86.3045 50.9587 86.3492 52.51 86.1278C53.7162 85.9549 54.9306 85.6582 56.054 85.1766C56.1656 85.1323 56.2582 85.0503 56.3157 84.9448C56.5251 84.6309 56.6019 84.247 56.6034 83.875C56.6034 83.2533 56.3798 82.6666 56.2776 82.0598L55.8304 79.3657L55.7871 79.107C55.7707 79.0079 55.6194 79.0496 55.638 79.1488L55.6321 79.1398Z"
    fill="#1F1D25" />
  <path
    d="M49.5551 55.794C49.6624 55.6024 49.7787 55.4212 49.8898 55.2259C49.895 55.217 49.8984 55.2072 49.8998 55.197C49.9011 55.1867 49.9005 55.1764 49.8979 55.1664C49.8952 55.1564 49.8907 55.1471 49.8844 55.1389C49.8782 55.1307 49.8704 55.1238 49.8615 55.1186C49.8526 55.1134 49.8427 55.11 49.8325 55.1086C49.8223 55.1072 49.8119 55.1079 49.8019 55.1105C49.792 55.1131 49.7826 55.1177 49.7744 55.124C49.7662 55.1302 49.7593 55.138 49.7541 55.1469C49.6468 55.3385 49.5305 55.5197 49.4201 55.715C49.415 55.7238 49.4116 55.7336 49.4102 55.7438C49.4088 55.754 49.4094 55.7643 49.412 55.7743C49.4146 55.7842 49.4191 55.7935 49.4253 55.8017C49.4315 55.8099 49.4392 55.8168 49.4481 55.822C49.457 55.8271 49.4668 55.8305 49.4769 55.8319C49.4871 55.8333 49.4974 55.8327 49.5074 55.8301C49.5173 55.8275 49.5266 55.823 49.5348 55.8168C49.543 55.8106 49.5499 55.8029 49.5551 55.794Z"
    fill="#1F1D25" />
  <path
    d="M49.152 56.5237C49.2437 56.3605 49.3368 56.198 49.4285 56.0347C49.4337 56.0258 49.4371 56.016 49.4385 56.0059C49.4399 55.9957 49.4393 55.9853 49.4367 55.9754C49.4341 55.9655 49.4296 55.9562 49.4234 55.948C49.4172 55.9398 49.4094 55.9329 49.4006 55.9277C49.3917 55.9225 49.3819 55.9191 49.3717 55.9177C49.3616 55.9163 49.3512 55.9169 49.3413 55.9195C49.3314 55.9221 49.322 55.9267 49.3139 55.9329C49.3057 55.9391 49.2988 55.9468 49.2936 55.9557C49.2019 56.1189 49.1087 56.2814 49.0171 56.4447C49.0119 56.4536 49.0085 56.4634 49.0071 56.4735C49.0057 56.4837 49.0063 56.4941 49.0089 56.504C49.0115 56.5139 49.016 56.5233 49.0222 56.5314C49.0284 56.5396 49.0362 56.5465 49.045 56.5517C49.0539 56.5569 49.0637 56.5603 49.0738 56.5617C49.084 56.5631 49.0944 56.5625 49.1043 56.5599C49.1142 56.5573 49.1235 56.5528 49.1317 56.5466C49.1399 56.5404 49.1468 56.5326 49.152 56.5237Z"
    fill="#1F1D25" />
  <path
    d="M48.604 57.5094C48.7203 57.3012 48.8368 57.0932 48.9536 56.8855C49.0028 56.7975 48.8671 56.7185 48.8179 56.8064L48.4683 57.4304C48.4191 57.5184 48.5548 57.5974 48.604 57.5094Z"
    fill="#1F1D25" />
  <path
    d="M49.2622 61.127L47.9442 60.3927L47.6595 60.2347C47.6386 60.2227 47.6177 60.2123 47.5976 60.2004C47.5775 60.1884 47.6132 60.2145 47.6058 60.2078C47.5983 60.2011 47.5886 60.1899 47.5804 60.1803C47.4892 60.0687 47.442 59.9276 47.4477 59.7837C47.453 59.5839 47.5536 59.4109 47.646 59.241C47.936 58.7035 48.2357 58.1697 48.5339 57.6359C48.5831 57.548 48.4474 57.469 48.3982 57.5569C48.1149 58.0653 47.8309 58.573 47.5529 59.0844C47.4517 59.2447 47.3722 59.4176 47.3165 59.5988C47.2679 59.7888 47.2913 59.99 47.3821 60.1638C47.4641 60.3129 47.5707 60.3644 47.7161 60.4449L48.5592 60.9145L49.1847 61.2619C49.2734 61.3111 49.3524 61.1755 49.2637 61.127H49.2622Z"
    fill="#1F1D25" />
  <path
    d="M50.0064 55.0051L50.3255 54.3923C50.415 54.2216 50.5171 54.0517 50.5909 53.8705C50.5948 53.8603 50.5993 53.8504 50.6043 53.8407C50.6155 53.8198 50.6267 53.7997 50.6401 53.7796C50.669 53.7346 50.7068 53.6961 50.7512 53.6663C50.9137 53.5604 51.1112 53.6327 51.2648 53.717C51.5563 53.8772 51.8455 54.042 52.1355 54.2045C52.6521 54.4945 53.1672 54.7889 53.6868 55.0752C53.7263 55.0976 53.6801 55.0677 53.7136 55.0886C53.7451 55.1067 53.7744 55.1285 53.8009 55.1535C53.8495 55.2099 53.882 55.2783 53.8951 55.3516C53.9082 55.4249 53.9014 55.5004 53.8754 55.5702C53.8181 55.7318 53.7455 55.8876 53.6585 56.0353C53.5785 56.1929 53.4992 56.3507 53.4207 56.5087C53.1349 57.0817 52.8516 57.6562 52.5708 58.2322L52.5537 58.2673C52.5097 58.3575 52.6446 58.4365 52.6886 58.3463C52.9471 57.817 53.2072 57.289 53.4691 56.7622C53.6234 56.4513 53.7822 56.1427 53.938 55.8326C54.0871 55.5419 54.1251 55.149 53.8031 54.9611C53.7882 54.9522 53.7286 54.9224 53.7651 54.9418L53.7136 54.9127L53.4356 54.7554L52.4419 54.1978L51.4586 53.6461C51.2916 53.553 51.1172 53.4508 50.9196 53.4598C50.8475 53.4628 50.7768 53.4813 50.7125 53.5141C50.6482 53.5469 50.5917 53.5932 50.5469 53.6499C50.5142 53.6899 50.4864 53.7337 50.4642 53.7803C50.4589 53.7915 50.4224 53.875 50.4433 53.8325C50.406 53.9071 50.3635 53.9816 50.324 54.0614L49.9043 54.868L49.8738 54.9261C49.8268 55.0156 49.9625 55.0946 50.0087 55.0051H50.0064Z"
    fill="#1F1D25" />
  <path
    d="M47.5652 63.6244C47.7156 62.775 47.7525 61.9094 47.6748 61.0503C47.6474 60.7209 47.5822 60.3957 47.4802 60.0812C47.4474 59.9866 47.2961 60.0268 47.3312 60.123C47.5212 60.6798 47.5593 61.2822 47.5548 61.8666C47.5507 62.3505 47.5171 62.8337 47.4542 63.3135C47.443 63.4037 47.4303 63.4939 47.4154 63.5826C47.4005 63.6713 47.5496 63.7235 47.5645 63.6244H47.5652Z"
    fill="#1F1D25" />
  <path
    d="M47.4062 60.0238C47.3317 60.0238 47.2616 60.0328 47.1901 60.0275C47.0974 60.0159 47.0063 59.9936 46.9187 59.9612C46.7666 59.9116 46.6202 59.8462 46.4819 59.7659C46.2269 59.6169 46.0051 59.4172 45.8303 59.1792C45.5165 58.7528 45.3487 58.2362 45.2697 57.7166C45.2026 57.2693 45.2101 56.8183 45.2071 56.3703C45.2034 55.806 45.2071 55.2417 45.2116 54.6773C45.2146 54.3364 45.2185 53.9957 45.2235 53.6553L45.1244 53.7298C45.4542 53.791 45.7886 53.8237 46.124 53.8275C46.8693 53.8543 47.6139 53.7576 48.3276 53.5412C48.8071 53.3928 49.2616 53.1734 49.6762 52.8905L49.5584 52.8234C49.4757 53.4503 49.7686 54.0675 50.0944 54.5849C50.1481 54.6706 50.283 54.5916 50.2293 54.5059C49.917 54.0094 49.633 53.4257 49.715 52.8234C49.7148 52.8097 49.711 52.7962 49.7041 52.7844C49.6972 52.7726 49.6873 52.7628 49.6754 52.7559C49.6635 52.7491 49.65 52.7454 49.6363 52.7454C49.6226 52.7453 49.6091 52.7488 49.5972 52.7555C48.4141 53.5711 46.8971 53.788 45.4911 53.627C45.3823 53.6143 45.2735 53.6009 45.1661 53.5793C45.1546 53.5762 45.1425 53.5758 45.1308 53.5781C45.1191 53.5804 45.108 53.5853 45.0985 53.5925C45.0889 53.5997 45.0811 53.6089 45.0757 53.6195C45.0702 53.6302 45.0672 53.6419 45.067 53.6538C45.0535 54.5268 45.0453 55.4004 45.0498 56.2734C45.055 57.273 45.0573 58.3264 45.6462 59.1867C45.8337 59.4642 46.0779 59.699 46.3626 59.8755C46.5172 59.968 46.6818 60.0431 46.8531 60.0991C46.946 60.1328 47.0418 60.1578 47.1394 60.1736C47.2284 60.1804 47.3179 60.1804 47.407 60.1736C47.4277 60.1736 47.4477 60.1654 47.4623 60.1507C47.477 60.136 47.4853 60.1161 47.4853 60.0954C47.4853 60.0746 47.477 60.0547 47.4623 60.04C47.4477 60.0253 47.4277 60.0171 47.407 60.0171L47.4062 60.0238Z"
    fill="#1F1D25" />
  <path
    d="M45.8323 57.7522H47.6721L47.5976 57.6531C47.5733 57.8122 47.5164 57.9646 47.4303 58.1006C47.3442 58.2366 47.2308 58.3533 47.0974 58.4433C46.8886 58.5737 46.5852 58.652 46.3586 58.523C46.1819 58.4224 46.0746 58.2301 46.0068 58.0459C45.9753 57.9595 45.9503 57.8708 45.9322 57.7805C45.9255 57.7507 45.9203 57.7209 45.9151 57.6911C45.9151 57.6829 45.9151 57.6747 45.9113 57.6665C45.9158 57.6941 45.9113 57.6799 45.9113 57.6739C45.8994 57.5748 45.7429 57.574 45.7548 57.6739C45.7943 58.0169 45.9322 58.4149 46.2237 58.6222C46.4645 58.7937 46.7783 58.7623 47.0385 58.6498C47.2762 58.5424 47.4714 58.3587 47.5931 58.1279C47.6686 57.9943 47.721 57.8489 47.7481 57.6978C47.751 57.6862 47.7513 57.6742 47.749 57.6626C47.7466 57.6509 47.7417 57.6399 47.7345 57.6304C47.7274 57.6209 47.7182 57.6131 47.7077 57.6076C47.6971 57.6021 47.6855 57.5991 47.6736 57.5986H45.8323C45.8145 57.6022 45.7985 57.6117 45.787 57.6257C45.7755 57.6397 45.7693 57.6573 45.7693 57.6754C45.7693 57.6935 45.7755 57.7111 45.787 57.7251C45.7985 57.7391 45.8145 57.7487 45.8323 57.7522Z"
    fill="#1F1D25" />
  <path
    d="M60.6976 59.6786C59.1015 55.3892 54.6891 58.0527 53.1818 53.77C51.6744 49.4873 47.6951 49.4269 45.8315 51.1303C44.3592 52.4766 43.8858 54.476 44.1281 57.7784C44.3659 61.0346 42.3725 62.1133 39.6232 63.9315C38.4946 64.677 36.5944 66.326 34.7031 68.2791L35.0595 69.0402C35.0595 69.0402 41.7359 64.6233 42.4895 64.3497C43.2432 64.0761 46.1587 63.6825 46.3183 63.6997C46.4778 63.7168 47.4715 63.5588 47.4715 63.5588C47.4715 63.5588 47.6258 61.9665 47.6429 61.5728C47.6601 61.1792 47.435 60.102 47.435 60.102C47.435 60.102 46.4099 59.9977 46.0506 59.5355C45.6913 59.0733 45.1419 58.3696 45.1255 57.2245C45.1091 56.0795 45.1255 53.6135 45.1255 53.6135C45.1255 53.6135 46.6649 53.823 47.5185 53.656C48.5897 53.445 49.6542 52.789 49.6542 52.789C49.6542 52.789 49.6378 53.5233 49.8212 53.9072C49.9178 54.1142 50.0248 54.3163 50.1418 54.5125L50.5674 53.7581C50.5674 53.7581 50.8261 53.3779 51.169 53.5345C51.5119 53.691 53.808 55.0671 53.808 55.0671C53.808 55.0671 54.0316 55.1529 53.9108 55.6322C53.7901 56.1115 52.6301 58.3099 52.6301 58.3099C52.6301 58.3099 52.9343 58.2294 52.9775 58.7028C53.0207 59.1762 52.8836 59.8784 52.8664 60.0148C52.8493 60.1512 52.4192 61.0249 52.4192 61.1278C52.4192 61.2307 52.3334 62.3951 52.3334 62.3951L52.607 63.1995L55.1237 63.1652C55.1237 63.1652 57.5219 63.5752 58.078 64.8343C58.6341 66.0934 58.6132 66.7419 58.6132 66.7419C58.6132 66.7419 62.2944 63.971 60.6976 59.6786Z"
    fill="#1F1D25" />
  <path
    d="M40.8935 72.8422C41.1172 71.2297 41.6658 70.6445 41.6658 70.6445C41.6658 70.6445 35.9093 74.3167 34.8374 74.4583C33.8153 74.5933 32.7254 74.4733 32.0903 72.8712C31.4 74.8527 31.2755 77.2211 32.1939 80.0397C32.6682 81.5235 33.7042 82.7628 35.0804 83.4927C38.886 85.4808 40.1965 80.7933 41.809 80.3759L42.4217 75.8345C42.4217 75.8345 40.5976 75.0085 40.8935 72.8422Z"
    fill="#1F1D25" />
  <path
    d="M38.4259 96.1978C38.3197 95.0261 38.1504 93.861 37.9189 92.7075C37.6563 91.3738 37.293 90.062 36.8321 88.7833C36.3665 87.472 35.7506 86.2189 34.9967 85.0493C34.6229 84.4779 34.2039 83.9375 33.7436 83.4331C33.1976 82.8466 32.6031 82.3072 31.9664 81.8207C31.452 81.4105 30.8937 81.0588 30.3017 80.7718C29.8849 80.5658 29.4344 80.4365 28.9718 80.3902C28.3307 80.3417 27.7112 80.5802 27.3586 81.1356C27.0194 81.6671 26.9725 82.3455 27.0813 82.9531C27.1413 83.2883 27.2524 83.6124 27.4108 83.914C27.6046 84.2867 27.8707 84.5752 28.1697 84.8615C28.7735 85.4392 29.4139 85.9797 30.0244 86.5477C30.2538 86.7559 30.4697 86.9785 30.6707 87.2141C30.8241 87.3843 30.9426 87.5829 31.0196 87.7986C31.1866 88.3487 30.6536 88.679 30.2995 88.9913C30.0334 89.2153 29.7863 89.4609 29.5607 89.7256C29.4116 89.9068 29.2827 90.1133 29.2581 90.3496C29.2448 90.5681 29.3163 90.7834 29.4579 90.9504C29.5182 91.025 29.6539 90.9504 29.5928 90.8714C29.4646 90.7029 29.3759 90.5076 29.4251 90.2929C29.481 90.0484 29.6569 89.8412 29.8239 89.6615C30.0862 89.3902 30.3624 89.1327 30.6514 88.89C30.8489 88.7178 31.0561 88.5508 31.156 88.3003C31.3171 87.894 31.086 87.4877 30.84 87.1731C30.4314 86.6513 29.9066 86.2219 29.4146 85.7843C29.0948 85.4996 28.7757 85.2148 28.4634 84.9218C28.2514 84.7343 28.0522 84.5328 27.867 84.3188C27.6597 84.0614 27.4965 83.7715 27.384 83.4607C27.17 82.8755 27.1089 82.2061 27.3094 81.6082C27.4943 81.0566 27.9259 80.6533 28.5074 80.5601C28.8801 80.5005 29.2663 80.5653 29.6256 80.6742C30.1579 80.8483 30.6632 81.096 31.127 81.4099C31.7975 81.8553 32.4276 82.3587 33.01 82.9143C33.5055 83.3761 33.9595 83.8804 34.3668 84.4216C35.1868 85.51 35.8369 86.7236 36.3572 87.982C36.8676 89.2339 37.2752 90.5254 37.576 91.8435C37.8503 93.0272 38.0569 94.2257 38.1948 95.4329C38.2238 95.6879 38.2499 95.9421 38.2693 96.1978C38.2783 96.2969 38.4348 96.2977 38.4259 96.1978Z"
    fill="#3D3397" />
  <path
    d="M36.8665 99.669C36.7189 99.2586 36.5504 98.8561 36.3618 98.4628C35.9109 97.4911 35.3829 96.557 34.7829 95.6696C34.0056 94.5012 33.0805 93.4383 32.0306 92.5073C31.4232 91.9717 30.7645 91.4973 30.0641 91.0909C29.4379 90.7316 28.7603 90.42 28.0446 90.297C27.5653 90.2127 27.0621 90.2142 26.5976 90.376C26.2344 90.5023 25.9102 90.721 25.6569 91.0104C25.2789 91.4435 24.9971 92.0734 25.0448 92.6593C25.0933 93.2647 25.4876 93.703 25.9878 94.0012C26.3004 94.181 26.6255 94.3379 26.9607 94.4708C27.3178 94.6199 27.6898 94.7459 27.9902 94.9994C28.4621 95.3982 28.6611 95.9745 28.8281 96.5507C28.9026 96.8086 28.9824 97.0621 29.0771 97.3133C29.1613 97.537 29.2538 97.7606 29.4185 97.9403C29.5987 98.1172 29.8296 98.2334 30.079 98.2727C30.422 98.3526 30.7784 98.3554 31.1226 98.2809C31.3463 98.225 31.5498 98.099 31.7749 98.0454C32.0299 97.985 32.2625 98.1572 32.4347 98.3272C32.6404 98.5299 32.712 98.7707 32.7947 99.0368C32.8626 99.253 32.9886 99.4006 33.2197 99.4416C33.5603 99.5035 33.9293 99.4275 34.2633 99.3596C34.5347 99.3045 34.8239 99.2158 35.1035 99.2471C35.383 99.2784 35.5507 99.4849 35.6663 99.7264C35.7095 99.8174 35.8445 99.7376 35.802 99.6474C35.6842 99.3991 35.5038 99.1762 35.2257 99.1106C34.9715 99.0495 34.7039 99.1107 34.4512 99.1613C34.1098 99.2314 33.7631 99.3104 33.4127 99.3037C33.295 99.3037 33.1555 99.2903 33.0624 99.209C33.0012 99.146 32.959 99.0669 32.9409 98.9809C32.8663 98.729 32.7918 98.4949 32.6151 98.2914C32.4384 98.0879 32.182 97.8836 31.9046 97.8747C31.6974 97.8687 31.5095 97.9798 31.3224 98.0521C31.0204 98.1647 30.6954 98.202 30.3757 98.1609C30.1058 98.1326 29.8061 98.0774 29.5937 97.8948C29.4222 97.7457 29.3276 97.5347 29.247 97.3275C29.0495 96.8198 28.9444 96.2838 28.7304 95.7799C28.618 95.5046 28.4566 95.2521 28.2541 95.0344C28.0014 94.7705 27.6927 94.605 27.3595 94.4671C27.0106 94.324 26.6595 94.1816 26.3241 94.0087C26.042 93.8752 25.785 93.6941 25.5644 93.4734C25.05 92.9225 25.1432 92.1584 25.4727 91.5449C25.6499 91.2108 25.9116 90.9291 26.2317 90.7277C26.5518 90.5264 26.9191 90.4126 27.2969 90.3976C27.8851 90.3685 28.4695 90.5243 29.0115 90.7427C29.7771 91.0521 30.4897 91.5001 31.1502 91.9922C32.299 92.8487 33.2979 93.902 34.153 95.0486C34.8368 95.9696 35.4392 96.9484 35.9533 97.9738C36.2283 98.5113 36.473 99.0638 36.6861 99.6287C36.6958 99.6541 36.7047 99.6794 36.7137 99.7033C36.7465 99.798 36.8978 99.7577 36.8628 99.6623L36.8665 99.669Z"
    fill="#3D3397" />
  <path
    d="M25.2522 91.9412C25.5166 91.9653 25.7797 92.0033 26.0401 92.0553C27.6945 92.3643 29.2867 92.9436 30.753 93.7698C31.7797 94.3502 32.7228 95.0671 33.5567 95.9011C34.517 96.8717 35.308 97.9963 35.8967 99.2282C35.9772 99.3944 36.0533 99.5629 36.1263 99.7329C36.1658 99.8245 36.3008 99.7448 36.2612 99.6538C35.7088 98.3596 34.9413 97.1682 33.9913 96.13C33.1692 95.241 32.2261 94.4721 31.1898 93.8459C30.3174 93.3177 29.3932 92.8803 28.4316 92.5406C27.7279 92.2896 27.0069 92.0902 26.2742 91.9442C26.0506 91.9002 25.8269 91.8607 25.5988 91.8294C25.4898 91.8085 25.3794 91.7951 25.2686 91.7891H25.2544C25.1538 91.7809 25.1545 91.9382 25.2544 91.9457L25.2522 91.9412Z"
    fill="#3D3397" />
  <path
    d="M27.3836 81.2491C27.4582 81.2976 27.5364 81.3505 27.6117 81.4027C27.8279 81.5518 28.0366 81.7113 28.2342 81.8671C28.5577 82.1235 28.8716 82.3889 29.178 82.67C29.5835 83.0387 29.9746 83.4229 30.3513 83.8225C30.808 84.305 31.2436 84.8067 31.6581 85.3276C32.1397 85.9314 32.592 86.5574 33.0149 87.2054C33.4951 87.9405 33.9375 88.6996 34.3403 89.4798C34.7887 90.3469 35.1886 91.2381 35.5383 92.1494C35.9265 93.1613 36.2562 94.1948 36.526 95.2445C36.8225 96.4003 37.051 97.5725 37.2104 98.7549C37.2521 99.0651 37.2894 99.3762 37.3222 99.6883C37.3334 99.7874 37.4899 99.7882 37.4787 99.6883C37.351 98.4641 37.1519 97.2484 36.8824 96.0474C36.6368 94.9589 36.3282 93.8856 35.958 92.833C35.6241 91.8829 35.2376 90.9521 34.8003 90.0449C34.406 89.2277 33.9695 88.4314 33.4927 87.6594C33.0683 86.9751 32.6123 86.3118 32.1248 85.6697C31.7014 85.1126 31.2541 84.5747 30.7829 84.0558C30.3916 83.6257 29.9846 83.209 29.5611 82.8109C29.2331 82.5013 28.8949 82.2031 28.5465 81.9163C28.3087 81.7217 28.0657 81.5331 27.816 81.3535C27.708 81.2691 27.595 81.1915 27.4775 81.1209C27.4726 81.1184 27.4678 81.1154 27.4634 81.1119C27.3777 81.0583 27.2986 81.194 27.3844 81.2469L27.3836 81.2491Z"
    fill="#3D3397" />
  <path
    d="M28.7336 95.9587L29.7773 95.4227L31.427 94.5722L31.8087 94.3754C31.8981 94.3292 31.8191 94.1942 31.7297 94.2405L30.686 94.7764L29.0363 95.6262L28.6538 95.823C28.5644 95.8692 28.6434 96.0049 28.7329 95.9587H28.7336Z"
    fill="#3D3397" />
  <path
    d="M29.1455 97.2334L30.4829 96.6064L32.6052 95.6112L33.095 95.3816C33.186 95.3391 33.1069 95.2034 33.016 95.2467L31.6794 95.8766L29.557 96.8718L29.0665 97.1014C28.9756 97.1439 29.0553 97.2788 29.1455 97.2364V97.2334Z"
    fill="#3D3397" />
  <path
    d="M29.2368 90.7922L29.4321 92.7834L29.4597 93.0659C29.4694 93.1651 29.6267 93.1658 29.6163 93.0659L29.4187 91.074L29.3904 90.7922C29.3807 90.6931 29.2241 90.6916 29.2338 90.7922H29.2368Z"
    fill="#3D3397" />
  <path
    d="M30.6455 91.5956L30.6753 93.4198L30.6798 93.6784C30.6798 93.6992 30.6881 93.7191 30.7027 93.7338C30.7174 93.7485 30.7373 93.7567 30.7581 93.7567C30.7789 93.7567 30.7988 93.7485 30.8135 93.7338C30.8281 93.7191 30.8364 93.6992 30.8364 93.6784L30.8058 91.8543L30.8021 91.5956C30.8021 91.5748 30.7938 91.5549 30.7792 91.5403C30.7645 91.5256 30.7446 91.5173 30.7238 91.5173C30.703 91.5173 30.6831 91.5256 30.6684 91.5403C30.6538 91.5549 30.6455 91.5748 30.6455 91.5956Z"
    fill="#3D3397" />
  <path
    d="M33.3309 87.4585L33.6411 86.3343L34.1345 84.5452L34.2471 84.1344C34.2525 84.1147 34.2499 84.0935 34.2398 84.0757C34.2296 84.0579 34.2128 84.0448 34.1931 84.0394C34.1733 84.034 34.1522 84.0366 34.1343 84.0467C34.1165 84.0569 34.1035 84.0737 34.098 84.0934L33.7864 85.2169L33.2929 87.006L33.1804 87.416C33.1748 87.4357 33.1774 87.4569 33.1874 87.4748C33.1975 87.4927 33.2143 87.5059 33.234 87.5114C33.2538 87.5169 33.275 87.5144 33.2929 87.5043C33.3107 87.4943 33.3239 87.4775 33.3294 87.4577L33.3309 87.4585Z"
    fill="#3D3397" />
  <path
    d="M34.3282 89.1679L34.6465 87.9751L35.1557 86.0705L35.272 85.6351C35.2743 85.6165 35.2699 85.5977 35.2595 85.5821C35.2491 85.5664 35.2335 85.5551 35.2154 85.55C35.1973 85.545 35.1781 85.5466 35.1611 85.5545C35.1441 85.5625 35.1305 85.5763 35.1229 85.5934L34.8053 86.7861L34.2962 88.6908L34.1799 89.1261C34.1743 89.1459 34.1769 89.1671 34.1869 89.185C34.197 89.2029 34.2138 89.216 34.2335 89.2216C34.2533 89.2271 34.2745 89.2246 34.2924 89.2145C34.3103 89.2044 34.3234 89.1877 34.329 89.1679H34.3282Z"
    fill="#3D3397" />
  <path
    d="M52.9066 55.9855C53.04 55.9855 53.1481 55.8774 53.1481 55.744C53.1481 55.6106 53.04 55.5024 52.9066 55.5024C52.7732 55.5024 52.665 55.6106 52.665 55.744C52.665 55.8774 52.7732 55.9855 52.9066 55.9855Z"
    fill="#1F1D25" />
  <path
    d="M8.94497 99.7813H89.5302C90.6185 99.7813 91.7092 99.8022 92.7976 99.7813H92.9399C92.9502 99.7813 92.9604 99.7793 92.9699 99.7753C92.9794 99.7714 92.988 99.7656 92.9953 99.7584C93.0026 99.7511 93.0083 99.7425 93.0123 99.733C93.0162 99.7235 93.0182 99.7133 93.0182 99.703C93.0182 99.6927 93.0162 99.6826 93.0123 99.6731C93.0083 99.6636 93.0026 99.6549 92.9953 99.6477C92.988 99.6404 92.9794 99.6346 92.9699 99.6307C92.9604 99.6268 92.9502 99.6248 92.9399 99.6248H12.3547C11.2664 99.6248 10.1757 99.6039 9.0881 99.6248H8.94497C8.93469 99.6248 8.92452 99.6268 8.91502 99.6307C8.90552 99.6346 8.89689 99.6404 8.88963 99.6477C8.88236 99.6549 8.87659 99.6636 8.87266 99.6731C8.86872 99.6826 8.8667 99.6927 8.8667 99.703C8.8667 99.7133 8.86872 99.7235 8.87266 99.733C8.87659 99.7425 8.88236 99.7511 8.88963 99.7584C8.89689 99.7656 8.90552 99.7714 8.91502 99.7753C8.92452 99.7793 8.93469 99.7813 8.94497 99.7813Z"
    fill="#1F1D25" />
  <path
    d="M31.6332 62.9035C31.5513 62.6982 31.4423 62.5049 31.309 62.3287C31.0783 61.9979 30.7768 61.7226 30.4265 61.5229C30.0761 61.3232 29.6857 61.204 29.2835 61.174C28.8713 61.1397 28.456 61.1986 28.0475 61.2553C27.4579 61.3373 26.8749 61.5028 26.2808 61.546C25.4906 61.6027 24.6996 61.4409 23.9512 61.2001C23.7191 61.1286 23.4909 61.045 23.2676 60.9496C23.1185 60.8818 22.9813 60.7901 22.8106 60.7819C22.581 60.7707 22.4118 60.9914 22.5363 61.1979C22.6727 61.4215 22.9582 61.5743 23.1804 61.6996C23.5149 61.8842 23.8591 62.051 24.2113 62.199C24.6266 62.3794 25.0455 62.5546 25.4727 62.703C25.8912 62.8605 26.332 62.9505 26.7787 62.9698C26.9905 62.9698 27.1992 62.9385 27.4109 62.9467C27.5878 62.9533 27.7632 62.9824 27.9327 63.0332C28.4067 63.1816 28.8261 63.4669 29.1381 63.8532C29.1541 63.871 29.1688 63.89 29.1821 63.9099C29.2395 63.9911 29.3752 63.9099 29.3171 63.8308C29.1125 63.5542 28.8548 63.3213 28.5589 63.1458C28.2926 62.9808 27.9966 62.8696 27.6875 62.8185C27.2961 62.7574 26.9062 62.8401 26.5134 62.7984C26.0571 62.7507 25.6188 62.6001 25.1916 62.4361C24.801 62.287 24.4149 62.126 24.0332 61.953C23.7019 61.8088 23.3804 61.6429 23.0708 61.4565C22.9532 61.3871 22.8437 61.3049 22.7443 61.2113C22.7003 61.1681 22.6347 61.0935 22.6436 61.0421C22.6839 60.8102 23.0477 61.0167 23.1543 61.0719C23.2887 61.1357 23.4272 61.1908 23.5688 61.2366C24.309 61.5065 25.0903 61.6988 25.8797 61.7137C26.4202 61.7234 26.9383 61.6071 27.4653 61.5087C27.8505 61.4372 28.2379 61.3822 28.6275 61.344C28.985 61.3018 29.3471 61.3212 29.698 61.4014C30.0887 61.5046 30.451 61.695 30.7576 61.9583C31.0643 62.2215 31.3073 62.5508 31.4685 62.9214C31.4782 62.943 31.4625 62.9102 31.4744 62.9363C31.476 62.9396 31.4773 62.9431 31.4782 62.9467C31.5132 63.0399 31.6653 62.9997 31.6273 62.905L31.6332 62.9035Z"
    fill="#1F1D25" />
  <path
    d="M23.8935 61.895L22.993 61.98C22.7872 61.9994 22.4607 62.0143 22.4003 62.2678C22.3623 62.4273 22.4972 62.5779 22.6344 62.6361C22.7782 62.6891 22.9288 62.7214 23.0817 62.7323C23.5326 62.774 23.9857 62.789 24.4384 62.777C24.8633 62.777 25.2972 62.7457 25.7206 62.7859C25.8213 62.7956 25.8205 62.6368 25.7206 62.6294C25.3839 62.6081 25.0462 62.6044 24.709 62.6182C24.2744 62.6182 23.8383 62.6264 23.4045 62.6018C23.2329 62.595 23.0621 62.5765 22.8931 62.5466C22.7894 62.5265 22.6694 62.5011 22.6053 62.4273C22.4883 62.2887 22.6225 62.2037 22.7544 62.1649C22.7604 62.1649 22.8036 62.1515 22.7805 62.1567C22.7574 62.1619 22.7909 62.1567 22.7969 62.1567L22.9527 62.1418L23.8972 62.0531C23.9971 62.0434 23.9979 61.8868 23.8972 61.8965L23.8935 61.895Z"
    fill="#1F1D25" />
  <path
    d="M27.5475 61.3761C27.4751 61.2015 27.3791 61.0377 27.262 60.8893C27.0576 60.6299 26.7865 60.431 26.4778 60.3138C26.3287 60.2526 26.1796 60.199 26.038 60.1304C25.9291 60.0774 25.8031 60.0148 25.7398 59.9067C25.7121 59.8621 25.6994 59.8099 25.7032 59.7576C25.7042 59.7374 25.7074 59.7174 25.7129 59.698C25.7129 59.7054 25.7219 59.6853 25.7196 59.6883C25.7528 59.6646 25.7922 59.6511 25.833 59.6495C26.0223 59.6452 26.211 59.6727 26.3913 59.7308C26.6473 59.7993 26.8996 59.881 27.1472 59.9753C27.6553 60.1629 28.1516 60.3807 28.6337 60.6276C28.9321 60.7808 29.2191 60.9552 29.4925 61.1495C29.6027 61.2199 29.703 61.3049 29.7906 61.4022C29.8533 61.4767 29.9636 61.3694 29.901 61.2911C29.8249 61.2064 29.7388 61.1313 29.6445 61.0675C29.3816 60.8728 29.1042 60.6983 28.8148 60.5456C28.3279 60.2884 27.8252 60.0623 27.3097 59.8687C27.0421 59.7658 26.77 59.6697 26.4897 59.5936C26.2875 59.5293 26.0771 59.4941 25.865 59.4893C25.7383 59.4893 25.5899 59.5273 25.5534 59.6667C25.4789 59.9522 25.7189 60.1438 25.9455 60.2549C26.2907 60.4226 26.6776 60.5091 26.9616 60.7827C27.0899 60.9084 27.2001 61.0514 27.2889 61.2076C27.3179 61.2576 27.3448 61.3082 27.3701 61.3567L27.3925 61.4052C27.4014 61.4253 27.3925 61.3977 27.3925 61.4052C27.4297 61.4969 27.5818 61.4566 27.5416 61.3634L27.5475 61.3761Z"
    fill="#1F1D25" />
  <path opacity="0.29"
    d="M35.7511 99.7441C35.7032 99.5807 35.6038 99.4372 35.4677 99.3349C35.3317 99.2326 35.1662 99.1768 34.996 99.176C34.3698 99.147 33.8666 99.4742 33.2479 99.3699C32.6291 99.2655 32.9392 98.8667 32.6224 98.4425C32.3056 98.0183 31.997 97.9169 31.7808 97.9602C31.5646 98.0034 30.9682 98.4134 30.1049 98.2196C29.2417 98.0258 29.1202 97.299 29.0121 96.9106C28.904 96.5222 28.7102 95.7596 28.3412 95.2638C27.9722 94.7681 27.3773 94.5929 26.9606 94.4006C26.5438 94.2082 25.3205 93.8325 25.1118 92.7605C24.9031 91.6885 26.1517 90.2863 27.5554 90.2722C28.7966 90.3788 29.525 90.9125 29.525 90.9125C29.525 90.9125 29.0449 90.3668 29.5406 89.8226C30.0364 89.2785 31.2209 88.4972 31.1009 87.8375C30.9809 87.1777 28.6073 85.1426 28.6073 85.1426C28.6073 85.1426 26.8584 84.0438 27.1164 81.9751C27.3743 79.9064 29.3736 80.4156 30.3316 80.8882C31.2895 81.3608 33.7607 83.027 35.1175 85.367C36.4742 87.707 37.1034 89.7049 37.6588 91.986C37.9916 93.3446 38.213 94.728 38.3208 96.1226L38.2678 99.7009L35.7511 99.7441Z"
    fill="#3D3397" />
  <path
    d="M93.3272 62.176C89.3329 60.1207 86.199 59.865 83.6227 60.53C83.5481 60.53 78.6824 60.8058 71.8942 68.1338C65.0515 75.5191 58.1268 68.5669 50.1712 74.8892C37.0509 85.3131 55.7123 99.6813 55.7123 99.6813H57.5759C57.5759 99.4211 57.5759 97.1832 57.5908 96.5451C57.6065 95.866 58.1127 90.5135 58.352 89.1515C58.5913 87.7895 59.9965 79.2711 65.2148 73.9231C70.433 68.5751 73.8078 68.9374 74.7284 70.5774C74.7284 70.5774 75.7162 72.2085 75.0468 73.9216C74.3773 75.6347 73.8935 75.9426 73.0258 76.7775C72.1581 77.6124 68.8855 80.1492 68.9511 81.3129C69.0167 82.4766 70.3786 83.07 70.9057 83.6634C71.4327 84.2568 71.7958 84.6735 71.7518 85.1021C71.7208 85.3706 71.6364 85.6302 71.5035 85.8655C71.5035 85.8655 73.7064 84.5087 75.9764 85.1677C78.2463 85.8267 78.4908 88.2987 78.3701 88.7594C78.2493 89.2201 78.1397 90.2503 76.0859 91.1203C74.0322 91.9903 73.6475 92.2437 73.154 92.9653C72.3944 94.0761 72.1618 96.9238 70.8803 97.2264C69.4796 97.5574 69.0353 97.3584 68.5082 97.1936C67.9812 97.0289 67.6733 96.8209 67.2231 97.1191C66.824 97.3606 66.5213 97.7332 66.3665 98.1732C66.1794 98.6458 66.2129 99.1617 65.334 99.228C64.4551 99.2944 63.6426 98.8553 62.83 98.8657C62.0845 98.8754 61.767 99.5612 61.7192 99.6753L86.1707 99.6432C86.1707 99.6432 95.5181 93.2128 98.585 86.7996C101.652 80.3863 103.405 67.3592 93.3272 62.176Z"
    fill="#DBE5F0" />
  <path opacity="0.29" d="M57.5732 99.7032L61.7128 99.689L61.7188 99.6726L57.5732 99.6778V99.7032Z" fill="#DBE5F0" />
  <path opacity="0.29"
    d="M57.5054 99.782C57.5054 99.782 57.5054 97.2989 57.521 96.6198C57.5367 95.9406 58.0429 90.5889 58.2821 89.2262C58.5214 87.8635 59.9266 79.3495 65.1405 74.0015C70.3543 68.6535 73.7327 69.0158 74.6534 70.6551C74.6534 70.6551 75.6419 72.2869 74.9717 74C74.3015 75.7131 73.8184 76.021 72.9515 76.8559C72.0845 77.6908 68.8111 80.2269 68.8767 81.3913C68.9423 82.5557 70.3043 83.1484 70.8314 83.7418C71.3584 84.3352 71.7214 84.7519 71.6775 85.1805C71.6464 85.4488 71.562 85.7081 71.4292 85.9431C71.4292 85.9431 73.6321 84.5871 75.9058 85.2461C78.1794 85.9051 78.4202 88.3771 78.2995 88.8371C78.1787 89.297 78.0691 90.328 76.0153 91.1987C73.9616 92.0694 73.5769 92.3221 73.0827 93.0437C72.323 94.1538 72.0912 97.0022 70.8097 97.3049C69.409 97.6358 68.9647 97.4368 68.4377 97.2721C67.9106 97.1073 67.6027 96.8993 67.1525 97.1975C66.7534 97.439 66.4507 97.8116 66.2959 98.2516C66.1088 98.7242 66.1424 99.2401 65.2635 99.3057C64.3845 99.3713 63.572 98.933 62.7594 98.9434C61.9469 98.9538 61.6412 99.7694 61.6412 99.7694L57.5054 99.782Z"
    fill="#3D3397" />
  <path
    d="M57.6615 99.6897C57.6533 99.5346 57.6488 99.3796 57.6451 99.2245C57.6339 98.7884 57.6317 98.3531 57.6346 97.917C57.6396 97.2515 57.658 96.586 57.6898 95.9206C57.7301 95.0703 57.79 94.2212 57.8695 93.3733C57.9629 92.3794 58.0847 91.3854 58.2348 90.3915C58.3997 89.309 58.6018 88.2333 58.8408 87.1643C59.0958 86.0357 59.3954 84.9168 59.7481 83.8142C60.1095 82.6767 60.534 81.5602 61.0198 80.47C61.5098 79.3699 62.0767 78.3057 62.7165 77.2854C63.3563 76.265 64.085 75.3031 64.894 74.4109C65.9181 73.294 67.0553 72.2865 68.2874 71.4044C69.2334 70.7245 70.2651 70.0991 71.3923 69.7756C72.0878 69.5765 72.8534 69.4945 73.5474 69.7442C74.0818 69.943 74.5239 70.3322 74.7887 70.8371C75.0772 71.3709 75.186 71.9896 75.1785 72.5912C75.1676 73.2543 75.0241 73.9084 74.7566 74.5152C74.6201 74.8262 74.4514 75.122 74.2534 75.3979C73.9552 75.8131 73.5728 76.156 73.2015 76.5049C72.5783 77.0908 71.9342 77.6559 71.2991 78.2254C70.7818 78.6876 70.2607 79.1506 69.7895 79.6605C69.2438 80.2501 68.5625 81.1067 69.0105 81.9408C69.1192 82.133 69.2608 82.3045 69.4287 82.4478C69.7508 82.7355 70.0795 83.0143 70.3978 83.3058C70.8339 83.7046 71.3297 84.1392 71.5802 84.6871C71.7732 85.1098 71.6689 85.5139 71.3945 85.8717C71.3334 85.9515 71.4691 86.029 71.5302 85.9507C71.8053 85.5914 71.9283 85.1635 71.765 84.7274C71.5675 84.1989 71.1224 83.7739 70.7214 83.3938C70.4232 83.1075 70.1064 82.8332 69.7925 82.5596C69.5748 82.3687 69.3452 82.1868 69.1894 81.9379C68.977 81.5964 68.9785 81.211 69.1335 80.8472C69.3385 80.3657 69.7113 79.9601 70.0706 79.5896C70.5723 79.0738 71.1142 78.5974 71.6525 78.1188C72.3189 77.5225 72.9846 76.9335 73.6272 76.3155C73.9383 76.033 74.2187 75.7184 74.4636 75.377C74.8463 74.8075 75.1105 74.1669 75.2404 73.4932C75.3719 72.8575 75.3668 72.2012 75.2255 71.5677C75.0906 71.0011 74.8155 70.4554 74.3757 70.0655C73.9015 69.6444 73.2843 69.4498 72.6559 69.4401C71.7404 69.4267 70.8406 69.7547 70.0318 70.1572C68.7362 70.8036 67.5718 71.7033 66.4871 72.6553C65.4807 73.5296 64.5612 74.4993 63.7415 75.5507C63.0021 76.5148 62.3414 77.5369 61.766 78.6071C61.1939 79.6719 60.6899 80.7719 60.2572 81.9006C59.8291 83.0157 59.4576 84.1518 59.1442 85.3044C58.8406 86.4122 58.5834 87.5304 58.3727 88.659C58.1739 89.7027 58.0104 90.754 57.8821 91.8131C57.7659 92.7514 57.6747 93.6921 57.6086 94.6354C57.5539 95.4117 57.5159 96.189 57.4945 96.9672C57.4796 97.5323 57.4744 98.0974 57.4788 98.6624C57.4788 98.9658 57.487 99.27 57.4997 99.5726C57.4997 99.6114 57.4997 99.6472 57.5049 99.6882C57.5102 99.7881 57.6667 99.7888 57.6615 99.6882V99.6897Z"
    fill="#3D3397" />
  <path
    d="M60.1342 99.7096C60.1924 99.5419 60.258 99.3764 60.3236 99.2116C60.5032 98.7584 60.6963 98.3111 60.9043 97.8698C61.2129 97.2038 61.5449 96.5498 61.9002 95.9077C62.3426 95.1071 62.8184 94.3263 63.3278 93.5655C63.9111 92.6944 64.543 91.8569 65.2206 91.057C65.948 90.197 66.736 89.3901 67.5785 88.6424C68.5098 87.8143 69.5188 87.0781 70.5917 86.444C71.5764 85.8663 72.6387 85.369 73.7674 85.1581C74.5084 85.0194 75.2874 85.0194 76.0038 85.2699C76.5546 85.4654 77.0435 85.804 77.4202 86.2509C77.7471 86.64 77.9925 87.0907 78.1418 87.5764C78.2611 87.9588 78.3341 88.3636 78.279 88.7639C78.2187 89.2125 78.021 89.6315 77.7132 89.9634C77.3814 90.3219 76.958 90.5836 76.5279 90.8072C75.9971 91.0831 75.441 91.3082 74.8878 91.5356C74.6092 91.6413 74.3408 91.7721 74.0857 91.9262C73.8666 92.0658 73.6649 92.231 73.4849 92.4182C72.8445 93.0891 72.5717 93.9702 72.3249 94.8395C72.2108 95.2383 72.0804 95.6297 71.9291 96.0166C71.8001 96.3461 71.6458 96.6808 71.3707 96.9111C71.0412 97.1914 70.5857 97.2839 70.1683 97.3293C69.6464 97.3875 69.144 97.3606 68.6505 97.1728C68.3523 97.0587 68.0496 96.8746 67.7194 96.8858C67.2945 96.8999 66.8941 97.2272 66.6303 97.5351C66.4828 97.7086 66.3661 97.906 66.2851 98.1188C66.2202 98.2858 66.18 98.4602 66.1256 98.6302C66.093 98.7651 66.0212 98.8873 65.9191 98.9813C65.764 99.105 65.5426 99.1237 65.3525 99.1304C64.8031 99.1423 64.2604 99.0178 63.7266 98.9067C63.3315 98.8247 62.9014 98.7263 62.5011 98.8322C62.0866 98.938 61.8197 99.2795 61.6445 99.6522C61.6021 99.7424 61.737 99.8222 61.7795 99.7312C61.9629 99.3421 62.2402 99.0096 62.6904 98.9582C63.1251 98.909 63.5716 99.0417 63.9935 99.1281C64.2582 99.1818 64.5243 99.2303 64.7927 99.2608C65.0733 99.3021 65.3584 99.3038 65.6395 99.266C65.8093 99.2432 65.9667 99.1645 66.0868 99.0424C66.1821 98.9233 66.2502 98.785 66.2866 98.6369C66.3323 98.46 66.3878 98.2858 66.4528 98.1151C66.5479 97.891 66.6868 97.6883 66.8614 97.5187C67.132 97.2533 67.5002 96.9805 67.905 97.0632C68.0609 97.102 68.2125 97.1565 68.3575 97.2257C68.5381 97.3063 68.7242 97.3741 68.9144 97.4285C69.4474 97.5709 70.0184 97.5388 70.5544 97.4329C70.9398 97.3584 71.3215 97.2093 71.5981 96.9178C71.8553 96.6427 71.9976 96.2849 72.1288 95.9375C72.2779 95.5462 72.4009 95.1518 72.5157 94.75C72.6299 94.3161 72.7795 93.8922 72.963 93.4827C73.1641 93.0428 73.4549 92.6498 73.8166 92.3287C74.281 91.9269 74.8506 91.7264 75.4089 91.4923C75.9388 91.2832 76.4536 91.0379 76.9498 90.758C77.3531 90.5195 77.7348 90.231 78.0151 89.8515C78.379 89.3452 78.5277 88.7154 78.4288 88.0997C78.3567 87.6278 78.199 87.1731 77.9636 86.7579C77.6709 86.216 77.2406 85.7608 76.7161 85.438C76.1917 85.1152 75.5914 84.9361 74.9758 84.9188C74.0454 84.8696 73.1121 85.1081 72.2571 85.451C71.0464 85.9341 69.92 86.6289 68.8741 87.4019C67.9359 88.0999 67.0559 88.8727 66.2426 89.7129C65.4751 90.5001 64.7582 91.3352 64.0964 92.2132C63.5 93.0101 62.9402 93.8383 62.4228 94.6904C61.989 95.406 61.5832 96.1381 61.2055 96.8865C60.9252 97.4434 60.6598 98.0047 60.4145 98.5825C60.2788 98.9 60.1469 99.2206 60.0276 99.5449C60.012 99.5859 59.9971 99.6269 59.9829 99.6686C59.9501 99.764 60.1014 99.805 60.132 99.7096H60.1342Z"
    fill="#3D3397" />
  <path
    d="M78.1676 87.3281C78.055 87.3371 77.9439 87.3512 77.8306 87.3654C77.513 87.4057 77.197 87.4563 76.8824 87.5145C76.4078 87.601 75.9356 87.7031 75.466 87.8209C74.8636 87.97 74.2673 88.1439 73.6769 88.3427C72.9786 88.5743 72.2915 88.8375 71.6156 89.1322C70.8595 89.4607 70.1217 89.8298 69.4053 90.2377C68.6277 90.6807 67.8788 91.1722 67.1629 91.7092C66.3911 92.288 65.6623 92.9221 64.9824 93.6065C64.2565 94.3383 63.5909 95.1276 62.992 95.9666C62.3413 96.8799 61.7707 97.8476 61.2864 98.859C61.1616 99.1189 61.0424 99.3818 60.9286 99.6477C60.8898 99.7387 61.0247 99.8184 61.0642 99.7267C61.5123 98.678 62.05 97.6698 62.6715 96.7136C63.2443 95.8363 63.8889 95.008 64.5985 94.2371C65.2582 93.5207 65.9707 92.8546 66.7298 92.2445C67.4376 91.6757 68.1822 91.1542 68.9588 90.6835C69.6741 90.2494 70.413 89.8554 71.1721 89.5034C71.8534 89.1868 72.5492 88.903 73.2594 88.6521C73.8692 88.4359 74.4869 88.2441 75.1126 88.0766C75.6113 87.9431 76.1145 87.8246 76.6215 87.7247C76.9718 87.6554 77.3237 87.5943 77.677 87.5451C77.7672 87.5324 77.8694 87.519 77.9827 87.5055L78.1489 87.4884H78.1691C78.269 87.4802 78.2697 87.3237 78.1691 87.3319L78.1676 87.3281Z"
    fill="#3D3397" />
  <path
    d="M74.7242 70.577C74.5998 70.6516 74.479 70.738 74.359 70.8215C74.0146 71.0623 73.6799 71.3158 73.3511 71.5759C72.8407 71.981 72.3437 72.4034 71.8602 72.8432C71.2191 73.4257 70.6016 74.0323 70.0077 74.6629C69.2831 75.4303 68.5925 76.2274 67.936 77.0544C67.1781 78.0076 66.466 78.9948 65.7995 80.0161C65.0424 81.1772 64.3458 82.3765 63.7122 83.6093C63.0071 84.9793 62.3775 86.3869 61.8262 87.8257C61.2143 89.4229 60.6953 91.0542 60.2719 92.7115C59.8068 94.5327 59.4488 96.3797 59.1999 98.2428C59.1353 98.7249 59.0774 99.2082 59.0262 99.6928C59.015 99.7927 59.1753 99.7919 59.1827 99.6928C59.3843 97.7727 59.699 95.8662 60.125 93.9832C60.5092 92.2887 60.9911 90.6178 61.5682 88.9789C62.0919 87.4915 62.6984 86.0345 63.3849 84.6149C64.0023 83.3377 64.6858 82.0936 65.4327 80.8876C66.0937 79.8216 66.8042 78.7886 67.564 77.7887C68.224 76.9224 68.9198 76.0855 69.6513 75.2779C70.2596 74.6085 70.8935 73.9624 71.553 73.3397C72.0644 72.8589 72.5907 72.393 73.1342 71.9487C73.498 71.6505 73.8692 71.3627 74.2524 71.0884C74.4246 70.9639 74.6072 70.8521 74.7794 70.7269C74.7861 70.7216 74.7943 70.7172 74.801 70.7127C74.8868 70.6598 74.8085 70.5241 74.7265 70.5778L74.7242 70.577Z"
    fill="#3D3397" />
  <path
    d="M72.8049 93.6597L71.1649 92.8165L68.5766 91.4829L67.9803 91.1758C67.8908 91.1295 67.811 91.2645 67.9012 91.3107L69.5375 92.1538L72.1258 93.4882L72.7222 93.7946C72.8116 93.8408 72.8914 93.7059 72.8012 93.6597H72.8049Z"
    fill="#3D3397" />
  <path
    d="M72.1603 95.6623L71.5446 95.3738L70.0656 94.6797L68.2764 93.8411L66.7273 93.1187C66.4768 93.0009 66.2286 92.8712 65.9729 92.7646L65.9617 92.7594C65.8715 92.7169 65.7918 92.8518 65.8872 92.8951L66.5022 93.1836L67.9812 93.8769L69.7703 94.7163L71.3187 95.4424C71.5692 95.5594 71.8174 95.6891 72.0731 95.7957L72.0843 95.8009C72.1745 95.8434 72.2543 95.7085 72.1633 95.666L72.1603 95.6623Z"
    fill="#3D3397" />
  <path
    d="M71.7135 85.7263L71.5927 86.9362L71.4011 88.8528L71.3579 89.2941C71.3475 89.394 71.507 89.3933 71.5145 89.2941L71.6345 88.0842L71.8245 86.1669L71.8685 85.7263C71.8782 85.6257 71.7194 85.6264 71.712 85.7263H71.7135Z"
    fill="#3D3397" />
  <path
    d="M69.5048 86.9879L69.487 88.0927L69.4579 89.8535L69.4512 90.2576C69.4512 90.2783 69.4594 90.2982 69.4741 90.3129C69.4888 90.3276 69.5087 90.3359 69.5294 90.3359C69.5502 90.3359 69.5701 90.3276 69.5848 90.3129C69.5995 90.2982 69.6077 90.2783 69.6077 90.2576L69.6264 89.1528L69.6547 87.392L69.6614 86.9879C69.6614 86.9672 69.6531 86.9473 69.6385 86.9326C69.6238 86.9179 69.6039 86.9097 69.5831 86.9097C69.5624 86.9097 69.5424 86.9179 69.5278 86.9326C69.5131 86.9473 69.5048 86.9672 69.5048 86.9879Z"
    fill="#3D3397" />
  <path
    d="M65.6819 80.4418L65.1876 78.6475L64.4012 75.7916L64.2215 75.14C64.2188 75.1302 64.2141 75.1211 64.2079 75.1131C64.2016 75.1051 64.1938 75.0984 64.1849 75.0934C64.1761 75.0885 64.1663 75.0853 64.1562 75.0841C64.1461 75.0828 64.1359 75.0836 64.1261 75.0864C64.1163 75.0891 64.1072 75.0937 64.0992 75.1C64.0912 75.1063 64.0845 75.1141 64.0795 75.123C64.0745 75.1318 64.0713 75.1416 64.0701 75.1517C64.0689 75.1618 64.0697 75.172 64.0724 75.1818L64.5667 76.9761L65.3531 79.832L65.5328 80.4828C65.5382 80.5026 65.5513 80.5194 65.5691 80.5296C65.5869 80.5397 65.608 80.5423 65.6278 80.5369C65.6476 80.5314 65.6644 80.5184 65.6745 80.5006C65.6846 80.4827 65.6873 80.4616 65.6819 80.4418Z"
    fill="#3D3397" />
  <path
    d="M64.1171 83.1293L63.6005 81.1911L62.7804 78.1347L62.594 77.4361C62.5864 77.419 62.5728 77.4052 62.5558 77.3973C62.5388 77.3893 62.5196 77.3877 62.5015 77.3928C62.4834 77.3978 62.4678 77.4092 62.4574 77.4248C62.447 77.4405 62.4426 77.4593 62.4449 77.4779L62.9623 79.4124L63.7824 82.4688L63.9695 83.1681C63.9722 83.1779 63.9769 83.187 63.9831 83.195C63.9894 83.203 63.9972 83.2097 64.0061 83.2147C64.0149 83.2197 64.0247 83.2228 64.0348 83.2241C64.0449 83.2253 64.0551 83.2245 64.0649 83.2217C64.0747 83.219 64.0838 83.2144 64.0918 83.2081C64.0998 83.2018 64.1065 83.194 64.1115 83.1851C64.1165 83.1763 64.1197 83.1665 64.1209 83.1564C64.1221 83.1463 64.1213 83.1361 64.1186 83.1263L64.1171 83.1293Z"
    fill="#3D3397" />
</svg>