<svg width="109" height="109" viewBox="0 0 109 109" fill="none" xmlns="http://www.w3.org/2000/svg">
  <path opacity="0.06"
    d="M63.9715 72.932C65.2526 69.26 66.0555 67.1187 67.0017 66.4427C65.7569 66.1892 61.3569 64.6297 61.3569 64.6297L60.1833 64.3359C60.1833 64.3359 60.0758 67.1439 59.8621 68.5688C59.6485 69.9937 58.677 73.5167 58.8157 75.6435H58.8056V76.4161C58.8056 76.8776 59.0781 77.8403 59.1362 78.2247C59.1943 78.6092 58.8884 79.1377 58.8884 79.1377L59.2801 82.0177H41.5988C41.5988 82.0177 41.2406 81.0428 40.1586 81.0363C39.0766 81.0299 37.7453 81.4597 37.1792 81.4431C36.6132 81.4266 36.0805 81.3603 35.6641 80.1731C35.2478 78.9858 34.3823 78.5718 33.6673 78.6387C32.9522 78.7057 32.5685 79.4646 30.7795 79.25C28.9904 79.0355 28.6721 78.1283 28.2587 76.7437C27.8452 75.3591 27.3264 73.3467 26.1281 72.5547C24.9298 71.7627 20.3002 70.6914 20.3685 67.905C20.4368 65.1186 22.7999 63.5432 24.6806 63.4734C26.5612 63.4035 29.2135 64.6254 29.2135 64.6254C29.2135 64.6254 28.5188 63.6714 28.9882 62.9694C29.4577 62.2674 30.7039 61.0873 32.0439 59.8511C32.9885 58.6609 31.5614 57.1784 31.5614 57.1784L25.8694 51.8655C25.8694 51.8655 24.0527 49.3491 24.169 47.6233C22.2353 49.4701 20.6955 52.0002 19.7414 55.4634C14.0603 76.0943 33.0394 82.0839 33.0394 82.0839H62.957C62.9403 81.7067 62.7376 76.4723 63.9715 72.932Z"
    fill="#1F1D25" />
  <path opacity="0.06"
    d="M80.6266 30.6954C67.1041 28.4547 65.2678 33.7986 58.5839 40.532C57.6611 41.4622 56.3589 42.026 54.7871 42.363L57.2149 46.5282L59.8309 45.3949C59.8309 45.3949 60.4849 46.6736 60.5801 47.2042C60.6753 47.7349 60.74 48.1237 60.74 48.1237L62.4985 47.7183C62.4985 47.7183 62.1235 46.7067 62.678 46.7017C63.2324 46.6966 63.2324 46.8212 63.2324 46.8212C63.2324 46.8212 63.2172 46.5584 63.7949 46.6203C64.1095 46.6534 64.1974 46.7197 64.212 46.7722C64.2592 46.6505 64.3776 46.4389 64.6116 46.5217C64.9343 46.6354 64.988 46.8363 64.988 46.8363C64.988 46.8363 65.0607 46.3611 65.3717 46.5217C65.6827 46.6822 65.7794 47.0494 65.7794 47.0494L66.3861 46.9774L83.8581 43.4494C83.8581 43.4494 83.7338 42.8871 84.1306 42.8871C84.5274 42.8871 84.5194 43.3666 84.5194 43.3666C84.5194 43.3666 85.3979 44.8642 85.3405 46.2654C85.3119 47.0826 85.1773 47.8927 84.9401 48.6759C84.936 48.7862 84.9217 48.8958 84.8972 49.0035C84.8435 49.1979 84.7744 49.2598 84.5971 49.2512C84.5313 49.2515 84.4665 49.2348 84.4091 49.2027C84.3518 49.1707 84.3039 49.1243 84.2701 49.0683L80.8054 49.1245C80.8054 49.1245 79.3622 50.4154 78.6159 50.5702C77.8696 50.725 76.5471 50.8085 76.186 51.1542C75.8248 51.4998 75.3081 52.0844 75.2958 52.5848C75.2834 53.0852 76.1264 53.0499 75.9578 53.8001C75.7892 54.5504 73.4915 61.4768 73.4915 61.4768C73.4915 61.4768 75.609 61.0714 76.0297 62.0485C76.4505 63.0255 76.667 63.5605 76.1503 64.5634C75.6337 65.5664 74.4107 66.547 72.6958 67.892C70.9809 69.2369 71.8238 69.8209 72.0134 70.0117C72.2031 70.2025 73.7698 71.2155 73.8301 71.6324C73.8661 71.8809 73.8253 72.1344 73.7131 72.3596C73.7131 72.3596 76.3291 71.2033 77.6793 72.4553C79.0294 73.7074 78.9306 75.0538 77.9198 75.5067C76.909 75.9596 74.9484 76.5312 74.612 77.3657C74.2756 78.2002 73.8904 80.0189 72.7416 80.1464C71.5927 80.2738 71.1589 79.6899 70.8588 79.7021C70.5587 79.7144 70.329 79.7496 69.7157 80.6201C69.1024 81.4906 68.8016 81.1443 68.2115 81.168C67.6215 81.1918 66.9726 81.168 66.5518 81.5496C66.2706 81.8038 66.1725 81.9888 66.1376 82.0846H87.3388C102.102 59.5155 94.1499 32.9367 80.6266 30.6954Z"
    fill="#1F1D25" />
  <path opacity="0.06"
    d="M62.9578 82.1063L64.1204 82.1567H66.1209C66.1241 82.132 66.1304 82.1078 66.1398 82.0847H62.957C62.957 82.0977 62.9578 82.1063 62.9578 82.1063Z"
    fill="#1F1D25" />
  <path opacity="0.06"
    d="M46.6034 74.9105C46.6034 74.9105 48.0829 71.0405 48.0829 69.6833C48.0829 69.6833 48.3387 66.9365 48.3162 65.4007C48.2937 63.865 48.1992 61.697 49.2609 60.2729C50.3225 58.8487 50.3254 57.6708 53.3593 57.1819C53.4261 56.7866 53.7953 54.1579 53.7953 54.1579L48.5088 50.2786L37.7468 50.3246C37.7468 50.3246 42.8706 56.3633 44.3486 62.5322C45.8266 68.7012 46.4167 70.7806 46.6034 74.9105Z"
    fill="#1F1D25" />
  <path opacity="0.06"
    d="M66.9196 50.108L67.5075 51.2701L68.2044 51.1585C68.2044 51.1585 69.3671 54.1364 69.564 55.3345C69.6838 56.061 69.8422 56.7808 70.0385 57.4909L72.3348 52.052C72.3348 52.052 72.4801 51.8115 72.7119 51.8122C72.9437 51.8129 73.2874 50.9648 73.2874 50.9648C73.2874 50.9648 73.7961 49.9294 74.3963 49.6241L74.9987 49.3196L66.8535 49.375C66.8535 49.375 67.0047 49.6263 66.9829 49.7753C66.9611 49.9244 66.9196 50.108 66.9196 50.108Z"
    fill="#1F1D25" />
  <path opacity="0.06"
    d="M58.3718 53.6791C58.0551 54.3333 57.822 55.0241 57.6778 55.7354C57.4598 56.8565 57.6545 58.2907 57.6545 58.2907L58.2555 58.6802C58.8564 59.0705 65.9045 61.1369 65.9045 61.1369C65.9045 61.1369 65.132 52.2593 65.0862 51.8971C65.0464 51.6231 64.9904 51.3517 64.9184 51.0842L64.712 51.1382C64.5049 51.1915 64.1939 51.0777 63.9853 50.9561C63.7768 50.8344 63.2754 50.3657 62.8742 50.2217C62.4731 50.0777 62.5945 49.511 62.5945 49.511C62.5945 49.511 60.8374 49.2561 60.833 49.506C60.8286 49.7558 60.9493 51.4377 60.49 52.445C60.0307 53.4523 58.3718 53.6791 58.3718 53.6791Z"
    fill="#1F1D25" />
  <path
    d="M73.3454 61.6085C74.224 61.3601 75.3496 61.3205 75.9135 62.1729C76.3742 62.8656 76.2891 63.803 75.9752 64.5353C75.7948 64.962 75.5242 65.3454 75.1817 65.6599C74.5531 66.2316 73.8665 66.7399 73.2001 67.2712C72.7009 67.6665 72.1726 68.0632 71.7664 68.5557C71.5215 68.8524 71.2999 69.2397 71.4612 69.6285C71.5491 69.8395 71.7177 69.9964 71.8972 70.1325C72.2271 70.3867 72.5636 70.6365 72.8884 70.8957C73.1209 71.0829 73.3651 71.2795 73.5424 71.5214C73.6572 71.6791 73.7436 71.8648 73.6877 72.0607C73.6543 72.1625 73.5993 72.256 73.5264 72.335C73.4624 72.407 73.57 72.5157 73.6339 72.4423C73.7793 72.2738 73.8839 72.0722 73.8519 71.8447C73.8199 71.6172 73.6732 71.4242 73.5206 71.2608C73.2822 71.0179 73.0241 70.7949 72.7488 70.594C72.5795 70.463 72.4088 70.3341 72.2402 70.2045C72.0892 70.0988 71.9453 69.9836 71.8093 69.8596C71.6671 69.7349 71.5778 69.5616 71.5593 69.3744C71.5622 69.1858 71.6239 69.0027 71.7359 68.8502C71.8883 68.6304 72.0667 68.4293 72.2671 68.2512C72.5141 68.0193 72.7757 67.804 73.0395 67.5916C73.7277 67.0387 74.4311 66.5044 75.1018 65.9299C75.4933 65.6085 75.8133 65.2101 76.0413 64.7599C76.4119 64.0017 76.5442 63.0391 76.1445 62.2644C75.96 61.9063 75.6552 61.6231 75.2827 61.4637C74.8097 61.2636 74.2785 61.265 73.7793 61.3521C73.619 61.3807 73.4603 61.4178 73.304 61.463C73.2847 61.4684 73.2684 61.4811 73.2586 61.4984C73.2488 61.5156 73.2463 61.5361 73.2517 61.5552C73.2571 61.5743 73.2699 61.5905 73.2874 61.6002C73.3048 61.6099 73.3254 61.6124 73.3447 61.607L73.3454 61.6085Z"
    fill="#3D3397" />
  <path
    d="M62.8895 82.0759C62.8714 81.7468 62.8699 81.4156 62.8706 81.0859C62.8706 80.2219 62.9113 79.3579 62.9818 78.4982C63.0784 77.2901 63.2429 76.0882 63.4745 74.8982C63.7386 73.5188 64.1152 72.1629 64.6008 70.8439C65.1072 69.4575 65.7837 68.1382 66.6151 66.9155C66.7188 66.7653 66.8256 66.6167 66.9356 66.4698C66.9937 66.3921 66.8629 66.3165 66.8033 66.3935C65.9235 67.5935 65.2024 68.9001 64.6575 70.2815C64.1293 71.6074 63.7174 72.9759 63.4265 74.3719C63.1677 75.5966 62.9804 76.8352 62.8655 78.0813C62.7798 78.9981 62.7314 79.9173 62.7202 80.8389C62.7159 81.2443 62.7071 81.6561 62.7369 82.0629C62.7366 82.0682 62.7366 82.0735 62.7369 82.0788C62.742 82.176 62.8946 82.176 62.8895 82.0788V82.0759Z"
    fill="#3D3397" />
  <path
    d="M64.7804 82.0961C64.9492 81.6541 65.1421 81.2215 65.3581 80.8001C65.8794 79.7518 66.487 78.7478 67.1747 77.7984C68.0812 76.5291 69.1548 75.3854 70.367 74.3978C71.0679 73.834 71.8223 73.3387 72.6196 72.9189C73.3768 72.52 74.1848 72.1831 75.0343 72.0348C76.0204 71.862 77.1009 71.9988 77.8225 72.7447C78.0645 72.9952 78.2502 73.2936 78.3675 73.6202C78.4668 73.8674 78.5039 74.1347 78.4758 74.3993C78.3733 75.1077 77.7382 75.5002 77.1336 75.7759C76.7187 75.9646 76.2871 76.1172 75.8584 76.2727C75.4739 76.4131 75.115 76.5946 74.8185 76.8797C74.3491 77.3326 74.1456 77.9395 73.9509 78.5415C73.7561 79.1434 73.4785 79.7655 72.8325 79.9959C72.4917 80.1161 72.087 80.1759 71.7316 80.0909C71.4766 80.0304 71.2673 79.89 71.0486 79.7547C70.8713 79.6452 70.6758 79.5581 70.4672 79.6236C70.1664 79.7172 69.931 80.0074 69.7522 80.25C69.6651 80.3706 69.5855 80.4964 69.5139 80.6266C69.4652 80.7229 69.4083 80.8149 69.3438 80.9016C69.173 81.109 68.8889 81.1234 68.6382 81.1227C67.9552 81.1227 67.1645 80.9664 66.5433 81.3387C66.2744 81.5113 66.0586 81.7539 65.9198 82.04C65.874 82.1264 66.0055 82.2027 66.0513 82.1163C66.2097 81.8197 66.4212 81.5554 66.7329 81.4092C67.0279 81.271 67.3666 81.2508 67.6877 81.2487C68.0925 81.2487 68.506 81.3113 68.9093 81.2645C69.1542 81.2364 69.3569 81.15 69.5015 80.947C69.6657 80.7173 69.7755 80.4574 69.9564 80.2364C70.1155 80.0412 70.3604 79.7374 70.6474 79.7554C70.8509 79.7676 71.0311 79.9296 71.199 80.0297C71.454 80.1889 71.7479 80.2765 72.0492 80.2832C72.4283 80.2907 72.8032 80.2033 73.1392 80.029C73.4213 79.8633 73.6496 79.6209 73.7968 79.3306C74.094 78.7841 74.1848 78.157 74.4748 77.6076C74.6361 77.2911 74.8686 77.0155 75.1542 76.8019C75.5226 76.5326 75.9608 76.4038 76.3837 76.2461C76.7824 76.1065 77.1709 75.9398 77.5464 75.7471C77.8508 75.595 78.12 75.3819 78.337 75.1214C78.464 74.9556 78.5544 74.7652 78.6025 74.5625C78.6505 74.3599 78.6552 74.1495 78.616 73.9449C78.5561 73.6232 78.4326 73.3164 78.2527 73.0421C77.7491 72.2637 76.8829 71.8562 75.9644 71.818C75.2523 71.79 74.5402 71.9556 73.8746 72.196C72.9767 72.5308 72.1227 72.9715 71.3312 73.5086C69.9666 74.4151 68.7698 75.5549 67.7401 76.8206C66.9117 77.8405 66.1818 78.9351 65.5601 80.0902C65.2261 80.698 64.929 81.325 64.6706 81.968C64.659 81.9975 64.6474 82.027 64.6365 82.0565C64.6031 82.148 64.7506 82.1876 64.7818 82.0969L64.7804 82.0961Z"
    fill="#3D3397" />
  <path
    d="M78.4016 73.4358C78.0753 73.4711 77.7476 73.5308 77.4293 73.5942C76.6074 73.7571 75.7963 73.9699 75.0008 74.2314C73.887 74.5935 72.8072 75.0513 71.7737 75.5994C70.5633 76.2382 69.4386 77.0251 68.426 77.9415C67.2991 78.9651 66.3524 80.1677 65.6247 81.4998C65.5278 81.676 65.4365 81.8545 65.3508 82.0355C65.3079 82.1226 65.4394 82.1996 65.4823 82.1118C66.1543 80.7307 67.0605 79.4741 68.1615 78.3966C69.145 77.4422 70.2501 76.6192 71.4489 75.9486C72.4871 75.3648 73.577 74.8763 74.705 74.4892C75.5332 74.2025 76.3788 73.9678 77.2367 73.7864C77.5019 73.731 77.7679 73.6806 78.036 73.6381L78.278 73.6014H78.3042L78.3391 73.5971L78.3863 73.5913H78.4023C78.4989 73.5805 78.5004 73.4293 78.4023 73.4401L78.4016 73.4358Z"
    fill="#3D3397" />
  <path
    d="M75.7915 62.2269C75.6978 62.2816 75.6062 62.3414 75.5154 62.4004C75.2582 62.5682 75.0067 62.7446 74.7597 62.926C74.3721 63.214 73.9921 63.5128 73.6195 63.8224C73.1385 64.2256 72.6727 64.6459 72.2221 65.0831C71.6786 65.6111 71.1578 66.1598 70.6598 66.729C70.0882 67.3828 69.548 68.0622 69.0393 68.7674C67.8411 70.4245 66.8308 72.2074 66.0266 74.0838C65.5673 75.1575 65.1749 76.258 64.8516 77.3793C64.5 78.6036 64.2287 79.8491 64.0391 81.1081C63.9907 81.4297 63.9471 81.7518 63.9083 82.0744C63.8967 82.1708 64.0493 82.1701 64.0609 82.0744C64.2147 80.7843 64.453 79.5055 64.7745 78.2461C65.0667 77.0987 65.4308 75.9705 65.8645 74.8679C66.628 72.9373 67.6074 71.0975 68.7843 69.383C69.2857 68.6524 69.8217 67.9466 70.3924 67.2654C70.8938 66.6669 71.4201 66.0909 71.9714 65.5375C72.4346 65.0723 72.9144 64.6243 73.411 64.1932C73.7976 63.8591 74.1936 63.5359 74.6012 63.2277C74.8781 63.0182 75.1601 62.8151 75.4493 62.6215C75.5793 62.5343 75.7152 62.4551 75.8453 62.368C75.8504 62.3637 75.8569 62.3608 75.862 62.3572C75.8706 62.3522 75.8782 62.3456 75.8842 62.3377C75.8903 62.3298 75.8947 62.3207 75.8972 62.3112C75.8998 62.3016 75.9004 62.2916 75.899 62.2817C75.8976 62.2719 75.8943 62.2625 75.8893 62.2539C75.8842 62.2453 75.8775 62.2379 75.8695 62.2319C75.8615 62.2259 75.8525 62.2215 75.8428 62.219C75.8331 62.2165 75.823 62.2159 75.8131 62.2173C75.8032 62.2186 75.7936 62.2219 75.785 62.2269H75.7915Z"
    fill="#3D3397" />
  <path
    d="M74.3539 77.6759L73.1978 77.1489L71.3629 76.3158L70.9386 76.1221C70.8499 76.0818 70.7729 76.2121 70.8615 76.2525L72.0184 76.7802L73.8532 77.6168L74.2769 77.8105C74.3655 77.8509 74.4433 77.7205 74.3539 77.6795V77.6759Z"
    fill="#3D3397" />
  <path
    d="M73.8484 79.0086L72.3464 78.3851L69.9716 77.3994L69.4252 77.1726C69.3351 77.1351 69.2951 77.2813 69.3845 77.3166L70.8872 77.9401L73.2613 78.9251L73.8077 79.1519C73.8986 79.1901 73.9378 79.0432 73.8484 79.0079V79.0086Z"
    fill="#3D3397" />
  <path
    d="M73.5032 72.3861L73.3419 74.5965L73.3193 74.9104C73.3121 75.0076 73.4647 75.0068 73.472 74.9104L73.6333 72.7L73.6558 72.3861C73.6631 72.2896 73.5105 72.2896 73.5032 72.3861Z"
    fill="#3D3397" />
  <path
    d="M71.8327 73.2299L71.7934 75.3395L71.7883 75.6354C71.7883 75.6555 71.7964 75.6747 71.8107 75.6889C71.825 75.7031 71.8444 75.711 71.8646 75.711C71.8849 75.711 71.9043 75.7031 71.9186 75.6889C71.9329 75.6747 71.9409 75.6555 71.9409 75.6354L71.9802 73.5251L71.9853 73.2299C71.9853 73.2098 71.9772 73.1906 71.9629 73.1764C71.9486 73.1623 71.9292 73.1543 71.909 73.1543C71.8887 73.1543 71.8693 73.1623 71.855 73.1764C71.8407 73.1906 71.8327 73.2098 71.8327 73.2299Z"
    fill="#3D3397" />
  <path
    d="M69.024 68.9972L68.4078 67.0164L68.3184 66.7284C68.2894 66.6355 68.1426 66.6751 68.1731 66.7687L68.7893 68.7488L68.878 69.0368C68.907 69.1289 69.0546 69.0893 69.0233 68.9965L69.024 68.9972Z"
    fill="#3D3397" />
  <path
    d="M67.8367 70.7863L67.4305 69.4427L66.7903 67.3216L66.6449 66.8306C66.6375 66.814 66.6243 66.8007 66.6077 66.793C66.5911 66.7853 66.5724 66.7838 66.5547 66.7887C66.5371 66.7936 66.5219 66.8046 66.5118 66.8196C66.5017 66.8347 66.4973 66.8529 66.4996 66.8709L66.9051 68.2137L67.546 70.3348L67.6913 70.8266C67.6988 70.8431 67.712 70.8564 67.7286 70.8641C67.7451 70.8718 67.7639 70.8734 67.7815 70.8685C67.7991 70.8636 67.8144 70.8526 67.8245 70.8375C67.8346 70.8224 67.839 70.8042 67.8367 70.7863Z"
    fill="#3D3397" />
  <path
    d="M64.6733 48.3701L65.1616 48.3053L66.4805 48.1303L68.4353 47.8711L70.8202 47.555L73.4231 47.2094L76.0689 46.8588L78.5185 46.5341L80.5968 46.2583L82.0901 46.0603L82.5537 45.9991C82.6337 45.9883 82.7179 45.984 82.7964 45.9667L82.8269 45.9624L82.7543 45.8904L82.8996 47.6364L82.92 47.8833C82.928 47.9791 83.0805 47.9805 83.0726 47.8833L82.9272 46.1373L82.9062 45.8904C82.9062 45.8544 82.8735 45.809 82.8335 45.8184L82.3452 45.8832L81.0263 46.0581L79.0715 46.3173L76.6866 46.6341L74.0837 46.979L71.4313 47.3225L68.9817 47.6479L66.9035 47.923L65.4102 48.1217L64.7038 48.2153H64.6733C64.5774 48.2282 64.5759 48.3794 64.6733 48.3665V48.3701Z"
    fill="#3D3397" />
  <path
    d="M60.6084 48.9093L61.7354 48.7595L63.5303 48.5212L63.9416 48.4672C64.0375 48.4542 64.0389 48.303 63.9416 48.316L62.8145 48.465L61.0189 48.7033L60.6084 48.7581C60.5125 48.7703 60.511 48.9222 60.6084 48.9093Z"
    fill="#3D3397" />
  <path
    d="M65.1428 52.445C65.1428 52.445 64.9612 51.2326 64.8522 51.149C64.7432 51.0655 64.321 51.2434 64.1349 51.0511C63.9489 50.8589 63.1605 50.4247 63.1605 50.4247C63.1605 50.4247 62.4055 50.0057 62.5668 49.5859C62.7281 49.1662 63.9235 48.1214 64.3835 48.2179C64.8434 48.3144 64.7562 48.6067 64.5382 48.7846C64.3202 48.9624 64.3391 49.1208 64.3391 49.1208C64.3391 49.1208 66.2219 48.8738 66.5685 49.1669C66.9151 49.4599 66.9362 49.4599 66.9449 49.8149L66.9544 50.1749L67.5495 51.2758C67.5495 51.2758 65.9487 51.9079 65.1428 52.445Z"
    fill="#AD262E" />
  <path
    d="M72.865 51.8143C72.865 51.8143 73.6643 50.0294 74.5167 49.5578C75.3691 49.0862 75.1075 49.4304 75.5573 48.9098C76.0071 48.3893 77.4343 47.3172 78.0767 47.5275C78.7191 47.7377 78.0767 48.1034 78.0767 48.1034C78.0767 48.1034 77.1255 48.5239 77.1516 48.8839C77.1778 49.2439 77.4496 49.434 77.7759 49.4074C78.1021 49.3807 80.3919 48.5434 80.6825 48.3231C80.9732 48.1027 81.3896 48.1322 81.3126 48.3871C81.2355 48.642 79.3585 50.2721 78.9734 50.3736C78.5883 50.4751 76.8137 50.7811 76.4795 50.8956C76.1452 51.0101 75.6205 51.535 75.4621 51.8143C75.3037 52.0937 75.1656 52.7093 75.1656 52.7093C75.1656 52.7093 74.1054 51.8806 72.865 51.8143Z"
    fill="#AD262E" />
  <path
    d="M62.9968 46.8104C62.9968 46.8104 62.6335 46.5613 62.4569 46.7542C62.3596 46.8693 62.2917 47.006 62.2592 47.1527C62.2267 47.2994 62.2304 47.4517 62.2702 47.5966C62.3559 47.9178 62.5609 48.5218 62.8646 48.4095C63.1683 48.2972 63.1981 48.1417 63.1981 47.8429C63.1981 47.5441 63.2294 48.1546 63.6748 48.0546C64.1202 47.9545 64.0381 47.4066 64.0381 47.4066C64.0381 47.4066 64.3172 48.0351 64.6376 47.8738C64.9581 47.7126 64.9203 47.3511 64.9203 47.3511C64.9203 47.3511 65.203 47.6665 65.3657 47.5959C65.5285 47.5254 65.7152 47.1704 65.6259 46.94C65.5365 46.7096 65.3098 46.4785 65.1528 46.4885C64.9959 46.4986 64.8069 46.7413 64.8069 46.7413C64.8069 46.7413 64.5243 46.4223 64.3927 46.4885C64.2612 46.5548 64.0381 46.8284 64.0381 46.8284C64.0381 46.8284 63.8339 46.5483 63.5702 46.5728C63.3064 46.5973 62.9968 46.8104 62.9968 46.8104Z"
    fill="#AD262E" />
  <path
    d="M53.3562 57.1756L53.806 53.9752C53.806 53.9752 56.5506 51.8872 55.9635 51.5927C55.3763 51.2982 53.596 51.0167 54.0778 50.1297C54.5596 49.2426 55.922 48.6601 56.2781 49.1173C56.6342 49.5745 56.7773 49.2412 56.842 49.1173C56.9067 48.9935 58.5409 45.7074 59.3999 45.3884C60.2588 45.0695 59.9449 45.7333 59.9449 45.7333C59.9449 45.7333 60.5778 47.4095 60.5858 47.8796C60.5938 48.3498 60.391 48.2044 60.1258 48.2145C59.8606 48.2245 59.5888 48.2454 59.5888 48.5154C59.5888 48.7854 59.5466 49.5004 59.9027 49.5061C60.2588 49.5119 60.8343 49.5061 60.8343 49.5061C60.8343 49.5061 61.013 51.2557 60.6991 51.9405C60.3852 52.6252 59.8606 53.4978 58.7924 53.6015C57.7242 53.7052 57.5614 56.3209 57.5614 56.3209V58.3369C57.5614 58.3369 56.1713 57.5241 55.5028 57.4009C54.8342 57.2778 53.3562 57.1756 53.3562 57.1756Z"
    fill="#AD262E" />
  <path
    d="M56.4765 53.3481C56.6963 53.4824 56.9362 53.5816 57.1872 53.6418C57.7728 53.7959 58.3895 53.7909 58.9726 53.6274C59.4943 53.4834 59.9899 53.2192 60.3373 52.7994C60.636 52.4189 60.8301 51.9682 60.9004 51.4912C61.0138 50.836 60.9796 50.1635 60.9106 49.5062C60.9004 49.4104 60.7478 49.4097 60.758 49.5062C60.8299 50.0759 60.8394 50.6516 60.7863 51.2234C60.7333 51.6885 60.6047 52.1593 60.3373 52.5474C59.7138 53.4625 58.4072 53.7606 57.3659 53.5302C57.0785 53.4749 56.8033 53.3691 56.5535 53.2177C56.4714 53.1637 56.3944 53.2948 56.4765 53.3481Z"
    fill="#1F1D25" />
  <path
    d="M57.6763 58.3664C57.6434 57.998 57.6307 57.6281 57.6385 57.2584C57.6346 56.4837 57.7274 55.7115 57.9146 54.9594C58.0228 54.521 58.1993 54.1019 58.4378 53.7174C58.4909 53.6354 58.3594 53.5598 58.3063 53.6411C57.8638 54.3258 57.6741 55.1488 57.5724 55.9451C57.4901 56.616 57.4658 57.2926 57.4997 57.9676C57.5055 58.1008 57.5128 58.234 57.5259 58.3664C57.5353 58.4622 57.6879 58.4636 57.6785 58.3664H57.6763Z"
    fill="#1F1D25" />
  <path
    d="M68.2651 61.5612C67.0901 61.3891 65.9325 61.0788 64.7909 60.7612C63.4733 60.394 62.1653 59.9913 60.8669 59.5531C59.9223 59.2356 58.9667 58.9173 58.054 58.5148C57.8485 58.4183 57.6493 58.3091 57.4574 58.188C57.0864 57.9718 56.6974 57.7873 56.2948 57.6364C55.1248 57.1857 53.8059 56.938 52.5633 57.2138C51.87 57.3666 51.2293 57.697 50.7053 58.1721C50.0934 58.7287 49.6022 59.44 49.2243 60.1687C48.6507 61.292 48.3102 62.5178 48.223 63.7737C48.2028 64.1782 48.2047 64.5834 48.2288 64.9876C48.271 66.2409 48.2324 67.4955 48.1133 68.7439C48.0358 69.5887 47.9096 70.4283 47.7354 71.2588C47.5428 72.1081 47.2957 72.9442 46.9956 73.7623C46.875 74.106 46.7527 74.4492 46.6287 74.7919C46.5952 74.8833 46.7428 74.9229 46.774 74.8315C47.0494 74.0697 47.3386 73.308 47.5697 72.5275C47.8087 71.7051 47.9891 70.8671 48.1096 70.0197C48.3151 68.596 48.4109 67.1588 48.3959 65.7206C48.3959 65.2432 48.3516 64.7659 48.3538 64.2885C48.3664 63.285 48.5453 62.2904 48.8835 61.3444C49.1434 60.5971 49.5105 59.8908 49.9735 59.2471C50.44 58.5991 50.9988 58.0173 51.7255 57.6631C52.9223 57.0813 54.3291 57.1828 55.5768 57.5486C56.0711 57.6931 56.5512 57.8815 57.0113 58.1116C57.2503 58.2319 57.4669 58.3874 57.7023 58.5105C57.9963 58.6563 58.2981 58.7861 58.6063 58.8993C59.0837 59.0858 59.5662 59.2593 60.0502 59.4292C61.3 59.8656 62.5596 60.2695 63.8288 60.641C65.0467 61.001 66.2755 61.3394 67.5225 61.5842C67.7572 61.6303 67.9919 61.672 68.2281 61.7066C68.324 61.7203 68.3654 61.5748 68.2688 61.5626L68.2651 61.5612Z"
    fill="#1F1D25" />
  <path
    d="M67.7514 61.5957C67.904 61.5237 68.0225 61.3797 68.1242 61.2501C68.292 61.0311 68.4454 60.8017 68.5835 60.5632C68.9831 59.89 69.3298 59.1851 69.6655 58.4752C70.0615 57.6429 70.4365 56.8012 70.8027 55.9552C71.1302 55.1958 71.4509 54.4333 71.7648 53.6677C71.9586 53.1964 72.1492 52.7238 72.3367 52.2501C72.3556 52.2025 72.3738 52.1543 72.3934 52.1061C72.4023 52.076 72.4206 52.0496 72.4457 52.0305C72.6579 51.8181 73.0481 51.8742 73.3111 51.9304C73.7398 52.03 74.1507 52.1937 74.5298 52.4157C74.9055 52.6154 75.2444 52.8769 75.5318 53.1889C75.6946 53.3761 75.8399 53.6051 75.7564 53.8564C75.6968 54.0349 75.6394 54.2164 75.582 54.3942C75.364 55.0732 75.146 55.7521 74.928 56.4311C74.632 57.3513 74.3321 58.2697 74.0284 59.1865C73.7217 60.1074 73.4107 61.0269 73.0837 61.9405C72.8352 62.6332 72.5859 63.3294 72.2844 64.0026C71.94 64.7923 71.3879 65.4759 70.6857 65.9819C69.922 66.5176 68.933 66.7667 68.0181 66.6112C67.418 66.4978 66.8242 66.3536 66.2392 66.1792C65.4101 65.9488 64.5868 65.6989 63.7686 65.4426C62.8544 65.158 61.943 64.8654 61.0341 64.5649C60.1927 64.2885 59.3524 64.0079 58.5133 63.7233C57.8899 63.5121 57.2674 63.2994 56.6458 63.0853L56.0957 62.8945C56.0269 62.8653 55.956 62.8413 55.8835 62.8225C55.8002 62.8185 55.7179 62.8421 55.6496 62.8895C55.4417 63.0148 55.3502 63.2538 55.3124 63.4813C55.2971 63.5764 55.4439 63.6174 55.4577 63.5217C55.4919 63.3143 55.5733 63.0645 55.7934 62.9867C55.8131 62.9795 55.8385 62.9795 55.8559 62.9709C55.8559 62.9709 55.8596 62.9773 55.8399 62.9709L55.8559 62.9759C55.9519 63.0155 56.0529 63.0479 56.1502 63.0789C56.6545 63.2536 57.1591 63.4271 57.6639 63.5994C58.4453 63.8658 59.2274 64.1298 60.0103 64.3914C60.9157 64.6933 61.8231 64.9897 62.7324 65.2806C63.6087 65.56 64.4865 65.8336 65.3694 66.0928C66.0627 66.2958 66.7595 66.4953 67.4651 66.6551C67.6984 66.7084 67.9331 66.7573 68.17 66.7883C68.6079 66.8374 69.0511 66.8071 69.478 66.699C70.6407 66.4182 71.5853 65.5657 72.1826 64.5599C72.2959 64.3601 72.3961 64.1532 72.4827 63.9407C72.6186 63.6239 72.7444 63.3035 72.8664 62.9817C73.1891 62.1321 73.487 61.2738 73.7798 60.4141C74.1035 59.4647 74.4183 58.5131 74.7245 57.5593C74.9871 56.7501 75.2475 55.9405 75.5057 55.1308C75.5943 54.8519 75.6835 54.573 75.7731 54.2941C75.8349 54.1344 75.887 53.9711 75.9293 53.8053C75.9875 53.5014 75.7622 53.2098 75.566 53.0039C75.2603 52.6981 74.9085 52.4411 74.5232 52.2421C74.1416 52.0256 73.7286 51.8684 73.2988 51.7763C73.0023 51.7194 72.6259 51.6863 72.3752 51.8922C72.2945 51.9655 72.2363 52.0598 72.2073 52.1644C72.1381 52.3391 72.0683 52.5141 71.9981 52.6893C71.7432 53.3243 71.4833 53.9579 71.2184 54.5901C70.8686 55.4238 70.5099 56.2537 70.1422 57.0798C69.7788 57.8898 69.4039 58.6969 68.9969 59.4875C68.7063 60.052 68.4098 60.6395 68.0152 61.1435C67.9171 61.2688 67.8074 61.4041 67.6737 61.4653C67.5843 61.5064 67.6621 61.6367 67.7507 61.5964L67.7514 61.5957Z"
    fill="#1F1D25" />
  <path
    d="M59.9738 64.328C59.9738 64.75 59.9608 65.1719 59.9419 65.5931C59.899 66.5615 59.8191 67.5285 59.689 68.4889C59.6163 69.0462 59.5204 69.6006 59.3983 70.1507C59.2762 70.7008 59.1135 71.248 58.9972 71.8067C58.7695 72.9183 58.6406 74.0475 58.6121 75.1814C58.5983 75.6436 58.5997 76.1066 58.6259 76.5688C58.6387 76.8974 58.6756 77.2247 58.7363 77.548C58.7727 77.723 58.8395 77.8893 58.87 78.0657C58.9065 78.2806 58.9026 78.5003 58.8584 78.7137C58.8272 78.9039 58.7294 79.0772 58.5823 79.2033C58.4449 79.3084 58.2793 79.3307 58.1143 79.3595C57.4075 79.4944 56.6927 79.5839 55.9743 79.6274C55.0296 79.6699 54.0551 79.5957 53.165 79.2544C52.9365 79.1669 52.7162 79.0597 52.5066 78.934C52.2886 78.803 52.096 78.6374 51.8773 78.5078C51.432 78.2589 50.9378 78.1081 50.4283 78.0657C49.9207 78.0239 49.4107 78.0183 48.9023 78.0491C48.43 78.0671 47.9511 78.0923 47.481 78.0304C47.2759 78.0055 47.0748 77.9554 46.8822 77.8814C46.7906 77.8454 46.7514 77.9915 46.8415 78.0254C47.2564 78.1874 47.7135 78.2162 48.1546 78.2169C48.6633 78.2169 49.1719 78.1795 49.677 78.1795C50.182 78.1795 50.711 78.2162 51.203 78.3717C51.455 78.4508 51.6946 78.5642 51.9151 78.7087C52.1287 78.8491 52.3249 79.0067 52.5495 79.1313C53.4011 79.6043 54.3923 79.7699 55.3581 79.7858C56.1728 79.7895 56.9862 79.7172 57.7873 79.5698C57.9196 79.5475 58.0518 79.5237 58.1833 79.4978C58.3598 79.4803 58.529 79.4192 58.6753 79.3199C58.987 79.0809 59.0553 78.6518 59.0437 78.2853C59.0364 78.0455 58.9616 77.8295 58.9042 77.5998C58.8739 77.4721 58.8509 77.3428 58.8352 77.2125C58.788 76.8225 58.7625 76.4302 58.7589 76.0374C58.7391 74.9423 58.812 73.8474 58.9769 72.7643C59.0644 72.1769 59.1857 71.5949 59.3402 71.0212C59.4855 70.4783 59.6069 69.9289 59.7035 69.3745C59.8775 68.3375 59.9953 67.292 60.0567 66.2425C60.0945 65.6363 60.1199 65.0286 60.1228 64.4209V64.328C60.1228 64.308 60.1148 64.2888 60.1005 64.2746C60.0862 64.2604 60.0667 64.2524 60.0465 64.2524C60.0263 64.2524 60.0069 64.2604 59.9926 64.2746C59.9782 64.2888 59.9702 64.308 59.9702 64.328H59.9738Z"
    fill="#1F1D25" />
  <path
    d="M75.1844 52.7287C75.2941 52.2427 75.5332 51.7337 75.8878 51.378C76.1349 51.1289 76.4285 51.018 76.7635 50.9395C77.1486 50.8488 77.5403 50.7898 77.9261 50.7235C78.2248 50.6717 78.5489 50.6357 78.8294 50.5155C79.0305 50.4195 79.2222 50.3053 79.402 50.1742C79.9562 49.8093 80.4808 49.402 80.9709 48.956C81.1162 48.8213 81.3066 48.6622 81.3792 48.4728C81.4001 48.4202 81.4043 48.3626 81.3913 48.3076C81.3784 48.2525 81.3488 48.2027 81.3066 48.1647C81.1889 48.0696 81.0101 48.1013 80.8778 48.1445C80.7436 48.1963 80.6158 48.2632 80.4971 48.344C80.3774 48.4141 80.2542 48.4783 80.1279 48.5362C79.7252 48.7218 79.3128 48.8862 78.8926 49.0287C78.6192 49.1342 78.3391 49.2217 78.054 49.2908C77.9814 49.3059 77.9138 49.3174 77.8426 49.326C77.778 49.3395 77.7123 49.3462 77.6464 49.3462C77.6157 49.3397 77.5862 49.329 77.5584 49.3145C77.4247 49.266 77.314 49.1697 77.2482 49.0445C77.2194 48.9815 77.212 48.9109 77.2269 48.8434C77.2418 48.7758 77.2783 48.7148 77.331 48.6694C77.5606 48.4383 77.8847 48.3216 78.1543 48.146C78.3193 48.0387 78.4755 47.858 78.3999 47.6477C78.2967 47.3597 77.844 47.4555 77.6289 47.5037C77.2786 47.5924 76.9478 47.7442 76.653 47.9516C76.1179 48.3177 75.6165 48.7299 75.1546 49.1835L75.0667 49.2684C75.0564 49.2791 75.0495 49.2925 75.0468 49.3071C75.0441 49.3216 75.0456 49.3365 75.0513 49.3502C75.057 49.3638 75.0666 49.3755 75.0789 49.3839C75.0911 49.3923 75.1056 49.3969 75.1205 49.3973L75.1001 49.249C74.8092 49.3015 74.5351 49.4222 74.3008 49.6011C74.0736 49.7795 73.8702 49.9859 73.6955 50.2152C73.3906 50.613 73.1309 51.0428 72.9209 51.4968C72.8744 51.5955 72.8286 51.6948 72.7879 51.7956C72.7472 51.8964 72.8991 51.9252 72.9332 51.8359L72.939 51.8208C72.939 51.8151 72.9441 51.8086 72.947 51.8028C72.9499 51.7971 72.947 51.8093 72.9521 51.7899C72.9761 51.7351 73.0001 51.6811 73.0248 51.6264C73.1105 51.4421 73.2035 51.2599 73.3031 51.0821C73.5676 50.612 73.8808 50.1461 74.2972 49.7955C74.5356 49.5901 74.8251 49.4516 75.1357 49.3944C75.2229 49.3779 75.199 49.2504 75.1154 49.2461L75.1699 49.375C75.5158 49.0335 75.882 48.7128 76.2664 48.4145C76.5485 48.186 76.8531 47.986 77.1755 47.8177C77.3404 47.7386 77.5143 47.6799 77.6936 47.6427C77.8389 47.6117 78.0366 47.5707 78.1812 47.6305C78.2087 47.6418 78.2312 47.6626 78.2446 47.6891C78.2579 47.7155 78.2612 47.7458 78.2539 47.7745C78.2482 47.8164 78.2333 47.8566 78.2102 47.8922C78.1871 47.9278 78.1563 47.9579 78.1202 47.9804C77.8629 48.1676 77.5584 48.2813 77.3077 48.4844C77.1953 48.5618 77.1111 48.6732 77.0679 48.8019C77.0521 48.8789 77.0543 48.9584 77.0743 49.0344C77.0943 49.1104 77.1317 49.1809 77.1835 49.2404C77.2729 49.3414 77.3863 49.4188 77.5134 49.4657C77.6587 49.524 77.8179 49.4866 77.9697 49.4657C78.2532 49.4087 78.5313 49.328 78.801 49.2245C79.0394 49.1429 79.2758 49.0568 79.5103 48.966C79.8413 48.843 80.1639 48.6987 80.476 48.534C80.5872 48.4728 80.6896 48.3944 80.8059 48.3404C80.896 48.2979 81.1256 48.2007 81.2121 48.2972C81.2295 48.321 81.2385 48.3498 81.2375 48.3792C81.2375 48.4124 81.2419 48.3944 81.2325 48.4224C81.2207 48.4476 81.2069 48.4716 81.191 48.4944C81.1336 48.5749 81.0686 48.6499 80.997 48.7184C80.5516 49.1698 80.0284 49.5572 79.5095 49.9215C79.3 50.0729 79.0816 50.2118 78.8555 50.3376C78.6492 50.4485 78.3934 50.491 78.1521 50.5364C77.7699 50.6084 77.3855 50.6638 77.004 50.7394C76.6922 50.8006 76.3573 50.8625 76.0826 51.0274C75.5434 51.355 75.2309 51.985 75.0602 52.5682C75.0478 52.6099 75.0362 52.6524 75.0267 52.6949C75.0049 52.7892 75.1517 52.8295 75.1721 52.7345L75.1844 52.7287Z"
    fill="#1F1D25" />
  <path
    d="M77.6196 49.3418C77.3949 49.3498 77.17 49.3411 76.9467 49.3159V49.4671L77.5345 49.4902H77.6196C77.7177 49.4945 77.7177 49.3462 77.6196 49.339L77.0317 49.3166H76.9467C76.9264 49.3166 76.907 49.3246 76.8927 49.3388C76.8784 49.353 76.8704 49.3722 76.8704 49.3922C76.8704 49.4123 76.8784 49.4315 76.8927 49.4457C76.907 49.4599 76.9264 49.4678 76.9467 49.4678C77.17 49.493 77.3949 49.5017 77.6196 49.4938C77.6398 49.4938 77.6592 49.4858 77.6735 49.4716C77.6878 49.4574 77.6959 49.4382 77.6959 49.4182C77.6959 49.3981 77.6878 49.3789 77.6735 49.3647C77.6592 49.3505 77.6398 49.3426 77.6196 49.3426V49.3418Z"
    fill="#1F1D25" />
  <path
    d="M65.9813 61.1371L65.9087 60.2731L65.727 58.2002L65.509 55.6802L65.3193 53.5116L65.2561 52.7966L65.2365 52.5741C65.2372 52.535 65.2337 52.4959 65.2263 52.4575C65.2256 52.4525 65.2256 52.4474 65.2263 52.4424L65.1885 52.5079C65.3709 52.373 65.5606 52.2483 65.7568 52.1342C66.2064 51.862 66.6835 51.6371 67.1803 51.4632C67.5077 51.3489 67.8455 51.2664 68.189 51.2169L68.1025 51.1824C68.3318 51.6148 68.5261 52.0645 68.6838 52.5273C68.8742 53.0616 69.0392 53.6073 69.1925 54.1516C69.449 55.0732 69.6692 56.0042 69.8654 56.9402C69.9046 57.1288 69.9439 57.3182 69.9795 57.5076C69.9976 57.6026 70.1452 57.5623 70.1248 57.4672C70.0216 56.9244 69.9024 56.3872 69.7775 55.8451C69.5364 54.7671 69.2398 53.702 68.8887 52.654C68.7142 52.121 68.4955 51.6033 68.2347 51.106C68.2259 51.0919 68.2128 51.0809 68.1973 51.0746C68.1817 51.0682 68.1646 51.0669 68.1483 51.0708C67.3489 51.1824 66.5896 51.492 65.892 51.8815C65.674 52.0032 65.4596 52.1342 65.2532 52.276C65.1973 52.3142 65.0781 52.3718 65.0737 52.4474C65.0748 52.4898 65.0785 52.5321 65.0846 52.5741L65.1101 52.8621L65.1951 53.8255L65.4451 56.6788L65.6994 59.5812C65.7444 60.0909 65.7837 60.6014 65.8338 61.1104V61.132C65.8418 61.2278 65.9944 61.2285 65.9864 61.132L65.9813 61.1371Z"
    fill="#1F1D25" />
  <path
    d="M64.0251 49.4463C64.1611 49.3359 64.2887 49.2155 64.4066 49.0863C64.565 48.9135 64.7699 48.6766 64.7634 48.4268C64.7561 48.2108 64.5803 48.1179 64.3855 48.146C64.1486 48.1791 63.9234 48.3073 63.7221 48.4282C63.4702 48.5819 63.2311 48.7552 63.0071 48.9466C62.8457 49.0834 62.6648 49.2346 62.5565 49.4182C62.4068 49.6731 62.5347 49.9892 62.7179 50.1886C62.8616 50.338 63.0347 50.4566 63.2265 50.5371C63.3972 50.6206 63.5577 50.7232 63.7047 50.8431C63.8563 50.9727 64.025 51.0815 64.2061 51.1664C64.4046 51.2424 64.6233 51.2498 64.8266 51.1872C65.1504 51.1106 65.4592 50.9816 65.7408 50.8057C65.8222 50.7524 65.7459 50.6213 65.6637 50.6753C65.4649 50.8003 65.2507 50.8995 65.0265 50.9705C64.8419 51.0325 64.637 51.1045 64.44 51.0764C64.29 51.0481 64.1485 50.986 64.0266 50.8949C63.8871 50.7999 63.7584 50.6905 63.6211 50.5925C63.4665 50.4951 63.3064 50.4067 63.1415 50.3276C62.8864 50.1836 62.582 49.9129 62.651 49.5874C62.6822 49.4434 62.8385 49.2994 62.9562 49.1922C63.1454 49.0167 63.3477 48.8556 63.5615 48.7105C63.7613 48.5658 63.9777 48.4449 64.2061 48.3505C64.2856 48.3157 64.3707 48.2952 64.4575 48.29C64.4827 48.2857 64.5086 48.2892 64.5317 48.3002C64.5547 48.3112 64.5738 48.329 64.5861 48.3512C64.6384 48.4405 64.5919 48.555 64.5483 48.6392C64.4824 48.758 64.4019 48.8683 64.3085 48.9675C64.1869 49.1018 64.055 49.2265 63.9139 49.3405C63.8376 49.4017 63.9459 49.5082 64.0222 49.4477L64.0251 49.4463Z"
    fill="#1F1D25" />
  <path
    d="M65.219 52.4451C65.2139 52.2799 65.1981 52.1151 65.1718 51.9519C65.1349 51.6441 65.0427 51.3454 64.8994 51.0699C64.8522 50.985 64.7199 51.0606 64.7679 51.1462C64.9033 51.411 64.9904 51.6974 65.0251 51.9922C65.0486 52.1421 65.0625 52.2934 65.0665 52.4451C65.0665 52.4651 65.0745 52.4844 65.0888 52.4986C65.1031 52.5127 65.1225 52.5207 65.1428 52.5207C65.163 52.5207 65.1824 52.5127 65.1967 52.4986C65.211 52.4844 65.219 52.4651 65.219 52.4451Z"
    fill="#1F1D25" />
  <path
    d="M67.6198 51.2321C67.5471 51.0737 67.4745 50.9174 67.3953 50.7626C67.2848 50.5193 67.1473 50.2889 66.9854 50.0757C66.9229 50.0037 66.8154 50.1081 66.8771 50.183C67.0406 50.3796 67.1555 50.6244 67.2695 50.8512C67.3422 51.0017 67.4192 51.1543 67.4875 51.3084C67.5268 51.3977 67.6583 51.3206 67.6191 51.2321H67.6198Z"
    fill="#1F1D25" />
  <path
    d="M64.2649 49.2002C64.6013 49.1649 64.9392 49.1433 65.2772 49.1332C65.5349 49.1224 65.793 49.126 66.0503 49.144C66.2182 49.157 66.4202 49.1692 66.5648 49.2657C66.729 49.3751 66.8998 49.5573 66.9071 49.7639C66.9129 49.9583 66.7828 50.1182 66.6455 50.2413C66.5728 50.3068 66.6804 50.4134 66.753 50.3479C67.0154 50.1131 67.1629 49.7719 66.9587 49.4515C66.8893 49.3384 66.7959 49.2416 66.685 49.1678C66.574 49.0941 66.4482 49.0452 66.3163 49.0245C65.7902 48.9345 65.235 48.9741 64.7053 49.0115C64.5599 49.0223 64.4146 49.0339 64.2649 49.049C64.1682 49.0591 64.1675 49.2103 64.2649 49.2002Z"
    fill="#1F1D25" />
  <path
    d="M63.0303 46.9681C63.0702 47.2784 63.1087 47.5909 63.1269 47.9041C63.1334 48.0078 63.1509 48.1381 63.0877 48.2288C63.0439 48.2763 62.9886 48.312 62.9271 48.3325C62.8656 48.3531 62.7998 48.3578 62.736 48.3462C62.6539 48.3203 62.5979 48.2137 62.5609 48.1446C62.4969 48.0205 62.4481 47.8892 62.4155 47.7536C62.3538 47.516 62.2876 47.192 62.3981 46.9573C62.5085 46.7226 62.7934 46.7593 62.9845 46.8579C62.9991 46.8661 63.0159 46.8694 63.0326 46.8674C63.0492 46.8653 63.0647 46.8579 63.0768 46.8464C63.1654 46.7616 63.2734 46.6992 63.3915 46.6646C63.5097 46.63 63.6345 46.6242 63.7554 46.6477C63.9734 46.7053 63.98 47.0667 63.9785 47.2417C63.9778 47.3766 63.9662 47.5112 63.9436 47.6442C63.9284 47.7306 63.9189 47.8602 63.871 47.9365C63.8136 48.0258 63.6363 48.0085 63.5498 47.9847C63.4183 47.9437 63.3885 47.8292 63.3536 47.7111C63.2831 47.4606 63.2258 47.2066 63.1821 46.9501C63.1647 46.8543 63.0179 46.8947 63.0368 46.9897C63.0815 47.2585 63.1424 47.5244 63.2192 47.786C63.265 47.93 63.3224 48.0575 63.4764 48.1179C63.5497 48.1473 63.6287 48.1599 63.7076 48.1548C63.7865 48.1497 63.8632 48.127 63.932 48.0884C64.0308 48.0222 64.0526 47.8883 64.0773 47.7803C64.1099 47.6281 64.1291 47.4735 64.1347 47.318C64.1442 47.0675 64.1347 46.6815 63.8855 46.5368C63.7133 46.4375 63.4452 46.4864 63.2693 46.5541C63.158 46.5925 63.057 46.6558 62.9743 46.7391L63.0666 46.7276C62.8653 46.6239 62.5834 46.5757 62.3937 46.7276C62.1372 46.9321 62.1845 47.3461 62.2368 47.6276C62.2674 47.7982 62.3179 47.9647 62.3872 48.1237C62.4338 48.2498 62.5123 48.3619 62.6154 48.4492C62.7338 48.5348 62.906 48.5039 63.0324 48.4549C63.102 48.4298 63.1627 48.3854 63.2075 48.3271C63.2524 48.2688 63.2794 48.1989 63.2853 48.1259C63.2967 47.9428 63.2877 47.7591 63.2584 47.5779C63.2381 47.3756 63.2141 47.1733 63.1858 46.971C63.1705 46.8731 63.0179 46.8723 63.0303 46.9681Z"
    fill="#1F1D25" />
  <path
    d="M64.732 46.6053C64.677 46.5397 64.6045 46.4907 64.5229 46.4639C64.4412 46.437 64.3535 46.4334 64.2699 46.4534C64.1894 46.4743 64.1173 46.519 64.063 46.5815C64.0088 46.644 63.975 46.7213 63.9661 46.8033C63.9488 47.0259 63.9821 47.2495 64.0635 47.4577C64.1361 47.6586 64.2655 47.9077 64.4995 47.9488C64.7713 47.9956 64.9522 47.7717 64.9871 47.5283C65.0277 47.1992 64.9356 46.8674 64.7306 46.6053C64.6695 46.529 64.5627 46.637 64.6223 46.7126C64.767 46.9056 64.8449 47.1396 64.8447 47.38C64.8447 47.5485 64.7982 47.7789 64.594 47.8026C64.4174 47.8228 64.3033 47.6399 64.2437 47.5031C64.1625 47.3214 64.1178 47.1258 64.1122 46.9271C64.1122 46.8198 64.1122 46.719 64.2103 46.6442C64.2741 46.5999 64.3529 46.582 64.4299 46.5944C64.5068 46.6068 64.5758 46.6484 64.6223 46.7104C64.6877 46.7867 64.7953 46.6794 64.732 46.6053Z"
    fill="#1F1D25" />
  <path
    d="M65.5497 46.6448C65.5142 46.5871 65.4669 46.5373 65.4109 46.4987C65.3548 46.4602 65.2912 46.4336 65.2242 46.4209C65.1586 46.4082 65.0908 46.4115 65.0269 46.4307C64.9629 46.45 64.9046 46.4844 64.8572 46.5311C64.7686 46.6275 64.7773 46.7471 64.794 46.8651C64.8067 46.9624 64.8263 47.0587 64.8528 47.1532C64.9037 47.3303 64.9873 47.552 65.166 47.6384C65.3673 47.7356 65.5839 47.6104 65.6587 47.4167C65.7539 47.1726 65.6827 46.8615 65.5497 46.6448C65.5395 46.6275 65.5228 46.615 65.5032 46.6099C65.4837 46.6049 65.4629 46.6077 65.4455 46.6178C65.428 46.6279 65.4153 46.6445 65.4102 46.6639C65.4051 46.6833 65.408 46.7039 65.4182 46.7211C65.5193 46.8834 65.5626 47.0745 65.541 47.264C65.5221 47.3994 65.4284 47.552 65.2787 47.5182C65.1501 47.4923 65.0752 47.331 65.0323 47.2129C64.9785 47.0662 64.9452 46.9128 64.9335 46.7571C64.9321 46.7316 64.9362 46.7061 64.9454 46.6823C64.9547 46.6584 64.9689 46.6368 64.9871 46.6187C65.0053 46.6007 65.0272 46.5866 65.0513 46.5775C65.0753 46.5683 65.1011 46.5643 65.1268 46.5656C65.1848 46.5637 65.2423 46.5771 65.2934 46.6044C65.3444 46.6318 65.3873 46.672 65.4175 46.7211C65.4727 46.8025 65.6035 46.724 65.5497 46.6448Z"
    fill="#1F1D25" />
  <path
    d="M62.6313 49.3665L60.1606 49.4227L59.8154 49.4306L59.8692 49.4529C59.7914 49.3513 59.7299 49.2383 59.6868 49.1181C59.6381 48.9903 59.6207 48.8528 59.6359 48.717C59.6512 48.5812 59.6988 48.4509 59.7748 48.3369L59.7297 48.3715L61.8828 47.9351L62.1909 47.8725C62.2868 47.8531 62.2461 47.7069 62.1502 47.7285L60.973 47.9675L60.1352 48.1375C59.9867 48.1581 59.8396 48.1879 59.6948 48.2267C59.6345 48.2476 59.6062 48.3182 59.5793 48.3707C59.5284 48.4708 59.4957 48.5791 59.4826 48.6904C59.4634 48.8838 59.4963 49.0789 59.5778 49.2556C59.6186 49.3648 59.6789 49.4658 59.7559 49.5537C59.7703 49.5662 59.7874 49.5752 59.806 49.5801C59.8245 49.585 59.8439 49.5855 59.8627 49.5818L61.2768 49.5494C61.7193 49.5393 62.1633 49.5386 62.6058 49.5191H62.6291C62.6493 49.5191 62.6687 49.5112 62.683 49.497C62.6974 49.4828 62.7054 49.4636 62.7054 49.4435C62.7054 49.4235 62.6974 49.4043 62.683 49.3901C62.6687 49.3759 62.6493 49.3679 62.6291 49.3679L62.6313 49.3665Z"
    fill="#1F1D25" />
  <path
    d="M66.9491 49.4486C66.9693 49.4486 66.9887 49.4406 67.003 49.4264C67.0174 49.4122 67.0254 49.393 67.0254 49.373C67.0254 49.3529 67.0174 49.3337 67.003 49.3195C66.9887 49.3053 66.9693 49.2974 66.9491 49.2974C66.9289 49.2974 66.9095 49.3053 66.8951 49.3195C66.8808 49.3337 66.8728 49.3529 66.8728 49.373C66.8728 49.393 66.8808 49.4122 66.8951 49.4264C66.9095 49.4406 66.9289 49.4486 66.9491 49.4486Z"
    fill="#1F1D25" />
  <path
    d="M75.1191 49.2441L74.2936 49.2499L72.3105 49.2629L69.9125 49.2787L67.8292 49.2924L67.1461 49.2967C67.0386 49.2967 66.9281 49.2909 66.8213 49.2967H66.8075C66.7873 49.2967 66.7679 49.3047 66.7536 49.3188C66.7392 49.333 66.7312 49.3523 66.7312 49.3723C66.7312 49.3924 66.7392 49.4116 66.7536 49.4258C66.7679 49.4399 66.7873 49.4479 66.8075 49.4479L67.633 49.4421L69.616 49.4292L72.014 49.4133L74.0974 49.3997L74.7812 49.3953C74.8887 49.3953 74.9992 49.4011 75.106 49.3953H75.1198C75.14 49.3953 75.1594 49.3874 75.1737 49.3732C75.188 49.359 75.1961 49.3398 75.1961 49.3197C75.1961 49.2997 75.188 49.2805 75.1737 49.2663C75.1594 49.2521 75.14 49.2441 75.1198 49.2441H75.1191Z"
    fill="#1F1D25" />
  <path
    d="M65.7967 47.1417L66.2814 47.0431L67.5894 46.7781L69.5354 46.3836L71.8927 45.9055L74.4935 45.3784L77.0993 44.8521L79.5467 44.356L81.601 43.9399L83.0885 43.6382C83.3188 43.5914 83.5615 43.5604 83.7883 43.4942L83.8188 43.4884L83.7221 43.4164L83.8478 45.3244L84.0477 48.3621L84.0927 49.054L84.1654 48.9784L82.986 49L81.1032 49.0353L80.6672 49.044C80.647 49.044 80.6276 49.0519 80.6133 49.0661C80.599 49.0803 80.5909 49.0995 80.5909 49.1196C80.5909 49.1396 80.599 49.1588 80.6133 49.173C80.6276 49.1872 80.647 49.1952 80.6672 49.1952L81.8473 49.1728L83.7294 49.1376L84.1654 49.1296C84.1843 49.1286 84.2022 49.1207 84.2156 49.1074C84.229 49.0941 84.237 49.0764 84.2381 49.0576L84.1131 47.1496L83.9132 44.1119L83.8675 43.42C83.8671 43.4085 83.8641 43.3973 83.8587 43.3871C83.8533 43.3769 83.8458 43.3681 83.8365 43.3612C83.8272 43.3543 83.8165 43.3495 83.8052 43.3472C83.7938 43.345 83.7821 43.3452 83.7708 43.348L83.2861 43.4467L81.9781 43.7116L80.0321 44.1062L77.6806 44.5771L75.0806 45.1048L72.4741 45.6333L70.0266 46.1294L67.9724 46.5463L66.49 46.8479C66.2567 46.8947 66.0213 46.9358 65.7902 46.9919L65.7597 46.9977C65.663 47.0172 65.7037 47.1633 65.7996 47.1417H65.7967Z"
    fill="#1F1D25" />
  <path
    d="M65.7763 47.1446C65.7965 47.1446 65.8159 47.1366 65.8302 47.1225C65.8445 47.1083 65.8526 47.0891 65.8526 47.069C65.8526 47.049 65.8445 47.0297 65.8302 47.0156C65.8159 47.0014 65.7965 46.9934 65.7763 46.9934C65.756 46.9934 65.7366 47.0014 65.7223 47.0156C65.708 47.0297 65.7 47.049 65.7 47.069C65.7 47.0891 65.708 47.1083 65.7223 47.1225C65.7366 47.1366 65.756 47.1446 65.7763 47.1446Z"
    fill="#1F1D25" />
  <path
    d="M62.1728 47.8761C62.193 47.8761 62.2124 47.8681 62.2267 47.8539C62.2411 47.8397 62.2491 47.8205 62.2491 47.8005C62.2491 47.7804 62.2411 47.7612 62.2267 47.747C62.2124 47.7328 62.193 47.7249 62.1728 47.7249C62.1525 47.7249 62.1331 47.7328 62.1188 47.747C62.1045 47.7612 62.0964 47.7804 62.0964 47.8005C62.0964 47.8205 62.1045 47.8397 62.1188 47.8539C62.1331 47.8681 62.1525 47.8761 62.1728 47.8761Z"
    fill="#1F1D25" />
  <path
    d="M58.6819 79.1527L59.0256 81.6849L59.0729 82.037C59.086 82.1327 59.2335 82.0924 59.2182 81.9967L58.8745 79.4645L58.8265 79.1124C58.8134 79.0166 58.6667 79.0577 58.6812 79.1527H58.6819Z"
    fill="#1F1D25" />
  <path
    d="M60.6817 48.0091C60.5676 47.1948 60.3394 46.3877 59.9288 45.6684C59.8671 45.5604 59.8002 45.4524 59.7312 45.3502C59.721 45.3329 59.7044 45.3204 59.6849 45.3153C59.6654 45.3102 59.6447 45.3129 59.6273 45.3228C58.6506 45.9917 57.9988 46.9716 57.5279 48.0343C57.3629 48.4066 57.2249 48.791 57.0505 49.159C57.0016 49.2748 56.937 49.3836 56.8586 49.4822C56.7591 49.5924 56.6326 49.5622 56.5091 49.5067C56.1276 49.3354 55.7868 49.02 55.3421 49.0344C54.7513 49.0546 54.3436 49.6824 54.3291 50.2217C54.3339 50.3928 54.3628 50.5624 54.4148 50.7257C54.4429 50.8251 54.4965 50.9157 54.5704 50.9885C54.7087 51.1189 54.8803 51.2095 55.0667 51.2506C55.2095 51.2858 55.3556 51.3068 55.5027 51.3132C55.6319 51.3092 55.7613 51.3164 55.8893 51.3348C56.4844 51.4752 55.5761 52.53 55.3915 52.7388C55.3784 52.7532 55.3653 52.7683 55.3515 52.7827C55.2854 52.8547 55.3929 52.9613 55.4598 52.89C55.6205 52.7149 55.7684 52.5287 55.9023 52.3327C56.008 52.1849 56.0974 52.0263 56.169 51.8597C56.233 51.7287 56.2522 51.5805 56.2235 51.4377C56.1995 51.3696 56.1566 51.3095 56.0996 51.2644C56.0427 51.2193 55.974 51.191 55.9016 51.1829C55.7692 51.1673 55.636 51.1603 55.5027 51.162C55.3587 51.1557 55.2159 51.1337 55.0768 51.0965C54.8429 51.031 54.6009 50.8877 54.5551 50.6522C54.5645 50.699 54.5551 50.635 54.5551 50.6407C54.5274 50.563 54.5065 50.483 54.4926 50.4017C54.4703 50.2361 54.4852 50.0677 54.5362 49.9085C54.6256 49.6255 54.8414 49.339 55.1277 49.2281C55.5535 49.0639 55.9619 49.3829 56.3158 49.5758C56.4532 49.6478 56.621 49.7364 56.7831 49.7004C56.9153 49.6716 57.0011 49.5564 57.0679 49.4506C57.2539 49.1518 57.3673 48.8026 57.5039 48.4822C57.9254 47.4648 58.4566 46.4813 59.3104 45.7548C59.4375 45.6465 59.5705 45.5451 59.7086 45.451L59.604 45.4243C60.1272 46.212 60.4091 47.1171 60.5385 48.0473C60.5523 48.143 60.6991 48.1027 60.6838 48.007L60.6817 48.0091Z"
    fill="#1F1D25" />
  <path
    d="M53.4296 57.2023C53.5851 56.3066 53.7276 55.4066 53.8315 54.503C53.8635 54.2294 53.8933 53.9551 53.9042 53.6793C53.9042 53.5821 53.7545 53.5821 53.7516 53.6793C53.7241 54.2175 53.6671 54.7537 53.5808 55.2856C53.5081 55.8048 53.426 56.3232 53.3402 56.8408L53.2857 57.1619C53.269 57.257 53.4158 57.298 53.4311 57.2023H53.4296Z"
    fill="#1F1D25" />
  <path
    d="M59.9144 45.7988C59.9144 45.7988 61.4927 44.4474 61.6744 43.114C61.7834 42.3133 61.093 41.6228 60.2792 41.6927C59.6252 41.7496 59.4929 42.1592 58.8316 41.9468C58.4984 41.8362 58.2038 41.634 57.9822 41.3636C57.3434 40.6004 55.4243 38.6118 53.2487 39.2857C50.5767 40.1144 52.9849 42.2428 51.3477 43.4992C50.3406 44.2717 46.8199 43.1003 46.7792 45.9385C46.7581 47.3936 49.2353 47.4505 48.5014 50.2765C47.5705 53.8578 51.743 56.5959 55.4047 52.8382C55.4047 52.8382 56.2091 51.9361 56.1612 51.5422C56.1132 51.1484 55.3793 51.2802 55.1104 51.188C54.8415 51.0958 54.0742 50.7308 54.5443 49.6955C55.0145 48.6601 56.1822 49.4175 56.1822 49.4175C56.1822 49.4175 56.7098 49.8308 56.89 49.5615C57.0702 49.2923 57.9655 47.1783 58.5323 46.4583C58.8497 46.0443 59.2325 45.6838 59.6659 45.3906L59.9144 45.7988Z"
    fill="#1F1D25" />
  <path
    d="M59.9682 45.8529C60.1675 45.6779 60.356 45.4914 60.5328 45.2941C60.9002 44.906 61.2124 44.4699 61.4608 43.9981C61.7056 43.5107 61.8808 42.9383 61.6453 42.4141C61.5326 42.1704 61.3505 41.9647 61.1213 41.8222C60.8922 41.6797 60.626 41.6066 60.3555 41.612C60.0736 41.62 59.8272 41.7186 59.5736 41.828C59.4686 41.8791 59.3555 41.9122 59.2393 41.926C59.0883 41.9331 58.9375 41.9086 58.7968 41.854C58.492 41.7373 58.2239 41.5425 58.02 41.2895C57.9066 41.1556 57.7894 41.0252 57.6683 40.8985C56.9707 40.172 56.1161 39.5132 55.13 39.2202C54.5737 39.0492 53.9812 39.029 53.4144 39.1619C52.9282 39.2799 52.4079 39.4981 52.0984 39.9064C51.6188 40.54 51.8927 41.3816 51.8993 42.1024C51.8993 42.4897 51.8266 42.8771 51.5708 43.1824C51.371 43.4261 51.0907 43.5921 50.7795 43.6511C50.4526 43.7128 50.1215 43.7506 49.789 43.7641C49.4104 43.79 49.0311 43.8145 48.6569 43.875C47.9571 43.988 47.2399 44.2638 46.9129 44.9348C46.733 45.3097 46.6642 45.7274 46.7145 46.1394C46.7666 46.4268 46.9016 46.6932 47.1033 46.9062C47.5393 47.4045 48.1031 47.7789 48.3786 48.4017C48.5462 48.8074 48.6023 49.2498 48.5413 49.684C48.5079 49.972 48.4222 50.247 48.3684 50.5314C48.3202 50.7799 48.2959 51.0323 48.2957 51.2853C48.2922 51.7448 48.3806 52.2004 48.556 52.6258C48.7314 53.0512 48.9902 53.4379 49.3174 53.7635C49.6506 54.0812 50.0449 54.3293 50.4769 54.4929C50.9088 54.6566 51.3695 54.7325 51.8317 54.7161C53.0278 54.6801 54.1294 54.0926 55.0094 53.3207C55.325 53.0479 55.6074 52.7396 55.8509 52.402C55.9851 52.2241 56.0968 52.0307 56.1837 51.826C56.2484 51.6633 56.2789 51.466 56.1423 51.3299C56.0057 51.1938 55.7557 51.1715 55.5609 51.1585C55.3916 51.147 55.2201 51.1513 55.061 51.0865C54.7442 50.9541 54.4862 50.6941 54.4702 50.3385C54.4646 50.0458 54.5552 49.7593 54.7282 49.522C54.7892 49.438 54.8678 49.368 54.9586 49.3168C55.0494 49.2656 55.1502 49.2344 55.2543 49.2253C55.5573 49.2001 55.8574 49.3161 56.1154 49.4637L56.1394 49.4781C56.111 49.4608 56.1445 49.4781 56.1583 49.4925C56.2186 49.5369 56.282 49.577 56.3479 49.6127C56.5049 49.6977 56.7396 49.7927 56.898 49.6595C56.9859 49.5875 57.0339 49.4543 57.0833 49.3542C57.1676 49.1843 57.2483 49.0129 57.3289 48.8423C57.5469 48.3844 57.7649 47.9272 58.0004 47.4786C58.2358 47.0301 58.4727 46.6146 58.8041 46.2467C59.0642 45.942 59.3666 45.6754 59.7022 45.4547L59.5976 45.428L59.8468 45.8385C59.857 45.8557 59.8738 45.8683 59.8933 45.8733C59.9129 45.8784 59.9337 45.8756 59.9511 45.8655C59.9686 45.8553 59.9812 45.8388 59.9863 45.8194C59.9914 45.8 59.9886 45.7794 59.9784 45.7621L59.7291 45.3517C59.7188 45.3346 59.7022 45.3222 59.6828 45.3171C59.6634 45.312 59.6427 45.3146 59.6252 45.3244C59.2823 45.5488 58.9731 45.82 58.7067 46.1301C58.3922 46.4948 58.1238 46.8962 57.9074 47.3253C57.6712 47.7695 57.4532 48.2231 57.2374 48.6774C57.1531 48.856 57.0688 49.0374 56.9823 49.2117C56.9384 49.3186 56.8847 49.4213 56.8217 49.5184C56.7127 49.6624 56.4584 49.5083 56.3436 49.4385C56.3145 49.4205 56.2854 49.4017 56.2571 49.3816L56.2273 49.36C56.207 49.3449 56.2484 49.3737 56.2237 49.36C56.199 49.3463 56.1859 49.3355 56.1663 49.324C55.8952 49.1692 55.5675 49.054 55.2514 49.0792C54.7325 49.1217 54.4382 49.5753 54.3416 50.0469C54.2942 50.2415 54.3076 50.4458 54.38 50.6328C54.4524 50.8197 54.5804 50.9805 54.7471 51.0937C54.8541 51.1684 54.972 51.2267 55.0966 51.2665C55.2863 51.3249 55.4992 51.3054 55.6946 51.3277C55.8516 51.3457 56.0863 51.3882 56.0827 51.5877C56.0827 51.7713 55.9555 51.9606 55.8611 52.1104C55.6691 52.4173 55.441 52.7006 55.1816 52.9542C54.7112 53.4205 54.1698 53.8107 53.5771 54.1106C52.663 54.5606 51.5955 54.7226 50.6145 54.3906C50.195 54.2468 49.81 54.0184 49.4841 53.7197C49.1582 53.421 48.8983 53.0587 48.7208 52.6554C48.537 52.2306 48.4418 51.7734 48.441 51.3112C48.4398 51.0567 48.4641 50.8027 48.5137 50.553C48.5675 50.2787 48.6467 50.0123 48.6823 49.7351C48.7485 49.2993 48.7046 48.854 48.5544 48.4391C48.421 48.1178 48.2272 47.8246 47.9832 47.5751C47.7652 47.3454 47.5254 47.1431 47.3074 46.9127C47.1163 46.7133 46.9441 46.4872 46.8802 46.2143C46.8451 46.0331 46.8411 45.8474 46.8685 45.6649C46.8883 45.4579 46.9402 45.2551 47.0226 45.0637C47.1615 44.7545 47.3996 44.4994 47.6998 44.338C48.3284 43.9902 49.1001 43.9708 49.8014 43.9218C50.1355 43.9073 50.4681 43.8695 50.7969 43.8088C51.0961 43.7548 51.3711 43.6107 51.5846 43.3962C51.857 43.113 52.0186 42.7428 52.0402 42.3522C52.0708 41.9728 52.0097 41.5933 51.9806 41.2146C51.9538 40.8618 51.9487 40.4852 52.1173 40.1634C52.3404 39.7357 52.8076 39.5104 53.2516 39.3714C53.8128 39.1987 54.4123 39.1892 54.9789 39.344C55.5024 39.492 55.9957 39.7295 56.4366 40.046C56.8299 40.322 57.195 40.6355 57.5266 40.982C57.8514 41.3176 58.1181 41.7064 58.5483 41.918C58.8019 42.044 59.0955 42.1283 59.3789 42.062C59.6092 42.0095 59.8105 41.8734 60.0394 41.8129C60.3104 41.7368 60.5995 41.7537 60.8595 41.8611C61.1196 41.9684 61.3353 42.1598 61.4717 42.404C61.7463 42.908 61.5494 43.4984 61.3009 43.9744C61.0494 44.4367 60.7368 44.8638 60.3715 45.2444C60.2112 45.4201 60.0414 45.5869 59.8628 45.7441C59.7865 45.8097 59.8948 45.9162 59.9682 45.8529Z"
    fill="#1F1D25" />
  <path
    d="M84.2635 48.9337L84.1072 46.7737L83.8834 43.669L83.8587 43.327C83.8587 43.3105 83.8587 43.2946 83.8587 43.2781C83.8552 43.2333 83.8632 43.1883 83.8818 43.1473C83.9004 43.1063 83.9291 43.0706 83.9652 43.0434C84.0014 43.0162 84.0439 42.9985 84.0887 42.9918C84.1336 42.9852 84.1794 42.9898 84.2221 43.0052C84.3739 43.0635 84.3914 43.1982 84.4008 43.3328L84.4299 43.7331L84.6602 46.9155L84.7649 48.3713L84.7947 48.7774C84.8034 48.9034 84.8165 49.0294 84.7002 49.1201C84.662 49.1496 84.6165 49.1683 84.5685 49.1745C84.5205 49.1806 84.4717 49.1738 84.4272 49.155C84.3827 49.1361 84.3441 49.1057 84.3154 49.067C84.2868 49.0284 84.2691 48.9828 84.2642 48.9351C84.254 48.8393 84.1014 48.8379 84.1116 48.9351C84.1176 49.0313 84.157 49.1224 84.2232 49.1931C84.2893 49.2637 84.3781 49.3095 84.4745 49.3225C84.5708 49.3356 84.6688 49.3152 84.7517 49.2648C84.8346 49.2143 84.8973 49.137 84.9291 49.046C84.954 48.9466 84.958 48.8431 84.9407 48.7421L84.8557 47.5635L84.7264 45.7707L84.6043 44.0895C84.5839 43.8065 84.568 43.5236 84.5432 43.2406C84.5171 42.9354 84.1799 42.7251 83.9031 42.8986C83.7366 43.0009 83.6952 43.173 83.7083 43.3522L83.781 44.4121L83.9081 46.1689L84.0331 47.8969L84.1058 48.8897V48.9373C84.1181 49.028 84.2707 49.028 84.2635 48.9337Z"
    fill="#1F1D25" />
  <path
    d="M84.3994 43.268C84.5881 43.5654 84.7383 43.8852 84.8463 44.2198C85.1345 45.0551 85.2557 45.9379 85.203 46.8191C85.1607 47.5162 85.0253 48.2048 84.8005 48.8667C84.77 48.9596 84.9175 48.9992 84.9458 48.9071C85.3215 47.8129 85.444 46.6489 85.3041 45.5015C85.2177 44.8121 85.0176 44.1415 84.7118 43.5164C84.6579 43.4045 84.597 43.2961 84.5294 43.1917C84.4749 43.111 84.3427 43.1866 84.3972 43.268H84.3994Z"
    fill="#1F1D25" />
  <path
    d="M50.318 80.0485C50.6956 80.3478 51.1109 80.5973 51.5533 80.7909C51.9299 80.9652 52.3301 81.0843 52.7414 81.1444C52.9532 81.174 53.1677 81.1796 53.3808 81.1609C53.4927 81.1509 53.6047 81.1242 53.7115 81.1739C53.7935 81.2113 53.8608 81.2743 53.9033 81.3532C53.967 81.4969 53.9778 81.6582 53.9338 81.8089C53.9164 81.8872 53.892 81.9638 53.8612 82.0379C53.819 82.1257 53.9505 82.2021 53.9927 82.1142C54.0898 81.9188 54.1287 81.7 54.1046 81.4835C54.0944 81.4053 54.0682 81.33 54.0274 81.2622C53.9867 81.1945 53.9323 81.1357 53.8677 81.0897C53.6671 80.9457 53.4484 81.0133 53.2203 81.0177C52.3911 81.0414 51.5802 80.6922 50.8906 80.2624C50.7729 80.1904 50.6566 80.1112 50.544 80.0298C50.4924 79.9916 50.4648 79.9722 50.4248 79.9398C50.3521 79.8786 50.2409 79.9844 50.3165 80.0464L50.318 80.0485Z"
    fill="#3D3397" />
  <path
    d="M30.7431 44.6958C29.7258 44.1587 28.5994 43.7 27.4317 43.6504C26.66 43.618 25.8824 43.8001 25.2706 44.2832C24.7103 44.7268 24.3564 45.3762 24.174 46.0544C23.9684 46.8212 23.9648 47.632 24.0854 48.4124C24.217 49.255 24.4995 50.0674 24.9196 50.8115C25.1298 51.1826 25.3766 51.532 25.6564 51.8548C25.8483 52.0708 26.0605 52.2745 26.2719 52.4761C26.6047 52.7944 26.9434 53.1076 27.2842 53.4172C28.4338 54.4605 29.6429 55.4454 30.7402 56.5441C31.1304 56.9344 31.5134 57.3448 31.8091 57.8121C32.0228 58.1483 32.1986 58.5321 32.1892 58.9374C32.1797 59.3428 31.9712 59.6891 31.7023 59.9728C31.4429 60.2428 31.1406 60.4768 30.8586 60.7194C30.5585 60.9822 30.2591 61.2465 29.9692 61.5208C29.5426 61.9247 29.1016 62.3574 28.8174 62.8758C28.6111 63.2509 28.5195 63.6758 28.6547 64.0905C28.7292 64.3056 28.8408 64.5064 28.9846 64.6838C29.0434 64.7558 29.1764 64.6838 29.1161 64.6074C28.8501 64.2647 28.6736 63.8593 28.7673 63.4223C28.8712 62.9363 29.2127 62.523 29.5419 62.1652C30.0506 61.6144 30.6232 61.1233 31.1893 60.633C31.5897 60.286 32.0286 59.9541 32.2349 59.4508C32.5663 58.6393 32.0569 57.8221 31.5541 57.2073C31.1635 56.7442 30.7418 56.3079 30.2918 55.9012C29.7381 55.3857 29.1677 54.8881 28.6002 54.3892C27.9425 53.8096 27.2878 53.2264 26.6498 52.6266C26.2392 52.2407 25.825 51.8591 25.4871 51.4026C24.9832 50.7186 24.6123 49.9475 24.3935 49.1289C24.1766 48.3536 24.1103 47.5447 24.198 46.7449C24.2809 46.0494 24.5127 45.3445 24.9654 44.7966C25.4245 44.2507 26.0793 43.9023 26.7922 43.8246C27.8045 43.7029 28.8356 43.9974 29.7563 44.3905C30.0666 44.5223 30.3696 44.6699 30.6675 44.8268C30.754 44.8722 30.831 44.7419 30.7445 44.6958H30.7431Z"
    fill="#3D3397" />
  <path
    d="M46.9194 82.1235C46.9318 81.9363 46.9383 81.7491 46.9448 81.5619C46.963 81.037 46.9703 80.5122 46.971 79.9873C46.971 79.1809 46.9562 78.3747 46.9267 77.5688C46.8884 76.5406 46.8259 75.5139 46.7392 74.4886C46.6379 73.2887 46.504 72.093 46.3373 70.9016C46.1513 69.5797 45.921 68.2652 45.6463 66.9582C45.3556 65.5707 45.0054 64.1948 44.5941 62.8376C44.1722 61.4362 43.6759 60.0579 43.1073 58.7084C42.5382 57.3559 41.8804 56.0418 41.138 54.7744C40.3884 53.4966 39.5349 52.2815 38.586 51.1412C38.3505 50.86 38.1083 50.584 37.8593 50.3132C37.7932 50.2412 37.6856 50.3478 37.751 50.4198C38.7566 51.5244 39.6639 52.713 40.463 53.9723C41.2512 55.2147 41.9517 56.5097 42.5594 57.848C43.1676 59.1872 43.6996 60.559 44.153 61.9571C44.5955 63.3114 44.9712 64.6873 45.2909 66.0747C45.5928 67.3851 45.8464 68.7051 46.0518 70.0347C46.2426 71.2602 46.3967 72.4909 46.5139 73.7269C46.6166 74.7939 46.6929 75.8629 46.7428 76.9338C46.783 77.7872 46.8073 78.6414 46.8155 79.4962C46.8191 80.0888 46.8155 80.6814 46.7988 81.2739C46.7915 81.5439 46.7646 81.8175 46.7668 82.0875C46.7668 82.099 46.7668 82.1106 46.7668 82.1221C46.761 82.2193 46.9121 82.2193 46.9194 82.1221V82.1235Z"
    fill="#3D3397" />
  <path
    d="M43.6611 82.0242C43.5848 81.8082 43.4998 81.5921 43.4141 81.3762C43.1801 80.7937 42.9265 80.2184 42.6598 79.6481C42.2616 78.7985 41.8333 77.9638 41.375 77.144C40.8024 76.1173 40.1848 75.1164 39.522 74.1416C38.7767 73.0467 37.9703 71.9939 37.1066 70.988C36.166 69.888 35.146 68.8571 34.0546 67.9035C32.8561 66.8542 31.5581 65.9223 30.1786 65.1207C28.9236 64.4007 27.5626 63.775 26.1289 63.5158C25.1711 63.3423 24.1669 63.3394 23.2353 63.6562C22.5156 63.9022 21.8735 64.3307 21.3728 64.8989C20.9367 65.3974 20.6048 65.9766 20.3962 66.6031C20.2341 67.0855 20.1259 67.6111 20.1709 68.1245C20.2159 68.6692 20.4146 69.1904 20.7443 69.6286C21.1076 70.1074 21.6032 70.4688 22.1249 70.7684C22.76 71.1341 23.4395 71.4164 24.1167 71.6993C24.8259 71.9924 25.5381 72.2523 26.1209 72.7664C27.0365 73.5735 27.4289 74.7169 27.7515 75.8509C27.8968 76.3628 28.0618 76.8653 28.2536 77.3629C28.4193 77.7949 28.6046 78.2326 28.9352 78.5645C29.2986 78.9296 29.8029 79.1002 30.3036 79.1881C30.9837 79.3083 31.6951 79.34 32.3651 79.1477C32.5988 79.0761 32.8279 78.9905 33.0511 78.8914C33.2322 78.8059 33.4226 78.7411 33.6186 78.6985C34.1476 78.6063 34.6432 78.9865 34.9869 79.3465C35.1983 79.5635 35.3649 79.8193 35.4774 80.0996C35.5624 80.3156 35.6148 80.5366 35.6845 80.7555C35.7314 80.9358 35.8214 81.1022 35.9468 81.2408C36.1129 81.3883 36.3227 81.4785 36.5449 81.4978C36.9078 81.5365 37.2743 81.5278 37.6349 81.4719C37.9713 81.4309 38.3049 81.3689 38.637 81.3005C39.1703 81.1911 39.748 81.0219 40.2959 81.1069C40.8439 81.1918 41.1912 81.6109 41.4194 82.0868C41.4608 82.1746 41.5923 82.0983 41.5509 82.0105C41.3213 81.5288 40.9696 81.0946 40.4209 80.9773C39.9057 80.8664 39.36 80.9967 38.8542 81.1011C38.1726 81.2451 37.4736 81.3999 36.7694 81.3675C36.5325 81.356 36.2644 81.32 36.0806 81.1565C35.941 81.032 35.8749 80.8534 35.8219 80.6799C35.7557 80.4639 35.7027 80.2479 35.6169 80.0377C35.5091 79.7707 35.3551 79.5244 35.162 79.3097C34.8249 78.9361 34.3227 78.535 33.7886 78.5365C33.3686 78.5365 32.9893 78.7741 32.6027 78.9152C31.9654 79.1485 31.3129 79.1708 30.6407 79.0901C30.111 79.0268 29.5406 78.9015 29.1285 78.5415C28.7776 78.2341 28.5843 77.7977 28.4186 77.3729C28.2275 76.8833 28.0625 76.3894 27.9179 75.8847C27.7755 75.3456 27.597 74.8164 27.3838 74.3007C27.1524 73.7517 26.8192 73.2505 26.4014 72.8232C26.1646 72.5891 25.9003 72.3839 25.6144 72.212C25.2803 72.0227 24.9316 71.86 24.5716 71.7252C23.8711 71.4372 23.1662 71.155 22.4962 70.8022C21.9527 70.5142 21.4208 70.1787 21.0102 69.7172C20.7448 69.4149 20.5478 69.0598 20.4324 68.6758C20.3169 68.2918 20.2858 67.8878 20.341 67.4909C20.4211 66.9111 20.6091 66.3511 20.8954 65.8392C21.2519 65.1641 21.7845 64.5961 22.4379 64.1943C23.0912 63.7925 23.8413 63.5716 24.6101 63.5547C25.8011 63.4992 26.9849 63.8139 28.0792 64.2545C29.6052 64.8701 31.0288 65.7528 32.3469 66.7277C33.5309 67.6076 34.641 68.5811 35.6664 69.6387C36.6319 70.6307 37.5329 71.6826 38.3637 72.788C39.1108 73.7792 39.8069 74.8057 40.4522 75.8674C41.0011 76.7665 41.5138 77.6859 41.9905 78.6257C42.3422 79.3179 42.6724 80.0199 42.981 80.7317C43.1488 81.1205 43.3102 81.5129 43.4584 81.9097C43.4773 81.9601 43.4962 82.0112 43.5136 82.0623C43.5456 82.1538 43.6931 82.1141 43.659 82.022L43.6611 82.0242Z"
    fill="#3D3397" />
  <path
    d="M20.5008 66.6054C20.6461 66.6162 20.7849 66.6342 20.9259 66.6515C21.2892 66.6976 21.7071 66.7638 22.0929 66.8336C22.697 66.9431 23.297 67.072 23.8929 67.2203C24.6559 67.4089 25.4111 67.6261 26.1586 67.8719C27.0393 68.1599 27.9058 68.4877 28.7579 68.8554C29.7163 69.2679 30.6516 69.731 31.5599 70.2428C32.5497 70.8001 33.503 71.4186 34.4143 72.0947C35.392 72.8202 36.3149 73.6155 37.1756 74.4743C38.1 75.3965 38.9472 76.3917 39.7087 77.45C40.5344 78.6007 41.2586 79.8196 41.8735 81.0932C42.0309 81.4201 42.1816 81.7499 42.3255 82.0825C42.3647 82.1718 42.4962 82.0948 42.4577 82.0062C41.8833 80.6744 41.1933 79.3944 40.3954 78.1808C39.6626 77.069 38.8387 76.0188 37.932 75.0409C37.0864 74.1304 36.1728 73.2841 35.1991 72.5094C34.2933 71.7881 33.341 71.1259 32.3483 70.5272C31.4312 69.9748 30.4836 69.4736 29.51 69.026C28.6351 68.6228 27.7423 68.2612 26.8315 67.941C26.0496 67.6684 25.2571 67.4238 24.4539 67.2073C23.8134 67.0374 23.1681 66.8884 22.518 66.7602C22.0704 66.6724 21.6206 66.5953 21.1686 66.5327C20.9571 66.5032 20.7413 66.4657 20.5277 66.4564H20.5008C20.4027 66.4484 20.4034 66.6004 20.5008 66.6076V66.6054Z"
    fill="#3D3397" />
  <path
    d="M30.5927 50.3781C31.7436 51.5692 32.8312 52.8189 33.851 54.1221C35.0678 55.6781 36.1891 57.3051 37.2089 58.9943C38.3783 60.9304 39.4178 62.9407 40.3205 65.0121C41.3496 67.3772 42.2089 69.8114 42.8922 72.2964C43.6671 75.1183 44.2361 77.9918 44.5948 80.8946C44.6427 81.2776 44.6863 81.6614 44.7277 82.0466C44.7379 82.1424 44.8905 82.1431 44.8803 82.0466C44.5678 79.0782 44.0404 76.1359 43.302 73.2424C42.6512 70.7005 41.8195 68.2074 40.8132 65.7818C39.9294 63.6548 38.9042 61.5882 37.7445 59.5955C36.7289 57.8528 35.6071 56.173 34.3851 54.5656C33.3563 53.2122 32.255 51.9143 31.0861 50.6776C30.9589 50.543 30.8303 50.4083 30.7009 50.2751C30.6326 50.2031 30.5251 50.3119 30.5934 50.3817L30.5927 50.3781Z"
    fill="#3D3397" />
  <path
    d="M24.4953 45.5634C24.5113 45.5699 24.4728 45.5534 24.4953 45.5634L24.5462 45.5858C24.6072 45.6124 24.669 45.6405 24.73 45.6686C24.9553 45.773 25.1769 45.8846 25.3964 46.0019C26.1523 46.4046 26.8784 46.8601 27.5691 47.3649C28.0819 47.7393 28.574 48.1407 29.0435 48.5673C29.1162 48.6335 29.2237 48.5262 29.1511 48.4607C28.359 47.7414 27.504 47.0932 26.5961 46.5239C26.0374 46.1685 25.4571 45.8475 24.8586 45.5627C24.7518 45.5123 24.6406 45.4626 24.5338 45.4187C24.4437 45.382 24.4037 45.5282 24.4931 45.5627L24.4953 45.5634Z"
    fill="#3D3397" />
  <path
    d="M27.4274 74.5795L28.0392 74.2677L29.5071 73.5175L31.2838 72.611L32.8098 71.8298L33.3184 71.5699C33.3969 71.5296 33.4834 71.4979 33.5582 71.4475L33.5691 71.4417C33.6563 71.3978 33.5793 71.2667 33.4921 71.3114L32.881 71.6239L31.4124 72.3734L29.6364 73.2799L28.1068 74.0611L27.5981 74.321C27.5196 74.3613 27.4332 74.393 27.3583 74.4434L27.3474 74.4492C27.2602 74.4938 27.3372 74.6241 27.4244 74.5795H27.4274Z"
    fill="#3D3397" />
  <path
    d="M28.2494 77.1082L29.0378 76.7417L30.922 75.8662L33.2009 74.8077L35.1782 73.889L35.8263 73.588C35.9281 73.5405 36.0393 73.4995 36.1366 73.444L36.1504 73.4375C36.2391 73.3965 36.1621 73.2662 36.0734 73.3072L35.285 73.6737L33.4007 74.5492L31.1219 75.6077L29.1446 76.5264L28.4964 76.8274C28.3947 76.8749 28.2835 76.916 28.1861 76.9714L28.1723 76.9779C28.0837 77.0189 28.1607 77.1492 28.2494 77.1082Z"
    fill="#3D3397" />
  <path
    d="M28.5537 64.408L28.7063 65.9315L28.949 68.3586L29.005 68.9145C29.0144 69.0109 29.1671 69.0117 29.1576 68.9145L29.005 67.3917L28.7615 64.9646L28.7063 64.408C28.6961 64.3123 28.5435 64.3115 28.5537 64.408Z"
    fill="#3D3397" />
  <path
    d="M31.3696 66.0006L31.3922 67.4025L31.4292 69.6172L31.4372 70.1306C31.4372 70.1506 31.4452 70.1698 31.4596 70.184C31.4739 70.1982 31.4933 70.2062 31.5135 70.2062C31.5337 70.2062 31.5531 70.1982 31.5675 70.184C31.5818 70.1698 31.5898 70.1506 31.5898 70.1306L31.5666 68.728L31.5302 66.5133L31.5215 66.0006C31.5215 65.9806 31.5135 65.9614 31.4992 65.9472C31.4848 65.933 31.4654 65.925 31.4452 65.925C31.425 65.925 31.4056 65.933 31.3912 65.9472C31.3769 65.9614 31.3689 65.9806 31.3689 66.0006H31.3696Z"
    fill="#3D3397" />
  <path
    d="M36.5878 57.7783L36.7731 57.113L37.2171 55.5146L37.7549 53.58L38.2229 51.9082L38.3762 51.3566C38.4002 51.2702 38.4314 51.1831 38.4489 51.0946C38.4486 51.0907 38.4486 51.0869 38.4489 51.083C38.4511 51.0651 38.4468 51.0469 38.4367 51.0318C38.4266 51.0167 38.4113 51.0057 38.3937 51.0008C38.3761 50.996 38.3573 50.9975 38.3408 51.0052C38.3242 51.0129 38.311 51.0262 38.3035 51.0427L38.1189 51.7087L37.6742 53.3071L37.1328 55.2403L36.6685 56.9129L36.5152 57.4644C36.4905 57.5508 36.4592 57.6386 36.4425 57.7264C36.4425 57.7308 36.4425 57.7344 36.4425 57.738C36.4371 57.7571 36.4396 57.7775 36.4494 57.7948C36.4592 57.8121 36.4755 57.8248 36.4948 57.8301C36.5141 57.8355 36.5347 57.833 36.5522 57.8233C36.5696 57.8136 36.5824 57.7974 36.5878 57.7783Z"
    fill="#3D3397" />
  <path
    d="M38.586 61.1694L38.7786 60.4573L39.24 58.7372L39.7995 56.6636L40.2849 54.8636L40.4441 54.2732C40.4695 54.1803 40.5015 54.0867 40.5204 53.9924C40.5204 53.9888 40.5204 53.9845 40.5204 53.9802C40.5258 53.9611 40.5233 53.9407 40.5135 53.9234C40.5037 53.9061 40.4873 53.8934 40.468 53.888C40.4488 53.8827 40.4281 53.8851 40.4107 53.8949C40.3933 53.9046 40.3804 53.9208 40.375 53.9399L40.1825 54.6527L39.7196 56.372L39.1601 58.4449L38.6747 60.2449L38.5134 60.8361C38.4879 60.9282 38.4559 61.0218 38.4407 61.1161C38.4404 61.1205 38.4404 61.1248 38.4407 61.1291C38.4354 61.1482 38.438 61.1686 38.4478 61.1858C38.4577 61.203 38.4741 61.2156 38.4934 61.2209C38.5126 61.2261 38.5332 61.2236 38.5506 61.2138C38.568 61.204 38.5807 61.1878 38.586 61.1687V61.1694Z"
    fill="#3D3397" />
  <path
    d="M11.6718 82.1517H96.5835C97.7302 82.1517 98.8791 82.1733 100.026 82.1517H100.176C100.196 82.1517 100.216 82.1437 100.23 82.1296C100.244 82.1154 100.252 82.0962 100.252 82.0761C100.252 82.0561 100.244 82.0368 100.23 82.0226C100.216 82.0085 100.196 82.0005 100.176 82.0005H15.2644C14.1177 82.0005 12.9689 81.9796 11.8222 82.0005H11.6718C11.6515 82.0005 11.6321 82.0085 11.6178 82.0226C11.6035 82.0368 11.5955 82.0561 11.5955 82.0761C11.5955 82.0962 11.6035 82.1154 11.6178 82.1296C11.6321 82.1437 11.6515 82.1517 11.6718 82.1517Z"
    fill="#1F1D25" />
  <path
    d="M54.0787 50.2585H31.7097C31.2853 50.2585 30.8726 50.2714 30.4678 50.1087C29.4301 49.6925 28.9127 48.4657 29.3357 47.4447C29.4519 47.1632 29.6329 46.8982 29.7855 46.6354L30.7047 45.0586L31.9517 42.9188L33.2764 40.645L34.4085 38.701L35.0843 37.5411L35.2827 37.2005L36.0021 35.9665L37.1575 33.98L38.4859 31.7005L39.7168 29.588L40.6005 28.076C40.7785 27.7714 40.942 27.4417 41.192 27.1882C41.9484 26.4214 43.2441 26.3775 44.047 27.0997C44.3377 27.3603 44.5128 27.6994 44.7054 28.0299L45.5665 29.5088L46.7975 31.6119L48.1207 33.8828L49.2899 35.8887L50.0333 37.166L50.2375 37.5159L50.8857 38.6276L52.0033 40.5457L53.3244 42.8137L54.5859 44.9787L55.5175 46.58L55.8706 47.1855C55.8857 47.2091 55.9095 47.226 55.9369 47.2327C55.9643 47.2393 55.9933 47.2351 56.0177 47.2211C56.042 47.207 56.06 47.1841 56.0676 47.1572C56.0753 47.1302 56.0722 47.1014 56.0589 47.0768L55.6781 46.4237L54.7094 44.7613L53.4312 42.5674L52.108 40.2973L51.0085 38.4094L50.3981 37.364L50.1801 36.9845L49.3808 35.6165L48.1723 33.5429L46.8331 31.244L45.6283 29.1769L44.8231 27.7945C44.579 27.3761 44.3268 26.9852 43.9024 26.7145C43.457 26.4368 42.9294 26.318 42.4066 26.3776C41.8838 26.4371 41.3972 26.6715 41.027 27.0421C40.7705 27.3056 40.6012 27.6375 40.4181 27.9514L39.5308 29.48L38.2867 31.6155L36.9504 33.908L35.7877 35.9002L35.0814 37.1127L34.8801 37.4583L34.1709 38.6744L33.017 40.6558L31.6828 42.9418L30.4373 45.0795L29.5464 46.6102C29.3633 46.9256 29.1562 47.2388 29.053 47.5909C28.9097 48.1078 28.954 48.6581 29.1779 49.146C29.4019 49.6339 29.7915 50.0286 30.2789 50.2613C30.7229 50.4658 31.1763 50.4773 31.6501 50.4773H54.0787C54.1076 50.4773 54.1353 50.466 54.1558 50.4457C54.1762 50.4254 54.1877 50.398 54.1877 50.3693C54.1877 50.3407 54.1762 50.3132 54.1558 50.293C54.1353 50.2727 54.1076 50.2613 54.0787 50.2613V50.2585Z"
    fill="#1F1D25" />
  <path
    d="M54.0787 50.4745C54.1076 50.4745 54.1354 50.4632 54.1558 50.4429C54.1762 50.4227 54.1877 50.3952 54.1877 50.3665C54.1877 50.3379 54.1762 50.3104 54.1558 50.2902C54.1354 50.2699 54.1076 50.2585 54.0787 50.2585C54.0498 50.2585 54.0221 50.2699 54.0017 50.2902C53.9812 50.3104 53.9697 50.3379 53.9697 50.3665C53.9697 50.3952 53.9812 50.4227 54.0017 50.4429C54.0221 50.4632 54.0498 50.4745 54.0787 50.4745Z"
    fill="#1F1D25" />
  <path
    d="M55.9638 47.2394C55.9927 47.2394 56.0204 47.2281 56.0409 47.2078C56.0613 47.1876 56.0728 47.1601 56.0728 47.1314C56.0728 47.1028 56.0613 47.0753 56.0409 47.0551C56.0204 47.0348 55.9927 47.0234 55.9638 47.0234C55.9348 47.0234 55.9071 47.0348 55.8867 47.0551C55.8662 47.0753 55.8547 47.1028 55.8547 47.1314C55.8547 47.1601 55.8662 47.1876 55.8867 47.2078C55.9071 47.2281 55.9348 47.2394 55.9638 47.2394Z"
    fill="#1F1D25" />
  <g opacity="0.81">
    <path opacity="0.81"
      d="M41.7644 41.0007L41.5021 37.1127C41.4537 36.3543 41.4295 35.81 41.4295 35.4798C41.4295 35.0305 41.5481 34.6799 41.7855 34.4279C42.0229 34.1759 42.3356 34.0506 42.7236 34.052C43.1936 34.052 43.5084 34.2131 43.6683 34.5351C43.8282 34.8572 43.9067 35.3202 43.9037 35.924C43.9034 36.2874 43.8845 36.6505 43.8471 37.0119L43.4939 41.0166C43.4561 41.4932 43.3743 41.8587 43.2483 42.1131C43.1958 42.2318 43.1082 42.3319 42.9969 42.4C42.8857 42.4682 42.7562 42.5012 42.6255 42.4947C42.3296 42.4947 42.1246 42.3716 42.0108 42.1254C41.8969 41.8791 41.8148 41.5042 41.7644 41.0007ZM42.6742 45.9133C42.3534 45.9178 42.0425 45.8035 41.8022 45.5929C41.5537 45.3793 41.4295 45.08 41.4295 44.695C41.4288 44.5355 41.4601 44.3774 41.5215 44.23C41.5829 44.0825 41.6732 43.9486 41.7872 43.8359C41.9012 43.7233 42.0367 43.6342 42.1857 43.5738C42.3347 43.5134 42.4943 43.4828 42.6553 43.484C42.8186 43.4811 42.9808 43.511 43.1321 43.5717C43.2834 43.6325 43.4208 43.7229 43.5361 43.8375C43.6534 43.9475 43.7462 44.0805 43.8088 44.228C43.8713 44.3755 43.9022 44.5343 43.8994 44.6943C43.8994 45.0735 43.7766 45.3713 43.531 45.5878C43.2971 45.7996 42.991 45.9158 42.6742 45.9133Z"
      fill="#1F1D25" />
  </g>
  <g opacity="0.29">
    <path opacity="0.29"
      d="M35.2711 48.1345H45.9815C46.4741 48.1345 46.969 48.1475 47.4617 48.1345H47.4828C47.7633 48.1345 47.7633 47.7025 47.4828 47.7025H36.7695C36.2761 47.7025 35.7813 47.6896 35.2886 47.7025H35.2682C34.9877 47.7025 34.9877 48.1345 35.2682 48.1345H35.2711Z"
      fill="#1F1D25" />
  </g>
  <g opacity="0.29">
    <path opacity="0.29"
      d="M44.8864 32.2455L44.7164 31.9287L44.6924 31.884C44.6633 31.8358 44.6168 31.8002 44.5623 31.7847C44.5343 31.777 44.505 31.7749 44.4762 31.7787C44.4474 31.7824 44.4196 31.7917 44.3945 31.8063C44.3454 31.8346 44.3094 31.8809 44.2942 31.9351C44.2801 31.9916 44.2879 32.0512 44.316 32.1022L44.486 32.419L44.51 32.4636C44.5391 32.5119 44.5856 32.5474 44.6401 32.563C44.6681 32.5707 44.6974 32.5727 44.7262 32.569C44.755 32.5653 44.7828 32.5559 44.808 32.5414C44.8571 32.513 44.893 32.4668 44.9082 32.4125C44.9223 32.3561 44.9145 32.2965 44.8864 32.2455Z"
      fill="#1F1D25" />
  </g>
  <g opacity="0.29">
    <path opacity="0.29"
      d="M52.2017 48.1345C52.4916 48.1311 52.7688 48.0162 52.9747 47.814C53.1806 47.6117 53.299 47.338 53.3048 47.0509C53.299 46.8205 53.2291 46.5963 53.1028 46.4029L52.4386 45.2631L51.3101 43.3285L50.1009 41.252L49.181 39.6745L48.8903 39.1705L48.2414 38.0609L47.0787 36.0781L45.916 34.0829L45.246 32.9374L45.2133 32.882C45.0731 32.6415 44.696 32.8589 44.8369 33.098L45.3042 33.8965L46.3796 35.7361L47.5736 37.778L48.4071 39.2036L48.6461 39.6118L49.3924 40.8934L50.5376 42.859L51.7236 44.893L52.5745 46.364L52.7627 46.6858C52.7958 46.7393 52.8221 46.7966 52.8412 46.8565C52.85 46.8853 52.857 46.9146 52.8623 46.9443C52.871 46.9889 52.8623 46.963 52.8623 46.9529C52.8623 46.9673 52.8623 46.9825 52.8623 46.9969C52.8623 47.03 52.8623 47.0624 52.8623 47.0948C52.8623 47.0998 52.8579 47.1445 52.8623 47.12C52.8666 47.0955 52.8572 47.1502 52.8557 47.1553C52.8501 47.1832 52.8431 47.2108 52.8346 47.2381C52.8346 47.2445 52.8048 47.3201 52.8194 47.2863C52.7936 47.3452 52.7612 47.401 52.7227 47.4526C52.7394 47.4303 52.6973 47.4807 52.6879 47.4908C52.6784 47.5009 52.6472 47.5318 52.6261 47.5505C52.605 47.5693 52.6043 47.57 52.5927 47.5786C52.6174 47.5592 52.5876 47.5786 52.5839 47.5829C52.5592 47.5988 52.5345 47.6146 52.5113 47.6283C52.415 47.6768 52.3083 47.7015 52.2003 47.7003C51.9198 47.7003 51.919 48.1323 52.2003 48.1323L52.2017 48.1345Z"
      fill="#1F1D25" />
  </g>
  <g opacity="0.29">
    <path opacity="0.29"
      d="M33.131 47.7025C32.9892 47.704 32.8507 47.6597 32.7364 47.5765C32.703 47.5534 32.7728 47.6081 32.7197 47.5642L32.679 47.5282C32.6536 47.5037 32.6289 47.4778 32.6064 47.4505C32.5838 47.4231 32.6332 47.4901 32.5947 47.4346C32.5831 47.4166 32.5707 47.3993 32.5598 47.3806C32.5489 47.3619 32.5453 47.3561 32.5388 47.3432C32.5322 47.3302 32.5083 47.2798 32.5133 47.2921C32.5242 47.3187 32.5003 47.2532 32.5017 47.2575C32.4952 47.2373 32.4886 47.2172 32.4835 47.1963C32.4785 47.1754 32.477 47.1682 32.4741 47.1545C32.4712 47.1409 32.4647 47.0825 32.469 47.1265C32.4654 47.0903 32.4639 47.054 32.4647 47.0177V46.9738C32.4647 46.9479 32.4647 46.945 32.4647 46.9659C32.4666 46.9511 32.4692 46.9365 32.4726 46.922C32.4857 46.8455 32.5133 46.7722 32.554 46.706C32.6143 46.5994 32.6776 46.4943 32.7386 46.3885L33.7901 44.5877L35.279 42.0325L36.6343 39.7069L37.3108 38.5455L37.7715 37.7535L39.0308 35.5935L40.5358 33.0101L41.7304 30.9603L42.0378 30.4318C42.0538 30.4045 42.0697 30.3764 42.0865 30.349C42.1355 30.2648 42.2013 30.1914 42.2798 30.133C42.3805 30.0623 42.4995 30.0216 42.6227 30.0157C42.6573 30.0135 42.692 30.0135 42.7267 30.0157C42.731 30.0157 42.7993 30.0257 42.7514 30.0157L42.7921 30.0229C42.826 30.0301 42.8595 30.0393 42.8923 30.0502C42.8923 30.0502 42.9585 30.0761 42.9185 30.0589L42.957 30.0769C43.0771 30.1346 43.1765 30.2273 43.2419 30.3425C43.3872 30.5816 43.7622 30.3641 43.6183 30.1265C43.5273 29.9737 43.4005 29.8448 43.2488 29.7506C43.0971 29.6564 42.9247 29.5996 42.7463 29.5851C42.5763 29.5714 42.4054 29.5974 42.2474 29.6611C42.0894 29.7247 41.9486 29.8242 41.8365 29.9516C41.7387 30.0769 41.6524 30.2107 41.5785 30.3512L40.5772 32.0799L39.0751 34.6582L37.6698 37.0702L36.9562 38.2942L36.4926 39.0862L35.2071 41.2959L33.6775 43.921L32.4894 45.9593L32.2081 46.4432C32.1676 46.5108 32.1321 46.5813 32.102 46.6541C32.0382 46.8174 32.0153 46.9936 32.0354 47.1676C32.0555 47.3416 32.1181 47.5081 32.2176 47.6528C32.3195 47.7999 32.4558 47.9206 32.6148 48.0044C32.7738 48.0883 32.9509 48.1329 33.131 48.1345C33.4115 48.1345 33.4122 47.7025 33.131 47.7025Z"
      fill="#1F1D25" />
  </g>
  <g opacity="0.29">
    <path opacity="0.29"
      d="M34.189 47.7024H33.8983C33.8406 47.7031 33.7854 47.7257 33.7442 47.7657C33.7231 47.7854 33.7075 47.8102 33.6992 47.8377C33.6857 47.8635 33.6792 47.8923 33.6803 47.9213C33.6804 47.9785 33.7034 48.0334 33.7442 48.0739C33.7856 48.1137 33.8407 48.1363 33.8983 48.1373H34.189C34.2467 48.1368 34.3019 48.114 34.343 48.0739C34.3645 48.0545 34.3801 48.0296 34.3881 48.0019C34.4019 47.9763 34.4084 47.9474 34.407 47.9184C34.4069 47.8611 34.3839 47.8062 34.343 47.7657C34.3017 47.7259 34.2466 47.7032 34.189 47.7024Z"
      fill="#1F1D25" />
  </g>
</svg>