<svg width="107" height="107" viewBox="0 0 107 107" fill="none" xmlns="http://www.w3.org/2000/svg">
  <path
    d="M49.2679 17.2096L49.3646 16.0856C49.3646 16.0856 49.3073 15.1885 50.1898 15.1398C51.0724 15.091 53.6866 15.0815 53.6866 15.0815C53.6866 15.0815 54.7549 15.0704 54.8242 15.9641C54.8782 16.6489 54.8593 17.2635 54.8593 17.2635C54.8593 17.2635 69.3515 17.8293 77.4973 29.5198C84.8367 40.1984 84.2717 49.0367 84.2717 49.0367C84.2717 49.0367 78.2942 45.1744 71.2604 48.9631C63.7977 44.7216 58.3553 48.8372 58.3553 48.8372C58.3553 48.8372 51.5363 44.3757 45.9295 48.9674C37.5226 44.7729 33.0218 49.1899 33.0218 49.1899C33.0218 49.1899 27.2069 45.1479 20.3058 48.9793C19.8068 44.9424 21.2543 21.2953 49.2679 17.2096Z"
    fill="#DBE5F0" />
  <path
    d="M84.2885 49.0641C84.2885 48.0412 84.1755 47.0097 84.0453 45.9996C83.7229 43.488 83.1549 41.014 82.3496 38.6132C81.2685 35.398 79.7473 32.3164 77.7529 29.5643C75.3923 26.3085 72.3815 23.5782 68.9112 21.5461C66.8575 20.3557 64.6786 19.3957 62.4141 18.6837C59.52 17.7643 56.488 17.1514 53.4552 17.0427C50.1005 16.922 46.7732 17.4707 43.5409 18.3421C41.1065 18.9855 38.7438 19.8746 36.4891 20.9957C32.8331 22.8319 29.5427 25.3785 26.9661 28.5654C24.8777 31.1723 23.2559 34.1207 22.1725 37.2804C21.3266 39.7282 20.7704 42.2667 20.5152 44.844C20.3671 46.1831 20.3219 47.5315 20.38 48.8775C20.38 48.94 20.386 49.0025 20.3911 49.0658C20.3919 49.0832 20.3977 49.1 20.4077 49.1142C20.4177 49.1284 20.4315 49.1395 20.4476 49.1462C20.4637 49.1528 20.4813 49.1548 20.4984 49.1517C20.5156 49.1487 20.5315 49.1409 20.5443 49.1292C21.0656 48.714 21.8283 48.3588 22.4858 48.1123C24.1978 47.4668 26.0664 47.2939 27.8786 47.5131C29.1676 47.6774 30.4295 48.0098 31.6322 48.5017C32.0162 48.6558 32.3946 48.8236 32.7672 49.0051C33.143 49.1866 33.0968 49.1626 33.4632 48.9494C34.1302 48.5589 34.8323 48.2316 35.5604 47.9719C37.7822 47.1965 40.1864 47.1102 42.4581 47.7245C43.6017 48.0284 44.7907 48.4718 45.7751 49.1455C45.7924 49.1554 45.8124 49.1595 45.8322 49.157C45.8519 49.1545 45.8704 49.1457 45.8847 49.1318C46.489 48.5728 47.268 48.1576 48.017 47.8332C49.8556 47.0509 51.8885 46.8458 53.8464 47.2451C55.4728 47.5687 56.9999 48.2646 58.3994 49.1455C58.413 49.154 58.4288 49.1585 58.4448 49.1585C58.4609 49.1585 58.4766 49.154 58.4902 49.1455C60.5446 47.7151 62.9654 47.0277 65.4615 47.2451C67.1279 47.4011 68.7478 47.8808 70.2303 48.6575C70.5211 48.8033 70.8029 48.9662 71.0743 49.1455C71.0879 49.154 71.1036 49.1585 71.1197 49.1585C71.1357 49.1585 71.1514 49.154 71.165 49.1455C71.9098 48.7072 72.7564 48.4076 73.5798 48.1628C77.0968 47.0913 80.8939 47.4442 84.1532 49.1455C84.2559 49.1977 84.3467 49.0427 84.2439 48.9905C80.9758 47.3132 77.1921 46.942 73.6603 47.9522C72.817 48.1856 72.0003 48.5061 71.2233 48.9083C71.1733 48.931 71.1252 48.9576 71.0794 48.988C71.1445 48.9392 71.1907 49.0205 71.0794 48.9332C70.8372 48.7466 70.5307 48.6087 70.2594 48.4709C67.5887 47.1013 64.418 46.5826 61.5102 47.4591C60.5163 47.7622 59.5717 48.208 58.7059 48.7825C58.5612 48.8775 58.4962 48.9537 58.3301 48.8895C58.2004 48.8244 58.0759 48.7495 57.9577 48.6652C57.7004 48.5146 57.4387 48.3719 57.1728 48.2372C56.7227 48.007 56.2603 47.8016 55.7878 47.6218C54.2187 47.0226 52.523 46.7444 50.8469 46.9156C49.6626 47.0341 48.5095 47.3662 47.4434 47.8957C47.0731 48.0798 46.7159 48.2892 46.3743 48.5223C46.1962 48.6447 45.9788 48.7722 45.8307 48.9332C45.8085 48.9563 45.7811 48.9751 45.7571 48.9965L45.8658 48.9828C45.0432 48.4196 44.0682 48.0258 43.1266 47.7245C41.0029 47.0457 38.7105 46.9293 36.5439 47.4805C35.8992 47.6462 35.2693 47.8649 34.6607 48.1345C34.2978 48.2943 33.9428 48.4715 33.5959 48.6661C33.4615 48.7406 33.3125 48.8758 33.1678 48.9169C32.9735 48.9708 32.6542 48.7414 32.4779 48.6601C31.2304 48.0803 29.9128 47.6651 28.5583 47.4249C26.6639 47.1022 24.6943 47.1861 22.8615 47.787C22.0175 48.0643 21.1273 48.4367 20.4254 48.9965L20.5786 49.0607C20.5041 48.1371 20.5384 47.1972 20.5897 46.2736C20.7173 43.973 21.0842 41.692 21.6845 39.4675C22.4962 36.4188 23.7854 33.5179 25.504 30.8723C27.6416 27.6345 30.4344 24.8808 33.702 22.7891C37.9598 20.0499 42.8612 18.4277 47.8363 17.5897C51.4761 16.9768 55.1492 17.1489 58.7513 17.909C61.2496 18.4245 63.6844 19.2104 66.0127 20.2527C69.8499 21.9781 73.2681 24.5137 76.0323 27.6854C78.3375 30.3467 80.1411 33.4207 81.4491 36.6846C82.4693 39.2409 83.2103 41.9 83.6593 44.6155C83.9072 46.0211 84.0559 47.4425 84.1044 48.869C84.1044 48.934 84.1044 48.9991 84.1044 49.0641C84.1044 49.0762 84.1068 49.0882 84.1114 49.0994C84.116 49.1105 84.1228 49.1207 84.1314 49.1292C84.1399 49.1378 84.1501 49.1445 84.1612 49.1492C84.1724 49.1538 84.1844 49.1562 84.1964 49.1562C84.2085 49.1562 84.2205 49.1538 84.2317 49.1492C84.2428 49.1445 84.253 49.1378 84.2615 49.1292C84.2701 49.1207 84.2768 49.1105 84.2815 49.0994C84.2861 49.0882 84.2885 49.0762 84.2885 49.0641Z"
    fill="#1F1D25" />
  <path
    d="M50.343 78.6785L50.1358 78.4731L49.5443 77.8842L48.6147 76.958L47.3786 75.727L45.8832 74.2367L44.1712 72.5299L42.2794 70.6466L40.2601 68.6376L38.1406 66.5275L35.9707 64.3653L33.7895 62.191L31.6495 60.0604L29.5737 57.9966L27.6118 56.0423L25.8065 54.2447L24.1997 52.6449L22.8395 51.2898L21.7533 50.207L20.9897 49.4468L20.5925 49.0505L20.5429 49.0017C20.526 48.9849 20.5031 48.9755 20.4792 48.9756C20.4554 48.9757 20.4326 48.9852 20.4158 49.0021C20.399 49.019 20.3896 49.0419 20.3896 49.0658C20.3897 49.0896 20.3993 49.1124 20.4162 49.1292L20.6225 49.3347L21.214 49.9245L22.1445 50.8507L23.3797 52.0808L24.876 53.5711L26.588 55.2779L28.4789 57.1611L30.5016 59.1685L32.6202 61.2794L34.7919 63.4416L36.9696 65.615L39.1096 67.7456L41.1854 69.8095L43.1474 71.7637L44.9519 73.5613L46.5586 75.1612L47.9196 76.5171L49.0059 77.5991L49.7686 78.3592L50.1666 78.7556L50.2154 78.8044C50.2323 78.8213 50.2553 78.8308 50.2792 78.8308C50.3031 78.8308 50.3261 78.8213 50.343 78.8044C50.3599 78.7874 50.3694 78.7645 50.3694 78.7406C50.3694 78.7167 50.3599 78.6937 50.343 78.6768V78.6785Z"
    fill="#3D3397" />
  <path
    d="M33.0177 49.1096L33.5091 49.9057L34.841 52.0663L36.8167 55.2695L39.2186 59.1652L41.85 63.4306L44.5036 67.7364L46.9791 71.751L49.0763 75.1425L50.5803 77.5822C50.8183 77.9674 51.052 78.3526 51.2934 78.7386L51.3242 78.7883C51.385 78.8867 51.5399 78.796 51.4791 78.6975L50.9878 77.9006L49.6559 75.74L47.6811 72.5377L45.2783 68.6412L42.6478 64.3757L39.9942 60.07L37.5186 56.0561L35.4205 52.6638L33.9165 50.2242C33.6786 49.839 33.4449 49.4538 33.2035 49.0686L33.1727 49.0189C33.1127 48.9205 32.957 49.0104 33.0177 49.1096Z"
    fill="#3D3397" />
  <path
    d="M58.3574 49.0403L58.1931 49.838L57.7488 51.99L57.088 55.1932L56.2842 59.0897L55.4033 63.3561L54.5148 67.6626L53.6862 71.6781L52.986 75.0722L52.4827 77.5135C52.4031 77.8987 52.32 78.2839 52.2438 78.67L52.2336 78.7196C52.2105 78.8326 52.3834 78.8805 52.4048 78.7675L52.5691 77.9697L53.0134 75.8169L53.6742 72.6137L54.478 68.7172L55.3588 64.4509L56.2474 60.1443L57.076 56.1288L57.7762 52.7356L58.2821 50.2926C58.3617 49.9065 58.4447 49.5222 58.5209 49.1361L58.5312 49.0856C58.5543 48.9735 58.3814 48.9247 58.36 49.0385L58.3574 49.0403Z"
    fill="#3D3397" />
  <path
    d="M71.0412 49.0189L70.5532 49.8218L69.2358 51.9901L67.2833 55.2044L64.901 59.1258L62.2996 63.4058L59.6588 67.7552L57.2072 71.7869L55.1357 75.2024L53.6437 77.6583C53.4091 78.0452 53.1686 78.4287 52.9383 78.819C52.9289 78.8361 52.9178 78.8524 52.9084 78.8695C52.8476 78.9688 53.0034 79.0587 53.0633 78.9603L53.5512 78.1573L54.8686 75.9882L56.8212 72.7739L59.2034 68.8526L61.8048 64.5725L64.4456 60.2223L66.8938 56.1922L68.9688 52.775L70.4608 50.3192C70.6953 49.9323 70.9359 49.5488 71.1653 49.1584L71.1961 49.1088C71.2081 49.0882 71.2115 49.0637 71.2055 49.0407C71.1995 49.0177 71.1845 48.998 71.164 48.9859C71.1434 48.9739 71.119 48.9705 71.0959 48.9766C71.0729 48.9826 71.0532 48.9975 71.0412 49.018V49.0189Z"
    fill="#3D3397" />
  <path
    d="M84.1344 48.9998L83.9238 49.2053L83.3246 49.7942L82.3744 50.7247L81.1161 51.9548L79.5941 53.4442L77.8496 55.1502L75.9253 57.0335L73.8709 59.0399L71.7154 61.1491L69.507 63.3106L67.2873 65.4814L65.1002 67.6214L62.9885 69.6878L60.9923 71.6403L59.1561 73.438L57.522 75.031L56.131 76.392L55.0268 77.4723L54.2512 78.2307L53.8472 78.6262L53.7975 78.675C53.7806 78.6918 53.7711 78.7146 53.771 78.7385C53.7709 78.7623 53.7803 78.7852 53.7971 78.8021C53.8139 78.819 53.8367 78.8286 53.8606 78.8287C53.8844 78.8287 53.9073 78.8193 53.9242 78.8025L54.1339 78.5971L54.7332 78.0082L55.6867 77.0854L56.9442 75.8545L58.467 74.365L60.2107 72.659L62.135 70.7758L64.1894 68.7693L66.3457 66.6601L68.5542 64.4995L70.773 62.3287L72.9601 60.1887L75.0727 58.1223L77.0672 56.1672L78.9042 54.3696L80.5357 52.7748L81.9267 51.4138L83.031 50.3335L83.8065 49.5751L84.2114 49.1796L84.2611 49.1308C84.3467 49.0495 84.2166 48.9228 84.1344 49.0033V48.9998Z"
    fill="#3D3397" />
  <path
    d="M45.738 49.0872L45.8972 49.8824L46.3312 52.0447L46.9698 55.2307L47.7514 59.1307L48.6074 63.403L49.4693 67.701L50.2748 71.7354L50.9537 75.1209L51.4424 77.5571C51.5195 77.9431 51.5871 78.3335 51.6753 78.7178C51.6753 78.7341 51.6813 78.7503 51.6847 78.7666C51.7078 78.8796 51.8807 78.8317 51.8559 78.7187L51.6958 77.9234L51.2627 75.7612L50.6241 72.5751L49.8468 68.6752L48.9908 64.4028L48.1288 60.1048L47.3199 56.0705L46.6377 52.6893L46.1498 50.2531C46.0719 49.867 46.0043 49.4767 45.9169 49.0923C45.9169 49.0769 45.9101 49.0598 45.9075 49.0444C45.8844 48.9306 45.7115 48.9785 45.7363 49.0915L45.738 49.0872Z"
    fill="#3D3397" />
  <path
    d="M33.1819 49.0403C33.1819 49.0275 33.1776 49.0138 33.1759 49.0009C33.1742 48.9881 33.1759 48.9692 33.1691 48.9538C33.1622 48.9068 33.1691 48.9419 33.1631 48.9068C33.1434 48.7595 33.1271 48.6123 33.1117 48.4651C33.0561 47.9164 33.0261 47.3668 33.0047 46.8164C32.9773 45.9747 32.9848 45.1335 33.027 44.2929C33.0789 43.2229 33.1833 42.1572 33.3403 41.0957C33.525 39.8503 33.7822 38.6167 34.1107 37.4012C34.4818 36.0291 34.9486 34.6848 35.5077 33.378C36.8001 30.355 38.598 27.5743 40.8243 25.1552C42.1205 23.7498 43.5438 22.4672 45.0761 21.3237C46.8098 20.033 48.6549 18.8992 50.5897 17.9357C51.1033 17.6783 51.6237 17.4312 52.151 17.1944L52.0423 17.0531C51.9567 17.1456 51.8814 17.2432 51.8043 17.3408C51.5775 17.6275 51.3626 17.9237 51.1563 18.225C50.8311 18.7001 50.5255 19.1897 50.2361 19.6879C49.8452 20.3625 49.4826 21.0521 49.1482 21.7569C48.7304 22.6334 48.3509 23.5282 48.0097 24.4413C47.5979 25.5319 47.2393 26.643 46.9268 27.7669C46.5656 29.0692 46.266 30.3863 46.028 31.7182C45.7552 33.235 45.5555 34.7622 45.4288 36.2995C45.2799 38.0484 45.2174 39.8049 45.2311 41.5597C45.2473 43.5507 45.3629 45.5409 45.5615 47.5217C45.614 48.0353 45.6711 48.5509 45.7327 49.0685C45.7472 49.1815 45.927 49.1832 45.9124 49.0685C45.6659 47.0509 45.5024 45.0239 45.4382 42.9909C45.3809 41.1933 45.4023 39.3846 45.5127 37.5853C45.6103 35.9914 45.7781 34.4009 46.0263 32.8233C46.242 31.4474 46.5199 30.0835 46.86 28.7316C47.1562 27.5606 47.5029 26.4016 47.9035 25.2622C48.2408 24.3044 48.6166 23.3593 49.0352 22.4374C49.3776 21.6884 49.7422 20.9505 50.142 20.2315C50.4444 19.6854 50.7669 19.1509 51.1093 18.6282C51.3361 18.2858 51.5732 17.9434 51.824 17.6173C51.9173 17.494 52.05 17.3442 52.1579 17.2029L52.1733 17.1867C52.1876 17.1709 52.196 17.1505 52.1968 17.1292C52.1976 17.1078 52.1909 17.0869 52.1778 17.07C52.1647 17.0532 52.1461 17.0414 52.1252 17.0369C52.1044 17.0325 52.0826 17.0355 52.0637 17.0454C50.0017 17.9648 48.0251 19.0651 46.1573 20.3334C44.5309 21.4408 43.0094 22.6949 41.6119 24.0801C40.3571 25.3257 39.2169 26.6817 38.205 28.1315C37.289 29.4496 36.4838 30.8414 35.7979 32.2926C35.175 33.6112 34.6478 34.9729 34.2203 36.3672C33.8376 37.6189 33.5323 38.8931 33.306 40.1824C33.1093 41.2987 32.9704 42.4244 32.89 43.555C32.825 44.4601 32.7984 45.3663 32.8104 46.2737C32.8198 46.9054 32.8481 47.5363 32.9029 48.1655C32.916 48.4626 32.9488 48.7586 33.0013 49.0514C33.0013 49.0634 33.0013 49.0754 33.0064 49.0874C33.0253 49.2021 33.1982 49.1533 33.1776 49.0403H33.1819Z"
    fill="#1F1D25" />
  <path
    d="M58.3032 49.0403L58.1482 49.8346L57.7151 51.9969L57.0757 55.1838L56.2941 59.0837L55.4381 63.3552L54.577 67.654L53.768 71.6875L53.0892 75.073L52.5953 77.5135C52.5183 77.9004 52.4369 78.2839 52.3633 78.6742L52.353 78.723C52.3308 78.836 52.5037 78.8839 52.5242 78.7709L52.6835 77.9757L53.1166 75.8135L53.756 72.6274L54.5376 68.7275L55.3936 64.4551L56.2547 60.1572L57.0637 56.1228L57.7425 52.7373L58.2338 50.2969C58.3109 49.9099 58.3922 49.5265 58.4658 49.1361L58.4761 49.0873C58.4983 48.9743 58.3254 48.9264 58.3049 49.0403H58.3032Z"
    fill="#3D3397" />
  <path
    d="M71.2025 49.0871C71.2359 48.8833 71.2573 48.6779 71.2787 48.4725C71.3343 47.9221 71.3643 47.3691 71.3865 46.8161C71.4139 45.9681 71.4062 45.1201 71.3634 44.272C71.3103 43.1923 71.2039 42.1175 71.0441 41.0475C70.8586 39.7928 70.5988 38.5503 70.266 37.3264C69.8929 35.9545 69.425 34.6102 68.8656 33.3032C67.5685 30.2655 65.763 27.4711 63.5267 25.0402C62.2264 23.628 60.7988 22.3385 59.2621 21.1882C57.5185 19.8877 55.6618 18.7464 53.7143 17.7778C53.2007 17.5193 52.6799 17.2722 52.1521 17.0365C52.1332 17.0256 52.111 17.0219 52.0896 17.0261C52.0682 17.0303 52.0491 17.0422 52.0357 17.0595C52.0224 17.0768 52.0159 17.0983 52.0173 17.1201C52.0187 17.1418 52.0279 17.1623 52.0434 17.1778C52.129 17.2694 52.2034 17.3661 52.2796 17.4628C52.4859 17.7196 52.7076 18.0261 52.9054 18.3188C53.2298 18.7931 53.5337 19.2801 53.8213 19.774C54.2108 20.4443 54.5703 21.1325 54.9041 21.8285C55.3236 22.7141 55.7036 23.6135 56.0443 24.5266C56.4512 25.6109 56.8085 26.7111 57.116 27.8273C57.4756 29.1239 57.7735 30.4364 58.0097 31.765C58.2845 33.2878 58.4822 34.8243 58.6089 36.3668C58.7562 38.1097 58.8161 39.8602 58.8007 41.6099C58.7827 43.5838 58.668 45.5569 58.4702 47.5206C58.4189 48.0342 58.3618 48.5498 58.299 49.0674C58.2845 49.1812 58.4643 49.1804 58.4788 49.0674C58.7262 47.0412 58.8905 45.0048 58.9539 42.9649C59.0104 41.1485 58.9873 39.3295 58.8743 37.5165C58.775 35.9294 58.6038 34.3492 58.3607 32.7759C58.1444 31.3943 57.8653 30.0247 57.5235 28.6671C57.2265 27.4969 56.8798 26.3387 56.4783 25.2003C56.1393 24.2364 55.7596 23.2882 55.339 22.3558C54.9966 21.6013 54.6256 20.862 54.2262 20.1379C53.9214 19.59 53.5996 19.0516 53.2546 18.5286C53.0269 18.1862 52.7898 17.8438 52.539 17.5168C52.4611 17.4149 52.3815 17.3139 52.301 17.2154C52.2669 17.1634 52.2267 17.1157 52.1812 17.0734C52.1759 17.068 52.171 17.0623 52.1666 17.0562L52.0571 17.1975C54.1048 18.1113 56.0683 19.2032 57.925 20.4606C59.5527 21.5647 61.0749 22.8169 62.4721 24.2013C64.861 26.5718 66.8186 29.3404 68.257 32.383C68.8768 33.6964 69.4007 35.053 69.8243 36.4422C70.2047 37.6892 70.508 38.9585 70.7325 40.2428C70.9262 41.3461 71.0628 42.4587 71.1417 43.5761C71.2051 44.4766 71.2324 45.3797 71.2188 46.282C71.2102 46.9068 71.1819 47.5326 71.128 48.1557C71.1115 48.3469 71.0924 48.5375 71.0707 48.7276C71.0638 48.7883 71.0561 48.85 71.0476 48.9107C71.0476 48.939 71.0475 48.9107 71.0416 48.9561C71.0416 48.9715 71.0373 48.9878 71.0347 49.0032C71.0321 49.0186 71.0347 49.0272 71.0296 49.04C71.0116 49.153 71.1845 49.2018 71.2008 49.0871H71.2025Z"
    fill="#1F1D25" />
  <path
    d="M25.5897 34.8626C25.3434 35.3012 25.1208 35.7527 24.9229 36.2151C24.438 37.3039 24.0532 38.4345 23.7732 39.593C23.5842 40.3807 23.4577 41.1821 23.3949 41.9898C23.3855 42.1053 23.5661 42.1045 23.5747 41.9898C23.6914 40.6138 23.9813 39.258 24.4375 37.9545C24.7339 37.0784 25.0917 36.2243 25.5084 35.3985C25.5846 35.2496 25.6616 35.1006 25.7455 34.9551C25.7576 34.9344 25.7609 34.9098 25.7548 34.8867C25.7487 34.8636 25.7337 34.8439 25.713 34.8318C25.6923 34.8198 25.6677 34.8165 25.6446 34.8226C25.6215 34.8287 25.6018 34.8437 25.5897 34.8644V34.8626Z"
    fill="#3D3397" />
  <path
    d="M80.5435 43.1562C80.5914 43.5448 80.6302 43.9349 80.6598 44.3263C80.6684 44.441 80.8481 44.4419 80.8395 44.3263C80.8105 43.9354 80.7717 43.5454 80.7232 43.1562C80.7216 43.134 80.7121 43.1131 80.6963 43.0974C80.6806 43.0817 80.6598 43.0721 80.6376 43.0706C80.6145 43.0707 80.5924 43.0797 80.5757 43.0956C80.5591 43.1115 80.549 43.1331 80.5477 43.1562H80.5435Z"
    fill="#1F1D25" />
  <path
    d="M80.6333 43.2457C80.6572 43.2457 80.68 43.2362 80.6969 43.2193C80.7138 43.2025 80.7232 43.1796 80.7232 43.1558C80.7232 43.132 80.7138 43.1091 80.6969 43.0922C80.68 43.0754 80.6572 43.0659 80.6333 43.0659C80.6095 43.0659 80.5866 43.0754 80.5698 43.0922C80.5529 43.1091 80.5435 43.132 80.5435 43.1558C80.5435 43.1796 80.5529 43.2025 80.5698 43.2193C80.5866 43.2362 80.6095 43.2457 80.6333 43.2457Z"
    fill="#3D3397" />
  <path
    d="M80.4063 41.7686C80.4301 41.7686 80.453 41.7592 80.4698 41.7423C80.4867 41.7254 80.4962 41.7026 80.4962 41.6787C80.4962 41.6549 80.4867 41.6321 80.4698 41.6152C80.453 41.5983 80.4301 41.5889 80.4063 41.5889C80.3825 41.5889 80.3596 41.5983 80.3427 41.6152C80.3259 41.6321 80.3164 41.6549 80.3164 41.6787C80.3164 41.7026 80.3259 41.7254 80.3427 41.7423C80.3596 41.7592 80.3825 41.7686 80.4063 41.7686Z"
    fill="#1F1D25" />
  <path
    d="M77.1204 33.527C77.4207 33.9568 77.6927 34.4057 77.9345 34.871C78.5828 36.0776 79.1198 37.3409 79.5387 38.6451C79.8637 39.6466 80.1239 40.6679 80.3177 41.7028C80.3382 41.8158 80.512 41.7678 80.4889 41.6548C80.1688 39.9422 79.666 38.2688 78.9891 36.6634C78.5884 35.6982 78.1118 34.7662 77.5638 33.8763C77.4705 33.7273 77.3772 33.5784 77.2745 33.4363C77.2069 33.3438 77.0511 33.4363 77.1187 33.527H77.1204Z"
    fill="#3D3397" />
  <path
    d="M49.4649 17.2373V16.4806C49.4649 16.1707 49.4427 15.8703 49.6233 15.598C49.715 15.4644 49.8389 15.3561 49.9836 15.2831C50.1283 15.2101 50.2891 15.1747 50.451 15.1803H53.7039C53.947 15.1803 54.1756 15.2068 54.3827 15.3515C54.4886 15.4267 54.5778 15.5231 54.6447 15.6344C54.7116 15.7458 54.7547 15.8698 54.7713 15.9987C54.7813 16.1199 54.7836 16.2417 54.7782 16.3633V17.239C54.7782 17.2629 54.7877 17.2857 54.8045 17.3026C54.8214 17.3194 54.8442 17.3289 54.8681 17.3289C54.8919 17.3289 54.9148 17.3194 54.9316 17.3026C54.9485 17.2857 54.958 17.2629 54.958 17.239V16.4386C54.958 16.1057 54.9657 15.7847 54.7679 15.497C54.6624 15.3428 54.5205 15.2169 54.3548 15.1304C54.1891 15.044 54.0046 14.9997 53.8177 15.0014H50.5016C50.216 14.9877 49.9347 15.0743 49.7063 15.2462C49.399 15.4919 49.2852 15.8454 49.2852 16.2246V17.2416C49.2852 17.2654 49.2946 17.2883 49.3115 17.3051C49.3283 17.322 49.3512 17.3315 49.375 17.3315C49.3989 17.3315 49.4217 17.322 49.4386 17.3051C49.4555 17.2883 49.4649 17.2654 49.4649 17.2416V17.2373Z"
    fill="#1F1D25" />
  <path opacity="0.34"
    d="M59.168 91.4588C59.168 91.1686 59.3977 90.9333 59.6811 90.9333H64.0834C64.3668 90.9333 64.5966 91.1686 64.5966 91.4588V94.8113C64.5966 95.1015 64.3668 95.3368 64.0834 95.3368H59.6811C59.3977 95.3368 59.168 95.1015 59.168 94.8113V91.4588Z"
    fill="#FAFAFA" />
  <path fill-rule="evenodd" clip-rule="evenodd"
    d="M37.3057 80.942C37.3057 79.7232 38.2706 78.7351 39.4609 78.7351H65.5957C66.786 78.7351 67.7509 79.7232 67.7509 80.942V96.8983C67.7509 98.1172 66.786 99.1053 65.5957 99.1053H39.4609C38.2706 99.1053 37.3057 98.1172 37.3057 96.8983V80.942ZM39.4609 78.9453C38.384 78.9453 37.5109 79.8393 37.5109 80.942V96.8983C37.5109 98.0011 38.384 98.8951 39.4609 98.8951H65.5957C66.6726 98.8951 67.5457 98.0011 67.5457 96.8983V80.942C67.5457 79.8393 66.6726 78.9453 65.5957 78.9453H39.4609Z"
    fill="#1F1D25" />
  <path fill-rule="evenodd" clip-rule="evenodd"
    d="M39.2578 94.1434C39.2578 94.0854 39.3038 94.0383 39.3604 94.0383H47.5721C47.6288 94.0383 47.6747 94.0854 47.6747 94.1434C47.6747 94.2015 47.6288 94.2485 47.5721 94.2485H39.3604C39.3038 94.2485 39.2578 94.2015 39.2578 94.1434Z"
    fill="#3D3397" />
  <path fill-rule="evenodd" clip-rule="evenodd" d="M67.6575 83.5046H37.397V83.2944H67.6575V83.5046Z" fill="#1F1D25" />
  <path fill-rule="evenodd" clip-rule="evenodd" d="M67.6483 88.6221H37.3877V88.4119H67.6483V88.6221Z" fill="#1F1D25" />
  <path fill-rule="evenodd" clip-rule="evenodd"
    d="M39.2578 92.1268C39.2578 92.0688 39.3038 92.0217 39.3604 92.0217H50.128C50.1846 92.0217 50.2306 92.0688 50.2306 92.1268C50.2306 92.1849 50.1846 92.2319 50.128 92.2319H39.3604C39.3038 92.2319 39.2578 92.1849 39.2578 92.1268ZM51.4031 92.1268C51.4031 92.0688 51.449 92.0217 51.5057 92.0217H65.6754C65.7321 92.0217 65.7781 92.0688 65.7781 92.1268C65.7781 92.1849 65.7321 92.2319 65.6754 92.2319H51.5057C51.449 92.2319 51.4031 92.1849 51.4031 92.1268Z"
    fill="#3D3397" />
</svg>