<svg width="107" height="107" viewBox="0 0 107 107" fill="none" xmlns="http://www.w3.org/2000/svg">
  <path
    d="M68.3725 46.004C68.2966 45.9602 68.2216 45.9155 68.1437 45.8736C60.3998 41.4336 51.6679 44.7162 46.2486 47.3017C45.0221 47.8384 43.8646 48.413 42.7763 49.0257C38.4444 51.1293 35.0548 54.7973 35.0548 54.7973C26.9955 62.7183 25.4477 71.8231 25.4477 71.8231C24.1822 80.6329 24.8082 89.2217 35.78 93.4193C37.452 94.1721 39.1929 94.7616 40.9783 95.1793L40.7963 88.8664L40.0759 88.7399C39.7361 88.6823 39.4002 88.6033 39.0703 88.5033C38.7481 88.3855 38.3334 87.4958 38.3334 87.4958C38.3334 87.4958 35.6077 87.5805 34.6859 87.4958C33.764 87.4111 33.8828 86.829 33.8828 86.829L33.9013 79.6332L34.4513 79.2019H37.2831L37.5868 71.1066C37.8605 67.9041 38.3116 64.7193 38.938 61.5667C39.9805 56.2945 40.4585 55.4554 41.9713 54.3378C43.484 53.2203 48.0719 52.7569 48.0719 52.7569L47.8422 46.7711L51.3145 46.2941L53.7209 48.0084L52.2831 50.3087L52.5061 51.9636C52.5061 51.9636 53.9604 51.763 55.6357 51.6939C57.3111 51.6248 59.3612 53.1298 59.3612 53.1298L64.5633 61.2095L71.7007 56.8065L72.2673 56.8922L73.011 59.4631L73.3031 60.5777C73.3031 60.5777 70.4041 63.0045 68.866 64.4715C67.328 65.9385 66.1637 66.5216 63.9802 67.0678C61.7968 67.6139 59.1743 61.5599 59.1743 61.5599C59.1743 61.5599 59.1606 62.144 59.1256 62.8644C59.0905 63.5847 60.3911 68.4355 60.7522 71.4785C61.1134 74.5215 58.8842 74.8856 58.8842 74.8856L59.5247 90.3977C61.31 88.3038 62.4081 85.7903 62.9513 83.2661C64.5614 75.7812 65.5514 75.9399 71.9811 66.5976C76.2303 60.4171 75.7318 50.259 68.3725 46.004Z"
    fill="#DBE5F0" />
  <path
    d="M50.4123 78.767C49.8282 78.9617 49.7104 79.6334 49.8214 80.2145C49.9324 80.7957 49.0903 95.1767 49.0903 95.1767C49.0903 95.1767 50.863 95.5193 52.1956 94.139C52.5685 92.6846 51.0275 80.0023 51.0275 80.0023C51.0275 80.0023 50.9954 78.5752 50.4123 78.767Z"
    fill="#DBE5F0" />
  <path
    d="M40.6507 82.9011C40.6507 82.9011 41.0206 82.9878 41.0916 83.346C41.1627 83.7042 41.1325 84.3973 41.3 84.5657C41.5995 84.8451 41.932 85.087 42.29 85.2861C42.7086 85.5187 43.3325 85.8604 43.279 86.0269C43.2255 86.1933 43.2342 86.3695 42.6414 86.3121C42.0485 86.2547 41.447 86.1846 41.447 86.1846C41.5338 86.447 41.6426 86.7016 41.7721 86.9458C41.9395 87.231 42.1001 87.4929 42.1001 87.4929L42.5333 87.5231C42.5333 87.5231 42.4175 88.2717 41.9356 88.3272C41.4538 88.3826 41.3603 88.3768 41.2698 88.5004C41.1793 88.6241 41.0469 88.9083 40.7908 88.8635C40.7908 88.8635 40.3518 88.6572 40.0705 88.737C39.9547 88.7638 39.8348 88.7672 39.7177 88.7468C39.6007 88.7264 39.4889 88.6827 39.3891 88.6182C39.2957 88.548 39.1835 88.507 39.0669 88.5004C38.9267 88.493 38.7927 88.4404 38.6848 88.3506C38.5769 88.2608 38.5009 88.1385 38.4682 88.002C38.3708 87.5795 38.1596 86.7287 38.1518 86.3569C38.144 85.985 37.9854 83.0471 37.9854 83.0471L40.6507 82.9011Z"
    fill="#FFBFC3" />
  <path
    d="M47.1025 46.919C47.3487 47.2305 47.852 47.3648 48.0068 47.3648C48.1616 47.3648 48.0701 52.7481 48.0701 52.7481C48.0701 52.7481 48.9978 54.0544 50.6984 53.8831C52.399 53.7118 52.6103 52.7481 52.6103 52.7481L52.2803 50.2998C52.2803 50.2998 54.1873 49.9163 54.1775 47.9995C54.1678 46.0828 54.1172 43.2413 54.1172 43.2413C54.1172 43.2413 52.621 43.7961 51.9756 43.7699C51.3302 43.7436 49.7561 42.5267 49.2684 42.6601C48.7807 42.7935 48.6074 45.4452 48.2249 45.3459C47.8423 45.2466 47.2456 44.8222 47.0567 45.3731C46.8679 45.9241 46.8571 46.6075 47.1025 46.919ZM50.8727 47.9995H52.8809C52.8809 47.9995 52.7115 49.0703 51.9143 49.0207C51.117 48.971 50.8727 47.9995 50.8727 47.9995Z"
    fill="#FFBFC3" />
  <path
    d="M72.4756 57.2767L73.7557 56.421C73.7557 56.421 74.1792 55.2996 74.3534 55.1555C74.5277 55.0115 75.0348 53.8229 74.9891 53.4841C74.9433 53.1453 75.0524 52.2108 75.4456 52.4532C75.8389 52.6956 76.0229 53.4627 76.0229 53.8852C76.0229 54.3077 75.8983 54.8138 76.1436 54.7301C76.3889 54.6464 77.2456 54.2045 77.6612 54.3408C78.2755 54.5413 77.9932 55.0426 77.9932 55.0426C77.9932 55.0426 78.5413 55.2324 78.5208 55.616C78.5115 55.8399 78.4537 56.0591 78.3514 56.2585C78.3514 56.2585 78.6824 56.275 78.7058 56.5505C78.7291 56.826 78.5296 57.2124 78.5296 57.2124C78.5296 57.2124 78.919 57.3234 78.9082 57.6447C78.8975 57.9659 78.2687 58.2852 78.0078 58.3728C77.6835 58.4809 77.3457 58.5432 77.0041 58.5578C77.0041 58.5578 76.3938 59.0065 75.8525 58.9471C75.4405 58.8887 75.0349 58.7909 74.6415 58.6551L73.0918 59.9206L72.4756 57.2767Z"
    fill="#FFBFC3" />
  <g opacity="0.39">
    <path opacity="0.39"
      d="M38.3296 87.4928H34.2293C34.132 87.4928 33.8779 87.2368 33.8779 86.9243V79.7702C33.8784 79.6196 33.9385 79.4754 34.0451 79.3691C34.1516 79.2627 34.2959 79.2029 34.4464 79.2026H37.4778L37.5878 82.6332C37.5878 82.6332 37.5654 83.0226 37.7435 83.042C37.8299 83.0508 37.9167 83.0537 38.0034 83.0508L38.129 86.1951C38.129 86.1951 38.2799 87.4071 38.3296 87.4928Z"
      fill="#1F1D25" />
  </g>
  <g opacity="0.39">
    <path opacity="0.39"
      d="M42.0804 87.4928H45.9742C46.1248 87.4923 46.2691 87.4322 46.3756 87.3257C46.4821 87.2192 46.5422 87.0749 46.5427 86.9243V79.7702C46.5422 79.6196 46.4821 79.4754 46.3756 79.3691C46.269 79.2627 46.1247 79.2029 45.9742 79.2026H41.6267L41.6462 82.6663C41.5513 82.7554 41.4293 82.8102 41.2996 82.822L40.7896 82.9272C40.7896 82.9272 41.1205 83.1481 41.1273 83.4139C41.1342 83.6797 41.1887 84.4497 41.2987 84.5723C41.6233 84.9231 42.0123 85.2083 42.4444 85.4125C43.0207 85.6636 43.4072 85.9644 43.2417 86.1601C43.0762 86.3558 42.4941 86.3256 42.1933 86.3012C41.8925 86.2769 41.4885 86.1065 41.4457 86.1912C41.4028 86.2759 41.4583 86.4239 41.507 86.4969C41.5557 86.5699 42.0804 87.4928 42.0804 87.4928Z"
      fill="#1F1D25" />
  </g>
  <path
    d="M60.0226 99.3624L59.9126 96.9229L59.6479 91.0676L59.3296 84.0265L59.0521 77.9064L58.9616 75.8903L58.9334 75.2692C58.9389 75.1584 58.9337 75.0472 58.9178 74.9373C58.9164 74.9237 58.9164 74.91 58.9178 74.8964L58.8419 74.9938C59.8942 74.8497 60.6242 73.8509 60.7887 72.8667C60.8861 72.3187 60.8423 71.7697 60.7722 71.2206C60.6972 70.6365 60.5989 70.0466 60.4909 69.4684C60.2504 68.1698 59.9652 66.88 59.718 65.5833C59.4668 64.2604 59.2254 62.9131 59.2312 61.5619C59.2312 61.5348 59.2205 61.5088 59.2013 61.4897C59.1821 61.4705 59.1561 61.4597 59.129 61.4597C59.1019 61.4597 59.0759 61.4705 59.0568 61.4897C59.0376 61.5088 59.0268 61.5348 59.0268 61.5619C59.0181 62.6882 59.1894 63.8145 59.3841 64.9213C59.607 66.1868 59.8815 67.4377 60.1307 68.6964C60.2485 69.2932 60.3614 69.8909 60.4568 70.4915C60.5473 71.059 60.6437 71.6382 60.6369 72.2145C60.6291 73.0079 60.3926 73.8159 59.7608 74.3376C59.4807 74.5785 59.1406 74.739 58.7767 74.802C58.7549 74.8071 58.7355 74.8196 58.7219 74.8373C58.7082 74.8551 58.7011 74.877 58.7017 74.8993L58.8195 77.3369L59.0843 83.1913L59.4035 90.2323L59.68 96.3525L59.7715 98.3676C59.7851 98.6849 59.7861 99.0052 59.8143 99.3215C59.8143 99.3352 59.8143 99.3488 59.8143 99.3624C59.8202 99.4929 60.0246 99.4939 60.0188 99.3624H60.0226Z"
    fill="#1F1D25" />
  <path
    d="M41.5737 74.9157C41.6711 75.2739 42.0303 75.5621 42.334 75.7392C42.753 75.9695 43.213 76.1153 43.6881 76.1685C44.4655 76.2569 45.2513 76.2406 46.0244 76.1198C46.8099 76.0115 47.5841 75.8323 48.3373 75.5845C48.9545 75.3839 49.5551 75.1386 50.1616 74.9089C50.7007 74.6925 51.2586 74.526 51.8282 74.4115C52.5377 74.2975 53.2612 74.3008 53.9698 74.4212C54.694 74.5302 55.3949 74.7395 56.1114 74.9079C56.8047 75.0844 57.5225 75.1446 58.2355 75.0861C58.4379 75.0656 58.6395 75.0345 58.839 74.9946C58.9685 74.9693 58.914 74.7726 58.7855 74.7999C58.0529 74.9435 57.2995 74.9435 56.567 74.7999C55.8855 74.6685 55.2197 74.4572 54.5383 74.319C53.8089 74.1554 53.0599 74.0964 52.3139 74.1438C51.7402 74.201 51.1756 74.3282 50.6327 74.5225C50.0613 74.7171 49.5045 74.9527 48.938 75.161C48.2649 75.4136 47.5741 75.6163 46.8713 75.7675C46.0473 75.9479 45.2051 76.0318 44.3617 76.0176C43.8079 76.0156 43.2589 75.914 42.7409 75.7178C42.4536 75.6059 42.1949 75.4313 41.9836 75.2068C41.9243 75.1435 41.873 75.0732 41.8307 74.9975C41.8151 74.9712 41.8015 74.944 41.7879 74.9167C41.7743 74.8894 41.7879 74.904 41.7879 74.907L41.7791 74.8846C41.7767 74.8786 41.7748 74.8724 41.7733 74.8661C41.7632 74.8439 41.7456 74.826 41.7236 74.8157C41.7015 74.8054 41.6765 74.8032 41.6531 74.8097C41.6296 74.8161 41.6092 74.8308 41.5955 74.8509C41.5819 74.8711 41.5759 74.8954 41.5786 74.9196L41.5737 74.9157Z"
    fill="#1F1D25" />
  <path
    d="M52.7287 99.3622L52.683 98.8005L52.5574 97.277L52.3715 95.0313L52.1466 92.3056L51.9013 89.3278L51.656 86.3636L51.4321 83.638L51.2471 81.399L51.1225 79.8853C51.107 79.7023 51.0943 79.5183 51.0768 79.3353C51.0658 79.1749 51.0094 79.021 50.9142 78.8914C50.8289 78.7857 50.7122 78.7099 50.5809 78.6749C50.4497 78.64 50.3107 78.6476 50.1841 78.6967C49.783 78.8632 49.8921 79.3976 49.8843 79.7383C49.8784 80.0089 49.857 80.2796 49.8424 80.5492C49.8093 81.1333 49.7769 81.7174 49.7451 82.3014C49.6984 83.1159 49.6513 83.9313 49.6039 84.7477C49.5488 85.7004 49.4929 86.6541 49.4365 87.6087L49.2583 90.6342C49.2012 91.6115 49.1435 92.5889 49.0851 93.5662C49.0344 94.4261 48.9835 95.2857 48.9322 96.1449C48.8933 96.801 48.8547 97.4568 48.8164 98.1123C48.7937 98.4783 48.7719 98.8443 48.7512 99.2103L48.7424 99.3525C48.7346 99.4839 48.9371 99.4829 48.9468 99.3525C48.9585 99.1578 48.9692 98.9689 48.9809 98.7771C49.0121 98.258 49.0445 97.7388 49.0783 97.2196C49.123 96.4577 49.1681 95.6962 49.2136 94.9349C49.2681 94.0179 49.3223 93.1013 49.3761 92.1849L49.5436 89.2129C49.602 88.2278 49.6601 87.2424 49.7178 86.2566L49.8726 83.5893C49.9141 82.8754 49.9553 82.1596 49.9962 81.4419C50.0225 80.9882 50.0488 80.5336 50.0722 80.079C50.078 79.9817 50.0848 79.8736 50.0877 79.7704C50.0965 79.53 49.9768 79.0287 50.2532 78.8943C50.4907 78.7834 50.7507 78.9401 50.8373 79.1659C50.859 79.2235 50.8727 79.2838 50.8782 79.345C50.884 79.4112 50.8889 79.4765 50.8938 79.5397L50.9911 80.6874L51.1517 82.6441L51.3601 85.1624L51.5966 88.0292L51.8419 91.0002L52.0765 93.8398L52.28 96.3143L52.4348 98.1804L52.5204 99.222L52.5311 99.3563C52.5418 99.4858 52.7463 99.4878 52.7356 99.3563L52.7287 99.3622Z"
    fill="#1F1D25" />
  <path
    d="M41.0935 99.4507V98.3926L41.0847 95.8509L41.075 92.7893L41.0672 90.1327V89.2624C41.0672 89.1242 41.075 88.983 41.0672 88.8448V88.8234C41.0672 88.7963 41.0565 88.7703 41.0373 88.7511C41.0181 88.732 40.9921 88.7212 40.965 88.7212C40.9379 88.7212 40.9119 88.732 40.8927 88.7511C40.8736 88.7703 40.8628 88.7963 40.8628 88.8234V89.8816L40.8706 92.4233L40.8803 95.4848L40.8891 98.1414V99.0117C40.8891 99.1499 40.8803 99.2911 40.8891 99.4293C40.8896 99.4355 40.8896 99.4417 40.8891 99.4478C40.8891 99.4749 40.8998 99.5009 40.919 99.5201C40.9382 99.5393 40.9642 99.55 40.9913 99.55C41.0184 99.55 41.0444 99.5393 41.0636 99.5201C41.0827 99.5009 41.0935 99.4749 41.0935 99.4478V99.4507Z"
    fill="#1F1D25" />
  <path
    d="M43.6382 77.7172V79.1988C43.6382 79.2259 43.649 79.2519 43.6681 79.2711C43.6873 79.2903 43.7133 79.301 43.7404 79.301C43.7675 79.301 43.7935 79.2903 43.8127 79.2711C43.8318 79.2519 43.8426 79.2259 43.8426 79.1988V77.7172C43.8426 77.6901 43.8318 77.6641 43.8127 77.6449C43.7935 77.6258 43.7675 77.615 43.7404 77.615C43.7133 77.615 43.6873 77.6258 43.6681 77.6449C43.649 77.6641 43.6382 77.6901 43.6382 77.7172Z"
    fill="#3D3397" />
  <path
    d="M43.6394 87.4928L43.6015 88.6746L43.51 91.5123L43.4 94.9447L43.3026 97.9001L43.2715 98.8736C43.2715 99.0264 43.2501 99.1841 43.2559 99.337C43.2564 99.3438 43.2564 99.3506 43.2559 99.3574C43.2559 99.4888 43.4555 99.4888 43.4603 99.3574L43.4983 98.1747L43.5888 95.337L43.6988 91.9055L43.7962 88.9491L43.8273 87.9757C43.8273 87.8228 43.8487 87.6652 43.8419 87.5123C43.8414 87.5055 43.8414 87.4987 43.8419 87.4919C43.8419 87.3605 43.6414 87.3605 43.6375 87.4919L43.6394 87.4928Z"
    fill="#3D3397" />
  <path
    d="M44.0043 61.7116C43.8447 61.661 43.6422 61.6814 43.5448 61.8333C43.4718 61.9482 43.4777 62.1253 43.4592 62.2636C43.3803 62.8262 43.2888 63.3869 43.1944 63.9477C42.9023 65.661 42.5285 67.3499 42.1645 69.0486C42.0068 69.7865 41.8276 70.538 41.8014 71.2953C41.7858 71.7373 41.7176 72.1812 41.6738 72.6212C41.6028 73.326 41.5385 74.0317 41.5006 74.7394C41.4363 75.9076 41.5006 77.0913 41.5181 78.2653C41.5376 79.4172 41.5557 80.5692 41.5726 81.7211L41.5784 82.1699C41.5881 82.2864 41.5911 82.4034 41.5872 82.5203C41.5638 82.7247 41.2144 82.7374 41.0528 82.7588C40.8367 82.788 40.6176 82.8026 40.4005 82.8172C39.8379 82.8571 39.2742 82.8824 38.7106 82.9058C38.4186 82.9185 38.1178 82.9467 37.8248 82.9418C37.8104 82.9442 37.7956 82.9425 37.7821 82.9368C37.7687 82.9311 37.7571 82.9217 37.7488 82.9097C37.6885 82.8454 37.6914 82.715 37.6875 82.6391C37.6875 82.5768 37.6875 82.5154 37.6807 82.4531C37.6729 82.1974 37.6658 81.9414 37.6593 81.6851C37.6359 80.785 37.6164 79.8842 37.6009 78.9828C37.561 76.7603 37.5259 74.536 37.5736 72.3136C37.5882 71.638 37.5902 70.9507 37.6895 70.2781C37.7887 69.6054 37.8841 68.9152 37.9815 68.2338C38.3125 65.953 38.6571 63.6741 39.0611 61.405C39.2509 60.3439 39.4504 59.2848 39.6938 58.2344C39.8486 57.5705 39.9859 56.8482 40.3003 56.2349C40.8844 55.0804 41.9698 54.3153 43.1525 53.8616C44.5426 53.3292 46.0369 53.0829 47.5097 52.9038C47.6937 52.8814 47.8797 52.858 48.0656 52.8483L47.977 52.7976C48.1717 53.1413 48.526 53.4177 48.8648 53.6046C49.6757 54.0505 50.7222 54.1011 51.6002 53.8422C52.0665 53.7049 52.5737 53.408 52.6876 52.8999C52.7057 52.828 52.71 52.7533 52.7003 52.6799C52.6691 52.4521 52.6367 52.2249 52.6029 51.9984L52.379 50.2744C52.3615 50.145 52.1648 50.2005 52.1843 50.3289L52.3644 51.6655L52.4793 52.5183C52.489 52.5932 52.4997 52.6672 52.5095 52.7422C52.5192 52.8171 52.5143 52.7266 52.5095 52.7684C52.4949 52.8709 52.4619 52.9698 52.4121 53.0605C52.281 53.2688 52.0899 53.4327 51.864 53.5307C51.4503 53.7254 50.9665 53.7828 50.5139 53.7867C50.0596 53.7973 49.6081 53.712 49.189 53.5365C48.7996 53.3652 48.3761 53.078 48.159 52.6964C48.1505 52.6807 48.1378 52.6677 48.1223 52.6588C48.1069 52.6499 48.0893 52.6454 48.0714 52.6458C47.1895 52.6935 46.3036 52.8687 45.4372 53.0264C44.0101 53.2853 42.4711 53.7185 41.3312 54.6599C40.8471 55.0586 40.4451 55.5476 40.1474 56.0996C40.0235 56.3473 39.9231 56.6061 39.8476 56.8726C39.5891 57.754 39.3759 58.6482 39.209 59.5515C38.7408 61.8878 38.3748 64.2446 38.0234 66.6003C37.8851 67.5258 37.7498 68.4515 37.6174 69.3776C37.5376 69.9335 37.449 70.4844 37.4169 71.0442C37.2971 73.1332 37.3458 75.2369 37.3731 77.3269C37.3945 79.0431 37.4247 80.7593 37.4792 82.4746C37.486 82.7062 37.4704 83.0839 37.7547 83.1433C37.778 83.1482 37.9202 83.1375 37.852 83.1433H37.9494L38.4682 83.1239C39.0348 83.1015 39.6004 83.0771 40.1659 83.0411C40.4093 83.0265 40.6527 83.01 40.896 82.9847C41.1205 82.9741 41.3421 82.9294 41.5531 82.8523C41.8695 82.715 41.7868 82.3869 41.7838 82.1037C41.7838 81.6822 41.7722 81.2616 41.7663 80.8382C41.7468 79.585 41.7254 78.3322 41.7021 77.0796C41.6923 76.553 41.669 76.0254 41.6777 75.4987C41.6904 74.7511 41.7498 74.0055 41.8189 73.2598C41.8705 72.6893 41.9357 72.1208 41.9883 71.5504C42.0077 71.3323 42.0077 71.1143 42.0321 70.8972C42.1771 69.6317 42.5324 68.3876 42.7992 67.1445C43.1236 65.6369 43.3969 64.1193 43.6188 62.5916C43.6422 62.4271 43.6675 62.2636 43.687 62.0981C43.6957 62.028 43.6928 61.9394 43.7648 61.9034C43.8252 61.8815 43.8914 61.8815 43.9517 61.9034C44.0773 61.9443 44.1309 61.7467 44.0063 61.7087L44.0043 61.7116Z"
    fill="#1F1D25" />
  <path
    d="M64.6491 61.1539L63.3427 59.133L60.9878 55.4835C60.6082 54.8994 60.247 54.29 59.8469 53.7167C59.5638 53.3226 59.227 52.9701 58.8462 52.6692C58.169 52.1031 57.3525 51.7287 56.4817 51.5848C55.8879 51.4982 55.3135 51.5634 54.7187 51.6247L53.3199 51.7688C53.0531 51.797 52.7786 51.8077 52.5138 51.8525H52.508C52.3785 51.8661 52.3766 52.0706 52.508 52.0569L52.9266 52.0131L53.9049 51.9158C54.489 51.8554 55.0818 51.7639 55.6708 51.7445C57.2127 51.6948 58.6885 52.5291 59.6036 53.7206C59.7009 53.8413 59.7749 53.9708 59.8577 54.0983L60.6072 55.2606L62.927 58.8565C63.4351 59.645 63.9355 60.4384 64.4524 61.2211L64.4767 61.26C64.5478 61.37 64.725 61.2678 64.6539 61.1568L64.6491 61.1539Z"
    fill="#1F1D25" />
  <path
    d="M63.7955 61.7888L65.3414 60.8552L68.5344 58.9239L71.2503 57.2836C71.4236 57.1794 71.5949 57.0704 71.7701 56.9692C71.8282 56.9308 71.8966 56.9111 71.9662 56.9126C72.0358 56.9142 72.1032 56.937 72.1595 56.9779C72.1975 57.0071 72.2072 57.0402 72.2316 57.1074C72.3163 57.3323 72.3786 57.5659 72.4438 57.7976C72.6141 58.4118 72.7689 59.031 72.9208 59.6472C72.9617 59.8178 73.0029 59.9882 73.0444 60.1582C73.0571 60.2118 73.0707 60.2653 73.0804 60.3198C73.0882 60.3649 73.0931 60.4104 73.095 60.4561C73.095 60.497 73.095 60.4872 73.095 60.4765C73.0931 60.4819 73.0901 60.4869 73.0863 60.4911C73.0707 60.5135 73.097 60.4795 73.0863 60.4911C72.8615 60.7461 72.6174 60.9833 72.3562 61.2008C71.9064 61.6126 71.4499 62.0175 70.9933 62.4215C70.0637 63.2421 69.1262 64.054 68.1946 64.8737C67.9843 65.0586 67.7799 65.2504 67.5706 65.4373C67.0403 65.9078 66.4383 66.2907 65.7872 66.5714C64.9394 66.9374 63.925 67.1243 63.0333 66.804C62.3159 66.5461 61.7678 65.961 61.3366 65.3497C60.9243 64.7322 60.5689 64.0786 60.2745 63.3969C60.1587 63.1448 60.0477 62.8898 59.9241 62.6405C59.7294 62.2512 59.5016 61.8774 59.2719 61.5074C59.1745 61.3497 59.0772 61.1911 58.9672 61.0392C58.8922 60.9321 58.7151 61.0343 58.791 61.1424C58.9156 61.3176 59.0295 61.5026 59.1424 61.6866C59.3634 62.0467 59.5853 62.4108 59.7703 62.7905C60.0623 63.3862 60.3135 63.9985 60.6289 64.5826C60.9988 65.264 61.4427 65.9454 62.0433 66.4497C62.3266 66.6938 62.6523 66.8838 63.0041 67.0104C63.4633 67.1586 63.9493 67.2051 64.4283 67.1467C65.3346 67.0493 66.1942 66.6707 66.9466 66.1732C67.2999 65.929 67.6342 65.6582 67.9464 65.3633C68.7495 64.6371 69.575 63.9352 70.3898 63.2217C71.2727 62.4429 72.1751 61.6836 73.0181 60.8611C73.109 60.7814 73.1913 60.6923 73.2634 60.5953C73.3549 60.4561 73.2839 60.2526 73.2469 60.1086C73.132 59.6326 73.0162 59.1575 72.8955 58.6825C72.7543 58.1295 72.6316 57.5552 72.4233 57.0227C72.4038 56.9546 72.3689 56.892 72.3214 56.8395C72.2738 56.7871 72.2148 56.7462 72.149 56.7202C72.0831 56.6941 72.0122 56.6835 71.9416 56.6892C71.871 56.6949 71.8027 56.7168 71.7419 56.7531C71.6846 56.7823 71.629 56.8148 71.5754 56.8504L69.3706 58.184L66.0199 60.2108L63.8102 61.5473L63.7001 61.6135C63.6767 61.6272 63.6596 61.6497 63.6526 61.676C63.6457 61.7023 63.6495 61.7302 63.6632 61.7537C63.6768 61.7772 63.6993 61.7943 63.7256 61.8013C63.7519 61.8082 63.7798 61.8044 63.8033 61.7907L63.7955 61.7888Z"
    fill="#1F1D25" />
  <path
    d="M40.7313 82.9826C40.6943 82.9544 40.7625 83.0118 40.7732 83.0225C40.8178 83.0687 40.8576 83.1192 40.8919 83.1734C41.0024 83.3684 41.0623 83.5879 41.0662 83.812C41.1002 84.2257 41.1791 84.7436 41.5402 85.0064C41.7476 85.1583 42.0036 85.2557 42.2304 85.3754C42.5186 85.5107 42.7903 85.6786 43.0403 85.8757C43.0968 85.9254 43.1932 86.0149 43.1951 86.0704C43.1951 86.0841 43.1883 86.0967 43.1591 86.1191C43.1058 86.155 43.0453 86.1789 42.9819 86.1892C42.6519 86.2612 42.282 86.1892 41.954 86.1395C41.8167 86.1172 41.6804 86.0909 41.5422 86.0763C41.4585 86.0665 41.3621 86.0665 41.3309 86.1639C41.3181 86.2473 41.3335 86.3326 41.3748 86.4063C41.4291 86.5339 41.4905 86.6583 41.5587 86.7791C41.694 87.0283 41.8371 87.2746 41.991 87.5111C42.0425 87.591 42.1 87.5949 42.1905 87.5949H42.5935L42.4962 87.4654C42.4595 87.7109 42.3472 87.9389 42.1749 88.1176C41.9179 88.3493 41.4867 88.139 41.2317 88.3892C41.1343 88.4865 41.0798 88.6111 40.963 88.6929C40.7732 88.8253 40.5736 88.7289 40.3789 88.6433C40.2193 88.5703 40.0781 88.6579 39.9136 88.6627C39.7917 88.6686 39.67 88.6473 39.5573 88.6004C39.4502 88.5537 39.3782 88.4564 39.2653 88.4213C39.0706 88.36 38.8506 88.4515 38.7192 88.2442C38.6351 88.0959 38.5713 87.9372 38.5294 87.772C38.4023 87.3619 38.3156 86.9403 38.2704 86.5134C38.214 85.9293 38.212 85.3287 38.1838 84.7387C38.1578 84.1754 38.1312 83.6115 38.104 83.0469C38.0981 82.9164 37.8937 82.9155 37.8995 83.0469C37.9242 83.5583 37.9482 84.0687 37.9716 84.5781C38.0017 85.206 38.0115 85.8436 38.0621 86.4657C38.103 86.9177 38.1907 87.3644 38.324 87.7983C38.432 88.1604 38.5566 88.5771 39.0054 88.6014C39.1141 88.5911 39.2228 88.6209 39.311 88.6851C39.41 88.7615 39.5247 88.8147 39.6469 88.8409C39.7688 88.8686 39.8947 88.8745 40.0187 88.8584C40.095 88.8344 40.1737 88.8188 40.2533 88.8117C40.3211 88.8319 40.3864 88.8597 40.448 88.8944C40.5635 88.9461 40.6896 88.9698 40.816 88.9635C40.9104 88.9479 41.0006 88.9131 41.081 88.8612C41.1614 88.8093 41.2302 88.7414 41.2833 88.6618C41.3728 88.5459 41.402 88.4943 41.5568 88.4671C41.7963 88.4213 42.0503 88.4671 42.2587 88.3181C42.502 88.14 42.6412 87.811 42.6986 87.5218C42.7024 87.5068 42.7028 87.4911 42.6997 87.4759C42.6967 87.4606 42.6902 87.4463 42.6809 87.4339C42.6715 87.4215 42.6596 87.4113 42.6458 87.4041C42.632 87.3969 42.6168 87.3929 42.6013 87.3924H42.1068L42.1954 87.443C41.9705 87.0887 41.7252 86.7197 41.5704 86.3284C41.5568 86.2934 41.5471 86.2573 41.5363 86.2213C41.5363 86.2155 41.5363 86.2116 41.5363 86.2126C41.5363 86.2135 41.4925 86.2992 41.4653 86.2749C41.4653 86.2749 41.4818 86.2749 41.4857 86.2749C41.5831 86.3002 41.6921 86.3002 41.7885 86.3157C42.1061 86.3773 42.4287 86.4099 42.7522 86.4131C42.9576 86.4131 43.3197 86.381 43.3966 86.1405C43.4609 85.939 43.2467 85.7638 43.1046 85.6538C42.8627 85.4769 42.6061 85.3212 42.3375 85.1885C42.1263 85.0775 41.9014 84.9821 41.6989 84.8556C41.2774 84.5918 41.3163 83.9795 41.2521 83.5531C41.2152 83.2576 41.0673 82.9872 40.8384 82.7967C40.7333 82.7179 40.631 82.8941 40.7352 82.9729L40.7313 82.9826Z"
    fill="#1F1D25" />
  <path
    d="M37.5004 79.0964H35.9915C35.4834 79.0964 34.9733 79.0828 34.4651 79.0964C34.2861 79.0989 34.1153 79.1719 33.9896 79.2994C33.8639 79.4269 33.7934 79.5988 33.7935 79.7778C33.7935 79.883 33.7935 79.9881 33.7935 80.0932V85.8513C33.7935 86.1998 33.7935 86.5484 33.7935 86.8969C33.7935 87.1432 33.9434 87.5569 34.2344 87.5939C34.3576 87.6012 34.4812 87.6012 34.6044 87.5939H38.3483C38.3754 87.5939 38.4014 87.5831 38.4206 87.5639C38.4397 87.5448 38.4505 87.5188 38.4505 87.4917C38.4505 87.4645 38.4397 87.4385 38.4206 87.4194C38.4014 87.4002 38.3754 87.3894 38.3483 87.3894H34.3853C34.3423 87.3948 34.2988 87.3948 34.2559 87.3894C34.1196 87.3505 34.0212 87.1071 34.0057 86.9835C34.0003 86.8973 34.0003 86.8108 34.0057 86.7246V79.9102C33.9917 79.7823 34.0118 79.653 34.0641 79.5354C34.2004 79.2911 34.4428 79.295 34.6813 79.295H37.5043C37.5314 79.295 37.5574 79.2842 37.5766 79.265C37.5957 79.2459 37.6065 79.2199 37.6065 79.1928C37.6065 79.1657 37.5957 79.1397 37.5766 79.1205C37.5574 79.1013 37.5314 79.0905 37.5043 79.0905L37.5004 79.0964Z"
    fill="#1F1D25" />
  <path
    d="M37.5011 79.3011C37.5282 79.3011 37.5542 79.2903 37.5734 79.2712C37.5926 79.252 37.6033 79.226 37.6033 79.1989C37.6033 79.1718 37.5926 79.1458 37.5734 79.1266C37.5542 79.1074 37.5282 79.0967 37.5011 79.0967C37.474 79.0967 37.448 79.1074 37.4289 79.1266C37.4097 79.1458 37.3989 79.1718 37.3989 79.1989C37.3989 79.226 37.4097 79.252 37.4289 79.2712C37.448 79.2903 37.474 79.3011 37.5011 79.3011Z"
    fill="#1F1D25" />
  <path
    d="M41.6466 79.3011C41.6738 79.3011 41.6998 79.2903 41.7189 79.2712C41.7381 79.252 41.7489 79.226 41.7489 79.1989C41.7489 79.1718 41.7381 79.1458 41.7189 79.1266C41.6998 79.1074 41.6738 79.0967 41.6466 79.0967C41.6195 79.0967 41.5935 79.1074 41.5744 79.1266C41.5552 79.1458 41.5444 79.1718 41.5444 79.1989C41.5444 79.226 41.5552 79.252 41.5744 79.2712C41.5935 79.2903 41.6195 79.3011 41.6466 79.3011Z"
    fill="#1F1D25" />
  <path
    d="M42.0993 87.5951H45.6904C45.8851 87.5951 46.0866 87.6155 46.2647 87.5367C46.3906 87.4768 46.4958 87.3807 46.5667 87.2607C46.6376 87.1407 46.6711 87.0022 46.6628 86.863V81.0632C46.6628 80.6456 46.6628 80.228 46.6628 79.8094C46.6695 79.6525 46.6222 79.4981 46.5289 79.3718C46.4355 79.2455 46.3018 79.155 46.1498 79.1153C45.9888 79.0909 45.8255 79.0847 45.6631 79.0968H41.6466C41.6195 79.0968 41.5935 79.1076 41.5744 79.1267C41.5552 79.1459 41.5444 79.1719 41.5444 79.199C41.5444 79.2261 41.5552 79.2521 41.5744 79.2713C41.5935 79.2905 41.6195 79.3012 41.6466 79.3012H45.9921C46.1152 79.3038 46.2325 79.3542 46.319 79.4418C46.4056 79.5294 46.4545 79.6473 46.4555 79.7704C46.4643 80.0693 46.4555 80.3701 46.4555 80.6699V86.643C46.4555 86.7404 46.4555 86.8319 46.4555 86.9253C46.4545 87.0367 46.4144 87.1441 46.3421 87.2289C46.2699 87.3136 46.1701 87.3702 46.0603 87.3887C46.0062 87.3926 45.9518 87.3926 45.8977 87.3887H42.1013C42.0741 87.3887 42.0481 87.3995 42.029 87.4186C42.0098 87.4378 41.999 87.4638 41.999 87.4909C41.999 87.518 42.0098 87.544 42.029 87.5632C42.0481 87.5823 42.0741 87.5931 42.1013 87.5931L42.0993 87.5951Z"
    fill="#1F1D25" />
  <path
    d="M35.0486 80.4265C35.1658 80.4265 35.2609 80.3315 35.2609 80.2144C35.2609 80.0972 35.1658 80.0022 35.0486 80.0022C34.9314 80.0022 34.8364 80.0972 34.8364 80.2144C34.8364 80.3315 34.9314 80.4265 35.0486 80.4265Z"
    fill="#1F1D25" />
  <path
    d="M41.9698 70.5021L40.6158 70.3434L40.4211 70.321C40.3949 70.3225 40.3703 70.3339 40.3522 70.3529C40.3341 70.3719 40.3239 70.397 40.3237 70.4233C40.3253 70.4485 40.3361 70.4724 40.354 70.4903C40.3719 70.5082 40.3958 70.519 40.4211 70.5206L41.7732 70.6793L41.9679 70.7017C41.995 70.7017 42.021 70.6909 42.0402 70.6717C42.0593 70.6526 42.0701 70.6266 42.0701 70.5995C42.0701 70.5723 42.0593 70.5463 42.0402 70.5272C42.021 70.508 41.995 70.4972 41.9679 70.4972L41.9698 70.5021Z"
    fill="#1F1D25" />
  <path
    d="M49.3156 49.2505C49.6833 49.6393 50.1243 49.9516 50.6132 50.1694C51.0188 50.3614 51.4642 50.4542 51.9128 50.44C52.4104 50.41 52.8874 50.2305 53.2814 49.9251C54.7582 48.7929 54.2705 46.6503 54.1945 45.0577C54.1653 44.4523 54.2062 43.8429 54.2199 43.2383C54.2182 43.2193 54.2113 43.2011 54.1999 43.1857C54.1886 43.1703 54.1732 43.1584 54.1555 43.1511C54.1378 43.1439 54.1185 43.1416 54.0996 43.1447C54.0808 43.1477 54.0631 43.1558 54.0485 43.1683C53.8016 43.3808 53.5174 43.5458 53.2104 43.655C52.562 43.8933 51.8475 43.878 51.2099 43.6122C50.6775 43.4048 50.2297 43.0553 49.7225 42.8013C49.4392 42.6591 49.0936 42.5725 48.9087 42.8986C48.7237 43.2247 48.6721 43.6336 48.6098 43.9947C48.5397 44.4016 48.493 44.8154 48.3937 45.2164C48.3775 45.2866 48.3564 45.3556 48.3305 45.4228C48.3178 45.4511 48.3025 45.4782 48.2847 45.5036C48.2847 45.5036 48.2944 45.5036 48.2954 45.5036C48.2964 45.5036 48.312 45.5133 48.2954 45.4987C48.2789 45.4841 48.2438 45.4705 48.2205 45.4539C48.1393 45.3887 48.0635 45.3171 47.9936 45.2398C47.835 45.084 47.65 44.977 47.4222 45.0354C47.2991 45.0683 47.1849 45.1285 47.088 45.2113C46.9912 45.2942 46.9141 45.3977 46.8625 45.5143C46.6678 45.9621 46.7924 46.5345 47.0085 46.9511C47.0922 47.1118 47.209 47.2889 47.3794 47.3668C47.498 47.4153 47.6213 47.4511 47.7474 47.4739C47.7956 47.4924 47.849 47.4924 47.8973 47.4739C47.9109 47.4656 47.9225 47.4543 47.9311 47.4409C47.9398 47.4275 47.9452 47.4122 47.9471 47.3964C47.949 47.3805 47.9472 47.3644 47.942 47.3494C47.9367 47.3343 47.9281 47.3206 47.9167 47.3094C47.8194 47.2266 47.6705 47.3707 47.7727 47.4535C47.7727 47.4535 47.8418 47.287 47.8408 47.2841C47.8398 47.2811 47.8184 47.2743 47.832 47.2841C47.832 47.2841 47.7688 47.2704 47.7474 47.2646C47.6333 47.2474 47.523 47.2109 47.4212 47.1565C47.2713 47.0524 47.1769 46.8538 47.1127 46.6883C46.9676 46.3155 46.8498 45.709 47.1857 45.3985C47.358 45.2388 47.5819 45.157 47.7697 45.3167C47.9197 45.4413 48.0384 45.6292 48.2292 45.6944C48.4794 45.7801 48.5592 45.4024 48.5982 45.231C48.6877 44.8465 48.7354 44.4523 48.8016 44.0629C48.86 43.7222 48.9058 43.3318 49.0712 43.0222C49.1287 42.9171 49.1637 42.8752 49.2796 42.8772C49.446 42.8772 49.6115 42.9745 49.7517 43.0563C50.2326 43.3279 50.6823 43.6404 51.2031 43.8351C51.8035 44.0719 52.4658 44.1014 53.0848 43.9188C53.4697 43.8017 53.8284 43.6113 54.141 43.3581L54.1907 43.3162L54.0164 43.2442C54.0047 43.7251 53.9862 44.2069 53.9823 44.6878C53.9755 45.4997 54.1138 46.3067 54.1235 47.1215C54.1332 47.9363 54.0359 48.8299 53.48 49.4676C53.1622 49.828 52.7399 50.0804 52.272 50.1899C51.8338 50.2821 51.3785 50.2483 50.9588 50.0925C50.3876 49.8885 49.8738 49.5503 49.4606 49.1064C49.3711 49.009 49.227 49.1541 49.3156 49.2514V49.2505Z"
    fill="#1F1D25" />
  <path
    d="M48.1728 52.7479L48.1368 50.7241L48.0784 47.501L48.0658 46.7621C48.0658 46.735 48.055 46.709 48.0358 46.6899C48.0167 46.6707 47.9906 46.6599 47.9635 46.6599C47.9364 46.6599 47.9104 46.6707 47.8913 46.6899C47.8721 46.709 47.8613 46.735 47.8613 46.7621L47.8973 48.785L47.9548 52.0091L47.9684 52.7479C47.9684 52.775 47.9792 52.801 47.9983 52.8202C48.0175 52.8394 48.0435 52.8501 48.0706 52.8501C48.0977 52.8501 48.1237 52.8394 48.1429 52.8202C48.1621 52.801 48.1728 52.775 48.1728 52.7479Z"
    fill="#1F1D25" />
  <path
    d="M54.1065 45.4071C54.5134 45.4013 55.0244 45.3322 55.3389 45.0518C55.5774 44.8386 55.5647 44.5281 55.4265 44.2614C55.3554 44.1212 55.2425 43.9956 55.2074 43.8389C55.1962 43.8119 55.1944 43.7819 55.2021 43.7537C55.2099 43.7255 55.2268 43.7006 55.2503 43.6832C55.3895 43.5644 55.6397 43.5089 55.8081 43.4106C56.0849 43.2504 56.2908 42.9912 56.3844 42.6854C56.5129 42.2814 56.5002 41.819 56.4476 41.4024C56.4007 41.001 56.2824 40.6113 56.0982 40.2517C55.909 39.89 55.6289 39.5837 55.2855 39.363C54.9421 39.1424 54.5472 39.0148 54.1396 38.9931C53.574 38.9541 53.0104 39.0836 52.473 39.2491C51.98 39.402 51.5025 39.6012 51.0469 39.8439C50.7217 40.0152 50.4102 40.2118 50.0832 40.3793C49.8407 40.5205 49.5656 40.5964 49.2849 40.5993C49.1213 40.5859 48.9607 40.5471 48.8089 40.4844C48.548 40.387 48.2959 40.2761 48.0399 40.17C47.6641 40.0132 47.2163 39.8322 46.8153 40.0093C46.4142 40.1865 46.1416 40.6908 46.1436 41.1317C46.1436 41.6058 46.3947 42.0244 46.5028 42.4751C46.5615 42.6841 46.556 42.9059 46.4872 43.1117C46.4015 43.3454 46.3032 43.5722 46.2399 43.8146C46.129 44.237 46.1085 44.7092 46.3791 45.0801C46.5314 45.2762 46.7283 45.433 46.9535 45.5376C47.0703 45.597 47.1745 45.4208 47.0567 45.3614C46.8258 45.2593 46.6296 45.0922 46.4921 44.8805C46.3934 44.699 46.3498 44.4926 46.3665 44.2867C46.3836 44.0722 46.4284 43.8608 46.4999 43.6578C46.5719 43.4378 46.6945 43.2227 46.7306 42.9949C46.8075 42.5578 46.6108 42.1461 46.4736 41.7431C46.3951 41.5387 46.3526 41.3223 46.348 41.1035C46.3583 40.8526 46.453 40.6125 46.6167 40.4221C46.6736 40.3471 46.7448 40.2841 46.8262 40.2367C46.9075 40.1892 46.9974 40.1583 47.0907 40.1456C47.2847 40.1369 47.4783 40.1701 47.6583 40.243C48.1129 40.3987 48.5344 40.6499 49.0075 40.7667C49.5984 40.9147 50.125 40.6022 50.6195 40.3189C51.4674 39.8322 52.3542 39.4214 53.3238 39.2481C54.1746 39.0972 55.0702 39.2559 55.6465 39.9422C56.142 40.5321 56.3045 41.3498 56.2705 42.1023C56.2549 42.4624 56.1731 42.8401 55.9006 43.0942C55.7292 43.2529 55.5112 43.3269 55.3019 43.4213C55.1335 43.4972 54.9816 43.616 54.9982 43.8175C55.0215 44.1154 55.3106 44.3169 55.3262 44.6157C55.3398 44.8581 55.1082 44.9944 54.9086 45.0664C54.6887 45.142 54.4594 45.1866 54.2272 45.1988C54.1873 45.1988 54.1464 45.2047 54.1065 45.2047C54.0794 45.2047 54.0534 45.2154 54.0342 45.2346C54.015 45.2538 54.0043 45.2798 54.0043 45.3069C54.0043 45.334 54.015 45.36 54.0342 45.3791C54.0534 45.3983 54.0794 45.4091 54.1065 45.4091V45.4071Z"
    fill="#1F1D25" />
  <path
    d="M54.1093 45.3481C54.1093 45.3481 55.4109 45.3218 55.4293 44.6297C55.4478 43.9376 54.8531 43.9969 55.1558 43.6329C55.4586 43.2688 56.5333 43.3175 56.3609 41.5438C56.1886 39.7701 54.8677 38.5796 52.8799 39.2416C50.8921 39.9035 49.8787 40.8351 49.3141 40.7018C48.7495 40.5684 47.4119 39.9444 46.9476 40.069C46.4833 40.1936 46.088 40.8721 46.2457 41.3598C46.4034 41.8475 46.7821 42.5027 46.6351 42.9437C46.4881 43.3846 46.125 44.3883 46.3158 44.7319C46.5066 45.0755 47.005 45.4464 47.005 45.4464C47.005 45.4464 47.2912 45.0395 47.5979 45.1194C47.9045 45.1992 48.2034 45.6061 48.2676 45.5964C48.3319 45.5866 48.4448 45.391 48.4448 45.391C48.4448 45.391 48.7446 42.9855 49.0366 42.8804C49.3287 42.7752 49.3666 42.7081 49.7512 42.9359C50.1357 43.1637 51.3788 43.96 52.3376 43.9356C53.2965 43.9113 54.1152 43.2902 54.1152 43.2902L54.1093 45.3481Z"
    fill="#1F1D25" />
  <path
    d="M72.5287 57.3648L73.3931 56.7876L73.8798 56.4615C73.911 56.4401 73.9451 56.4216 73.9772 56.3972C74.0298 56.3554 74.0317 56.2999 74.0473 56.2405C74.1113 55.9494 74.2242 55.6713 74.3812 55.4179C74.4513 55.3118 74.533 55.2164 74.5963 55.1054C74.6683 54.9793 74.7333 54.8493 74.791 54.716C74.9133 54.4381 75.0073 54.1485 75.0714 53.8516C75.096 53.7483 75.1071 53.6423 75.1044 53.5362C75.0986 53.4389 75.0684 53.3415 75.0567 53.2442C75.0344 53.0582 75.0022 52.735 75.1784 52.6066C75.3546 52.4781 75.525 52.6328 75.6145 52.7857C75.7317 53.0079 75.8122 53.2475 75.853 53.4953C75.9005 53.7028 75.9224 53.9153 75.9183 54.1281C75.9095 54.3354 75.7713 54.6567 76.0156 54.8095C76.147 54.8932 76.3476 54.7784 76.4731 54.7297C76.7136 54.6323 76.953 54.535 77.1993 54.461C77.3091 54.4234 77.4222 54.3964 77.5371 54.3802C77.5831 54.3726 77.6303 54.3754 77.6751 54.3883C77.7199 54.4013 77.7612 54.4241 77.7961 54.4552C77.9216 54.5467 78.0998 54.7306 77.9995 54.8981C77.948 54.9636 77.8811 55.0154 77.8048 55.049C77.5803 55.1743 77.3439 55.277 77.0991 55.3556C76.8517 55.4508 76.5922 55.5104 76.3281 55.5328C76.2373 55.5467 76.1446 55.5262 76.0682 55.4753C75.9708 55.3936 75.9883 55.2573 76.0224 55.1483C76.0419 55.0858 76.069 55.0259 76.1032 54.9701C76.1733 54.8582 75.9961 54.755 75.927 54.8669C75.8349 55.0083 75.788 55.1743 75.7927 55.343C75.8023 55.4466 75.8492 55.5433 75.9248 55.6149C76.0004 55.6866 76.0994 55.7283 76.2035 55.7323C76.415 55.7414 76.6265 55.7134 76.8284 55.6496C77.0771 55.583 77.3205 55.4981 77.5566 55.3955C77.7403 55.3263 77.9133 55.2316 78.0706 55.1142C78.2799 54.9409 78.2585 54.6713 78.1027 54.4707C77.9635 54.2906 77.7669 54.1505 77.5332 54.1738C77.3126 54.2046 77.0967 54.2631 76.8907 54.3481C76.6824 54.424 76.479 54.5106 76.2697 54.5856L76.1723 54.6197C76.1519 54.6255 76.1003 54.6304 76.1149 54.6343C76.1022 54.6343 76.1285 54.6479 76.1149 54.6343C76.1031 54.6175 76.0923 54.5999 76.0828 54.5817C76.059 54.5 76.059 54.4132 76.0828 54.3315C76.1665 53.9558 76.0828 53.5411 75.9854 53.1751C75.8959 52.8567 75.7138 52.3204 75.2943 52.3554C74.7832 52.3982 74.8075 53.031 74.8737 53.4019C74.9028 53.5816 74.8912 53.7656 74.8397 53.9402C74.7697 54.2146 74.6748 54.4821 74.5564 54.7394C74.5037 54.857 74.4436 54.9712 74.3763 55.0811C74.313 55.1784 74.2332 55.2699 74.1719 55.3731C74.0351 55.6114 73.9326 55.8676 73.8672 56.1344C73.8536 56.184 73.8409 56.2317 73.8302 56.2853L73.8779 56.2239L72.4255 57.1857C72.3165 57.2578 72.4187 57.4349 72.5287 57.3619V57.3648Z"
    fill="#1F1D25" />
  <path
    d="M77.8755 55.2576H77.8853C77.8736 55.2576 77.9213 55.2644 77.931 55.2663C77.9907 55.2776 78.0491 55.2948 78.1052 55.3179C78.2415 55.3763 78.3973 55.4921 78.4245 55.6479C78.4401 55.7297 78.3622 55.8114 78.298 55.8689C78.1795 55.9685 78.0487 56.0522 77.9086 56.1181C77.6561 56.2492 77.3896 56.3518 77.1143 56.4237C77.0453 56.4413 76.9742 56.4485 76.9031 56.4451C76.8003 56.4453 76.6981 56.4292 76.6003 56.3974C76.5496 56.3846 76.5026 56.3603 76.4626 56.3266C76.4226 56.2929 76.3908 56.2505 76.3696 56.2028C76.3054 56.0275 76.4164 55.8212 76.5001 55.6742C76.5138 55.6507 76.5175 55.6227 76.5106 55.5964C76.5037 55.5701 76.4866 55.5477 76.4631 55.534C76.4396 55.5203 76.4116 55.5165 76.3853 55.5235C76.359 55.5304 76.3366 55.5475 76.3229 55.571C76.1526 55.8698 76.0309 56.2826 76.3725 56.5113C76.5902 56.6372 76.8457 56.6811 77.0929 56.635C77.3987 56.57 77.6936 56.4618 77.969 56.3137C78.2104 56.195 78.6445 55.9818 78.6319 55.6567C78.6173 55.2965 78.1899 55.0726 77.8755 55.0502C77.7441 55.0395 77.7451 55.2449 77.8755 55.2546V55.2576Z"
    fill="#1F1D25" />
  <path
    d="M77.9864 56.2955C78.1649 56.2923 78.3404 56.3421 78.4906 56.4386C78.5442 56.4766 78.586 56.5288 78.6113 56.5894C78.6366 56.65 78.6444 56.7165 78.6337 56.7813C78.6309 56.8144 78.6164 56.8454 78.5928 56.8689C78.5553 56.912 78.5124 56.9503 78.4653 56.9828C78.188 57.1666 77.8853 57.3089 77.5668 57.4052C77.424 57.4546 77.278 57.494 77.1297 57.523C77.0805 57.5338 77.0303 57.5396 76.9798 57.5406H76.9477C76.9175 57.5406 76.936 57.5406 76.9078 57.5259C76.8503 57.4922 76.8008 57.4463 76.7628 57.3915C76.7248 57.3367 76.6992 57.2743 76.6878 57.2086C76.6528 56.9623 76.863 56.7637 77.0441 56.6362C77.1512 56.5603 77.0441 56.3831 76.9409 56.459C76.7267 56.6099 76.5194 56.8114 76.4853 57.084C76.4769 57.172 76.487 57.2608 76.515 57.3446C76.543 57.4285 76.5882 57.5055 76.6479 57.5707C76.6872 57.6208 76.7367 57.662 76.793 57.6915C76.8494 57.721 76.9114 57.7383 76.975 57.7421C77.1246 57.7359 77.2727 57.709 77.415 57.6622C77.801 57.5627 78.1699 57.4055 78.5091 57.1959C78.6351 57.1292 78.7395 57.0279 78.8099 56.9039C78.8402 56.8219 78.85 56.7337 78.8384 56.647C78.8269 56.5603 78.7944 56.4777 78.7437 56.4065C78.5802 56.1787 78.257 56.094 77.9864 56.0911C77.9593 56.0911 77.9333 56.1018 77.9141 56.121C77.8949 56.1402 77.8842 56.1662 77.8842 56.1933C77.8842 56.2204 77.8949 56.2464 77.9141 56.2656C77.9333 56.2847 77.9593 56.2955 77.9864 56.2955Z"
    fill="#1F1D25" />
  <path
    d="M78.301 57.3165C78.3165 57.3165 78.301 57.3165 78.2942 57.3165H78.3448C78.3951 57.3143 78.4454 57.3186 78.4947 57.3291C78.5678 57.345 78.6351 57.3806 78.6893 57.4321C78.7436 57.4836 78.7826 57.549 78.8023 57.6211C78.8636 57.8625 78.4694 58.0397 78.3029 58.1205C78.0947 58.2178 77.8815 58.3042 77.6643 58.3794C77.4054 58.4709 77.0384 58.4972 76.9128 58.1925C76.8155 57.9424 77.016 57.7681 77.2428 57.7136C77.3703 57.6825 77.3168 57.4849 77.1883 57.5189C76.9391 57.5793 76.6811 57.7701 76.6772 58.0465C76.6782 58.1529 76.707 58.2571 76.7606 58.349C76.8142 58.4408 76.8908 58.5171 76.9829 58.5702C77.1558 58.6513 77.351 58.6715 77.5368 58.6277C77.6552 58.6012 77.7709 58.5637 77.8824 58.5157C78.0381 58.4573 78.1939 58.3979 78.3457 58.3279C78.6076 58.2081 79.0418 57.992 79.0126 57.6464C78.9814 57.2756 78.5842 57.0682 78.2465 57.1296C78.117 57.1529 78.1725 57.3505 78.301 57.3242V57.3165Z"
    fill="#1F1D25" />
  <path
    d="M73.3713 59.8077L74.7477 58.697L74.6241 58.7126C74.8627 58.8657 75.1306 58.9675 75.4107 59.0115C76.0314 59.1134 76.6674 58.9672 77.1814 58.6045C77.2904 58.5315 77.1882 58.3544 77.0782 58.4284C76.5856 58.7603 76.0006 58.9248 75.4107 58.8041C75.168 58.7609 74.9364 58.6699 74.7292 58.5364C74.7098 58.5252 74.6871 58.5206 74.6648 58.5234C74.6425 58.5262 74.6217 58.5363 74.6056 58.552L73.2262 59.6637C73.1289 59.7454 73.2691 59.8895 73.3703 59.8077H73.3713Z"
    fill="#1F1D25" />
  <path
    d="M37.0355 51.2059C36.9897 51.2497 36.9381 51.2916 36.8943 51.3335C36.8505 51.3753 36.7785 51.4308 36.7201 51.4785L36.6081 51.5671L36.5653 51.5992C36.5429 51.6158 36.5215 51.6333 36.4981 51.6498C35.992 52.0239 35.452 52.3499 34.8851 52.6233C34.0734 53.0161 33.2151 53.3043 32.3308 53.4809C31.2059 53.7019 30.0535 53.7466 28.9149 53.6133C27.463 53.4327 26.0496 53.0196 24.729 52.3897C24.5343 52.3001 24.3439 52.2066 24.1576 52.1093C23.9902 52.0246 23.8422 52.2767 24.0096 52.3614C25.3773 53.0604 26.8385 53.5889 28.3581 53.8294C29.5542 54.0226 30.7732 54.0265 31.9706 53.8411C32.9203 53.6894 33.846 53.4132 34.7235 53.0195C35.3477 52.7424 35.9429 52.4039 36.5001 52.009C36.7628 51.8383 37.0086 51.6427 37.2341 51.425L37.2428 51.4162C37.3771 51.2848 37.1708 51.0784 37.0364 51.2098L37.0355 51.2059Z"
    fill="#3D3397" />
  <path
    d="M24.6087 53.3897L24.2252 52.1923L24.158 52.3568L25.2453 51.8857C25.2785 51.8656 25.3024 51.8334 25.3121 51.7959C25.3217 51.7584 25.3163 51.7187 25.2969 51.6851C25.2767 51.6525 25.2447 51.6289 25.2075 51.6192C25.1703 51.6096 25.1309 51.6148 25.0974 51.6335L24.01 52.1047C23.9824 52.1212 23.9609 52.1464 23.949 52.1763C23.937 52.2062 23.9352 52.2392 23.9438 52.2702L24.3274 53.4675C24.3848 53.6457 24.6671 53.5649 24.6087 53.3897Z"
    fill="#3D3397" />
  <path
    d="M23.3076 36.0183C23.4768 35.847 23.6573 35.6873 23.8479 35.5403C23.9501 35.4576 24.0124 35.4108 24.1273 35.3261C24.2422 35.2414 24.3716 35.1519 24.4962 35.0682C24.7883 34.8735 25.0939 34.6924 25.4054 34.5279C26.2023 34.1064 27.0495 33.7882 27.9267 33.5807C29.0423 33.3193 30.1918 33.2336 31.3338 33.3266C32.7975 33.4559 34.2308 33.8208 35.5781 34.4072C35.7689 34.4889 35.9584 34.5736 36.1466 34.6612C36.316 34.7411 36.464 34.4889 36.2936 34.4091C34.9048 33.7436 33.4205 33.2992 31.8945 33.092C30.6955 32.9392 29.4799 32.9769 28.2927 33.2039C27.3478 33.3876 26.4313 33.6953 25.567 34.119C24.9528 34.4179 24.3695 34.7766 23.8255 35.1898C23.5694 35.3724 23.3303 35.5776 23.111 35.8031L23.1022 35.8119C22.9728 35.9482 23.1782 36.1546 23.3086 36.0183H23.3076Z"
    fill="#3D3397" />
  <path
    d="M35.6508 33.391L36.0762 34.5747L36.1434 34.4092L35.0725 34.9193C35.0393 34.939 35.0152 34.971 35.0053 35.0083C34.9955 35.0456 35.0008 35.0854 35.02 35.1189C35.04 35.1517 35.072 35.1755 35.1092 35.1853C35.1464 35.1951 35.1859 35.1901 35.2195 35.1714L36.2903 34.6613C36.3182 34.6452 36.3399 34.6203 36.3521 34.5906C36.3642 34.5608 36.3662 34.5278 36.3575 34.4968L35.9321 33.3141C35.9204 33.278 35.8953 33.2477 35.862 33.2296C35.8287 33.2115 35.7896 33.2069 35.753 33.2167C35.7157 33.227 35.684 33.2516 35.6649 33.2852C35.6457 33.3187 35.6406 33.3585 35.6508 33.3958V33.391Z"
    fill="#3D3397" />
  <path
    d="M9.10221 99.6286H93.8516C94.9964 99.6286 96.1421 99.6412 97.2869 99.6286H97.4378C97.4649 99.6286 97.4909 99.6178 97.5101 99.5987C97.5292 99.5795 97.54 99.5535 97.54 99.5264C97.54 99.4992 97.5292 99.4732 97.5101 99.4541C97.4909 99.4349 97.4649 99.4241 97.4378 99.4241H12.6884C11.5436 99.4241 10.3979 99.4125 9.2531 99.4241H9.10221C9.0751 99.4241 9.04911 99.4349 9.02994 99.4541C9.01077 99.4732 9 99.4992 9 99.5264C9 99.5535 9.01077 99.5795 9.02994 99.5987C9.04911 99.6178 9.0751 99.6286 9.10221 99.6286Z"
    fill="#1F1D25" />
  <path
    d="M32.4154 45.09H28.6413C28.4856 45.09 28.3298 45.09 28.1741 45.09C27.8861 45.076 27.6107 44.9678 27.3901 44.7821C27.1696 44.5964 27.0161 44.3434 26.9533 44.062C26.8998 43.8147 26.9251 43.5402 26.9251 43.29V42.0858C26.9251 41.8415 26.9251 41.5991 26.9251 41.3528C26.9273 41.0826 27.0125 40.8196 27.1693 40.5995C27.326 40.3794 27.5466 40.2128 27.8012 40.1224C28.0252 40.0596 28.2583 40.0352 28.4904 40.0503H31.8002C32.0007 40.0503 32.2013 40.0503 32.4018 40.0503C32.6304 40.0488 32.8555 40.1065 33.0551 40.2179C33.2548 40.3293 33.4221 40.4906 33.5408 40.686C33.716 40.978 33.7238 41.2886 33.7238 41.6166V43.7183C33.7299 43.9308 33.6856 44.1416 33.5946 44.3337C33.5035 44.5257 33.3684 44.6935 33.2001 44.8232C32.9738 44.9935 32.6986 45.0863 32.4154 45.088C32.3883 45.088 32.3623 45.0988 32.3432 45.1179C32.324 45.1371 32.3132 45.1631 32.3132 45.1902C32.3132 45.2173 32.324 45.2433 32.3432 45.2625C32.3623 45.2817 32.3883 45.2924 32.4154 45.2924C32.7057 45.2896 32.9891 45.204 33.2324 45.0457C33.4757 44.8874 33.6688 44.663 33.789 44.3988C33.9243 44.0922 33.9194 43.7806 33.9194 43.4555C33.9194 42.7585 33.9194 42.0605 33.9194 41.3635C33.9195 41.1086 33.8559 40.8577 33.7344 40.6336C33.6128 40.4095 33.4372 40.2194 33.2234 40.0805C32.9388 39.9105 32.6103 39.8282 32.2792 39.8439H28.2519C28.0279 39.8413 27.8061 39.8879 27.602 39.9804C27.398 40.0729 27.2168 40.2091 27.0711 40.3794C26.8034 40.6996 26.7148 41.0754 26.7148 41.4823V43.6658C26.7148 44.0795 26.8122 44.4621 27.0916 44.7814C27.2383 44.9452 27.4186 45.0757 27.6201 45.1638C27.8217 45.252 28.0398 45.2959 28.2597 45.2924H32.4174C32.4418 45.2888 32.4641 45.2765 32.4801 45.2577C32.4961 45.239 32.5048 45.215 32.5046 45.1904C32.5043 45.1657 32.4952 45.1419 32.4788 45.1235C32.4624 45.105 32.4399 45.0931 32.4154 45.09Z"
    fill="#1F1D25" />
  <path
    d="M28.595 39.8423V38.5865C28.5865 38.3946 28.5956 38.2024 28.6222 38.0122C28.6901 37.6398 28.8786 37.3001 29.1587 37.0454C29.4387 36.7907 29.7948 36.6353 30.1719 36.6029C30.549 36.5706 30.9264 36.6632 31.2457 36.8665C31.5649 37.0698 31.8085 37.3725 31.9388 37.7279C32.0151 37.9591 32.0504 38.202 32.0429 38.4454V39.8423C32.0429 39.8694 32.0537 39.8954 32.0729 39.9145C32.0921 39.9337 32.1181 39.9445 32.1452 39.9445C32.1723 39.9445 32.1983 39.9337 32.2174 39.9145C32.2366 39.8954 32.2474 39.8694 32.2474 39.8423V38.5067C32.2566 38.2682 32.2323 38.0297 32.1753 37.798C32.095 37.5123 31.9498 37.249 31.751 37.0286C31.5523 36.8081 31.3054 36.6365 31.0295 36.5271C30.7537 36.4176 30.4563 36.3733 30.1605 36.3976C29.8647 36.4218 29.5785 36.5139 29.3241 36.6668C29.0317 36.8465 28.7913 37.0995 28.6269 37.4007C28.4625 37.7019 28.3796 38.0409 28.3866 38.384V39.8442C28.3866 39.8713 28.3974 39.8973 28.4166 39.9165C28.4357 39.9357 28.4617 39.9464 28.4889 39.9464C28.516 39.9464 28.542 39.9357 28.5611 39.9165C28.5803 39.8973 28.5911 39.8713 28.5911 39.8442L28.595 39.8423Z"
    fill="#1F1D25" />
  <path
    d="M27.1719 47.6265C27.5079 47.6265 27.7803 47.3541 27.7803 47.0181C27.7803 46.6821 27.5079 46.4097 27.1719 46.4097C26.8359 46.4097 26.5635 46.6821 26.5635 47.0181C26.5635 47.3541 26.8359 47.6265 27.1719 47.6265Z"
    fill="#1F1D25" />
  <path
    d="M29.3032 47.6265C29.6392 47.6265 29.9116 47.3541 29.9116 47.0181C29.9116 46.6821 29.6392 46.4097 29.3032 46.4097C28.9672 46.4097 28.6948 46.6821 28.6948 47.0181C28.6948 47.3541 28.9672 47.6265 29.3032 47.6265Z"
    fill="#1F1D25" />
  <path
    d="M31.4321 47.6265C31.7682 47.6265 32.0406 47.3541 32.0406 47.0181C32.0406 46.6821 31.7682 46.4097 31.4321 46.4097C31.0961 46.4097 30.8237 46.6821 30.8237 47.0181C30.8237 47.3541 31.0961 47.6265 31.4321 47.6265Z"
    fill="#1F1D25" />
  <path
    d="M33.562 47.6265C33.898 47.6265 34.1704 47.3541 34.1704 47.0181C34.1704 46.6821 33.898 46.4097 33.562 46.4097C33.226 46.4097 32.9536 46.6821 32.9536 47.0181C32.9536 47.3541 33.226 47.6265 33.562 47.6265Z"
    fill="#1F1D25" />
  <path
    d="M33.7688 44.3815C34.0608 44.3815 34.3441 44.3815 34.6313 44.3815C35.205 44.3827 35.7551 44.6099 36.1625 45.0138C36.5699 45.4178 36.8018 45.9659 36.808 46.5396C36.808 47.0079 36.7836 47.4547 36.5597 47.8781C36.2924 48.3841 35.8385 48.7661 35.2942 48.9431C35.05 49.0166 34.7958 49.0514 34.5408 49.0463H26.1456C25.7911 49.0509 25.4407 48.9708 25.1235 48.8126C24.6135 48.5522 24.2249 48.1036 24.04 47.5617C23.9617 47.3201 23.9236 47.0672 23.9271 46.8132C23.9183 46.5971 23.93 46.3806 23.9621 46.1668C24.0682 45.6019 24.3914 45.1011 24.8626 44.7718C25.2841 44.4798 25.7523 44.3824 26.2556 44.3824H26.7092C26.7363 44.3824 26.7623 44.3717 26.7815 44.3525C26.8007 44.3333 26.8114 44.3073 26.8114 44.2802C26.8114 44.2531 26.8007 44.2271 26.7815 44.208C26.7623 44.1888 26.7363 44.178 26.7092 44.178C26.3198 44.178 25.9256 44.1527 25.5411 44.2442C24.9754 44.3845 24.4796 44.7248 24.1451 45.2021C23.8239 45.6596 23.7188 46.1755 23.7188 46.7265C23.7188 47.2775 23.8326 47.7895 24.1549 48.2402C24.4951 48.7208 24.9997 49.0599 25.5732 49.1933C25.7887 49.237 26.0085 49.2566 26.2283 49.2517H34.4171C34.5495 49.2517 34.6829 49.2517 34.8153 49.2439C35.4055 49.1959 35.9569 48.9302 36.3622 48.4985C36.7675 48.0667 36.9979 47.4997 37.0085 46.9076C37.0163 46.4209 36.9822 45.9517 36.7612 45.5058C36.4993 44.9812 36.0548 44.5703 35.5113 44.3503C35.084 44.177 34.6478 44.179 34.1971 44.179H33.7649C33.7378 44.179 33.7118 44.1898 33.6926 44.2089C33.6735 44.2281 33.6627 44.2541 33.6627 44.2812C33.6627 44.3083 33.6735 44.3343 33.6926 44.3535C33.7118 44.3726 33.7378 44.3834 33.7649 44.3834L33.7688 44.3815Z"
    fill="#1F1D25" />
  <path
    d="M34.0011 44.3812C34.0282 44.3812 34.0542 44.3704 34.0734 44.3512C34.0926 44.3321 34.1034 44.3061 34.1034 44.279C34.1034 44.2519 34.0926 44.2259 34.0734 44.2067C34.0542 44.1875 34.0282 44.1768 34.0011 44.1768C33.974 44.1768 33.948 44.1875 33.9289 44.2067C33.9097 44.2259 33.8989 44.2519 33.8989 44.279C33.8989 44.3061 33.9097 44.3321 33.9289 44.3512C33.948 44.3704 33.974 44.3812 34.0011 44.3812Z"
    fill="#1F1D25" />
  <path
    d="M30.1714 42.0684V43.1217C30.1714 43.1604 30.1868 43.1975 30.2142 43.2249C30.2415 43.2523 30.2787 43.2677 30.3174 43.2677C30.3561 43.2677 30.3933 43.2523 30.4207 43.2249C30.448 43.1975 30.4634 43.1604 30.4634 43.1217V42.0684C30.4634 42.0297 30.448 41.9925 30.4207 41.9651C30.3933 41.9377 30.3561 41.9224 30.3174 41.9224C30.2787 41.9224 30.2415 41.9377 30.2142 41.9651C30.1868 41.9925 30.1714 42.0297 30.1714 42.0684Z"
    fill="#1F1D25" />
  <path
    d="M30.3096 43.3385C30.2322 43.3385 30.1579 43.3077 30.1031 43.253C30.0483 43.1982 30.0176 43.1239 30.0176 43.0465V42.149C30.0176 42.0715 30.0483 41.9972 30.1031 41.9425C30.1579 41.8877 30.2322 41.8569 30.3096 41.8569C30.3871 41.8569 30.4614 41.8877 30.5162 41.9425C30.5709 41.9972 30.6017 42.0715 30.6017 42.149V43.0465C30.6017 43.1239 30.5709 43.1982 30.5162 43.253C30.4614 43.3077 30.3871 43.3385 30.3096 43.3385Z"
    fill="#1F1D25" />
</svg>