<svg width="128" height="128" viewBox="0 0 128 128" fill="none" xmlns="http://www.w3.org/2000/svg">
<path d="M90.5228 113.009C87.2939 113.009 84.2957 111.741 81.9894 109.434L24.4471 51.892L28.4831 47.856L86.0255 105.398C87.1786 106.551 88.793 107.243 90.5228 107.243C92.2525 107.243 93.8669 106.551 95.0201 105.398L119.121 81.2974C121.543 78.8758 121.543 74.8398 119.121 72.3028L68.6128 21.6794C67.4597 20.5263 65.8453 19.8344 64.1155 19.8344C62.3858 19.8344 60.7714 20.5263 59.6183 21.6794L47.6255 33.7875L43.5894 29.7515L55.6975 17.6434C58.0038 15.3371 61.002 14.0686 64.2309 14.0686C67.4597 14.0686 70.4579 15.3371 72.7642 17.6434L123.388 68.2668C125.694 70.5731 126.962 73.5713 126.962 76.8001C126.962 80.029 125.694 83.0272 123.388 85.3335L99.1714 109.434C96.8651 111.741 93.7516 113.009 90.5228 113.009Z" fill="#0EB753"/>
<path d="M37.2467 113.585C34.0178 113.585 31.0196 112.317 28.7133 110.011L4.49711 85.9097C2.1908 83.6034 0.922333 80.6052 0.922333 77.3764C0.922333 74.1476 2.1908 71.1494 4.49711 68.8431L55.5818 17.7584C57.8881 15.4521 60.8863 14.1836 64.1151 14.1836C67.344 14.1836 70.3422 15.4521 72.6485 17.7584L84.7566 29.8665L80.7205 33.7872L68.6124 21.7944C67.4593 20.6413 65.8449 19.9494 64.1151 19.9494C62.3854 19.9494 60.771 20.6413 59.6178 21.7944L8.53314 72.8791C6.11152 75.3007 6.11152 79.3368 8.53314 81.8737L32.634 105.975C35.0557 108.396 39.0917 108.396 41.6286 105.975L62.0395 85.5638L66.0755 89.5998L45.78 110.011C43.4737 112.317 40.4755 113.585 37.2467 113.585Z" fill="#0EB753"/>
</svg>
