<svg width="101" height="40" viewBox="0 0 101 40" fill="none" xmlns="http://www.w3.org/2000/svg">
  <rect opacity="0.4" width="19.7265" height="12.5914"
    transform="matrix(-0.706158 0.708054 0.706158 0.708054 21.8989 8.55859)" fill="#0EB753" />
  <rect width="19.7265" height="12.5914" transform="matrix(-0.706158 -0.708054 0.706158 -0.708054 26.9375 31.4414)"
    fill="#0EB753" />
  <path
    d="M49.3216 20.8624L48.1678 17.6165C48.0745 17.3656 47.9794 17.0467 47.8822 16.66C47.8395 16.8534 47.7929 17.0323 47.7424 17.1969C47.6919 17.3573 47.6453 17.4993 47.6025 17.6227L46.4487 20.8624H49.3216ZM51.9031 24.1947H50.8484C50.7279 24.1947 50.6308 24.1638 50.557 24.1021C50.4832 24.0363 50.4269 23.9561 50.388 23.8614L49.6887 21.8991H46.0758L45.3765 23.8614C45.3454 23.9437 45.291 24.0198 45.2133 24.0898C45.1356 24.1597 45.0385 24.1947 44.9219 24.1947H43.8672L47.1946 15.3086H48.5757L51.9031 24.1947Z"
    fill="#0EB753" />
  <path
    d="M62.1596 15.3086V24.1947H60.796V20.2391H56.5828V24.1947H55.2133V15.3086H56.5828V19.1963H60.796V15.3086H62.1596Z"
    fill="#0EB753" />
  <path
    d="M71.729 23.0284L71.7232 24.1947H66.4902V15.3086H71.7232V16.4749H67.8596V19.1531H70.9481V20.2823H67.8596V23.0284H71.729Z"
    fill="#0EB753" />
  <path
    d="M79.9767 20.8624L78.8229 17.6165C78.7297 17.3656 78.6345 17.0467 78.5374 16.66C78.4947 16.8534 78.448 17.0323 78.3975 17.1969C78.347 17.3573 78.3004 17.4993 78.2577 17.6227L77.1039 20.8624H79.9767ZM82.5583 24.1947H81.5035C81.3831 24.1947 81.286 24.1638 81.2121 24.1021C81.1383 24.0363 81.082 23.9561 81.0432 23.8614L80.3439 21.8991H76.7309L76.0316 23.8614C76.0005 23.9437 75.9462 24.0198 75.8685 24.0898C75.7908 24.1597 75.6936 24.1947 75.5771 24.1947H74.5223L77.8498 15.3086H79.2308L82.5583 24.1947Z"
    fill="#0EB753" />
  <path
    d="M93.2343 19.7516C93.2343 20.4099 93.1333 21.0125 92.9313 21.5597C92.7292 22.1027 92.4437 22.5697 92.0746 22.9605C91.7094 23.3513 91.2685 23.6557 90.7518 23.8738C90.239 24.0877 89.6679 24.1947 89.0386 24.1947H85.8685V15.3086H89.0386C89.6679 15.3086 90.239 15.4176 90.7518 15.6357C91.2685 15.8496 91.7094 16.1519 92.0746 16.5428C92.4437 16.9336 92.7292 17.4026 92.9313 17.9497C93.1333 18.4928 93.2343 19.0934 93.2343 19.7516ZM91.8415 19.7516C91.8415 19.2415 91.7755 18.7828 91.6434 18.3755C91.5152 17.9682 91.3287 17.6247 91.084 17.345C90.8431 17.0652 90.5498 16.8513 90.204 16.7032C89.8583 16.551 89.4698 16.4749 89.0386 16.4749H87.2379V23.0284H89.0386C89.4698 23.0284 89.8583 22.9543 90.204 22.8062C90.5498 22.6581 90.8431 22.4442 91.084 22.1644C91.3287 21.8806 91.5152 21.5371 91.6434 21.1339C91.7755 20.7266 91.8415 20.2659 91.8415 19.7516Z"
    fill="#0EB753" />
</svg>
