<svg width="112" height="112" viewBox="0 0 112 112" fill="none" xmlns="http://www.w3.org/2000/svg">
  <path opacity="0.06"
    d="M28.8205 104.821C20.6277 99.3819 8.95898 86.8528 10.4077 66.9072C12.1778 42.5463 30.472 15.1792 62.9318 13.1421C95.3916 11.105 109.943 30.304 108.104 52.0543C107.342 61.0036 104.43 70.2496 100.242 78.571C90.4225 98.0964 70.4423 110.645 48.5931 110.215C41.6907 110.077 34.6351 108.672 28.8205 104.821Z"
    fill="#213143" />
  <path d="M55.9706 10.1162L107.135 61.3597L75.13 94.665L24.1535 42.6749L55.9706 10.1162Z" fill="#FAFAFA" />
  <path
    d="M75.2978 96.9789C75.038 96.9791 74.7807 96.9281 74.5406 96.8288C74.3005 96.7296 74.0823 96.584 73.8985 96.4004L21.7997 44.2966C21.6158 44.1129 21.4699 43.8948 21.3704 43.6547C21.2708 43.4146 21.2196 43.1572 21.2196 42.8973C21.2196 42.6374 21.2708 42.38 21.3704 42.1399C21.4699 41.8999 21.6158 41.6817 21.7997 41.4981L54.6847 8.61301C54.8684 8.42912 55.0865 8.28325 55.3266 8.18372C55.5667 8.08419 55.824 8.03296 56.084 8.03296C56.3439 8.03296 56.6012 8.08419 56.8413 8.18372C57.0814 8.28325 57.2995 8.42912 57.4832 8.61301L109.587 60.7168C109.957 61.0876 110.165 61.5899 110.165 62.1136C110.165 62.6373 109.957 63.1396 109.587 63.5104L76.6971 96.4152C76.3234 96.7806 75.8204 96.9832 75.2978 96.9789ZM25.9925 42.8973L75.2978 92.2026L105.389 62.1112L56.084 12.8058L25.9925 42.8973Z"
    fill="#213143" />
  <path
    d="M36.3312 97.5081C36.07 97.5057 35.8119 97.4516 35.5717 97.3489C35.3315 97.2463 35.1141 97.097 34.9319 96.9098L2.04193 64.0446C1.85805 63.8609 1.71217 63.6428 1.61264 63.4027C1.51311 63.1626 1.46188 62.9052 1.46188 62.6453C1.46188 62.3854 1.51311 62.1281 1.61264 61.888C1.71217 61.6479 1.85805 61.4297 2.04193 61.2461L21.8194 41.4982C22.1902 41.1284 22.6925 40.9207 23.2162 40.9207C23.7399 40.9207 24.2422 41.1284 24.613 41.4982L57.4981 74.3833C57.6819 74.567 57.8278 74.7851 57.9273 75.0252C58.0269 75.2653 58.0781 75.5226 58.0781 75.7825C58.0781 76.0424 58.0269 76.2998 57.9273 76.5399C57.8278 76.78 57.6819 76.9981 57.4981 77.1818L37.7304 96.9098C37.5483 97.097 37.3308 97.2463 37.0907 97.3489C36.8505 97.4516 36.5924 97.5057 36.3312 97.5081ZM6.23971 62.6453L36.3312 92.7368L53.2854 75.7825L23.194 45.696L6.23971 62.6453Z"
    fill="#213143" />
  <path opacity="0.54" d="M23.194 45.6958L6.23975 62.6451L36.3312 92.7366L53.2855 75.7823L23.194 45.6958Z"
    fill="#213143" />
</svg>