<svg width="138" height="129" viewBox="0 0 138 129" fill="none" xmlns="http://www.w3.org/2000/svg">
  <path d="M47 60.5974H90.5948L68.7987 38.7987L47 60.5974Z" fill="#253434" />
  <path d="M90.5974 17L68.7987 38.7987L90.5974 60.5974V17Z" fill="#C7C2F2" />
  <path d="M47 17V60.5948L68.7987 38.7987L90.5948 17H47Z" fill="#E7540C" />
  <path
    d="M57.1475 82.6027C58.8775 82.6027 60.053 81.3527 60.053 79.7794C60.053 79.0108 59.7477 78.2738 59.2043 77.7303C58.6608 77.1869 57.9238 76.8816 57.1552 76.8816C56.3867 76.8816 55.6496 77.1869 55.1062 77.7303C54.5627 78.2738 54.2574 79.0108 54.2574 79.7794C54.2497 81.3527 55.4176 82.6027 57.1475 82.6027Z"
    fill="#253434" />
  <path
    d="M101.79 110.192C100.866 111.277 99.6181 112.083 97.5648 112.083C95.6757 112.083 94.0664 111.116 94.0664 109.227C94.0664 108.059 94.9109 106.932 96.2378 106.932C97.4057 106.932 98.0884 107.535 98.5709 108.541C99.015 109.347 99.1741 109.789 99.7773 109.789C100.704 109.789 101.428 108.462 102.393 106.329C102.675 105.559 102.837 105.123 102.837 104.679C102.863 104.296 102.807 103.912 102.675 103.552L97.7676 91.4884L96.5997 88.7909C96.1583 87.9464 95.9966 87.6667 95.514 87.3433C95.07 87.0609 94.4668 87.0224 94.146 86.9814V85.9701H104.888V86.966C104.379 86.9742 103.875 87.0697 103.399 87.2483C102.957 87.4485 102.675 87.7308 102.675 88.4957C102.675 89.2606 102.998 90.1435 103.36 91.1111L105.693 97.7845H105.894L108.429 91.1856C108.912 89.8586 109.112 89.4146 109.112 88.4906C109.112 87.8053 108.791 87.5255 108.342 87.2432C107.937 87.0649 107.501 86.9689 107.059 86.9608V85.9701H113.537V86.966C113.085 86.9781 112.643 87.1016 112.25 87.3255C111.857 87.5493 111.525 87.8666 111.284 88.2493C110.922 88.8525 110.56 89.6969 109.954 91.1856L104.161 105.751C103.399 107.818 102.716 109.186 101.79 110.192Z"
    fill="#253434" />
  <path
    d="M93.5531 102.235C93.0552 101.972 92.6802 101.524 92.5085 100.988C92.3404 100.29 92.2722 99.5718 92.3057 98.8548V79.5021L92.4289 76.322C92.4324 76.2788 92.4265 76.2353 92.4114 76.1946C92.3964 76.1539 92.3727 76.1169 92.3419 76.0864C92.311 76.0558 92.2739 76.0323 92.2331 76.0176C92.1923 76.0029 92.1487 75.9973 92.1055 76.0012H84.6622V76.956C85.1684 76.9827 85.6625 77.1203 86.1098 77.359C86.4887 77.5888 86.7741 77.9452 86.9157 78.3651C87.0774 78.8066 87.1159 79.6921 87.1159 80.5365V98.8445C87.1501 99.5614 87.0827 100.279 86.9157 100.977C86.7429 101.514 86.3671 101.962 85.8685 102.225C85.4191 102.432 84.931 102.541 84.4363 102.546C83.9273 102.551 83.4237 102.441 82.963 102.225C82.4938 101.938 82.1383 101.497 81.9569 100.977C81.7567 100.464 81.7156 99.7685 81.7156 98.8445V90.4849C81.7156 88.8371 81.2331 87.7488 80.227 86.8248C79.421 86.0548 78.2147 85.5774 76.4848 85.5774C75.1305 85.5384 73.8014 85.9481 72.7041 86.7427C71.8657 87.2712 71.1625 87.9884 70.6507 88.8371H70.3684C70.3684 88.2724 70.4505 86.6631 70.4505 86.3012C70.4505 86.101 70.3684 85.9804 70.1682 85.9804H62.8763V86.984C63.3825 87.0107 63.8767 87.1483 64.3239 87.3869C64.6911 87.6116 64.9742 87.9507 65.1298 88.352C65.289 88.796 65.33 89.6815 65.33 90.526V98.8548C65.363 99.5716 65.2956 100.29 65.1298 100.988C64.957 101.524 64.5812 101.972 64.0826 102.235C63.6035 102.467 63.0745 102.577 62.5426 102.556C61.9968 102.587 61.4522 102.476 60.9616 102.235C60.463 101.972 60.0872 101.524 59.9144 100.988C59.7486 100.29 59.6812 99.5716 59.7142 98.8548V89.5327L59.8348 86.3141C59.8387 86.2709 59.8332 86.2275 59.8184 86.1868C59.8037 86.1461 59.7802 86.1091 59.7496 86.0785C59.719 86.0478 59.682 86.0243 59.6413 86.0096C59.6005 85.9949 59.5571 85.9893 59.514 85.9932H52.0706V86.9968C52.5768 87.0235 53.071 87.1611 53.5182 87.3998C53.8854 87.6244 54.1686 87.9635 54.3242 88.3648C54.4833 88.8089 54.5244 89.6944 54.5244 90.5388V98.8676C54.5573 99.5845 54.49 100.302 54.3242 101.001C54.1561 101.532 53.8051 101.987 53.3334 102.284C52.4377 102.818 51.1081 102.553 50.2534 102.027C49.4852 101.525 48.8845 100.805 48.5286 99.9585C47.9845 98.7136 47.9537 97.3482 47.6945 96.0366C47.46 94.7971 47.054 93.5964 46.4881 92.4689C46.1044 91.6914 45.6002 90.9794 44.9943 90.3591C43.711 89.0758 42.0966 88.3469 38.878 88.1441V87.831L43.7059 82.7592C45.6386 80.7059 46.5292 79.9847 47.6893 79.2198C48.6585 78.64 49.7204 78.2319 50.8284 78.0135V77.0484H41.0134V78.0135C41.5375 78.0325 42.0561 78.1267 42.5534 78.2932C43.1566 78.5756 43.5981 78.8579 43.5981 79.7023C43.5981 80.788 42.6741 81.5529 41.0314 83.3239L34.6147 90.0819V83.8064C34.6147 81.8763 34.7354 80.8702 35.0588 80.0642C35.5002 78.9785 35.9828 78.5242 36.9093 78.2676C37.4128 78.1337 37.929 78.0528 38.4493 78.0263V77.0484H25V78.0135C25.49 78.0403 25.9754 78.1212 26.4476 78.2547C27.3742 78.5371 27.8978 78.9785 28.3392 80.0514C28.6601 80.8573 28.7422 81.8635 28.7422 83.7936V96.7501C28.7422 98.6803 28.6601 99.6864 28.3392 100.49C27.8978 101.578 27.3742 102.03 26.4476 102.302C25.9752 102.434 25.4898 102.515 25 102.543V103.508H38.4391V102.543C37.9189 102.515 37.4029 102.434 36.8991 102.302C35.9725 102.02 35.49 101.578 35.0485 100.49C34.7251 99.6864 34.6045 98.6931 34.6045 96.7501V91.9736C34.8945 91.6343 35.2039 91.3121 35.531 91.0085C36.1342 90.4053 36.8991 89.9228 37.6639 89.9228C39.1115 89.9228 39.7173 90.567 40.3179 91.6527C41.1238 93.0593 41.2034 95.033 41.4857 97.7691C41.768 100.464 42.6535 102.718 43.4158 103.521H72.663V102.556C72.3007 102.52 71.9468 102.425 71.6158 102.274C71.0126 101.994 70.8124 101.629 70.6507 100.867C70.5415 100.202 70.501 99.5279 70.5301 98.8548V92.4972C70.5166 91.4309 70.8097 90.3832 71.3745 89.4788C71.7037 89.0019 72.1423 88.6107 72.6536 88.3378C73.1648 88.065 73.7339 87.9185 74.3134 87.9105C75.0372 87.9105 75.5599 88.0714 75.8816 88.3931C76.3231 88.8371 76.5258 89.3581 76.5258 90.3643V98.8548C76.5549 99.5279 76.5145 100.202 76.4052 100.867C76.2846 101.637 76.0433 101.994 75.4401 102.274C75.1197 102.415 74.781 102.51 74.434 102.556V103.521H94.7107V102.556C94.3064 102.533 93.9117 102.423 93.5531 102.235Z"
    fill="#253434" />
</svg>