<svg width="128" height="128" viewBox="0 0 128 128" fill="none" xmlns="http://www.w3.org/2000/svg">
<path opacity="0.2" d="M3.46629 33.2651C-2.46186 49.0816 -5.62255 84.9524 49.5496 100.222C104.722 115.491 123.858 62.326 107.184 48.2913C98.757 41.1978 90.9005 42.8122 83.4484 44.7949C76.8759 45.2252 61.7223 44.0773 53.6882 36.0432C39.5828 23.215 19.7903 6.62669 3.46629 33.2651Z" fill="#01ACC9"/>
<circle opacity="0.2" cx="30" cy="28" r="28" fill="#3D3397"/>
<path fill-rule="evenodd" clip-rule="evenodd" d="M1.22017 70.5506C1.52468 70.0463 2.18035 69.8844 2.68465 70.1889C4.59966 71.3452 6.44859 72.8744 8.16313 74.8528C11.1316 78.2779 12.183 81.3811 12.1374 84.2948C12.0927 87.1497 10.989 89.6899 9.95935 91.9388C9.8944 92.0806 9.82988 92.2211 9.76595 92.3603C8.77991 94.5075 7.93453 96.3483 7.80917 98.2117C7.68429 100.068 8.28163 102.058 10.707 104.383C13.0179 106.597 15.4171 107.68 17.673 107.995C17.6031 106.03 18.1025 104.131 18.9183 102.499C19.979 100.378 21.6231 98.6114 23.4153 97.6995C25.23 96.7763 27.379 96.6767 29.0064 98.3041C30.5896 99.8873 30.6622 101.991 29.8658 103.857C29.082 105.694 27.4392 107.407 25.3476 108.585C23.8529 109.427 22.104 110.01 20.2212 110.178C20.8191 111.914 22.1131 113.651 24.4673 115.133C28.9193 117.936 33.7821 118.534 38.0969 118.119C42.4234 117.702 46.1324 116.271 48.1861 115.108C48.6986 114.817 49.3495 114.997 49.64 115.51C49.9304 116.022 49.7504 116.673 49.2378 116.964C46.9383 118.267 42.9423 119.796 38.3013 120.243C33.6486 120.69 28.2815 120.055 23.3307 116.938C20.3242 115.045 18.6492 112.67 17.9933 110.178C15.135 109.923 12.0916 108.664 9.23092 105.923C6.4325 103.241 5.50624 100.661 5.68064 98.0685C5.83364 95.7944 6.8438 93.6029 7.78545 91.5599C7.86417 91.3892 7.94242 91.2194 8.01964 91.0507C9.05777 88.7832 9.96741 86.6166 10.0043 84.2613C10.0403 81.9648 9.24161 79.3545 6.551 76.2499C4.97945 74.4366 3.30147 73.0534 1.58194 72.0151C1.07764 71.7106 0.915669 71.0549 1.22017 70.5506ZM19.8121 108.071C21.4771 107.959 23.0097 107.454 24.3005 106.726C26.0723 105.728 27.3407 104.339 27.9036 103.02C28.454 101.73 28.3089 100.624 27.4979 99.8126C26.7311 99.0458 25.6696 98.9462 24.3827 99.6009C23.0733 100.267 21.7247 101.657 20.8264 103.453C20.1217 104.863 19.7245 106.462 19.8121 108.071Z" fill="#574DAA"/>
<path d="M30 93.0005H95L62.4446 60.4453L30 93.0005Z" fill="#574DAA"/>
<path d="M94.8892 28L62.4446 60.4446L94.8892 92.8891V28Z" fill="#C7C2F2"/>
<path d="M30 28V92.8853L62.4446 60.4446L94.8853 28H30Z" fill="#3D3397"/>
<path fill-rule="evenodd" clip-rule="evenodd" d="M78.0509 34.7424C78.2301 34.1812 78.8304 33.8716 79.3915 34.0509C83.8795 35.4845 87.0592 39.5097 87.4564 44.235C87.5057 44.822 87.0699 45.3379 86.4828 45.3872C85.8958 45.4366 85.3799 45.0007 85.3306 44.4137C85.0047 40.5368 82.3981 37.2508 78.7424 36.083C78.1812 35.9038 77.8716 35.3035 78.0509 34.7424Z" fill="#EBE9FD"/>
</svg>
