<svg width="24" height="24" viewBox="0 0 24 24" fill="none" xmlns="http://www.w3.org/2000/svg">
  <path
    d="M12 24C18.6274 24 24 18.6274 24 12C24 5.37258 18.6274 0 12 0C5.37258 0 0 5.37258 0 12C0 18.6274 5.37258 24 12 24Z"
    fill="#EBE9FD" />
  <g clip-path="url(#clip0_15_1575)">
    <path
      d="M17.027 4.43237H6.43243C5.32786 4.43237 4.43243 5.3278 4.43243 6.43237V17.027C4.43243 18.1315 5.32786 19.027 6.43243 19.027H17.027C18.1316 19.027 19.027 18.1315 19.027 17.027V6.43237C19.027 5.3278 18.1316 4.43237 17.027 4.43237Z"
      stroke="#3D3397" />
    <path d="M4.7641 18.6954L11.7297 11.7298M18.6953 4.76416L11.7297 11.7298M11.7297 11.7298L18.6953 18.6954"
      stroke="#3D3397" />
  </g>
  <defs>
    <clipPath id="clip0_15_1575">
      <rect width="19.4595" height="19.4595" fill="white" transform="translate(2 2)" />
    </clipPath>
  </defs>
</svg>