<svg width="24" height="24" viewBox="0 0 24 24" fill="none" xmlns="http://www.w3.org/2000/svg">
  <path
    d="M12 24C18.6274 24 24 18.6274 24 12C24 5.37258 18.6274 0 12 0C5.37258 0 0 5.37258 0 12C0 18.6274 5.37258 24 12 24Z"
    fill="#EBE9FD" />
  <g clip-path="url(#clip0_15_1523)">
    <path
      d="M12.1082 14.3755C10.9686 14.3755 10.0395 13.4463 10.0395 12.3068C10.0395 11.1673 10.9686 10.2382 12.1082 10.2382C13.2477 10.2382 14.1768 11.1673 14.1768 12.3068C14.1943 13.4463 13.2652 14.3755 12.1082 14.3755ZM12.1082 11.0972C11.442 11.0972 10.916 11.6406 10.916 12.2893C10.916 12.9555 11.4595 13.4814 12.1082 13.4814C12.7568 13.4814 13.3003 12.9379 13.3003 12.2893C13.3178 11.6406 12.7743 11.0972 12.1082 11.0972Z"
      fill="#3D3397" />
    <path
      d="M12.0205 17.6887C11.8627 17.6887 11.6874 17.6887 11.5296 17.6712C11.442 17.6712 11.3193 17.6712 11.2141 17.6537C10.9336 17.6361 10.6531 17.5835 10.3726 17.5309C9.72394 17.4082 9.3032 17.1453 9.11036 16.7421C9.0227 16.5843 8.98764 16.3914 8.98764 16.2161C8.98764 16.0408 9.0227 15.848 9.11036 15.6902C9.35579 15.1993 9.93432 14.989 10.3901 14.9013C10.6706 14.8487 10.9686 14.7961 11.2491 14.7786C11.7575 14.726 12.301 14.726 12.8269 14.7786C13.1074 14.7961 13.4055 14.8312 13.686 14.9013C14.3346 15.0415 14.7729 15.3045 14.9482 15.6902C15.106 16.0233 15.106 16.409 14.9482 16.7421C14.7554 17.1453 14.3346 17.4082 13.6684 17.5309C13.3879 17.5835 13.1074 17.6361 12.8094 17.6537C12.5464 17.6887 12.2835 17.6887 12.0205 17.6887ZM12.0205 15.6201C11.7751 15.6201 11.5472 15.6376 11.3017 15.6551C11.0388 15.6727 10.7933 15.7077 10.5479 15.7603C10.1622 15.848 9.93432 15.9882 9.88172 16.0759C9.86419 16.1109 9.84666 16.1635 9.84666 16.2161C9.84666 16.2687 9.86419 16.3213 9.88172 16.3564C9.89925 16.409 10.022 16.5667 10.5479 16.6719C10.7933 16.7245 11.0388 16.7596 11.3017 16.7771C11.3193 16.7771 11.3368 16.7771 11.3543 16.7771C11.4069 16.7946 11.4946 16.7771 11.5647 16.7946C11.9504 16.8122 12.3361 16.8122 12.7218 16.7771C12.9847 16.7596 13.2302 16.7245 13.4756 16.6719C13.8963 16.5843 14.0892 16.4616 14.1418 16.3564C14.1944 16.2687 14.1944 16.1635 14.1418 16.0583C14.1242 16.0058 14.0015 15.848 13.4756 15.7428C13.2302 15.6902 12.9847 15.6551 12.7218 15.6376C12.4938 15.6376 12.2484 15.6201 12.0205 15.6201Z"
      fill="#3D3397" />
    <path
      d="M16.1929 19.9503H7.98833C5.70929 19.9503 3.86853 18.1095 3.86853 15.8305V11.0621C3.86853 8.78302 5.70929 6.94226 7.98833 6.94226H8.79475C9.04019 6.94226 9.23303 7.1351 9.23303 7.38054C9.23303 7.62597 9.04019 7.81881 8.79475 7.81881H7.98833C6.20016 7.81881 4.74508 9.27389 4.74508 11.0621V15.8305C4.74508 17.6187 6.20016 19.0737 7.98833 19.0737H16.1929C17.981 19.0737 19.4361 17.6187 19.4361 15.8305V11.0621C19.4361 9.27389 17.981 7.81881 16.1929 7.81881H15.6143C15.3689 7.81881 15.1761 7.62597 15.1761 7.38054C15.1761 7.1351 15.3689 6.94226 15.6143 6.94226H16.1929C18.4719 6.94226 20.3127 8.78302 20.3127 11.0621V15.8305C20.3127 18.092 18.4719 19.9503 16.1929 19.9503Z"
      fill="#3D3397" />
    <path
      d="M14.2118 6.31115C13.9664 6.31115 13.7736 6.11831 13.7736 5.87287V4.85607C13.7736 3.90939 13.0022 3.13803 12.073 3.13803C11.6172 3.13803 11.179 3.31334 10.8634 3.6289C10.5303 3.94446 10.355 4.38273 10.355 4.83854V5.87287C10.355 6.11831 10.1622 6.31115 9.91673 6.31115C9.6713 6.31115 9.47845 6.11831 9.47845 5.87287V4.85607C9.47845 4.15483 9.75895 3.50618 10.2498 3.01531C10.7407 2.52444 11.3893 2.26147 12.073 2.26147C13.4931 2.26147 14.6501 3.41852 14.6501 4.85607V5.87287C14.6501 6.11831 14.4573 6.31115 14.2118 6.31115Z"
      fill="#3D3397" />
    <path
      d="M14.6677 9.43172H9.65378C8.97007 9.43172 8.42661 8.88825 8.42661 8.20454V6.73193C8.42661 6.04822 8.97007 5.50476 9.65378 5.50476H14.6852C15.3689 5.50476 15.9124 6.04822 15.9124 6.73193V8.20454C15.8948 8.88825 15.3514 9.43172 14.6677 9.43172ZM9.65378 6.38131C9.46094 6.38131 9.30316 6.53909 9.30316 6.73193V8.20454C9.30316 8.39738 9.46094 8.55516 9.65378 8.55516H14.6852C14.878 8.55516 15.0358 8.39738 15.0358 8.20454V6.73193C15.0358 6.53909 14.878 6.38131 14.6852 6.38131H9.65378Z"
      fill="#3D3397" />
  </g>
  <defs>
    <clipPath id="clip0_15_1523">
      <rect width="19.4595" height="19.4595" fill="white" transform="translate(2.37839 1.29724)" />
    </clipPath>
  </defs>
</svg>