<svg width="24" height="24" viewBox="0 0 24 24" fill="none" xmlns="http://www.w3.org/2000/svg">
  <path
    d="M12 24C18.6274 24 24 18.6274 24 12C24 5.37258 18.6274 0 12 0C5.37258 0 0 5.37258 0 12C0 18.6274 5.37258 24 12 24Z"
    fill="#EBE9FD" />
  <g clip-path="url(#clip0_15_1559)">
    <path
      d="M6.72014 16.8531C6.4747 16.8531 6.28186 16.6602 6.28186 16.4148V12.032C6.28186 11.7866 6.4747 11.5938 6.72014 11.5938C6.96557 11.5938 7.15841 11.7866 7.15841 12.032V16.4148C7.15841 16.6602 6.96557 16.8531 6.72014 16.8531Z"
      fill="#3D3397" />
    <path
      d="M10.2264 16.8531C9.98093 16.8531 9.78809 16.6602 9.78809 16.4148V12.032C9.78809 11.7866 9.98093 11.5938 10.2264 11.5938C10.4718 11.5938 10.6646 11.7866 10.6646 12.032V16.4148C10.6646 16.6602 10.4718 16.8531 10.2264 16.8531Z"
      fill="#3D3397" />
    <path
      d="M13.5573 16.8531C13.3119 16.8531 13.119 16.6602 13.119 16.4148V12.032C13.119 11.7866 13.3119 11.5938 13.5573 11.5938C13.8027 11.5938 13.9956 11.7866 13.9956 12.032V16.4148C13.9956 16.6602 13.8027 16.8531 13.5573 16.8531Z"
      fill="#3D3397" />
    <path
      d="M17.0635 16.8531C16.8181 16.8531 16.6252 16.6602 16.6252 16.4148V12.032C16.6252 11.7866 16.8181 11.5938 17.0635 11.5938C17.309 11.5938 17.5018 11.7866 17.5018 12.032V16.4148C17.5018 16.6602 17.309 16.8531 17.0635 16.8531Z"
      fill="#3D3397" />
    <path
      d="M19.5178 19.8334H4.44108C4.19565 19.8334 4.00281 19.6405 4.00281 19.3951V19.1321C4.00281 17.4492 5.38776 16.0642 7.07074 16.0642H16.8881C18.5711 16.0642 19.9561 17.4492 19.9561 19.1321V19.3951C19.9561 19.6405 19.7632 19.8334 19.5178 19.8334ZM4.87936 18.9568H19.062C18.9743 17.8348 18.0452 16.9408 16.8881 16.9408H7.07074C5.91369 16.9408 4.98455 17.8348 4.87936 18.9568Z"
      fill="#3D3397" />
    <path
      d="M18.1504 12.1725H5.63325C4.91447 12.1725 4.30089 11.7342 4.05545 11.0505C3.82755 10.3668 4.03792 9.64804 4.59891 9.19223L10.8575 4.23094C11.4711 3.74008 12.3126 3.74008 12.9262 4.23094L19.1847 9.19223C19.7457 9.63051 19.9561 10.3668 19.7282 11.0505C19.5003 11.7167 18.8867 12.1725 18.1504 12.1725ZM11.401 4.91466L5.14238 9.87594C4.82682 10.1389 4.79176 10.4895 4.87941 10.7525C4.96707 11.0155 5.2125 11.2784 5.61572 11.2784H18.1504C18.5712 11.2784 18.7991 10.9979 18.8867 10.7525C18.9744 10.4895 18.9568 10.1389 18.6237 9.87594L12.3827 4.91466C12.0847 4.68675 11.699 4.68675 11.401 4.91466Z"
      fill="#3D3397" />
    <path
      d="M11.9794 10.1913C10.9626 10.1913 10.1387 9.36733 10.1387 8.35053C10.1387 7.33372 10.9626 6.50977 11.9794 6.50977C12.9962 6.50977 13.8202 7.33372 13.8202 8.35053C13.8202 9.36733 12.9962 10.1913 11.9794 10.1913ZM11.9794 7.38632C11.4535 7.38632 11.0152 7.82459 11.0152 8.35053C11.0152 8.87646 11.4535 9.31473 11.9794 9.31473C12.5054 9.31473 12.9436 8.87646 12.9436 8.35053C12.9436 7.82459 12.5054 7.38632 11.9794 7.38632Z"
      fill="#3D3397" />
    <path
      d="M17.4666 10.0511C19.3424 10.0511 20.8501 8.52592 20.8501 6.66762C20.8676 4.7918 19.3424 3.2666 17.4666 3.2666C15.6083 3.2666 14.0831 4.7918 14.0831 6.65009C14.0831 8.52591 15.6083 10.0511 17.4666 10.0511Z"
      fill="#3D3397" />
    <path
      d="M17.5894 8.61368C17.344 8.61368 17.1511 8.42084 17.1511 8.17541V5.01982C17.1511 4.77438 17.344 4.58154 17.5894 4.58154C17.8348 4.58154 18.0277 4.77438 18.0277 5.01982V8.17541C18.0277 8.42084 17.8348 8.61368 17.5894 8.61368Z"
      fill="white" />
    <path
      d="M19.1672 7.03573H16.0116C15.7662 7.03573 15.5734 6.84289 15.5734 6.59746C15.5734 6.35202 15.7662 6.15918 16.0116 6.15918H19.1672C19.4127 6.15918 19.6055 6.35202 19.6055 6.59746C19.6055 6.84289 19.4127 7.03573 19.1672 7.03573Z"
      fill="white" />
  </g>
  <defs>
    <clipPath id="clip0_15_1559">
      <rect width="19.4595" height="19.4595" fill="white" transform="translate(2.16211 1.51343)" />
    </clipPath>
  </defs>
</svg>