<svg width="24" height="24" viewBox="0 0 24 24" fill="none" xmlns="http://www.w3.org/2000/svg">
  <path
    d="M12 24C18.6274 24 24 18.6274 24 12C24 5.37258 18.6274 0 12 0C5.37258 0 0 5.37258 0 12C0 18.6274 5.37258 24 12 24Z"
    fill="#EBE9FD" />
  <g clip-path="url(#clip0_15_1549)">
    <path
      d="M18.2751 16.1393C18.0433 16.1393 17.8612 15.9572 17.8612 15.7254C17.8612 15.5432 17.9937 15.3777 18.1592 15.328C18.2255 15.2949 18.4076 15.179 18.5732 15.03C18.5732 15.03 18.5897 15.03 18.5897 15.0134C19.3679 14.467 19.8315 13.5895 19.8315 12.6457V8.27466C19.8315 6.68518 18.54 5.37717 16.934 5.37717H6.95008C5.3606 5.37717 4.05259 6.66862 4.05259 8.27466V12.6457C4.05259 13.7385 4.6652 14.7319 5.64207 15.2286C5.84075 15.328 5.92354 15.5763 5.8242 15.7916C5.72485 15.9903 5.4765 16.0731 5.26125 15.9737C4.00292 15.328 3.22473 14.0531 3.22473 12.6457V8.27466C3.22473 6.22158 4.897 4.54932 6.95008 4.54932H16.9506C19.0036 4.54932 20.6759 6.22158 20.6759 8.27466V12.6623C20.6759 13.871 20.0799 15.0134 19.0864 15.7088C18.4904 16.1393 18.391 16.1393 18.2751 16.1393Z"
      fill="#3D3397" />
    <path
      d="M15.2286 19.2851H8.75473C6.9169 19.2851 5.42676 17.7784 5.42676 15.924V10.4933C5.42676 10.2615 5.60889 10.0793 5.84069 10.0793C6.07248 10.0793 6.25461 10.2615 6.25461 10.4933V15.924C6.25461 17.3148 7.3805 18.4572 8.75473 18.4572H15.2286C16.6028 18.4572 17.7287 17.3148 17.7287 15.924V10.4933C17.7287 10.2615 17.9108 10.0793 18.1426 10.0793C18.3744 10.0793 18.5565 10.2615 18.5565 10.4933V15.924C18.5565 17.7784 17.0664 19.2851 15.2286 19.2851Z"
      fill="#3D3397" />
    <path
      d="M13.0265 12.4306C12.8941 12.3147 12.7451 12.2154 12.5795 12.1492L12.5961 11.7187C12.5961 11.6525 12.5961 11.6028 12.5629 11.5366C12.5464 11.4703 12.5133 11.4207 12.4636 11.3875C12.4139 11.3379 12.3643 11.3048 12.3146 11.2882C12.2649 11.2551 12.1987 11.2551 12.1325 11.2385C12.0166 11.2385 11.8841 11.2716 11.7848 11.3544C11.6854 11.4372 11.6357 11.5531 11.6357 11.669L11.6192 12.0664C11.1556 12.1988 10.6754 12.5796 10.6423 13.3413C10.6258 14.1029 11.2549 14.5665 11.7516 14.9473L11.7848 14.9804C12.0662 15.1957 12.3808 15.4275 12.3974 15.6096C12.3974 15.8414 12.298 15.9573 12.1159 15.9904C11.9007 16.0235 11.6026 15.9076 11.5198 15.6924C11.5033 15.6262 11.4702 15.5765 11.4205 15.5434C11.3708 15.4937 11.3212 15.4606 11.2715 15.444C11.2218 15.4275 11.1556 15.4109 11.0894 15.3944C11.0231 15.3944 10.9735 15.3944 10.9072 15.4275C10.841 15.444 10.7913 15.4771 10.7582 15.5268C10.7086 15.5599 10.6754 15.6096 10.6423 15.6758C10.6092 15.7255 10.6092 15.7917 10.5927 15.858C10.5927 15.9242 10.5927 15.9739 10.6258 16.0401C10.7086 16.2388 10.8245 16.4209 10.9735 16.5534C11.1059 16.6693 11.2549 16.7686 11.4205 16.8348L11.4039 17.3978C11.4039 17.5137 11.4371 17.6461 11.5364 17.7289C11.6192 17.8282 11.7351 17.8779 11.8841 17.8779C12 17.8779 12.1159 17.8282 12.2152 17.7455C12.298 17.6627 12.3477 17.5468 12.3643 17.4309L12.3808 16.9011C12.861 16.7852 13.3411 16.4043 13.3411 15.6262C13.3411 15.6096 13.3411 15.593 13.3411 15.5765V15.5103C13.2915 14.9142 12.7782 14.5499 12.3311 14.2022L12.2484 14.3016L12.3311 14.2022C11.9669 13.9373 11.6026 13.6559 11.6192 13.4075C11.6357 13.1591 11.7351 13.0267 11.9338 12.9936C12.1325 12.9605 12.4139 13.0598 12.4967 13.2916C12.5133 13.3578 12.5464 13.4075 12.5961 13.4572C12.6292 13.5068 12.6954 13.54 12.7451 13.5731C12.7947 13.6062 12.861 13.6227 12.9272 13.6227C12.9934 13.6227 13.0597 13.6227 13.1093 13.5896C13.1756 13.5731 13.2252 13.54 13.2749 13.4903C13.3246 13.4406 13.3577 13.3909 13.3908 13.3413C13.4239 13.2916 13.4239 13.2254 13.4239 13.1591C13.4239 13.0929 13.4074 13.0267 13.3908 12.977C13.2915 12.7618 13.1756 12.5796 13.0265 12.4306Z"
      fill="#3D3397" />
    <path
      d="M18.5235 10.7583H5.37718C5.14538 10.7583 4.96326 10.5761 4.96326 10.3443C4.96326 10.1125 5.14538 9.93042 5.37718 9.93042H18.507C18.7388 9.93042 18.9209 10.1125 18.9209 10.3443C18.9209 10.5761 18.7388 10.7583 18.5235 10.7583Z"
      fill="#3D3397" />
  </g>
  <defs>
    <clipPath id="clip0_15_1549">
      <rect width="18.3784" height="18.3784" fill="white" transform="translate(2.81079 2.81079)" />
    </clipPath>
  </defs>
</svg>