<svg width="24" height="24" viewBox="0 0 24 24" fill="none" xmlns="http://www.w3.org/2000/svg">
  <path
    d="M12 24C18.6274 24 24 18.6274 24 12C24 5.37258 18.6274 0 12 0C5.37258 0 0 5.37258 0 12C0 18.6274 5.37258 24 12 24Z"
    fill="#EBE9FD" />
  <g clip-path="url(#clip0_15_886)">
    <path
      d="M14.8254 6.95405C14.5799 6.95405 14.3871 6.76121 14.3871 6.51578V5.21848C14.3871 3.93872 13.3703 2.90438 12.1081 2.92191C11.512 2.92191 10.9335 3.14982 10.5127 3.58809C10.0745 4.02637 9.84655 4.60489 9.84655 5.21848V6.51578C9.84655 6.76121 9.65371 6.95405 9.40828 6.95405C9.16284 6.95405 8.97 6.76121 8.97 6.51578V5.21848C8.97 4.35946 9.30309 3.55303 9.89915 2.95698C10.4952 2.36092 11.2841 2.02783 12.1256 2.02783H12.1431C13.8787 2.02783 15.2987 3.44785 15.2987 5.20095V6.51578C15.2636 6.76121 15.0708 6.95405 14.8254 6.95405Z"
      fill="#3D3397" />
    <path
      d="M14.4398 14.317H9.77651C8.25131 14.317 7.02414 13.0723 7.02414 11.5295V8.86483C7.02414 7.3221 8.25131 6.07739 9.77651 6.07739H14.4398C15.965 6.07739 17.1921 7.3221 17.1921 8.86483V11.5295C17.1921 13.0723 15.965 14.317 14.4398 14.317ZM9.77651 6.95394C8.74218 6.95394 7.90069 7.81297 7.90069 8.86483V11.5295C7.90069 12.5814 8.74218 13.4404 9.77651 13.4404H14.4398C15.4741 13.4404 16.3156 12.5814 16.3156 11.5295V8.86483C16.3156 7.81297 15.4741 6.95394 14.4398 6.95394H9.77651Z"
      fill="#3D3397" />
    <path
      d="M12.1081 11.3368C11.8627 11.3368 11.6699 11.1439 11.6699 10.8985V9.49602C11.6699 9.25058 11.8627 9.05774 12.1081 9.05774C12.3536 9.05774 12.5464 9.25058 12.5464 9.49602V10.8985C12.5464 11.1439 12.3536 11.3368 12.1081 11.3368Z"
      fill="#3D3397" />
    <path
      d="M16.5785 19.5764H7.81302C5.91967 19.5764 4.39447 18.0512 4.39447 16.1579V15.7722C4.39447 14.0016 5.83202 12.5815 7.58512 12.5815H7.90068C8.14611 12.5815 8.33895 12.7744 8.33895 13.0198C8.33895 13.2653 8.14611 13.4581 7.90068 13.4581H7.58512C6.30535 13.4581 5.27102 14.4924 5.27102 15.7722V16.1579C5.27102 17.5604 6.41054 18.6999 7.81302 18.6999H16.5785C17.981 18.6999 19.1205 17.5604 19.1205 16.1579V15.7722C19.1205 14.4924 18.0862 13.4581 16.8064 13.4581H16.4909C16.2455 13.4581 16.0526 13.2653 16.0526 13.0198C16.0526 12.7744 16.2455 12.5815 16.4909 12.5815H16.8064C18.5771 12.5815 19.9971 14.0191 19.9971 15.7722V16.1579C19.9971 18.0512 18.4719 19.5764 16.5785 19.5764Z"
      fill="#3D3397" />
    <path fill-rule="evenodd" clip-rule="evenodd"
      d="M9.68891 16.0701C9.68891 16.4032 9.42594 16.6837 9.09285 16.6837C8.75976 16.6837 8.4968 16.4032 8.4968 16.0701C8.4968 15.737 8.75976 15.4565 9.09285 15.4565C9.42594 15.4565 9.68891 15.737 9.68891 16.0701ZM11.7576 16.0701C11.7576 16.4032 11.4946 16.6837 11.1615 16.6837C10.8284 16.6837 10.5655 16.4032 10.5655 16.0701C10.5655 15.737 10.8284 15.4565 11.1615 15.4565C11.4946 15.4565 11.7576 15.737 11.7576 16.0701ZM13.2302 16.6837C13.5633 16.6837 13.8262 16.4032 13.8262 16.0701C13.8262 15.737 13.5457 15.4565 13.2302 15.4565C12.8971 15.4565 12.6341 15.737 12.6341 16.0701C12.6341 16.4032 12.8971 16.6837 13.2302 16.6837ZM15.8774 16.0701C15.8774 16.4032 15.6144 16.6837 15.2813 16.6837C14.9482 16.6837 14.6853 16.4032 14.6853 16.0701C14.6853 15.737 14.9482 15.4565 15.2813 15.4565C15.6144 15.4565 15.8774 15.737 15.8774 16.0701Z"
      fill="#3D3397" />
  </g>
  <defs>
    <clipPath id="clip0_15_886">
      <rect width="19.4595" height="19.4595" fill="white" transform="translate(2.37839 1.08105)" />
    </clipPath>
  </defs>
</svg>