<svg width="24" height="24" viewBox="0 0 24 24" fill="none" xmlns="http://www.w3.org/2000/svg">
  <path
    d="M12 24C18.6274 24 24 18.6274 24 12C24 5.37258 18.6274 0 12 0C5.37258 0 0 5.37258 0 12C0 18.6274 5.37258 24 12 24Z"
    fill="#EBE9FD" />
  <g clip-path="url(#clip0_15_1548)">
    <path
      d="M12.1431 13.1015C11.6347 13.1015 11.1263 12.9438 10.7055 12.6107L7.04156 9.68298C6.84872 9.5252 6.81366 9.26223 6.97143 9.06939C7.12921 8.87655 7.39218 8.84149 7.58502 8.99927L11.249 11.927C11.7749 12.3302 12.5112 12.3302 13.0372 11.927L16.6661 8.99927C16.8589 8.84149 17.1219 8.87655 17.2797 9.06939C17.4375 9.26223 17.4024 9.5252 17.2096 9.68298L13.5806 12.6107C13.1599 12.9438 12.6515 13.1015 12.1431 13.1015Z"
      fill="#3D3397" />
    <path
      d="M8.11096 19.6055C5.49883 19.6055 3.51782 17.4843 3.51782 14.6618V9.12198C3.51782 6.29948 5.49883 4.17822 8.11096 4.17822H16.1226C17.4024 4.19575 18.6296 4.73922 19.4886 5.66836C20.3476 6.59751 20.8034 7.85974 20.7333 9.12198V14.6443C20.8034 15.9065 20.3476 17.1687 19.4886 18.0979C18.6296 19.027 17.4024 19.5705 16.1226 19.588H8.11096V19.6055ZM16.1226 5.05477H8.11096C5.95464 5.05477 4.39437 6.75529 4.39437 9.12198V14.6793C4.39437 17.0285 5.95464 18.7465 8.11096 18.7465H16.1226C17.1394 18.729 18.1387 18.2907 18.84 17.5369C19.5412 16.783 19.9093 15.7487 19.8568 14.7144V14.6968V9.12198V9.10445C19.9093 8.07011 19.5412 7.03578 18.84 6.28195C18.1387 5.51058 17.157 5.07231 16.1226 5.05477Z"
      fill="#3D3397" />
  </g>
  <defs>
    <clipPath id="clip0_15_1548">
      <rect width="19.4595" height="19.4595" fill="white" transform="translate(2.37836 2.16211)" />
    </clipPath>
  </defs>
</svg>