<svg width="24" height="24" viewBox="0 0 24 24" fill="none" xmlns="http://www.w3.org/2000/svg">
  <path
    d="M12 24C18.6274 24 24 18.6274 24 12C24 5.37258 18.6274 0 12 0C5.37258 0 0 5.37258 0 12C0 18.6274 5.37258 24 12 24Z"
    fill="#EBE9FD" />
  <g clip-path="url(#clip0_15_1530)">
    <path
      d="M18.6331 11.068H5.16788C4.92464 11.068 4.73352 10.8751 4.73352 10.6297C4.73352 10.3842 4.92464 10.1914 5.16788 10.1914H18.6331C18.8764 10.1914 19.0675 10.3842 19.0675 10.6297C19.0675 10.8751 18.8764 11.068 18.6331 11.068Z"
      fill="#3D3397" />
    <path
      d="M18.998 14.1183H5.16788C4.92464 14.1183 4.73352 13.9254 4.73352 13.68C4.73352 13.4345 4.92464 13.2417 5.16788 13.2417H18.998C19.2412 13.2417 19.4324 13.4345 19.4324 13.68C19.4324 13.9254 19.2239 14.1183 18.998 14.1183Z"
      fill="#3D3397" />
    <path
      d="M8.71228 6.22934H15.1409V5.35278H8.71228V6.22934ZM15.1409 6.22934C17.052 6.22934 18.6158 7.80713 18.6158 9.73554H19.4845C19.4845 7.31626 17.5385 5.35278 15.1409 5.35278V6.22934ZM18.5984 9.73554V15.1351H19.4671V9.73554H18.5984ZM18.5984 15.1351C18.5984 17.0811 17.052 18.6413 15.1235 18.6413V19.5179C17.5212 19.5179 19.4671 17.5544 19.4671 15.1351H18.5984ZM15.1409 18.6413H8.71228V19.5179H15.1409V18.6413ZM8.71228 18.6413C6.80108 18.6413 5.23738 17.0635 5.23738 15.1351H4.36865C4.36865 17.5544 6.3146 19.5179 8.71228 19.5179V18.6413ZM5.23738 15.1351V9.73554H4.36865V15.1351H5.23738ZM5.23738 9.73554C5.23738 7.7896 6.78371 6.22934 8.71228 6.22934V5.35278C6.3146 5.35278 4.36865 7.31626 4.36865 9.73554H5.23738Z"
      fill="#3D3397" />
    <path
      d="M16.8262 16.222H14.3069C14.0637 16.222 13.8726 16.0292 13.8726 15.7837C13.8726 15.5383 14.0637 15.3455 14.3069 15.3455H16.8262C17.0695 15.3455 17.2606 15.5383 17.2606 15.7837C17.2606 16.0292 17.0521 16.222 16.8262 16.222Z"
      fill="#3D3397" />
  </g>
  <defs>
    <clipPath id="clip0_15_1530">
      <rect width="19.4595" height="19.4595" fill="white" transform="translate(2.16211 2.16211)" />
    </clipPath>
  </defs>
</svg>