<svg width="24" height="24" viewBox="0 0 24 24" fill="none" xmlns="http://www.w3.org/2000/svg">
  <path
    d="M12 24C18.6274 24 24 18.6274 24 12C24 5.37258 18.6274 0 12 0C5.37258 0 0 5.37258 0 12C0 18.6274 5.37258 24 12 24Z"
    fill="#EBE9FD" />
  <g clip-path="url(#clip0_15_1547)">
    <path
      d="M16.1928 16.1343H7.98826C5.70923 16.1343 3.86847 14.2935 3.86847 12.0145V7.24602C3.86847 4.96698 5.70923 3.12622 7.98826 3.12622H16.1928C18.4718 3.12622 20.3126 4.96698 20.3126 7.24602V12.0145C20.3126 14.2935 18.4718 16.1343 16.1928 16.1343ZM7.98826 4.00277C6.2001 4.00277 4.74502 5.45785 4.74502 7.24602V12.0145C4.74502 13.8026 6.2001 15.2577 7.98826 15.2577H16.1928C17.981 15.2577 19.436 13.8026 19.436 12.0145V7.24602C19.436 5.45785 17.981 4.00277 16.1928 4.00277H7.98826Z"
      fill="#3D3397" />
    <path
      d="M12.0729 20.8325C11.9502 20.8325 11.845 20.7799 11.7574 20.6923L9.23291 18.0801C9.0576 17.9048 9.07513 17.6243 9.25044 17.4666C9.42575 17.2912 9.70625 17.3088 9.86403 17.4841L12.0729 19.7806L14.2819 17.4841C14.4572 17.3088 14.7201 17.3088 14.8954 17.4666C15.0707 17.6419 15.0707 17.9048 14.913 18.0801L12.3885 20.6923C12.3008 20.7799 12.1781 20.8325 12.0729 20.8325Z"
      fill="#3D3397" />
    <path
      d="M13.493 6.87799C13.3176 6.72021 13.1073 6.57996 12.8794 6.49231L12.8969 5.91378C12.8969 5.82613 12.8794 5.75601 12.8618 5.66835C12.8268 5.58069 12.7917 5.51057 12.7216 5.45798C12.669 5.40538 12.5989 5.35279 12.5112 5.31773C12.4236 5.28267 12.3534 5.26514 12.2658 5.26514C12.0905 5.2476 11.9152 5.31773 11.7924 5.42292C11.6697 5.5281 11.5821 5.70341 11.5821 5.86119L11.5645 6.40465C10.9159 6.57996 10.2497 7.1059 10.2147 8.14023C10.1621 9.1395 11.0386 9.77062 11.7399 10.2965L11.7924 10.3316C12.1781 10.6121 12.6164 10.9452 12.6515 11.1906C12.6339 11.5062 12.5112 11.664 12.2483 11.7166C11.9502 11.7692 11.547 11.6114 11.4243 11.2958C11.3892 11.2082 11.3542 11.138 11.284 11.0854C11.2315 11.0329 11.1613 10.9803 11.0737 10.9452C11.0036 10.9101 10.9159 10.8926 10.8282 10.8926C10.7406 10.8926 10.6529 10.9101 10.5653 10.9277C10.4776 10.9627 10.4075 10.9978 10.3549 11.0504C10.2848 11.103 10.2322 11.1731 10.1971 11.2432C10.1621 11.3133 10.1445 11.401 10.1445 11.4887C10.1445 11.5763 10.1621 11.664 10.1796 11.7341C10.2848 11.9971 10.4601 12.2425 10.6705 12.4353C10.8458 12.5931 11.0561 12.7334 11.3016 12.821L11.2315 13.5573C11.2315 13.7151 11.284 13.8904 11.4068 14.0131C11.5295 14.1358 11.6873 14.206 11.8976 14.2235C12.0729 14.2235 12.2307 14.1534 12.3534 14.0482C12.4762 13.943 12.5463 13.7852 12.5638 13.6274L12.5989 12.9087C13.2651 12.7509 13.9312 12.225 13.9488 11.1906C13.9488 11.1731 13.9488 11.138 13.9488 11.138V11.0504C13.8611 10.244 13.1599 9.73555 12.5288 9.27975L12.4236 9.41999L12.5288 9.27975C12.0379 8.91159 11.512 8.54344 11.5295 8.19282C11.547 7.85973 11.6873 7.66689 11.9678 7.63183C12.2483 7.57923 12.6339 7.73701 12.7567 8.03504C12.7917 8.1227 12.8268 8.19282 12.8794 8.26294C12.932 8.33307 13.0021 8.38566 13.0897 8.42072C13.1774 8.45579 13.2651 8.47332 13.3527 8.49085C13.4404 8.49085 13.528 8.49085 13.6157 8.45579C13.7033 8.42072 13.7735 8.38566 13.8436 8.31554C13.9137 8.26294 13.9663 8.19282 14.0014 8.10517C14.0364 8.03504 14.054 7.94739 14.054 7.85973C14.054 7.77208 14.0364 7.68442 14.0014 7.6143C13.8786 7.29874 13.7033 7.07083 13.493 6.87799Z"
      fill="#3D3397" />
    <path
      d="M17.9284 7.96466C17.7005 7.96466 17.5077 7.78935 17.4902 7.56144C17.42 6.75502 16.8941 6.08884 16.1403 5.8434C15.9124 5.77328 15.7897 5.52784 15.8598 5.29994C15.9299 5.07204 16.1753 4.94932 16.4032 5.01944C17.4902 5.37006 18.2615 6.33427 18.3667 7.49132C18.3842 7.73675 18.2089 7.94713 17.9635 7.96466C17.9635 7.96466 17.946 7.96466 17.9284 7.96466Z"
      fill="#3D3397" />
  </g>
  <defs>
    <clipPath id="clip0_15_1547">
      <rect width="19.4595" height="19.4595" fill="white" transform="translate(2.37836 2.16211)" />
    </clipPath>
  </defs>
</svg>