<svg width="32" height="33" viewBox="0 0 32 33" fill="none" xmlns="http://www.w3.org/2000/svg">
  <path opacity="0.1"
    d="M16 32.4816C24.8264 32.4816 31.9816 25.3264 31.9816 16.4999C31.9816 7.67353 24.8264 0.518311 16 0.518311C7.17359 0.518311 0.0183716 7.67353 0.0183716 16.4999C0.0183716 25.3264 7.17359 32.4816 16 32.4816Z"
    fill="#3D3397" />
  <path opacity="0.54"
    d="M5.41763 22.8599C5.31704 22.8609 5.21899 22.8283 5.13901 22.7673C5.05904 22.7063 5.0017 22.6203 4.97608 22.523C4.95047 22.4257 4.95803 22.3227 4.99758 22.2302C5.03713 22.1377 5.1064 22.061 5.19443 22.0123L14.4729 16.7854C14.5768 16.7326 14.697 16.7219 14.8086 16.7557C14.9201 16.7894 15.0144 16.8649 15.0716 16.9664C15.1288 17.0679 15.1446 17.1876 15.1157 17.3005C15.0868 17.4134 15.0154 17.5108 14.9165 17.5723L5.63801 22.7992C5.57112 22.8384 5.49513 22.8593 5.41763 22.8599Z"
    fill="#3D3397" />
  <path opacity="0.54"
    d="M26.5584 22.8599C26.4807 22.86 26.4043 22.8401 26.3366 22.802L17.1542 17.6316C17.0552 17.5701 16.9838 17.4727 16.9549 17.3598C16.926 17.2469 16.9418 17.1272 16.9991 17.0257C17.0563 16.9242 17.1505 16.8487 17.2621 16.815C17.3736 16.7813 17.4939 16.7919 17.5977 16.8447L26.7802 22.0152C26.8693 22.063 26.9397 22.1394 26.9801 22.2321C27.0205 22.3248 27.0286 22.4284 27.003 22.5263C26.9774 22.6241 26.9196 22.7105 26.8389 22.7715C26.7583 22.8326 26.6595 22.8647 26.5584 22.8628V22.8599Z"
    fill="#3D3397" />
  <path
    d="M26.7759 11.1163C26.6697 11.1156 26.5671 11.0775 26.486 11.0089C26.4049 10.9402 26.3506 10.8452 26.3323 10.7405L5.50947 10.7631C5.39413 10.7567 5.28564 10.7063 5.20627 10.6224C5.1269 10.5384 5.08267 10.4273 5.08267 10.3118C5.08267 10.1963 5.1269 10.0851 5.20627 10.0012C5.28564 9.91726 5.39413 9.8669 5.50947 9.86044L26.5584 9.83643C26.6291 9.83655 26.6989 9.8535 26.7618 9.88587C26.9058 9.95929 27.0261 10.0721 27.1086 10.2111C27.1911 10.3501 27.2325 10.5097 27.228 10.6713C27.2261 10.79 27.1777 10.9032 27.0931 10.9864C27.0085 11.0697 26.8946 11.1163 26.7759 11.1163Z"
    fill="#213143" />
  <path
    d="M26.3225 23.1622L5.53206 23.0689C5.33098 23.0678 5.13854 22.9871 4.99688 22.8443C4.85523 22.7016 4.7759 22.5086 4.77628 22.3075L4.82996 10.6925C4.82552 10.5261 4.87017 10.362 4.95835 10.2208C5.04653 10.0797 5.17433 9.96756 5.32581 9.89854C5.43069 9.8533 5.54884 9.84959 5.65637 9.88814C5.76389 9.92669 5.85276 10.0046 5.90501 10.1062L15.822 17.1978C15.8811 17.2288 15.9468 17.245 16.0134 17.245C16.0801 17.245 16.1458 17.2288 16.2049 17.1978L26.3761 9.99319C26.4575 9.936 26.5554 9.90722 26.6547 9.9113C26.7541 9.91539 26.8493 9.95211 26.9257 10.0158C27.0317 10.1124 27.1133 10.2329 27.1636 10.3673C27.214 10.5016 27.2317 10.646 27.2153 10.7885V22.2623C27.2156 22.3811 27.1925 22.4989 27.1472 22.6087C27.1019 22.7186 27.0353 22.8184 26.9513 22.9024C26.8673 22.9865 26.7675 23.0531 26.6576 23.0984C26.5477 23.1437 26.43 23.1668 26.3112 23.1664L26.3225 23.1622ZM5.67474 22.1733L26.3225 22.2651V11.1403L16.7162 17.9494L16.6823 17.9706C16.4813 18.0875 16.253 18.149 16.0205 18.149C15.788 18.149 15.5596 18.0875 15.3587 17.9706L15.3248 17.948L5.72701 11.0951L5.67474 22.1733Z"
    fill="#213143" />
</svg>