<svg width="24" height="24" viewBox="0 0 24 24" fill="none" xmlns="http://www.w3.org/2000/svg">
  <path
    d="M12 24C18.6274 24 24 18.6274 24 12C24 5.37258 18.6274 0 12 0C5.37258 0 0 5.37258 0 12C0 18.6274 5.37258 24 12 24Z"
    fill="#EBE9FD" />
  <g clip-path="url(#clip0_15_1568)">
    <path
      d="M11.6756 20.4977C10.1925 20.4977 8.65444 20.0949 7.42765 19.3808C7.02483 19.1245 6.82342 19.0512 6.60369 19.1245L4.93747 19.6188C4.58957 19.7287 4.20506 19.6371 3.94871 19.3991C3.69237 19.1611 3.60082 18.7949 3.71068 18.4287L4.25999 16.5976V16.5793C4.29661 16.4512 4.29661 16.323 4.24168 16.2314C4.24168 16.2314 4.24168 16.2131 4.22337 16.2131C3.47265 14.8216 3.06982 13.3384 3.06982 11.9285C3.06982 7.1679 6.93328 3.30444 11.6939 3.30444C16.4363 3.30444 20.2814 7.1679 20.2814 11.8919C20.2814 17.2751 15.9053 20.4977 11.6756 20.4977ZM6.76849 18.1723C7.22624 18.1723 7.61075 18.4104 7.90372 18.5935C8.96571 19.216 10.3573 19.5822 11.6756 19.5822C15.4475 19.5822 19.3659 16.7075 19.3659 11.8736C19.3659 7.64396 15.9236 4.20164 11.6939 4.20164C7.44596 4.20164 3.98533 7.66227 3.98533 11.9102C3.98533 13.1736 4.35154 14.492 5.02902 15.7554C5.21212 16.085 5.24874 16.4695 5.12057 16.854L4.57126 18.6667C4.57126 18.685 4.57126 18.7216 4.57126 18.7216C4.58957 18.7216 4.60788 18.7399 4.66281 18.7216L6.31073 18.2273C6.47552 18.1906 6.622 18.1723 6.76849 18.1723Z"
      fill="#3D3397" />
    <path fill-rule="evenodd" clip-rule="evenodd"
      d="M11.4926 14.1074C11.5659 14.1806 11.6757 14.2355 11.8039 14.2355C11.9138 14.2355 12.0236 14.1989 12.1152 14.1074C12.1884 14.0341 12.2434 13.9243 12.2434 13.7961V12.9355C12.2434 12.844 12.28 12.7341 12.3349 12.6609C12.3898 12.5876 12.4631 12.5144 12.5546 12.4778C13.0124 12.313 13.4152 12.02 13.6716 11.6172C13.9462 11.2143 14.0744 10.7383 14.0561 10.2439C14.0194 9.67629 13.7997 9.16361 13.3969 8.76078C12.9941 8.35796 12.4814 8.13823 11.9138 8.10161C11.6025 8.0833 11.3095 8.13823 11.0166 8.2481C10.7236 8.35796 10.4673 8.52275 10.2475 8.72416C10.0278 8.92557 9.84472 9.18192 9.73486 9.45657C9.60669 9.73122 9.55176 10.0425 9.55176 10.3355C9.55176 10.4453 9.58838 10.5552 9.67993 10.6467C9.77148 10.7383 9.86303 10.7749 9.9912 10.7749C10.1011 10.7749 10.2109 10.7383 10.3025 10.6467C10.3757 10.5735 10.4306 10.4636 10.4306 10.3355C10.4306 10.1524 10.4673 9.96925 10.5405 9.78615C10.6137 9.62136 10.7236 9.45657 10.8518 9.3284C10.98 9.20023 11.1447 9.09037 11.3278 9.03543C11.5109 8.96219 11.6941 8.94388 11.8772 8.94388C12.225 8.96219 12.5363 9.10867 12.7927 9.34671C13.0307 9.58474 13.1772 9.91432 13.1955 10.2622C13.2138 10.5552 13.1222 10.8481 12.9575 11.1045C12.7927 11.3608 12.5546 11.5439 12.2617 11.6355C12.0053 11.727 11.7856 11.8918 11.6208 12.1299C11.456 12.3496 11.3828 12.6242 11.3828 12.8989V13.8144C11.3645 13.9243 11.4194 14.0341 11.4926 14.1074ZM11.4926 15.6271C11.5659 15.7003 11.6757 15.7553 11.8039 15.7553C11.9138 15.7553 12.0236 15.7187 12.1152 15.6271C12.2067 15.5356 12.2434 15.444 12.2434 15.3158V15.2426C12.2434 15.1327 12.2067 15.0229 12.1152 14.9313C12.0236 14.8398 11.9321 14.8031 11.8039 14.8031C11.6941 14.8031 11.5842 14.8398 11.4926 14.9313C11.4194 15.0046 11.3645 15.1144 11.3645 15.2426V15.3158C11.3645 15.444 11.4194 15.5539 11.4926 15.6271Z"
      fill="#3D3397" />
  </g>
  <defs>
    <clipPath id="clip0_15_1568">
      <rect width="20.3243" height="20.3243" fill="white" transform="translate(1.51349 1.72974)" />
    </clipPath>
  </defs>
</svg>