<svg width="31" height="30" viewBox="0 0 31 30" fill="none" xmlns="http://www.w3.org/2000/svg">
<g clip-path="url(#clip0_2647:58879)">
<g clip-path="url(#clip1_2647:58879)">
<path d="M15.5 30C23.7843 30 30.5 23.2843 30.5 15C30.5 6.71573 23.7843 0 15.5 0C7.21573 0 0.5 6.71573 0.5 15C0.5 23.2843 7.21573 30 15.5 30Z" fill="#F2F3F4"/>
</g>
<path d="M21.6748 25.523H20.7009C20.3072 25.523 19.9342 25.3572 19.6442 25.0671C19.3748 24.7771 19.209 24.4041 19.1883 23.9897C19.1883 23.8446 19.1469 23.7825 19.1261 23.7617C19.1054 23.741 19.0225 23.741 18.9811 23.741C18.9396 23.741 18.8982 23.7617 18.8568 23.7617H15.1685C15.1478 24.1761 14.982 24.5906 14.6919 24.8807C14.3811 25.2122 13.946 25.4194 13.5108 25.4194H12.4955C12.1847 25.4194 11.8946 25.3158 11.646 25.1086C11.418 24.9221 11.2523 24.632 11.1694 24.3419C10.4856 21.5446 7.91623 20.4879 6.44505 20.1149C6.07208 20.0113 5.69911 19.7626 5.45046 19.4311C5.20181 19.0996 5.05677 18.6852 5.03605 18.2707L4.9946 16.6752C4.9946 16.323 5.07749 15.9707 5.24325 15.6807C5.40902 15.3698 5.65767 15.1212 5.96848 14.9761C7.21172 14.3131 7.85406 12.8834 7.97839 12.5933C8.20632 12.0338 8.49641 11.4951 8.82794 10.9978L7.7919 9.6302C7.70902 9.5266 7.64686 9.40228 7.62614 9.25723C7.60542 9.13291 7.60542 8.98786 7.62614 8.84282C7.64686 8.69777 7.70902 8.57345 7.7919 8.46984C7.87478 8.36624 7.97839 8.26264 8.12343 8.20047C8.70361 7.91038 10.2784 7.123 12.1847 8.20047C12.4748 8.36624 12.827 8.40768 13.1378 8.3248C14.9406 7.91038 19.3955 7.123 22.0478 8.71849C24.6171 10.2518 26.0261 12.8419 26.0261 16.0122V16.0329C25.9018 18.9752 24.0991 22.9122 23.146 24.5906C23.0009 24.8599 22.7937 25.1086 22.5451 25.2536C22.2757 25.4194 21.9856 25.523 21.6748 25.523ZM20.6802 24.487H21.6541C21.7577 24.487 21.8613 24.4455 21.9649 24.4041C22.0685 24.3419 22.1514 24.2383 22.2135 24.1347C22.2135 24.1347 22.2135 24.114 22.2342 24.114C23.146 22.5185 24.8658 18.768 24.9901 16.0122C24.9901 13.2356 23.7469 10.9563 21.5297 9.60948C19.209 8.22119 15.0649 8.96714 13.3865 9.34011C12.8063 9.48516 12.2054 9.40227 11.6874 9.11218C10.3405 8.34552 9.24235 8.82209 8.70361 9.09146L9.69821 10.4176C9.82253 10.5834 9.88469 10.7698 9.88469 10.977C9.88469 11.1843 9.82253 11.3707 9.71893 11.5365C9.40812 11.9716 9.13875 12.4689 8.95226 12.987C8.74505 13.4635 7.97839 15.0798 6.46578 15.8879C6.34145 15.95 6.23785 16.0536 6.15496 16.1987C6.07208 16.3437 6.03064 16.4888 6.05136 16.6545L6.11352 18.2707C6.11352 18.4779 6.19641 18.6852 6.32073 18.8302C6.42433 18.9752 6.5901 19.0789 6.75587 19.1203C10.6928 20.1356 11.8739 22.6843 12.2261 24.114C12.2469 24.1969 12.2883 24.2798 12.3505 24.3419C12.4126 24.3834 12.4748 24.4041 12.5369 24.4041H13.5523C13.718 24.4041 13.8631 24.3419 13.9667 24.2176C14.091 24.0725 14.1532 23.8861 14.1532 23.6996C14.1532 23.5752 14.1739 23.4716 14.2153 23.3473C14.2568 23.2437 14.3189 23.1401 14.4018 23.0365C14.4847 22.9536 14.5883 22.8707 14.6919 22.8293C14.7955 22.7879 14.9198 22.7464 15.0442 22.7464H18.7946C18.9604 22.7257 19.3748 22.6843 19.7063 22.9536C19.9135 23.0987 20.1622 23.3888 20.1829 23.9482C20.1829 24.114 20.2451 24.259 20.3487 24.3626C20.4523 24.4248 20.5766 24.487 20.6802 24.487Z" fill="#5F6A77"/>
<path d="M14.7333 12.3667C14.5261 12.3667 14.3189 12.2424 14.236 12.0145C14.1324 11.7451 14.2775 11.455 14.5468 11.3514C15.7072 10.937 18.173 10.4812 20.0171 11.3721C20.2658 11.4965 20.3901 11.8073 20.2658 12.0559C20.1414 12.3046 19.8306 12.4289 19.582 12.3046C18.1522 11.6001 15.9973 11.9316 14.8991 12.3253C14.8577 12.3667 14.7955 12.3667 14.7333 12.3667Z" fill="#5F6A77"/>
<path d="M17.2613 11.3707C19.2982 11.3707 20.9495 9.71941 20.9495 7.68243C20.9495 5.64544 19.2982 3.99414 17.2613 3.99414C15.2243 3.99414 13.573 5.64544 13.573 7.68243C13.573 9.71941 15.2243 11.3707 17.2613 11.3707Z" fill="#F2F3F4"/>
<path d="M17.2613 11.9099C14.9405 11.9099 13.0549 10.0243 13.0549 7.70359C13.0549 5.38287 14.9405 3.47656 17.2613 3.47656C19.582 3.47656 21.4676 5.36215 21.4676 7.68287C21.4676 10.0036 19.6027 11.9099 17.2613 11.9099ZM17.2613 4.5126C15.5207 4.5126 14.091 5.94233 14.091 7.68287C14.091 9.42341 15.5207 10.8739 17.2613 10.8739C19.0018 10.8739 20.4315 9.44413 20.4315 7.70359C20.4315 5.96305 19.0225 4.5126 17.2613 4.5126Z" fill="#5F6A77"/>
</g>
<defs>
<clipPath id="clip0_2647:58879">
<rect width="30" height="30" fill="white" transform="translate(0.5)"/>
</clipPath>
<clipPath id="clip1_2647:58879">
<rect width="30" height="30" fill="white" transform="translate(0.5)"/>
</clipPath>
</defs>
</svg>
