<svg width="24" height="24" viewBox="0 0 24 24" fill="none" xmlns="http://www.w3.org/2000/svg">
  <path
    d="M12 24C18.6274 24 24 18.6274 24 12C24 5.37258 18.6274 0 12 0C5.37258 0 0 5.37258 0 12C0 18.6274 5.37258 24 12 24Z"
    fill="#EBE9FD" />
  <g clip-path="url(#clip0_15_1525)">
    <g clip-path="url(#clip1_15_1525)">
      <path
        d="M17.7648 21.6508H16.9408C16.6077 21.6508 16.2922 21.5105 16.0467 21.2651C15.8188 21.0197 15.6786 20.7041 15.661 20.3535C15.661 20.2308 15.626 20.1782 15.6085 20.1606C15.5909 20.1431 15.5208 20.1431 15.4857 20.1431C15.4507 20.1431 15.4156 20.1606 15.3806 20.1606H12.26C12.2425 20.5113 12.1022 20.8619 11.8568 21.1073C11.5938 21.3878 11.2257 21.5631 10.8575 21.5631H9.99852C9.73556 21.5631 9.49012 21.4755 9.27975 21.3002C9.08691 21.1424 8.94666 20.8969 8.87653 20.6515C8.29801 18.2848 6.12416 17.3907 4.87946 17.0752C4.5639 16.9875 4.24834 16.7771 4.03797 16.4966C3.82759 16.2162 3.70488 15.8655 3.68734 15.5149L3.65228 14.165C3.65228 13.867 3.72241 13.569 3.86266 13.3235C4.0029 13.0606 4.21328 12.8502 4.47624 12.7275C5.5281 12.1665 6.07157 10.9568 6.17675 10.7114C6.3696 10.2381 6.61503 9.78226 6.89553 9.36151L6.01897 8.20447C5.94885 8.11681 5.89626 8.01162 5.87873 7.88891C5.86119 7.78372 5.86119 7.661 5.87873 7.53829C5.89626 7.41557 5.94885 7.31038 6.01897 7.22273C6.0891 7.13507 6.17675 7.04742 6.29947 6.99482C6.79034 6.74939 8.1227 6.08321 9.73556 6.99482C9.98099 7.13507 10.279 7.17013 10.542 7.10001C12.0672 6.74939 15.8364 6.08321 18.0803 7.4331C20.2542 8.7304 21.4463 10.9218 21.4463 13.604V13.6216C21.3411 16.111 19.8159 19.4419 19.0095 20.8619C18.8868 21.0898 18.7115 21.3002 18.5011 21.4229C18.2732 21.5631 18.0277 21.6508 17.7648 21.6508ZM16.9233 20.7742H17.7472C17.8349 20.7742 17.9226 20.7392 18.0102 20.7041C18.0979 20.6515 18.168 20.5639 18.2206 20.4762C18.2206 20.4762 18.2206 20.4587 18.2381 20.4587C19.0095 19.1088 20.4646 15.9357 20.5697 13.604C20.5697 11.2549 19.5179 9.32645 17.6421 8.18693C15.6786 7.01235 12.1724 7.64347 10.7524 7.95903C10.2615 8.08175 9.75309 8.01162 9.31481 7.76619C8.17529 7.11754 7.24615 7.52075 6.79034 7.74866L7.63183 8.87065C7.73702 9.01089 7.78961 9.16867 7.78961 9.34398C7.78961 9.51929 7.73702 9.67707 7.64936 9.81732C7.3864 10.1855 7.15849 10.6062 7.00071 11.0445C6.8254 11.4477 6.17675 12.8151 4.89699 13.4988C4.7918 13.5514 4.70415 13.6391 4.63402 13.7618C4.5639 13.8845 4.52883 14.0072 4.54637 14.1475L4.59896 15.5149C4.59896 15.6902 4.66908 15.8655 4.77427 15.9882C4.86192 16.111 5.00217 16.1986 5.14242 16.2337C8.47332 17.0927 9.47259 19.249 9.77062 20.4587C9.78815 20.5288 9.82321 20.5989 9.8758 20.6515C9.9284 20.6866 9.98099 20.7041 10.0336 20.7041H10.8926C11.0329 20.7041 11.1556 20.6515 11.2432 20.5463C11.3484 20.4236 11.401 20.2658 11.401 20.108C11.401 20.0029 11.4185 19.9152 11.4536 19.81C11.4887 19.7224 11.5413 19.6347 11.6114 19.5471C11.6815 19.4769 11.7692 19.4068 11.8568 19.3717C11.9445 19.3367 12.0497 19.3016 12.1548 19.3016H15.328C15.4682 19.2841 15.8188 19.249 16.0993 19.4769C16.2746 19.5996 16.485 19.8451 16.5025 20.3184C16.5025 20.4587 16.5551 20.5814 16.6428 20.669C16.7304 20.7216 16.8356 20.7742 16.9233 20.7742Z"
        fill="#3D3397" />
      <path
        d="M11.8919 10.5186C11.7165 10.5186 11.5412 10.4134 11.4711 10.2206C11.3835 9.99268 11.5062 9.74725 11.7341 9.65959C12.7158 9.30897 14.802 8.92329 16.3623 9.67712C16.5726 9.78231 16.6778 10.0453 16.5726 10.2556C16.4675 10.466 16.2045 10.5712 15.9941 10.466C14.7845 9.86997 12.9613 10.1505 12.0321 10.4836C11.997 10.5186 11.9445 10.5186 11.8919 10.5186Z"
        fill="#3D3397" />
      <path
        d="M14.0307 9.67709C15.7541 9.67709 17.1512 8.27998 17.1512 6.55656C17.1512 4.83314 15.7541 3.43604 14.0307 3.43604C12.3073 3.43604 10.9102 4.83314 10.9102 6.55656C10.9102 8.27998 12.3073 9.67709 14.0307 9.67709Z"
        fill="#EBE9FD" />
      <path
        d="M14.0307 10.1329C12.0672 10.1329 10.4719 8.53761 10.4719 6.57414C10.4719 4.61066 12.0672 2.9978 14.0307 2.9978C15.9941 2.9978 17.5895 4.59313 17.5895 6.55661C17.5895 8.52008 16.0117 10.1329 14.0307 10.1329ZM14.0307 3.87436C12.5581 3.87436 11.3484 5.084 11.3484 6.55661C11.3484 8.02921 12.5581 9.25639 14.0307 9.25639C15.5033 9.25639 16.7129 8.04674 16.7129 6.57414C16.7129 5.10153 15.5208 3.87436 14.0307 3.87436Z"
        fill="#3D3397" />
    </g>
  </g>
  <defs>
    <clipPath id="clip0_15_1525">
      <rect width="19.4595" height="19.4595" fill="white" transform="translate(2.81079 2.5946)" />
    </clipPath>
    <clipPath id="clip1_15_1525">
      <rect width="19.4595" height="19.4595" fill="white" transform="translate(2.81079 2.5946)" />
    </clipPath>
  </defs>
</svg>