<svg width="24" height="24" viewBox="0 0 24 24" fill="none" xmlns="http://www.w3.org/2000/svg">
  <path
    d="M12 24C18.6274 24 24 18.6274 24 12C24 5.37258 18.6274 0 12 0C5.37258 0 0 5.37258 0 12C0 18.6274 5.37258 24 12 24Z"
    fill="#EBE9FD" />
  <g clip-path="url(#clip0_15_1558)">
    <path
      d="M11.775 19.0972C7.51497 19.0972 4.04382 15.626 4.04382 11.366C4.04382 7.10596 7.51497 3.65234 11.775 3.65234C16.0351 3.65234 19.5062 7.12349 19.5062 11.3835C19.5062 15.6436 16.0351 19.0972 11.775 19.0972ZM11.775 4.5289C7.98831 4.5289 4.92038 7.59683 4.92038 11.3835C4.92038 15.1527 7.98831 18.2382 11.775 18.2382C15.5442 18.2382 18.6297 15.1702 18.6297 11.3835C18.6121 7.59683 15.5442 4.5289 11.775 4.5289Z"
      fill="#3D3397" />
    <path
      d="M19.6991 20.114C19.5939 20.114 19.4712 20.079 19.3836 19.9913L16.526 17.1337C16.3507 16.9584 16.3507 16.6779 16.526 16.5202C16.7013 16.3448 16.9818 16.3448 17.1396 16.5202L19.9972 19.3777C20.1725 19.553 20.1725 19.8335 19.9972 19.9913C19.927 20.079 19.8043 20.114 19.6991 20.114Z"
      fill="#3D3397" />
    <path
      d="M13.125 9.13951C12.9497 8.98173 12.7568 8.85901 12.5465 8.78888L12.564 8.24542C12.564 8.1753 12.5465 8.08764 12.5289 8.01752C12.4939 7.94739 12.4588 7.87727 12.4062 7.82468C12.3536 7.77208 12.2835 7.71949 12.2134 7.68443C12.1433 7.64937 12.0556 7.63184 11.9679 7.63184C11.8102 7.63184 11.6349 7.68443 11.5297 7.78961C11.407 7.8948 11.3368 8.05258 11.3368 8.19283L11.3193 8.70123C10.7057 8.85901 10.0921 9.34988 10.0395 10.3141C10.0045 11.2608 10.8109 11.8568 11.4595 12.3302L11.5121 12.3652C11.8803 12.6282 12.2835 12.9437 12.3186 13.1716C12.301 13.4697 12.1958 13.6275 11.9504 13.6625C11.6699 13.7151 11.2842 13.5573 11.179 13.2768C11.144 13.2067 11.1089 13.1366 11.0563 13.084C11.0037 13.0314 10.9336 12.9788 10.8635 12.9437C10.7934 12.9087 10.7057 12.8912 10.6356 12.8912C10.5479 12.8912 10.4778 12.9087 10.3902 12.9262C10.32 12.9613 10.2499 12.9963 10.1798 13.0489C10.1272 13.1015 10.0746 13.1541 10.0395 13.2418C10.0045 13.3119 9.98694 13.382 9.98694 13.4697C9.98694 13.5573 10.0045 13.6275 10.022 13.6976C10.1272 13.943 10.285 14.1709 10.4778 14.3462C10.6531 14.504 10.846 14.6267 11.0563 14.7144L11.0213 15.4332C11.0213 15.5909 11.0739 15.7487 11.179 15.8539C11.2842 15.9766 11.442 16.0467 11.6349 16.0467C11.7926 16.0467 11.9504 15.9941 12.0731 15.889C12.1958 15.7838 12.266 15.6435 12.266 15.4857L12.301 14.8196C12.9322 14.6618 13.5457 14.1709 13.5633 13.2067C13.5633 13.1892 13.5633 13.1716 13.5633 13.1541V13.0665C13.4931 12.3126 12.827 11.8393 12.2309 11.401L12.1257 11.5413L12.2309 11.401C11.7576 11.0679 11.2842 10.7173 11.3018 10.3842C11.3193 10.0687 11.4595 9.89334 11.705 9.85828C11.9679 9.82322 12.3186 9.94593 12.4413 10.2264C12.4588 10.2966 12.5114 10.3667 12.564 10.4368C12.6166 10.4894 12.6867 10.542 12.7568 10.5771C12.827 10.6121 12.9146 10.6296 13.0023 10.6296C13.0899 10.6296 13.1776 10.6296 13.2477 10.5946C13.3354 10.5595 13.4055 10.5245 13.4581 10.4719C13.5107 10.4193 13.5633 10.3491 13.5983 10.279C13.6334 10.2089 13.6509 10.1212 13.6509 10.0511C13.6509 9.96347 13.6334 9.89334 13.5983 9.82322C13.4756 9.56025 13.3178 9.33235 13.125 9.13951Z"
      fill="#3D3397" />
    <path
      d="M16.5785 9.50776C16.3506 9.50776 16.1578 9.33245 16.1402 9.10455C16.0701 8.36824 15.5792 7.73712 14.8955 7.52675C14.6676 7.45663 14.5449 7.21119 14.615 6.98329C14.6851 6.75539 14.9306 6.63267 15.1585 6.70279C16.1928 7.03588 16.9291 7.9475 17.0168 9.05195C17.0343 9.29739 16.859 9.50776 16.6136 9.52529C16.6136 9.50776 16.596 9.50776 16.5785 9.50776Z"
      fill="#3D3397" />
  </g>
  <defs>
    <clipPath id="clip0_15_1558">
      <rect width="19.4595" height="19.4595" fill="white" transform="translate(2.37836 2.16211)" />
    </clipPath>
  </defs>
</svg>