<svg width="24" height="24" viewBox="0 0 24 24" fill="none" xmlns="http://www.w3.org/2000/svg">
  <path
    d="M12 24C18.6274 24 24 18.6274 24 12C24 5.37258 18.6274 0 12 0C5.37258 0 0 5.37258 0 12C0 18.6274 5.37258 24 12 24Z"
    fill="#EBE9FD" />
  <g clip-path="url(#clip0_15_1574)">
    <path
      d="M11.9503 20.9076C11.6523 20.9076 11.3708 20.8083 11.139 20.6096C9.28463 19.4009 7.67859 17.8942 6.35402 16.1226C5.1288 14.5332 4.44996 12.6456 4.38373 10.6422V10.6091C4.38373 8.58915 5.17847 6.68509 6.61894 5.26118C8.0594 3.83727 9.96347 3.05908 11.9834 3.05908C16.1558 3.07564 19.5335 6.4864 19.5335 10.6588V10.7416C19.4838 13.7384 17.6791 16.2385 16.1724 17.828C15.1458 18.8877 14.0034 19.8314 12.7782 20.6262C12.5298 20.8083 12.2483 20.9076 11.9503 20.9076ZM5.21158 10.6091V10.6257C5.27781 12.447 5.89042 14.1689 6.99975 15.6259C8.27465 17.3313 9.83101 18.7718 11.6026 19.9308C11.6192 19.9473 11.6357 19.9473 11.6523 19.9639C11.8179 20.1129 12.0828 20.1129 12.2483 19.9639C12.2649 19.9473 12.2815 19.9473 12.298 19.9308C13.4901 19.1691 14.5829 18.2585 15.5763 17.232C16.9671 15.7584 18.6559 13.4238 18.7056 10.7085V10.6422C18.7056 6.93344 15.6922 3.90349 11.9834 3.88694H11.9669C10.1787 3.88694 8.48989 4.58234 7.21499 5.84067C5.92354 7.11557 5.21158 8.8044 5.21158 10.6091Z"
      fill="#3D3397" />
    <path
      d="M11.9503 13.4569C10.4602 13.4569 9.23492 12.2482 9.23492 10.7581C9.23492 9.26795 10.4436 8.04272 11.9503 8.04272C13.457 8.04272 14.6657 9.25139 14.6657 10.7581C14.6657 12.2648 13.4404 13.4569 11.9503 13.4569ZM11.9503 8.87058C10.9072 8.87058 10.0628 9.71499 10.0628 10.7581C10.0628 11.8012 10.9072 12.629 11.9503 12.629C12.9934 12.629 13.8378 11.7846 13.8378 10.7581C13.8378 9.69843 12.9934 8.87058 11.9503 8.87058Z"
      fill="#3D3397" />
  </g>
  <defs>
    <clipPath id="clip0_15_1574">
      <rect width="18.3784" height="18.3784" fill="white" transform="translate(2.81079 2.81079)" />
    </clipPath>
  </defs>
</svg>