<svg width="24" height="24" viewBox="0 0 24 24" fill="none" xmlns="http://www.w3.org/2000/svg">
  <path
    d="M12 24C18.6274 24 24 18.6274 24 12C24 5.37258 18.6274 0 12 0C5.37258 0 0 5.37258 0 12C0 18.6274 5.37258 24 12 24Z"
    fill="#EBE9FD" />
  <g clip-path="url(#clip0_15_1532)">
    <path
      d="M16.7655 20.2191H15.2403C14.4689 20.2016 13.8553 19.5704 13.8553 18.8166V16.3798C13.8553 15.9941 13.5397 15.6961 13.1541 15.6961H10.8575C10.4718 15.6961 10.1738 16.0116 10.1738 16.3798V18.8166C10.1738 18.8692 10.1738 18.9043 10.1563 18.9569C10.0861 19.6756 9.47254 20.2366 8.73624 20.2366H7.21104C5.45793 20.2366 4.02039 18.8166 4.02039 17.0635V10.1387C4.02039 9.40243 4.37101 8.71872 4.94953 8.28045L10.1387 4.12559C11.2256 3.26657 12.7333 3.26657 13.8202 4.12559L19.0445 8.29798C19.623 8.73625 19.9561 9.41996 19.9736 10.1387V17.0635C19.9561 18.7991 18.5186 20.2191 16.7655 20.2191ZM13.1365 14.802C14.0131 14.802 14.7143 15.5032 14.7143 16.3623V18.8166C14.7143 19.0971 14.9422 19.3425 15.2403 19.3425H16.7479C18.0277 19.3425 19.062 18.3082 19.062 17.046V10.1387C19.062 9.68293 18.8341 9.26219 18.466 8.98169L13.2592 4.8093C12.5054 4.21324 11.436 4.21324 10.6822 4.8093L5.47546 8.96416C5.08978 9.24465 4.87941 9.68293 4.87941 10.1387V17.046C4.87941 18.3082 5.91374 19.3425 7.19351 19.3425H8.71871C9.01673 19.3425 9.26217 19.0971 9.26217 18.7991C9.26217 18.764 9.26217 18.7289 9.2797 18.6764V16.3798C9.2797 15.5208 9.98094 14.8195 10.84 14.8195H13.1365V14.802Z"
      fill="#3D3397" />
    <path
      d="M11.9796 11.3658C10.9628 11.3658 10.1388 10.5419 10.1388 9.52509C10.1388 8.50829 10.9628 7.68433 11.9796 7.68433C12.9964 7.68433 13.8203 8.50829 13.8203 9.52509C13.8203 10.5419 12.9964 11.3658 11.9796 11.3658ZM11.9796 8.56088C11.4536 8.56088 11.0153 8.99916 11.0153 9.52509C11.0153 10.051 11.4536 10.4893 11.9796 10.4893C12.5055 10.4893 12.9438 10.051 12.9438 9.52509C12.9438 8.99916 12.5055 8.56088 11.9796 8.56088Z"
      fill="#3D3397" />
  </g>
  <defs>
    <clipPath id="clip0_15_1532">
      <rect width="19.4595" height="19.4595" fill="white" transform="translate(2.16217 2.16211)" />
    </clipPath>
  </defs>
</svg>