<svg width="24" height="24" viewBox="0 0 24 24" fill="none" xmlns="http://www.w3.org/2000/svg">
  <path
    d="M12 24C18.6274 24 24 18.6274 24 12C24 5.37258 18.6274 0 12 0C5.37258 0 0 5.37258 0 12C0 18.6274 5.37258 24 12 24Z"
    fill="#EBE9FD" />
  <g clip-path="url(#clip0_15_1576)">
    <path
      d="M10.543 12.6953C9.26807 12.6953 8.22498 11.6522 8.22498 10.3773C8.22498 9.10242 9.26807 8.05933 10.543 8.05933C11.8179 8.05933 12.861 9.10242 12.861 10.3773C12.861 11.6522 11.8179 12.6953 10.543 12.6953ZM10.543 8.88718C9.71511 8.88718 9.05283 9.54946 9.05283 10.3773C9.05283 11.2052 9.71511 11.8675 10.543 11.8675C11.3708 11.8675 12.0331 11.2052 12.0331 10.3773C12.0331 9.54946 11.3543 8.88718 10.543 8.88718Z"
      fill="#3D3397" />
    <path
      d="M16.8016 13.3576L16.4207 13.192C16.3545 13.3576 16.3876 13.5397 16.5035 13.6556L16.8016 13.3576ZM14.8478 15.8742L15.1458 15.5762C14.9968 15.4272 14.765 15.4106 14.5995 15.5431L14.8478 15.8742ZM14.8478 15.8908H15.2617C15.2617 15.7749 15.2121 15.6755 15.1458 15.5928L14.8478 15.8908ZM14.8478 18.2419H14.4339C14.4339 18.4737 14.616 18.6558 14.8478 18.6558V18.2419ZM17.0334 18.2419H17.4473C17.4473 18.0101 17.2652 17.828 17.0334 17.828V18.2419ZM17.0334 20.2288H16.6194C16.6194 20.4605 16.8016 20.6427 17.0334 20.6427V20.2288ZM20.3944 20.2288V20.6427C20.6262 20.6427 20.8084 20.4605 20.8084 20.2288H20.3944ZM19.9971 16.5365L19.699 16.8345L19.9971 16.5365ZM16.9837 10.5263C16.9837 11.47 16.785 12.3807 16.4042 13.192L17.1658 13.5397C17.5797 12.629 17.8115 11.6025 17.8115 10.5428H16.9837V10.5263ZM10.5264 4.05246C14.1027 4.05246 17.0002 6.94996 17.0002 10.5263H17.8281C17.8281 6.50291 14.5663 3.22461 10.5264 3.22461V4.05246ZM4.05259 10.5263C4.05259 6.94996 6.95008 4.05246 10.5264 4.05246V3.22461C6.48648 3.22461 3.22473 6.48636 3.22473 10.5263H4.05259ZM10.5264 16.9836C6.95008 16.9836 4.05259 14.1026 4.05259 10.5263H3.22473C3.22473 14.5497 6.48648 17.828 10.5264 17.828V16.9836ZM14.5829 15.5596C13.4736 16.4537 12.0662 17.0001 10.5264 17.0001V17.828C12.2649 17.828 13.8544 17.2154 15.1127 16.2054L14.5829 15.5596ZM14.5498 16.1723L15.1458 15.5928L15.1293 15.5762L14.5498 16.1723ZM14.4339 15.8908V18.2419H15.2617V15.8908H14.4339ZM14.8478 18.6558H17.0334V17.828H14.8478V18.6558ZM16.6194 18.2419V20.2288H17.4473V18.2419H16.6194ZM17.0334 20.6427H20.3779V19.8148H17.0334V20.6427ZM20.8084 20.2288V17.4637H19.9805V20.2122H20.8084V20.2288ZM20.8084 17.4637C20.8084 17.0001 20.6262 16.5531 20.2951 16.2219L19.7156 16.8014C19.8812 16.967 19.9805 17.1988 19.9805 17.4472H20.8084V17.4637ZM20.2785 16.2385L17.083 13.0595L16.5035 13.639L19.699 16.818L20.2785 16.2385Z"
      fill="#3D3397" />
  </g>
  <defs>
    <clipPath id="clip0_15_1576">
      <rect width="18.3784" height="18.3784" fill="white" transform="translate(2.81079 2.81079)" />
    </clipPath>
  </defs>
</svg>