<svg width="24" height="24" viewBox="0 0 24 24" fill="none" xmlns="http://www.w3.org/2000/svg">
  <g opacity="0.89">
    <path
      d="M12 24C18.6274 24 24 18.6274 24 12C24 5.37258 18.6274 0 12 0C5.37258 0 0 5.37258 0 12C0 18.6274 5.37258 24 12 24Z"
      fill="#EBE9FD" />
    <g clip-path="url(#clip0_252_943)">
      <path
        d="M17.2993 10.129C17.159 9.83291 16.8629 9.64591 16.5201 9.64591H14.7125C14.6813 9.64591 14.6657 9.63033 14.6501 9.59916C14.6346 9.568 14.6346 9.55241 14.6501 9.52125L17.0188 6.04621C17.2058 5.78129 17.2214 5.43846 17.0655 5.15797C16.9097 4.87747 16.6292 4.70605 16.302 4.70605H10.6453C10.318 4.70605 10.0219 4.89305 9.8817 5.17355L6.28199 12.3262C6.14174 12.5911 6.15732 12.9028 6.31316 13.1677C6.46899 13.417 6.74948 13.5729 7.04556 13.5729H9.58562C9.61678 13.5729 9.63237 13.5885 9.64795 13.604C9.66353 13.6196 9.66353 13.6352 9.66353 13.6664L8.52596 19.3386C8.44805 19.7282 8.63505 20.1178 9.00904 20.2892C9.13371 20.3515 9.25837 20.3671 9.38304 20.3671C9.63237 20.3671 9.8817 20.258 10.0531 20.0399L17.2214 11.0484C17.4084 10.7835 17.4551 10.4407 17.2993 10.129ZM16.598 10.5497L9.42979 19.5412C9.4142 19.5568 9.39862 19.588 9.33629 19.5568C9.27395 19.5256 9.28954 19.4945 9.28954 19.4633L10.4271 13.791C10.4739 13.5417 10.4115 13.2768 10.2557 13.0742C10.0999 12.8716 9.85053 12.7625 9.58562 12.7625H7.04556C7.0144 12.7625 6.98323 12.747 6.98323 12.7314C6.96765 12.7158 6.96765 12.6846 6.98323 12.6535L10.5985 5.5008C10.6141 5.46963 10.6453 5.45405 10.6609 5.45405H16.3175C16.3487 5.45405 16.3643 5.46963 16.3799 5.5008C16.3955 5.53196 16.3955 5.56313 16.3799 5.57871L14.0112 9.08492C13.8242 9.34983 13.8087 9.69266 13.9645 9.97316C14.1203 10.2537 14.4008 10.4251 14.7281 10.4251H16.5513C16.5825 10.4251 16.6136 10.4407 16.6292 10.4718C16.6136 10.503 16.6136 10.5342 16.598 10.5497Z"
        fill="#3D3397" />
    </g>
  </g>
  <defs>
    <clipPath id="clip0_252_943">
      <rect width="17.2973" height="17.2973" fill="white" transform="translate(3.24326 3.45947)" />
    </clipPath>
  </defs>
</svg>