<svg width="24" height="24" viewBox="0 0 24 24" fill="none" xmlns="http://www.w3.org/2000/svg">
  <path
    d="M12 24C18.6274 24 24 18.6274 24 12C24 5.37258 18.6274 0 12 0C5.37258 0 0 5.37258 0 12C0 18.6274 5.37258 24 12 24Z"
    fill="#EBE9FD" />
  <g clip-path="url(#clip0_15_1537)">
    <g clip-path="url(#clip1_15_1537)">
      <path
        d="M17.1338 10.4543H3.54722C3.30179 10.4543 3.10895 10.2615 3.10895 10.016C3.10895 9.7706 3.30179 9.57776 3.54722 9.57776H17.1338C17.3792 9.57776 17.5721 9.7706 17.5721 10.016C17.5721 10.2615 17.3792 10.4543 17.1338 10.4543Z"
        fill="#3D3397" />
      <path
        d="M17.4844 13.5047H3.54722C3.30179 13.5047 3.10895 13.3119 3.10895 13.0665C3.10895 12.821 3.30179 12.6282 3.54722 12.6282H17.5019C17.7474 12.6282 17.9402 12.821 17.9402 13.0665C17.9402 13.3119 17.7298 13.5047 17.4844 13.5047Z"
        fill="#3D3397" />
      <path
        d="M7.10597 5.61581H13.5925V4.73926H7.10597V5.61581ZM13.5925 5.61581C15.5209 5.61581 17.0987 7.1936 17.0987 9.12202H17.9752C17.9752 6.70273 16.0117 4.73926 13.5925 4.73926V5.61581ZM17.0987 9.12202V14.5216H17.9752V9.12202H17.0987ZM17.0987 14.5216C17.0987 16.4675 15.5384 18.0278 13.5925 18.0278V18.9043C16.0117 18.9043 17.9752 16.9409 17.9752 14.5216H17.0987ZM13.5925 18.0278H7.10597V18.9043H13.5925V18.0278ZM7.10597 18.0278C5.17755 18.0278 3.59976 16.45 3.59976 14.5216H2.72321C2.72321 16.9409 4.68668 18.9043 7.10597 18.9043V18.0278ZM3.61729 14.5216V9.12202H2.74074V14.5216H3.61729ZM3.61729 9.12202C3.61729 7.17607 5.17755 5.61581 7.1235 5.61581V4.73926C4.70421 4.73926 2.74074 6.70273 2.74074 9.12202H3.61729Z"
        fill="#3D3397" />
      <path
        d="M15.293 15.6085H12.751C12.5056 15.6085 12.3127 15.4156 12.3127 15.1702C12.3127 14.9248 12.5056 14.7319 12.751 14.7319H15.293C15.5385 14.7319 15.7313 14.9248 15.7313 15.1702C15.7313 15.4156 15.5385 15.6085 15.293 15.6085Z"
        fill="#3D3397" />
      <path
        d="M17.572 11.9971C19.4478 11.9971 20.9555 10.4719 20.9555 8.6136C20.9555 6.7553 19.4303 5.2301 17.572 5.2301C15.7137 5.2301 14.1885 6.7553 14.1885 8.6136C14.1885 10.4719 15.6961 11.9971 17.572 11.9971Z"
        fill="#3D3397" />
      <path
        d="M16.8708 10.3317C16.7481 10.3317 16.6429 10.2791 16.5552 10.1915L15.5034 9.08699C15.328 8.91168 15.3456 8.63119 15.5209 8.47341C15.6962 8.2981 15.9767 8.31563 16.1345 8.49094L16.8708 9.26231L18.7817 7.26377C18.957 7.08846 19.2199 7.08846 19.3952 7.24623C19.5706 7.42155 19.5706 7.68451 19.4128 7.85982L17.1863 10.209C17.0987 10.2966 16.9935 10.3317 16.8708 10.3317Z"
        fill="white" />
      <path
        d="M17.5895 11.962C19.4654 11.962 20.973 10.4368 20.973 8.57851C20.973 6.72022 19.4654 5.17749 17.5895 5.17749C15.7137 5.17749 14.2061 6.70269 14.2061 8.56098C14.2061 10.4193 15.7137 11.962 17.5895 11.962Z"
        fill="#3D3397" />
      <path
        d="M17.7123 10.5244C17.4668 10.5244 17.274 10.3316 17.274 10.0862V6.93059C17.274 6.68515 17.4668 6.49231 17.7123 6.49231C17.9577 6.49231 18.1505 6.68515 18.1505 6.93059V10.0862C18.1505 10.3316 17.9577 10.5244 17.7123 10.5244Z"
        fill="white" />
      <path
        d="M19.29 8.94674H16.1344C15.889 8.94674 15.6962 8.7539 15.6962 8.50847C15.6962 8.26303 15.889 8.07019 16.1344 8.07019H19.29C19.5355 8.07019 19.7283 8.26303 19.7283 8.50847C19.7283 8.7539 19.5355 8.94674 19.29 8.94674Z"
        fill="white" />
    </g>
  </g>
  <defs>
    <clipPath id="clip0_15_1537">
      <rect width="19.4595" height="19.4595" fill="white" transform="translate(2.16217 2.16211)" />
    </clipPath>
    <clipPath id="clip1_15_1537">
      <rect width="19.4595" height="19.4595" fill="white" transform="translate(2.16217 2.16211)" />
    </clipPath>
  </defs>
</svg>