<svg width="24" height="24" viewBox="0 0 24 24" fill="none" xmlns="http://www.w3.org/2000/svg">
  <path
    d="M12 24C18.6274 24 24 18.6274 24 12C24 5.37258 18.6274 0 12 0C5.37258 0 0 5.37258 0 12C0 18.6274 5.37258 24 12 24Z"
    fill="#EBE9FD" />
  <g clip-path="url(#clip0_15_1571)">
    <g clip-path="url(#clip1_15_1571)">
      <path
        d="M14.5274 11.214H3.57048C3.32504 11.214 3.1322 11.0211 3.1322 10.7757C3.1322 10.5302 3.32504 10.3374 3.57048 10.3374H14.5098C14.7553 10.3374 14.9481 10.5302 14.9481 10.7757C14.9481 11.0211 14.7553 11.214 14.5274 11.214Z"
        fill="#3D3397" />
      <path
        d="M17.5252 14.2645H3.57048C3.32504 14.2645 3.1322 14.0716 3.1322 13.8262C3.1322 13.5808 3.32504 13.3879 3.57048 13.3879H17.5252C17.7706 13.3879 17.9635 13.5808 17.9635 13.8262C17.9635 14.0716 17.7706 14.2645 17.5252 14.2645Z"
        fill="#3D3397" />
      <path
        d="M18.0161 12.9848C18.0161 12.7393 17.8233 12.5465 17.5778 12.5465C17.3324 12.5465 17.1396 12.7393 17.1396 12.9848H18.0161ZM15.5618 6.9541C15.7721 7.09435 16.0351 7.02422 16.1753 6.83138C16.3156 6.62101 16.2455 6.35804 16.0526 6.2178L15.5618 6.9541ZM7.14686 6.37558H13.6333V5.49902H7.14686V6.37558ZM17.1396 15.2813C17.1396 17.2273 15.5793 18.7876 13.6333 18.7876V19.6641C16.0526 19.6641 18.0161 17.7006 18.0161 15.2813H17.1396ZM13.6333 18.7876H7.14686V19.6641H13.6333V18.7876ZM7.14686 18.7876C5.21845 18.7876 3.64065 17.2098 3.64065 15.2813H2.7641C2.7641 17.7006 4.72758 19.6641 7.14686 19.6641V18.7876ZM3.64065 15.2813V9.88178H2.7641V15.2813H3.64065ZM3.64065 9.88178C3.64065 7.93584 5.20091 6.37558 7.14686 6.37558V5.49902C4.72758 5.49902 2.7641 7.4625 2.7641 9.88178H3.64065ZM18.0161 15.2813V12.9848H17.1396V15.2989H18.0161V15.2813ZM13.6333 6.37558C14.3521 6.37558 15.0008 6.58595 15.5618 6.9541L16.0526 6.2178C15.3689 5.76199 14.5274 5.49902 13.6509 5.49902V6.37558H13.6333Z"
        fill="#3D3397" />
      <path
        d="M15.3339 16.3682H12.7919C12.5465 16.3682 12.3536 16.1754 12.3536 15.93C12.3536 15.6845 12.5465 15.4917 12.7919 15.4917H15.3339C15.5794 15.4917 15.7722 15.6845 15.7722 15.93C15.7722 16.1754 15.5794 16.3682 15.3339 16.3682Z"
        fill="#3D3397" />
      <path
        d="M19.6114 8.23376C19.366 8.23376 19.1732 8.04092 19.1732 7.79549V6.90141C19.1732 6.09498 18.542 5.4288 17.7707 5.4288C17.4025 5.4288 17.0519 5.56905 16.7889 5.84954C16.526 6.13004 16.3682 6.49819 16.3682 6.88387V7.79549C16.3682 8.04092 16.1753 8.23376 15.9299 8.23376C15.6845 8.23376 15.4916 8.04092 15.4916 7.79549V6.90141C15.4916 6.27029 15.7371 5.67423 16.1578 5.23596C16.5961 4.79768 17.1571 4.55225 17.7707 4.55225C17.7707 4.55225 17.7707 4.55225 17.7882 4.55225C19.0329 4.55225 20.0672 5.60411 20.0672 6.90141V7.79549C20.0497 8.04092 19.8569 8.23376 19.6114 8.23376Z"
        fill="#3D3397" />
      <path
        d="M19.4011 13.3179H16.1403C15.0008 13.3179 14.0892 12.3888 14.0892 11.2493V9.40851C14.0892 8.26899 15.0183 7.33984 16.1403 7.33984H19.4011C20.5406 7.33984 21.4522 8.26899 21.4522 9.40851V11.2493C21.4522 12.3888 20.5231 13.3179 19.4011 13.3179ZM16.1403 8.23393C15.4917 8.23393 14.9657 8.75986 14.9657 9.42604V11.2668C14.9657 11.9154 15.4917 12.4589 16.1403 12.4589H19.4011C20.0497 12.4589 20.5757 11.933 20.5757 11.2668V9.40851C20.5757 8.75986 20.0497 8.2164 19.4011 8.2164H16.1403V8.23393Z"
        fill="#3D3397" />
      <path
        d="M17.8583 11.214C17.6129 11.214 17.42 11.0212 17.42 10.7758V9.89921C17.42 9.65378 17.6129 9.46094 17.8583 9.46094C18.1038 9.46094 18.2966 9.65378 18.2966 9.89921V10.7758C18.2966 11.0212 18.1038 11.214 17.8583 11.214Z"
        fill="#3D3397" />
    </g>
  </g>
  <defs>
    <clipPath id="clip0_15_1571">
      <rect width="19.4595" height="19.4595" fill="white" transform="translate(2.37836 2.37842)" />
    </clipPath>
    <clipPath id="clip1_15_1571">
      <rect width="19.4595" height="19.4595" fill="white" transform="translate(2.37836 2.37842)" />
    </clipPath>
  </defs>
</svg>