<svg width="24" height="24" viewBox="0 0 24 24" fill="none" xmlns="http://www.w3.org/2000/svg">
  <path
    d="M12 24C18.6274 24 24 18.6274 24 12C24 5.37258 18.6274 0 12 0C5.37258 0 0 5.37258 0 12C0 18.6274 5.37258 24 12 24Z"
    fill="#EBE9FD" />
  <g clip-path="url(#clip0_15_1554)">
    <g clip-path="url(#clip1_15_1554)">
      <path
        d="M12.1606 19.8394C8.70701 19.8394 5.90204 17.0345 5.90204 13.5808C5.90204 10.1272 8.70701 7.32227 12.1606 7.32227C15.6142 7.32227 18.4192 10.1272 18.4192 13.5808C18.4192 17.0345 15.5967 19.8394 12.1606 19.8394ZM12.1606 8.19882C9.18034 8.19882 6.76106 10.6181 6.76106 13.5808C6.76106 16.5436 9.18034 18.9629 12.1431 18.9629C15.1058 18.9629 17.5251 16.5436 17.5251 13.5808C17.5427 10.6181 15.1234 8.19882 12.1606 8.19882Z"
        fill="#3D3397" />
      <path
        d="M13.1951 11.3718C13.0724 11.2491 12.9146 11.1614 12.7393 11.0913L12.7568 10.653C12.7568 10.6004 12.7568 10.5303 12.7218 10.4777C12.7042 10.4251 12.6692 10.3725 12.6166 10.3199C12.5815 10.2673 12.5289 10.2323 12.4588 10.2147C12.4062 10.1972 12.3361 10.1797 12.266 10.1797C12.1432 10.1797 12.0205 10.2147 11.9153 10.3024C11.8277 10.3901 11.7576 10.4952 11.7576 10.618L11.74 11.0212C11.2667 11.1439 10.7758 11.5296 10.7583 12.2834C10.7232 13.0197 11.3544 13.4931 11.8628 13.8612L11.8978 13.8963C12.1783 14.1066 12.4939 14.3521 12.5114 14.5274C12.5114 14.7553 12.4062 14.878 12.2309 14.9131C12.003 14.9481 11.7225 14.8429 11.6348 14.615C11.6173 14.5625 11.5823 14.5099 11.5297 14.4573C11.4946 14.4047 11.442 14.3696 11.3719 14.3521C11.3193 14.3345 11.2492 14.317 11.1966 14.317C11.1264 14.317 11.0739 14.317 11.0037 14.3521C10.9511 14.3696 10.8985 14.4047 10.846 14.4397C10.7934 14.4748 10.7583 14.5274 10.7408 14.58C10.7232 14.6326 10.7057 14.6852 10.6882 14.7553C10.6882 14.8254 10.6882 14.878 10.7232 14.9306C10.7934 15.1234 10.9161 15.2988 11.0739 15.439C11.1966 15.5617 11.3544 15.6494 11.5297 15.7195L11.5121 16.2805C11.5121 16.4032 11.5472 16.5259 11.6348 16.6136C11.7225 16.7012 11.8452 16.7538 11.9855 16.7714C12.1082 16.7714 12.2309 16.7188 12.3186 16.6486C12.4062 16.561 12.4588 16.4558 12.4588 16.3331L12.4763 15.8072C12.9672 15.6844 13.4405 15.2988 13.4581 14.5449C13.4581 14.5274 13.4581 14.5099 13.4581 14.5099V14.4397C13.4055 13.8437 12.8796 13.4755 12.4237 13.1424L12.3361 13.2476L12.4237 13.1424C12.0556 12.8795 11.6874 12.599 11.705 12.336C11.7225 12.0906 11.8277 11.9503 12.0205 11.9153C12.2309 11.8802 12.5114 11.9854 12.5991 12.2133C12.6166 12.2659 12.6516 12.336 12.6867 12.3711C12.7218 12.4237 12.7744 12.4587 12.8445 12.4938C12.8971 12.5288 12.9672 12.5464 13.0373 12.5464C13.1075 12.5464 13.16 12.5464 13.2302 12.5113C13.3003 12.4938 13.3529 12.4587 13.388 12.4061C13.4405 12.3711 13.4756 12.3185 13.4931 12.2484C13.5107 12.1958 13.5282 12.1256 13.5282 12.073C13.5282 12.0204 13.5107 11.9503 13.4931 11.8977C13.4756 11.6874 13.3529 11.512 13.1951 11.3718Z"
        fill="#3D3397" />
      <path
        d="M7.21695 17.1222H7.19942C6.02484 17.0696 5.14829 16.7189 4.60482 16.0703C4.11395 15.4918 3.92111 14.7029 4.00877 13.7036C3.32506 13.1777 2.92184 12.5816 2.83419 11.9505C2.67641 10.846 3.44777 9.93443 3.86852 9.44356C3.92111 9.37344 3.97371 9.30331 4.0263 9.25072C4.0263 9.23319 4.0263 9.19813 4.00877 9.16307C3.92111 8.6196 3.72827 7.35737 4.37692 6.46329C4.72754 5.98995 5.25347 5.69192 5.93718 5.60426C7.26954 5.41142 8.6019 6.32304 9.58364 8.1112C9.70636 8.32158 9.6187 8.58454 9.40833 8.70726C9.19796 8.82998 8.93499 8.74232 8.81227 8.53195C8.42659 7.84824 7.40979 6.27044 6.0599 6.46329C5.60409 6.53341 5.28853 6.69119 5.07816 6.97169C4.63989 7.56774 4.79767 8.58454 4.86779 9.02282C4.88532 9.16307 4.90285 9.25072 4.90285 9.32085C4.90285 9.54875 4.7626 9.70653 4.5347 9.98703C4.18408 10.4078 3.60555 11.109 3.69321 11.8103C3.76333 12.2661 4.09642 12.7043 4.71001 13.1251L4.93791 13.2829L4.90285 13.5458C4.78013 14.4048 4.92038 15.0535 5.28853 15.4918C5.65669 15.9476 6.32287 16.193 7.23448 16.2281C7.47992 16.2456 7.65523 16.4384 7.65523 16.6839C7.65523 16.9468 7.46238 17.1222 7.21695 17.1222Z"
        fill="#3D3397" />
      <path
        d="M17.1746 17.1221C16.9467 17.1221 16.7538 16.9468 16.7363 16.7013C16.7188 16.4559 16.9116 16.263 17.1571 16.2455C18.0687 16.2105 18.7349 15.9475 19.103 15.5092C19.4712 15.0709 19.5939 14.4223 19.4887 13.5633L19.4536 13.3003L19.6815 13.1425C20.2951 12.7218 20.6282 12.2835 20.6983 11.8277C20.8035 11.1089 20.2075 10.4077 19.8568 10.0045C19.6289 9.72397 19.4887 9.56619 19.4887 9.33829C19.4887 9.26816 19.5062 9.16298 19.5238 9.04026C19.5939 8.60198 19.7517 7.58518 19.3134 6.98913C19.103 6.70863 18.7874 6.53332 18.3316 6.48073C16.9292 6.28788 15.8948 7.91827 15.5267 8.63704C15.404 8.84742 15.141 8.93507 14.9306 8.81235C14.7202 8.70717 14.6326 8.42667 14.7553 8.2163C15.2286 7.33975 16.5259 5.32368 18.4719 5.60417C19.1556 5.70936 19.6991 5.98986 20.0322 6.46319C20.6983 7.35728 20.488 8.61951 20.4003 9.16298C20.4003 9.19804 20.3828 9.21557 20.3828 9.25063C20.4178 9.30322 20.488 9.37335 20.5406 9.44347C20.9613 9.93434 21.7327 10.8635 21.5749 11.9504C21.4872 12.5991 21.084 13.1951 20.4003 13.7035C20.488 14.6853 20.2776 15.4917 19.8042 16.0702C19.2608 16.7189 18.4018 17.0695 17.2097 17.1221C17.1746 17.1221 17.1746 17.1221 17.1746 17.1221Z"
        fill="#3D3397" />
    </g>
  </g>
  <defs>
    <clipPath id="clip0_15_1554">
      <rect width="19.4595" height="19.4595" fill="white" transform="translate(2.37836 3.0271)" />
    </clipPath>
    <clipPath id="clip1_15_1554">
      <rect width="19.4595" height="19.4595" fill="white" transform="translate(2.37836 3.0271)" />
    </clipPath>
  </defs>
</svg>