<svg width="24" height="24" viewBox="0 0 24 24" fill="none" xmlns="http://www.w3.org/2000/svg">
  <path
    d="M12 24C18.6274 24 24 18.6274 24 12C24 5.37258 18.6274 0 12 0C5.37258 0 0 5.37258 0 12C0 18.6274 5.37258 24 12 24Z"
    fill="#EBE9FD" />
  <g clip-path="url(#clip0_15_1540)">
    <g clip-path="url(#clip1_15_1540)">
      <path
        d="M14.2236 10.5245H3.26668C3.02124 10.5245 2.8284 10.3317 2.8284 10.0862C2.8284 9.84079 3.02124 9.64795 3.26668 9.64795H14.206C14.4515 9.64795 14.6443 9.84079 14.6443 10.0862C14.6443 10.3317 14.4515 10.5245 14.2236 10.5245Z"
        fill="#3D3397" />
      <path
        d="M17.2214 13.5748H3.26668C3.02124 13.5748 2.8284 13.382 2.8284 13.1365C2.8284 12.8911 3.02124 12.6982 3.26668 12.6982H17.2214C17.4668 12.6982 17.6597 12.8911 17.6597 13.1365C17.6597 13.382 17.4668 13.5748 17.2214 13.5748Z"
        fill="#3D3397" />
      <path
        d="M17.7122 12.2776C17.7122 12.0321 17.5194 11.8393 17.274 11.8393C17.0285 11.8393 16.8357 12.0321 16.8357 12.2776H17.7122ZM15.2579 6.2644C15.4683 6.40465 15.7312 6.33453 15.8715 6.14169C16.0117 5.93131 15.9416 5.66835 15.7488 5.5281L15.2579 6.2644ZM6.843 5.68588H13.3295V4.80933H6.843V5.68588ZM16.8357 14.5916C16.8357 16.5376 15.2754 18.0979 13.3295 18.0979V18.9744C15.7488 18.9744 17.7122 17.0109 17.7122 14.5916H16.8357ZM13.3295 18.0979H6.843V18.9744H13.3295V18.0979ZM6.843 18.0979C4.91458 18.0979 3.33679 16.5201 3.33679 14.5916H2.46024C2.46024 17.0109 4.42371 18.9744 6.843 18.9744V18.0979ZM3.33679 14.5916V9.19209H2.46024V14.5916H3.33679ZM3.33679 9.19209C3.33679 7.24614 4.89705 5.68588 6.843 5.68588V4.80933C4.42371 4.80933 2.46024 6.7728 2.46024 9.19209H3.33679ZM17.7122 14.5916V12.2776H16.8357V14.5916H17.7122ZM13.3295 5.68588C14.0483 5.68588 14.6969 5.89625 15.2579 6.2644L15.7488 5.5281C15.0651 5.07229 14.2236 4.80933 13.347 4.80933V5.68588H13.3295Z"
        fill="#3D3397" />
      <path
        d="M15.03 15.6786H12.488C12.2426 15.6786 12.0497 15.4857 12.0497 15.2403C12.0497 14.9948 12.2426 14.802 12.488 14.802H15.03C15.2755 14.802 15.4683 14.9948 15.4683 15.2403C15.4683 15.4857 15.2755 15.6786 15.03 15.6786Z"
        fill="#3D3397" />
      <path
        d="M17.5019 12.6457C15.3982 12.6457 13.6801 10.9277 13.6801 8.82397C13.6801 6.72024 15.3982 5.0022 17.5019 5.0022C19.6056 5.0022 21.3237 6.72024 21.3237 8.82397C21.3237 10.9277 19.6056 12.6457 17.5019 12.6457ZM17.5019 5.86122C15.8715 5.86122 14.5567 7.17605 14.5567 8.80644C14.5567 10.4368 15.8715 11.7517 17.5019 11.7517C19.1323 11.7517 20.4471 10.4368 20.4471 8.80644C20.4471 7.19358 19.1147 5.86122 17.5019 5.86122Z"
        fill="#3D3397" />
      <path
        d="M17.4493 9.43755C17.2039 9.43755 17.011 9.24471 17.011 8.99928V7.35136C17.011 7.10593 17.2039 6.91309 17.4493 6.91309C17.6947 6.91309 17.8876 7.10593 17.8876 7.35136V8.99928C17.8876 9.24471 17.6947 9.43755 17.4493 9.43755Z"
        fill="#3D3397" />
      <path
        d="M17.4493 10.6297C17.2039 10.6297 17.011 10.4369 17.011 10.1914C17.011 9.94602 17.2039 9.75317 17.4493 9.75317C17.6947 9.75317 17.8876 9.94602 17.8876 10.1914C17.8876 10.4369 17.6947 10.6297 17.4493 10.6297Z"
        fill="#3D3397" />
    </g>
  </g>
  <defs>
    <clipPath id="clip0_15_1540">
      <rect width="19.4595" height="19.4595" fill="white" transform="translate(2.16217 2.16211)" />
    </clipPath>
    <clipPath id="clip1_15_1540">
      <rect width="19.4595" height="19.4595" fill="white" transform="translate(2.16217 2.16211)" />
    </clipPath>
  </defs>
</svg>