<svg width="24" height="24" viewBox="0 0 24 24" fill="none" xmlns="http://www.w3.org/2000/svg">
  <path
    d="M12 24C18.6274 24 24 18.6274 24 12C24 5.37258 18.6274 0 12 0C5.37258 0 0 5.37258 0 12C0 18.6274 5.37258 24 12 24Z"
    fill="#EBE9FD" />
  <g clip-path="url(#clip0_15_1539)">
    <path
      d="M6.53901 16.1255C6.29358 16.1255 6.10074 15.9327 6.10074 15.6872V11.3045C6.10074 11.0591 6.29358 10.8662 6.53901 10.8662C6.78445 10.8662 6.97729 11.0591 6.97729 11.3045V15.6872C6.97729 15.9327 6.78445 16.1255 6.53901 16.1255Z"
      fill="#3D3397" />
    <path
      d="M10.0452 16.1255C9.79981 16.1255 9.60696 15.9327 9.60696 15.6872V11.3045C9.60696 11.0591 9.79981 10.8662 10.0452 10.8662C10.2907 10.8662 10.4835 11.0591 10.4835 11.3045V15.6872C10.4835 15.9327 10.2907 16.1255 10.0452 16.1255Z"
      fill="#3D3397" />
    <path
      d="M13.3761 16.1255C13.1307 16.1255 12.9379 15.9327 12.9379 15.6872V11.3045C12.9379 11.0591 13.1307 10.8662 13.3761 10.8662C13.6216 10.8662 13.8144 11.0591 13.8144 11.3045V15.6872C13.8144 15.9327 13.6216 16.1255 13.3761 16.1255Z"
      fill="#3D3397" />
    <path
      d="M16.8823 16.1255C16.6369 16.1255 16.4441 15.9327 16.4441 15.6872V11.3045C16.4441 11.0591 16.6369 10.8662 16.8823 10.8662C17.1278 10.8662 17.3206 11.0591 17.3206 11.3045V15.6872C17.3206 15.9327 17.1278 16.1255 16.8823 16.1255Z"
      fill="#3D3397" />
    <path
      d="M19.3367 19.1058H4.25999C4.01456 19.1058 3.82172 18.913 3.82172 18.6676V18.4046C3.82172 16.7216 5.20667 15.3367 6.88965 15.3367H16.707C18.39 15.3367 19.775 16.7216 19.775 18.4046V18.6676C19.775 18.913 19.5821 19.1058 19.3367 19.1058ZM4.69827 18.2293H18.8809C18.7932 17.1073 17.8641 16.2132 16.707 16.2132H6.88965C5.7326 16.2132 4.80345 17.1073 4.69827 18.2293Z"
      fill="#3D3397" />
    <path
      d="M17.9693 11.4447H5.45212C4.73335 11.4447 4.11977 11.0064 3.87433 10.3227C3.64643 9.63903 3.8568 8.92025 4.41779 8.46445L10.6764 3.50316C11.29 3.01229 12.1315 3.01229 12.745 3.50316L19.0036 8.46445C19.5646 8.90272 19.775 9.63903 19.5471 10.3227C19.3192 10.9889 18.7056 11.4447 17.9693 11.4447ZM11.2198 4.18687L4.96126 9.14816C4.6457 9.41112 4.61063 9.76174 4.69829 10.0247C4.78594 10.2877 5.03138 10.5506 5.43459 10.5506H17.9693C18.39 10.5506 18.6179 10.2701 18.7056 10.0247C18.7932 9.76174 18.7757 9.41112 18.4426 9.14816L12.2016 4.18687C11.9035 3.95897 11.5179 3.95897 11.2198 4.18687Z"
      fill="#3D3397" />
    <path
      d="M11.7983 9.46375C10.7815 9.46375 9.95758 8.63979 9.95758 7.62299C9.95758 6.60619 10.7815 5.78223 11.7983 5.78223C12.8151 5.78223 13.6391 6.60619 13.6391 7.62299C13.6391 8.63979 12.8151 9.46375 11.7983 9.46375ZM11.7983 6.65878C11.2724 6.65878 10.8341 7.09705 10.8341 7.62299C10.8341 8.14892 11.2724 8.58719 11.7983 8.58719C12.3243 8.58719 12.7625 8.14892 12.7625 7.62299C12.7625 7.09705 12.3243 6.65878 11.7983 6.65878Z"
      fill="#3D3397" />
  </g>
  <defs>
    <clipPath id="clip0_15_1539">
      <rect width="19.4595" height="19.4595" fill="white" transform="translate(2.16217 1.51343)" />
    </clipPath>
  </defs>
</svg>