<svg width="24" height="24" viewBox="0 0 24 24" fill="none" xmlns="http://www.w3.org/2000/svg">
  <g clip-path="url(#clip0_15_1583)">
    <path
      d="M12 23.5676C18.6274 23.5676 24 18.2918 24 11.7838C24 5.27578 18.6274 0 12 0C5.37258 0 0 5.27578 0 11.7838C0 18.2918 5.37258 23.5676 12 23.5676Z"
      fill="#EBE9FD" />
  </g>
  <g clip-path="url(#clip1_15_1583)">
    <path
      d="M15.6844 20.658H8.47919C6.28781 20.658 4.56976 18.9365 4.56976 16.7502V7.24741C4.56976 5.21602 6.35793 3.51172 8.47919 3.51172H14.4923C14.6151 3.51172 14.7202 3.56336 14.8079 3.64944L19.3835 8.31475C19.4536 8.40083 19.5062 8.50412 19.5062 8.60741V16.733C19.5062 18.8677 17.7531 20.658 15.6844 20.658ZM8.47919 4.37248C6.83127 4.37248 5.44632 5.69805 5.44632 7.24741V16.7502C5.44632 18.4545 6.77867 19.7973 8.47919 19.7973H15.702C17.2973 19.7973 18.6297 18.4028 18.6297 16.7502V8.79678L14.2995 4.37248H8.47919Z"
      fill="#3D3397" />
    <path
      d="M18.1212 9.22728C17.718 9.22728 17.2096 9.22728 16.5785 9.22728C15.0533 9.22728 13.8261 8.005 13.8261 6.50728V3.92501C13.8261 3.684 14.019 3.49463 14.2644 3.49463C14.5098 3.49463 14.7027 3.684 14.7027 3.92501V6.50728C14.7027 7.52298 15.5442 8.36652 16.5785 8.36652C18.279 8.36652 18.9802 8.36652 19.0504 8.36652C19.2958 8.34931 19.4886 8.53867 19.5062 8.77969C19.5237 9.0207 19.3309 9.21007 19.103 9.22728C19.0328 9.22728 18.7173 9.22728 18.1212 9.22728Z"
      fill="#3D3397" />
    <path
      d="M15.2988 16.2509H8.7772C8.53177 16.2509 8.33893 16.0615 8.33893 15.8205C8.33893 15.5795 8.53177 15.3901 8.7772 15.3901H15.2988C15.5442 15.3901 15.737 15.5795 15.737 15.8205C15.737 16.0615 15.5442 16.2509 15.2988 16.2509Z"
      fill="#3D3397" />
    <path
      d="M15.2988 12.5497H8.7772C8.53177 12.5497 8.33893 12.3604 8.33893 12.1193C8.33893 11.8783 8.53177 11.689 8.7772 11.689H15.2988C15.5442 11.689 15.737 11.8783 15.737 12.1193C15.737 12.3604 15.5442 12.5497 15.2988 12.5497Z"
      fill="#3D3397" />
    <path
      d="M11.2666 8.83122H8.7772C8.53177 8.83122 8.33893 8.64185 8.33893 8.40084C8.33893 8.15983 8.53177 7.97046 8.7772 7.97046H11.2666C11.512 7.97046 11.7049 8.15983 11.7049 8.40084C11.7049 8.64185 11.512 8.83122 11.2666 8.83122Z"
      fill="#3D3397" />
  </g>
  <defs>
    <clipPath id="clip0_15_1583">
      <rect width="24" height="23.5676" fill="white" />
    </clipPath>
    <clipPath id="clip1_15_1583">
      <rect width="19.4595" height="19.1088" fill="white" transform="translate(2.37836 2.54785)" />
    </clipPath>
  </defs>
</svg>