<svg width="24" height="24" viewBox="0 0 24 24" fill="none" xmlns="http://www.w3.org/2000/svg">
  <path
    d="M12 24C18.6274 24 24 18.6274 24 12C24 5.37258 18.6274 0 12 0C5.37258 0 0 5.37258 0 12C0 18.6274 5.37258 24 12 24Z"
    fill="#EBE9FD" />
  <g clip-path="url(#clip0_15_1564)">
    <g clip-path="url(#clip1_15_1564)">
      <path
        d="M12.1081 12.4588C9.46095 12.4588 7.30463 10.3025 7.30463 7.65531C7.30463 5.00812 9.46095 2.85181 12.1081 2.85181C14.7729 2.85181 16.9292 5.00812 16.9292 7.65531C16.9292 10.3025 14.7729 12.4588 12.1081 12.4588ZM12.1081 3.72836C9.93428 3.72836 8.18118 5.49899 8.18118 7.65531C8.18118 9.81163 9.95181 11.5823 12.1081 11.5823C14.2645 11.5823 16.0526 9.81163 16.0526 7.65531C16.0526 5.49899 14.282 3.72836 12.1081 3.72836Z"
        fill="#3D3397" />
      <path
        d="M12.1256 20.5057C11.7049 20.5057 11.2666 20.4882 10.8459 20.4706C10.6004 20.4706 10.3375 20.4706 10.057 20.4181C9.32066 20.3655 8.60189 20.2603 7.88311 20.1025C6.37544 19.8045 5.41124 19.2259 4.99049 18.3845C4.83271 18.0514 4.74506 17.6657 4.74506 17.2975C4.74506 16.9294 4.83271 16.5612 4.99049 16.2106C5.53395 15.1237 7.02409 14.6679 7.88311 14.4926C8.60189 14.3348 9.33819 14.2296 10.092 14.177C11.4419 14.0543 12.8093 14.0543 14.1768 14.177C14.9131 14.2296 15.6494 14.3348 16.3681 14.4926C17.8758 14.8081 18.8575 15.3866 19.2432 16.2106C19.5763 16.8943 19.5763 17.6832 19.2432 18.3669C18.84 19.2084 17.8758 19.7869 16.3506 20.085C15.6318 20.2427 14.8955 20.3479 14.1592 20.4005C13.4755 20.4706 12.7918 20.5057 12.1256 20.5057ZM12.1081 14.9834C11.4594 14.9834 10.7933 15.0185 10.1446 15.0711C9.44338 15.1237 8.74213 15.2113 8.05842 15.3691C6.88384 15.6145 6.05988 16.0704 5.77939 16.6138C5.6742 16.8242 5.62161 17.0696 5.62161 17.2975C5.62161 17.543 5.6742 17.7884 5.77939 17.9988C6.13001 18.7175 7.21693 19.0682 8.05842 19.2259C8.74213 19.3837 9.44338 19.4889 10.1446 19.524C10.1621 19.524 10.1797 19.524 10.1972 19.524C10.4076 19.559 10.618 19.559 10.8634 19.559H10.8809C11.9503 19.6116 13.0197 19.5941 14.0891 19.5064C14.7903 19.4538 15.4916 19.3487 16.1753 19.2084C17.0343 19.0331 18.1037 18.7 18.4543 17.9812C18.6647 17.543 18.6647 17.017 18.4543 16.5788C18.1914 16.0178 17.4025 15.5795 16.1928 15.334C15.5091 15.1938 14.8079 15.0886 14.1066 15.036C13.4229 15.0185 12.7743 14.9834 12.1081 14.9834Z"
        fill="#3D3397" />
    </g>
  </g>
  <defs>
    <clipPath id="clip0_15_1564">
      <rect width="19.4595" height="19.4595" fill="white" transform="translate(2.37836 2.37842)" />
    </clipPath>
    <clipPath id="clip1_15_1564">
      <rect width="19.4595" height="19.4595" fill="white" transform="translate(2.37836 2.37842)" />
    </clipPath>
  </defs>
</svg>