<svg width="16" height="16" viewBox="0 0 16 16" fill="none" xmlns="http://www.w3.org/2000/svg">
<path fill-rule="evenodd" clip-rule="evenodd" d="M13.1136 2.88981C13.4065 3.18736 13.4065 3.66977 13.1136 3.96731L9.14391 7.99999L13.1136 12.0327C13.4065 12.3302 13.4065 12.8126 13.1136 13.1102C12.8207 13.4077 12.3458 13.4077 12.0529 13.1102L7.55292 8.53874C7.26003 8.2412 7.26003 7.75879 7.55292 7.46124L12.0529 2.88981C12.3458 2.59227 12.8207 2.59227 13.1136 2.88981Z" fill="#0EB753"/>
<path fill-rule="evenodd" clip-rule="evenodd" d="M2.8863 2.88981C2.5934 3.18736 2.5934 3.66977 2.8863 3.96731L6.85597 7.99999L2.8863 12.0327C2.5934 12.3302 2.5934 12.8126 2.8863 13.1102C3.17919 13.4077 3.65406 13.4077 3.94696 13.1102L8.44696 8.53874C8.73985 8.2412 8.73985 7.75879 8.44696 7.46124L3.94696 2.88981C3.65406 2.59227 3.17919 2.59227 2.8863 2.88981Z" fill="#0EB753"/>
</svg>
