<svg width="16" height="24" viewBox="0 0 16 24" fill="none" xmlns="http://www.w3.org/2000/svg">
<path fill-rule="evenodd" clip-rule="evenodd" d="M13.1136 6.88981C13.4065 7.18736 13.4065 7.66977 13.1136 7.96731L9.14391 12L13.1136 16.0327C13.4065 16.3302 13.4065 16.8126 13.1136 17.1102C12.8207 17.4077 12.3458 17.4077 12.0529 17.1102L7.55292 12.5387C7.26003 12.2412 7.26003 11.7588 7.55292 11.4612L12.0529 6.88981C12.3458 6.59227 12.8207 6.59227 13.1136 6.88981Z" fill="#A46217"/>
<path fill-rule="evenodd" clip-rule="evenodd" d="M2.8863 6.88981C2.5934 7.18736 2.5934 7.66977 2.8863 7.96731L6.85597 12L2.8863 16.0327C2.5934 16.3302 2.5934 16.8126 2.8863 17.1102C3.17919 17.4077 3.65406 17.4077 3.94696 17.1102L8.44696 12.5387C8.73985 12.2412 8.73985 11.7588 8.44696 11.4612L3.94696 6.88981C3.65406 6.59227 3.17919 6.59227 2.8863 6.88981Z" fill="#A46217"/>
</svg>
