<svg width="16" height="24" viewBox="0 0 16 24" fill="none" xmlns="http://www.w3.org/2000/svg">
<path fill-rule="evenodd" clip-rule="evenodd" d="M13.1137 6.88981C13.4066 7.18736 13.4066 7.66977 13.1137 7.96731L9.14403 12L13.1137 16.0327C13.4066 16.3302 13.4066 16.8126 13.1137 17.1102C12.8208 17.4077 12.3459 17.4077 12.053 17.1102L7.55304 12.5387C7.26015 12.2412 7.26015 11.7588 7.55304 11.4612L12.053 6.88981C12.3459 6.59227 12.8208 6.59227 13.1137 6.88981Z" fill="#E4422C"/>
<path fill-rule="evenodd" clip-rule="evenodd" d="M2.88636 6.88981C2.59347 7.18736 2.59347 7.66977 2.88636 7.96731L6.85603 12L2.88636 16.0327C2.59347 16.3302 2.59347 16.8126 2.88636 17.1102C3.17925 17.4077 3.65413 17.4077 3.94702 17.1102L8.44702 12.5387C8.73991 12.2412 8.73991 11.7588 8.44702 11.4612L3.94702 6.88981C3.65413 6.59227 3.17925 6.59227 2.88636 6.88981Z" fill="#E4422C"/>
</svg>
