<svg width="16" height="24" viewBox="0 0 16 24" fill="none" xmlns="http://www.w3.org/2000/svg">
  <path fill-rule="evenodd" clip-rule="evenodd"
    d="M11.1137 0.889813C11.4066 1.18736 11.4066 1.66977 11.1137 1.96731L7.14403 5.99999L11.1137 10.0327C11.4066 10.3302 11.4066 10.8126 11.1137 11.1102C10.8208 11.4077 10.3459 11.4077 10.053 11.1102L5.55304 6.53874C5.26015 6.2412 5.26015 5.75879 5.55304 5.46124L10.053 0.889813C10.3459 0.592271 10.8208 0.592271 11.1137 0.889813Z"
    fill="white" />
  <path fill-rule="evenodd" clip-rule="evenodd"
    d="M0.886359 0.889813C0.593466 1.18736 0.593466 1.66977 0.886359 1.96731L4.85603 5.99999L0.886359 10.0327C0.593466 10.3302 0.593466 10.8126 0.886359 11.1102C1.17925 11.4077 1.65413 11.4077 1.94702 11.1102L6.44702 6.53874C6.73991 6.2412 6.73991 5.75879 6.44702 5.46124L1.94702 0.889813C1.65413 0.592271 1.17925 0.592271 0.886359 0.889813Z"
    fill="white" />
</svg>