<svg width="16" height="16" viewBox="0 0 16 16" fill="none" xmlns="http://www.w3.org/2000/svg">
  <path fill-rule="evenodd" clip-rule="evenodd"
    d="M13.1143 2.88966C13.4072 3.1872 13.4072 3.66961 13.1143 3.96716L9.14464 7.99984L13.1143 12.0325C13.4072 12.3301 13.4072 12.8125 13.1143 13.11C12.8214 13.4076 12.3465 13.4076 12.0537 13.11L7.55365 8.53859C7.26076 8.24104 7.26076 7.75863 7.55365 7.46109L12.0537 2.88966C12.3465 2.59212 12.8214 2.59212 13.1143 2.88966Z"
    fill="#1F1D25" />
  <path fill-rule="evenodd" clip-rule="evenodd"
    d="M2.88666 2.88966C2.59377 3.1872 2.59377 3.66961 2.88666 3.96716L6.85633 7.99984L2.88666 12.0325C2.59377 12.3301 2.59377 12.8125 2.88666 13.11C3.17956 13.4076 3.65443 13.4076 3.94732 13.11L8.44732 8.53859C8.74022 8.24104 8.74022 7.75863 8.44732 7.46109L3.94732 2.88966C3.65443 2.59212 3.17956 2.59212 2.88666 2.88966Z"
    fill="#1F1D25" />
</svg>