<svg width="17" height="21" viewBox="0 0 17 21" fill="#54616D" stroke="#54616D" xmlns="http://www.w3.org/2000/svg">
    <path d="M7.56141 3.94208L6.27207 5.23147C6.17806 5.32098 6.05289 5.37044 5.92301 5.36932C5.79193 5.36818 5.66653 5.3156 5.57384 5.2229C5.48114 5.13019 5.42855 5.00479 5.42741 4.87368C5.42629 4.74378 5.47575 4.61859 5.56525 4.52457L8.56147 1.52822C8.56149 1.5282 8.56151 1.52819 8.56152 1.52817C8.65528 1.43447 8.78239 1.38184 8.91493 1.38184C9.04747 1.38184 9.17459 1.43447 9.26834 1.52817C9.26836 1.52819 9.26837 1.5282 9.26839 1.52822L12.2646 4.52458C12.3541 4.6186 12.4036 4.74378 12.4024 4.87368C12.4013 5.00479 12.3487 5.13019 12.256 5.2229C12.1633 5.3156 12.0379 5.36818 11.9069 5.36932C11.777 5.37044 11.6518 5.32099 11.5578 5.23149L10.2684 3.94208L9.41489 3.08848V4.29562V13.8816C9.41489 14.0142 9.36221 14.1414 9.26845 14.2352C9.17468 14.3289 9.04752 14.3816 8.91493 14.3816C8.78234 14.3816 8.65518 14.3289 8.56142 14.2352C8.46765 14.1414 8.41498 14.0142 8.41498 13.8816V4.29562V3.08848L7.56141 3.94208ZM2.9152 9.38162H2.4152V9.88162V18.8816V19.3816H2.9152H14.9147H15.4147V18.8816V9.88162V9.38162H14.9147H12.9148C12.7822 9.38162 12.655 9.32895 12.5612 9.23518C12.4675 9.14142 12.4148 9.01424 12.4148 8.88162C12.4148 8.74901 12.4675 8.62183 12.5612 8.52806C12.655 8.4343 12.7822 8.38162 12.9148 8.38162H14.9147C15.3125 8.38162 15.694 8.53965 15.9753 8.82095C16.2565 9.10226 16.4146 9.48379 16.4146 9.88162V18.8816C16.4146 19.2795 16.2565 19.661 15.9753 19.9423C15.694 20.2236 15.3125 20.3816 14.9147 20.3816H2.9152C2.5174 20.3816 2.13589 20.2236 1.8546 19.9423C1.57331 19.661 1.41528 19.2795 1.41528 18.8816V9.88162C1.41528 9.48379 1.57331 9.10226 1.85461 8.82095C2.13589 8.53965 2.5174 8.38162 2.9152 8.38162H4.91511C5.0477 8.38162 5.17486 8.4343 5.26862 8.52806C5.36238 8.62183 5.41506 8.74901 5.41506 8.88162C5.41506 9.01424 5.36238 9.14142 5.26862 9.23518C5.17486 9.32895 5.0477 9.38162 4.91511 9.38162H2.9152Z" />
</svg>
