<svg width="24" height="24" viewBox="0 0 24 24" fill="none" xmlns="http://www.w3.org/2000/svg">
  <path
    d="M21.0511 18.7081L13.0622 3.87222C12.4959 2.82034 10.9875 2.82034 10.4207 3.87222L2.43232 18.7081C2.30937 18.9365 2.24773 19.1928 2.25341 19.4521C2.2591 19.7114 2.33191 19.9648 2.46474 20.1875C2.59758 20.4103 2.7859 20.5948 3.01132 20.723C3.23674 20.8513 3.49156 20.9189 3.75091 20.9192H19.7301C19.9897 20.9193 20.2448 20.852 20.4705 20.7239C20.6963 20.5958 20.8849 20.4113 21.018 20.1885C21.1511 19.9657 21.2242 19.7122 21.2299 19.4527C21.2357 19.1932 21.1741 18.9367 21.0511 18.7081ZM11.7417 18.6224C11.5563 18.6224 11.375 18.5674 11.2208 18.4644C11.0667 18.3614 10.9465 18.2149 10.8755 18.0436C10.8046 17.8723 10.786 17.6838 10.8222 17.502C10.8584 17.3201 10.9477 17.1531 11.0788 17.022C11.2099 16.8908 11.3769 16.8016 11.5588 16.7654C11.7406 16.7292 11.9291 16.7478 12.1005 16.8187C12.2718 16.8897 12.4182 17.0098 12.5212 17.164C12.6242 17.3182 12.6792 17.4994 12.6792 17.6849C12.6792 17.808 12.6549 17.9299 12.6078 18.0436C12.5607 18.1574 12.4917 18.2607 12.4046 18.3478C12.3175 18.4348 12.2142 18.5039 12.1005 18.551C11.9867 18.5981 11.8648 18.6224 11.7417 18.6224ZM12.7598 9.19347L12.4907 14.9122C12.4907 15.1111 12.4117 15.3019 12.2711 15.4425C12.1304 15.5832 11.9397 15.6622 11.7407 15.6622C11.5418 15.6622 11.3511 15.5832 11.2104 15.4425C11.0698 15.3019 10.9907 15.1111 10.9907 14.9122L10.7217 9.19581C10.7156 9.05921 10.7372 8.92279 10.785 8.79469C10.8328 8.66658 10.9059 8.54941 10.9999 8.45016C11.0939 8.35091 11.207 8.2716 11.3324 8.21698C11.4577 8.16236 11.5928 8.13353 11.7295 8.13222H11.7393C11.877 8.13215 12.0132 8.15996 12.1399 8.214C12.2665 8.26803 12.3808 8.34715 12.476 8.44659C12.5712 8.54603 12.6453 8.66373 12.6937 8.79258C12.7422 8.92142 12.764 9.05875 12.7579 9.19628L12.7598 9.19347Z"
    fill="#fff" />
</svg>