<svg width="20" height="18" viewBox="0 0 20 18" fill="none" xmlns="http://www.w3.org/2000/svg">
  <path
    d="M18.9514 11.8758H15.146C13.4595 11.8758 12.0757 10.492 12.0757 8.8055C12.0757 7.11901 13.4378 5.75685 15.146 5.73523H18.9297C19.2324 5.73523 19.4703 5.97307 19.4703 6.27577C19.4703 6.57847 19.2324 6.81631 18.9297 6.81631H15.146C14.0649 6.81631 13.1568 7.7028 13.1568 8.8055C13.1568 9.88658 14.0433 10.7731 15.146 10.7947H18.9297C19.2324 10.7947 19.4703 11.0325 19.4703 11.3352C19.4703 11.6379 19.2324 11.8758 18.9514 11.8758Z"
    fill="#D4D7DB" />
  <path
    d="M15.5783 9.30276H15.2973C14.9946 9.30276 14.7567 9.06492 14.7567 8.76222C14.7567 8.45952 14.9946 8.22168 15.2973 8.22168H15.5783C15.881 8.22168 16.1189 8.45952 16.1189 8.76222C16.1189 9.06492 15.881 9.30276 15.5783 9.30276Z"
    fill="#D4D7DB" />
  <path
    d="M14.0216 17.7568H5.9351C2.92969 17.7568 0.48645 15.3135 0.48645 12.3081V5.58378C0.48645 2.57838 2.92969 0.135132 5.9351 0.135132H14.0216C17.027 0.135132 19.4702 2.57838 19.4702 5.58378V12.3081C19.4919 15.3135 17.027 17.7568 14.0216 17.7568ZM5.9351 1.21621C3.5351 1.21621 1.56753 3.18378 1.56753 5.58378V12.3081C1.56753 14.7081 3.5351 16.6757 5.9351 16.6757H14.0216C16.4216 16.6757 18.3892 14.7081 18.3892 12.3081V5.58378C18.3892 3.18378 16.4216 1.21621 14.0216 1.21621H5.9351Z"
    fill="#D4D7DB" />
  <path
    d="M10.3244 5.45401H5.26491C4.9622 5.45401 4.72437 5.21617 4.72437 4.91347C4.72437 4.61076 4.9622 4.37292 5.26491 4.37292H10.3244C10.6271 4.37292 10.8649 4.61076 10.8649 4.91347C10.8649 5.21617 10.6271 5.45401 10.3244 5.45401Z"
    fill="#D4D7DB" />
</svg>