<svg width="24" height="24" viewBox="0 0 24 24" fill="none" xmlns="http://www.w3.org/2000/svg">
  <path fill-rule="evenodd" clip-rule="evenodd"
    d="M17.4703 8.39995H21.4919C21.4919 5.12138 19.5676 3.21423 16.2811 3.21423H7.71893C4.45406 3.21423 2.50812 5.12138 2.50812 8.35709V15.4285C2.50812 18.6642 4.43244 20.5928 7.71893 20.5928H16.2811C19.546 20.5928 21.4919 18.6857 21.4919 15.4285V15.1285H17.4703C15.6108 15.1285 14.0973 13.6285 14.0973 11.7857C14.0973 9.9428 15.6108 8.4428 17.4703 8.4428V8.39995ZM17.4703 9.83566H20.7784C21.1676 9.83566 21.4919 10.1571 21.4919 10.5428V12.9857C21.4919 13.3714 21.1676 13.6928 20.7784 13.6928H17.5568C16.6054 13.7142 15.7838 13.0714 15.5676 12.1499C15.4595 11.5928 15.6108 10.9928 15.9784 10.5642C16.346 10.1142 16.8865 9.85709 17.4703 9.83566ZM17.6216 12.4071H17.9243C18.3351 12.4071 18.6595 12.0857 18.6595 11.6785C18.6595 11.2714 18.3351 10.9499 17.9243 10.9499H17.6216C17.427 10.9499 17.2541 11.0142 17.1027 11.1642C16.973 11.2928 16.8865 11.4857 16.8865 11.6785C16.8865 12.0857 17.2108 12.4071 17.6216 12.4071ZM7.00541 8.39995H12.3676C12.7784 8.39995 13.1027 8.07852 13.1027 7.67138C13.1027 7.26423 12.7784 6.9428 12.3676 6.9428H7.00541C6.61623 6.9428 6.2919 7.26423 6.27028 7.64995C6.27028 8.07852 6.5946 8.39995 7.00541 8.39995Z"
    fill="#3D3397" />
</svg>