<svg width="23" height="22" viewBox="0 0 23 22" fill="none" xmlns="http://www.w3.org/2000/svg">
<g clip-path="url(#clip0)">
<path d="M3.80189 18.432C3.66607 18.432 3.53582 18.378 3.43978 18.282C3.34375 18.186 3.28979 18.0557 3.28979 17.9199V11.0514C3.28979 10.9156 3.34375 10.7853 3.43978 10.6893C3.53582 10.5933 3.66607 10.5393 3.80189 10.5393C3.93771 10.5393 4.06796 10.5933 4.164 10.6893C4.26003 10.7853 4.31398 10.9156 4.31398 11.0514V17.9212C4.31365 18.0568 4.25954 18.1867 4.16354 18.2825C4.06754 18.3782 3.93748 18.432 3.80189 18.432Z" fill="#333333"/>
<path d="M8.93055 18.432C8.79474 18.432 8.66448 18.378 8.56845 18.282C8.47241 18.186 8.41846 18.0557 8.41846 17.9199V11.0514C8.41846 10.9156 8.47241 10.7853 8.56845 10.6893C8.66448 10.5933 8.79474 10.5393 8.93055 10.5393C9.06637 10.5393 9.19662 10.5933 9.29266 10.6893C9.3887 10.7853 9.44265 10.9156 9.44265 11.0514V17.9212C9.44231 18.0568 9.38821 18.1867 9.29221 18.2825C9.19621 18.3782 9.06615 18.432 8.93055 18.432Z" fill="#333333"/>
<path d="M14.2257 18.2668C14.0899 18.2668 13.9596 18.2129 13.8636 18.1168C13.7676 18.0208 13.7136 17.8905 13.7136 17.7547V10.8837C13.7136 10.7479 13.7676 10.6176 13.8636 10.5216C13.9596 10.4255 14.0899 10.3716 14.2257 10.3716C14.3615 10.3716 14.4918 10.4255 14.5878 10.5216C14.6839 10.6176 14.7378 10.7479 14.7378 10.8837V17.7547C14.7378 17.8905 14.6839 18.0208 14.5878 18.1168C14.4918 18.2129 14.3615 18.2668 14.2257 18.2668Z" fill="#333333"/>
<path d="M19.0202 18.2668C18.8843 18.2668 18.7541 18.2129 18.658 18.1168C18.562 18.0208 18.5081 17.8905 18.5081 17.7547V10.8837C18.5081 10.7479 18.562 10.6176 18.658 10.5216C18.7541 10.4255 18.8843 10.3716 19.0202 10.3716C19.156 10.3716 19.2862 10.4255 19.3823 10.5216C19.4783 10.6176 19.5322 10.7479 19.5322 10.8837V17.7547C19.5322 17.8905 19.4783 18.0208 19.3823 18.1168C19.2862 18.2129 19.156 18.2668 19.0202 18.2668Z" fill="#333333"/>
<path d="M21.7803 21.986H1.04554C0.909727 21.986 0.779473 21.9321 0.683437 21.836C0.5874 21.74 0.533447 21.6097 0.533447 21.4739V19.5881C0.533786 19.1553 0.70587 18.7403 1.01191 18.4343C1.31796 18.1282 1.73294 17.9561 2.16575 17.9558H20.6601C21.0929 17.9561 21.5079 18.1282 21.8139 18.4343C22.12 18.7403 22.2921 19.1553 22.2924 19.5881V21.4739C22.2924 21.6097 22.2385 21.74 22.1424 21.836C22.0464 21.9321 21.9161 21.986 21.7803 21.986ZM1.55252 20.9618H21.2682V19.5881C21.2682 19.4268 21.2041 19.2722 21.0901 19.1581C20.9761 19.0441 20.8214 18.98 20.6601 18.98H2.16575C2.00447 18.98 1.8498 19.0441 1.73575 19.1581C1.62171 19.2722 1.55764 19.4268 1.55764 19.5881L1.55252 20.9618Z" fill="#333333"/>
<path d="M20.5474 11.3958H2.27842C1.85817 11.3954 1.45523 11.2284 1.15807 10.9312C0.860913 10.634 0.69382 10.2311 0.693481 9.81084V7.54738C0.693481 7.41156 0.747434 7.28131 0.843471 7.18527C0.939507 7.08923 1.06976 7.03528 1.20558 7.03528H21.6203C21.7561 7.03528 21.8864 7.08923 21.9824 7.18527C22.0784 7.28131 22.1324 7.41156 22.1324 7.54738V9.81084C22.1317 10.231 21.9645 10.6337 21.6674 10.9308C21.3703 11.2279 20.9676 11.3951 20.5474 11.3958ZM1.71767 8.05947V9.81084C1.71767 9.95956 1.77675 10.1022 1.88191 10.2074C1.98707 10.3125 2.1297 10.3716 2.27842 10.3716H20.5474C20.6961 10.3713 20.8385 10.3121 20.9436 10.207C21.0487 10.1019 21.1079 9.95946 21.1082 9.81084V8.05947H1.71767Z" fill="#333333"/>
<path d="M22.4768 8.05943H0.35294C0.241807 8.06042 0.13337 8.02522 0.0439991 7.95916C-0.045372 7.8931 -0.110826 7.79975 -0.142483 7.69322C-0.174139 7.58669 -0.170279 7.47275 -0.131485 7.3686C-0.0926915 7.26446 -0.0210702 7.17576 0.072567 7.11589L10.5193 0.399759C10.7852 0.229901 11.0942 0.139648 11.4097 0.139648C11.7253 0.139648 12.0342 0.229901 12.3001 0.399759L22.7469 7.11589C22.8402 7.17558 22.9117 7.26394 22.9506 7.3677C22.9895 7.47146 22.9936 7.58503 22.9625 7.69136C22.9313 7.79769 22.8665 7.89105 22.7778 7.95741C22.689 8.02378 22.5812 8.05958 22.4704 8.05943H22.4768ZM2.09919 7.03524H20.7292L11.7496 1.26136C11.649 1.19734 11.5322 1.16334 11.4129 1.16334C11.2937 1.16334 11.1769 1.19734 11.0762 1.26136L2.09919 7.03524Z" fill="#333333"/>
<path d="M11.413 4.51833C11.8393 4.51833 12.185 4.17271 12.185 3.74635C12.185 3.31999 11.8393 2.97437 11.413 2.97437C10.9866 2.97437 10.641 3.31999 10.641 3.74635C10.641 4.17271 10.9866 4.51833 11.413 4.51833Z" fill="#333333"/>
</g>
<defs>
<clipPath id="clip0">
<rect width="23" height="22" fill="white"/>
</clipPath>
</defs>
</svg>
