<svg width="20" height="18" viewBox="0 0 20 18" fill="none" xmlns="http://www.w3.org/2000/svg">
  <path
    d="M5.99999 1.21621H14.2162V0.135132H5.99999V1.21621ZM14.2162 1.21621C16.6595 1.21621 18.6486 3.2054 18.6486 5.64864H19.7297C19.7297 2.6 17.2649 0.135132 14.2162 0.135132V1.21621ZM18.6486 5.64864V12.4595H19.7297V5.64864H18.6486ZM18.6486 12.4595C18.6486 14.9027 16.6595 16.8919 14.2162 16.8919V17.973C17.2649 17.973 19.7297 15.5081 19.7297 12.4595H18.6486ZM14.2162 16.9135H5.99999V17.9946H14.2162V16.9135ZM5.99999 16.9135C3.55675 16.9135 1.56756 14.9243 1.56756 12.4811H0.486481C0.486481 15.5297 2.95135 17.9946 5.99999 17.9946V16.9135ZM1.56756 12.4595V5.64864H0.486481V12.4595H1.56756ZM1.56756 5.64864C1.56756 3.2054 3.55675 1.21621 5.99999 1.21621V0.135132C2.95135 0.135132 0.486481 2.6 0.486481 5.64864H1.56756ZM12.7459 10.5784C12.054 10.5784 11.4054 11.1189 11.4054 11.854H12.4865C12.4865 11.7892 12.573 11.6595 12.7459 11.6595V10.5784ZM14.9297 10.5784H12.7459V11.6595H14.9513V10.5784H14.9297ZM16.2703 11.854C16.2703 11.1189 15.6432 10.5784 14.9297 10.5784V11.6595C15.1027 11.6595 15.1892 11.7892 15.1892 11.854H16.2703ZM16.2703 13.2162V11.854H15.1892V13.2162H16.2703ZM14.9297 14.4919C15.6216 14.4919 16.2703 13.9513 16.2703 13.2162H15.1892C15.1892 13.2811 15.1027 13.4108 14.9297 13.4108V14.4919ZM12.7459 14.4919H14.9513V13.4108H12.7459V14.4919ZM11.4054 13.2162C11.4054 13.9513 12.0324 14.4919 12.7459 14.4919V13.4108C12.573 13.4108 12.4865 13.2811 12.4865 13.2162H11.4054ZM11.4054 11.854V13.2162H12.4865V11.854H11.4054Z"
    fill="#D4D7DB" />
  <path
    d="M9.30817 10.0595C9.04871 10.0595 8.81088 9.95137 8.61628 9.7784L5.24331 6.42705C4.85412 6.03786 4.85412 5.43246 5.24331 5.04327L6.95142 3.33516C7.12439 3.14056 7.38385 3.05408 7.64331 3.05408C7.90277 3.05408 8.14061 3.16219 8.3352 3.33516L11.6866 6.68651C12.0757 7.0757 12.0757 7.6811 11.6866 8.07029L9.97844 9.7784C9.80547 9.973 9.56763 10.0595 9.30817 10.0595ZM6.08655 5.73516L9.28655 8.93516L10.8433 7.3784L7.64331 4.1784L6.08655 5.73516Z"
    fill="#D4D7DB" />
  <path
    d="M5.93512 10.0809C5.67566 10.0809 5.43782 9.99446 5.24323 9.79986L3.53512 8.09175C3.14593 7.70257 3.14593 7.09716 3.53512 6.70797L6.92971 3.31338C7.3189 2.92419 7.92431 2.92419 8.3135 3.31338L9.17836 4.17824L8.4216 4.935L7.64323 4.15662L4.39998 7.39986L5.95674 8.95662L7.57836 7.335L8.33512 8.09175L6.64863 9.77824C6.43241 9.99446 6.19458 10.0809 5.93512 10.0809Z"
    fill="#D4D7DB" />
</svg>