<svg width="24" height="24" viewBox="0 0 24 24" fill="none" xmlns="http://www.w3.org/2000/svg">
  <path fill-rule="evenodd" clip-rule="evenodd"
    d="M7.58915 2.95715H16.4108C19.3729 2.95715 21.7729 5.33572 21.7729 8.27144V15.5357C21.7729 18.4714 19.3729 20.85 16.4108 20.85H7.58915C4.62699 20.85 2.22699 18.4714 2.22699 15.5357V8.27144C2.22699 5.33572 4.62699 2.95715 7.58915 2.95715ZM13.9675 14.8714C13.9675 14.4429 14.3567 14.0786 14.8324 14.0786H17.2108C17.6864 14.0786 18.0756 14.4214 18.0756 14.8714V16.3286C18.0756 16.7572 17.6864 17.1214 17.2108 17.1214H14.8324C14.3567 17.1214 13.9675 16.7786 13.9675 16.3286V14.8714ZM5.68645 8.63572C5.29726 9.02144 5.29726 9.6643 5.68645 10.0714L7.02699 11.4C7.41618 11.7857 8.06483 11.7857 8.47564 11.4L9.5351 10.35L10.5946 11.4C10.9837 11.7857 11.6324 11.7857 12.0432 11.4L13.3837 10.0714C13.7729 9.68572 13.7729 9.04287 13.3837 8.63572L10.3567 5.67858C10.1189 5.4643 9.81618 5.35715 9.5351 5.37858C9.23239 5.35715 8.92969 5.44287 8.71348 5.67858L5.68645 8.63572ZM7.48104 8.3143L6.42158 9.3643L7.76213 10.6929L8.82158 9.64287L7.58915 8.42144C7.54591 8.37858 7.50267 8.33572 7.48104 8.3143ZM8.30267 7.7143L9.64321 6.38572L12.6486 9.3643L11.3081 10.6929L8.30267 7.7143Z"
    fill="#3D3397" />
</svg>