<svg width="24" height="24" viewBox="0 0 24 24" fill="none" xmlns="http://www.w3.org/2000/svg">
  <g clip-path="url(#clip0_302_2867)">
    <path fill-rule="evenodd" clip-rule="evenodd"
      d="M4.87512 5.75098C4.57675 5.75098 4.2906 5.8695 4.07963 6.08048C3.86865 6.29146 3.75012 6.57761 3.75012 6.87598V18.126C3.75012 18.4243 3.86865 18.7105 4.07963 18.9215C4.2906 19.1324 4.57675 19.251 4.87512 19.251H16.1251C16.2729 19.251 16.4191 19.2219 16.5556 19.1653C16.6921 19.1088 16.8161 19.0259 16.9206 18.9215C17.0251 18.817 17.1079 18.693 17.1645 18.5565C17.221 18.42 17.2501 18.2737 17.2501 18.126V9.50097C17.2501 9.08676 17.5859 8.75097 18.0001 8.75097C18.4143 8.75097 18.7501 9.08676 18.7501 9.50097V18.126C18.7501 18.4707 18.6822 18.812 18.5503 19.1305C18.4184 19.449 18.225 19.7384 17.9813 19.9821C17.7375 20.2259 17.4481 20.4192 17.1297 20.5512C16.8112 20.6831 16.4698 20.751 16.1251 20.751H4.87512C4.17893 20.751 3.51125 20.4744 3.01897 19.9821C2.52668 19.4898 2.25012 18.8222 2.25012 18.126V6.87598C2.25012 6.17978 2.52668 5.5121 3.01897 5.01982C3.51125 4.52754 4.17893 4.25098 4.87512 4.25098H12.7257C13.14 4.25098 13.4757 4.58676 13.4757 5.00098C13.4757 5.41519 13.14 5.75098 12.7257 5.75098H4.87512Z"
      fill="#3D3397" />
    <path
      d="M21.5598 1.49708C21.4913 1.42182 21.4082 1.36123 21.3157 1.31897C21.2231 1.2767 21.1229 1.25365 21.0212 1.2512C20.9194 1.24874 20.8183 1.26694 20.7237 1.30469C20.6292 1.34244 20.5434 1.39896 20.4713 1.47083L19.8915 2.04786C19.8212 2.11818 19.7817 2.21353 19.7817 2.31294C19.7817 2.41236 19.8212 2.5077 19.8915 2.57802L20.423 3.10865C20.4579 3.14365 20.4993 3.17143 20.5449 3.19039C20.5905 3.20934 20.6394 3.2191 20.6888 3.2191C20.7382 3.2191 20.7871 3.20934 20.8327 3.19039C20.8783 3.17143 20.9198 3.14365 20.9546 3.10865L21.5199 2.54615C21.8059 2.26068 21.8326 1.79568 21.5598 1.49708Z"
      fill="#3D3397" />
    <path
      d="M18.7192 3.2208L10.2573 11.6677C10.206 11.7188 10.1687 11.7822 10.149 11.8519L9.75762 13.0177C9.74824 13.0493 9.74758 13.0829 9.7557 13.1149C9.76381 13.1468 9.78041 13.176 9.80374 13.1994C9.82707 13.2227 9.85627 13.2393 9.88824 13.2474C9.92022 13.2555 9.9538 13.2549 9.98543 13.2455L11.1503 12.8541C11.22 12.8344 11.2834 12.7971 11.3345 12.7458L19.7814 4.28299C19.8595 4.204 19.9033 4.09738 19.9033 3.98627C19.9033 3.87516 19.8595 3.76853 19.7814 3.68955L19.315 3.2208C19.2359 3.14194 19.1287 3.09766 19.0171 3.09766C18.9054 3.09766 18.7983 3.14194 18.7192 3.2208Z"
      fill="#3D3397" />
  </g>
  <defs>
    <clipPath id="clip0_302_2867">
      <rect width="24" height="24" fill="white" />
    </clipPath>
  </defs>
</svg>