<svg width="25" height="25" viewBox="0 0 25 25" fill="none" xmlns="http://www.w3.org/2000/svg">
<path d="M21.4844 7.56836H17.8809C18.2129 7.0459 18.4082 6.42578 18.4082 5.76172C18.4082 3.90381 16.897 2.39258 15.0391 2.39258C14.0283 2.39258 13.1177 2.8418 12.5 3.5498C11.8823 2.8418 10.9717 2.39258 9.96094 2.39258C8.10303 2.39258 6.5918 3.90381 6.5918 5.76172C6.5918 6.42578 6.78467 7.0459 7.11914 7.56836H3.51562C3.0835 7.56836 2.73438 7.91748 2.73438 8.34961V13.2324C2.73438 13.3398 2.82227 13.4277 2.92969 13.4277H3.90625V21.8262C3.90625 22.2583 4.25537 22.6074 4.6875 22.6074H20.3125C20.7446 22.6074 21.0938 22.2583 21.0938 21.8262V13.4277H22.0703C22.1777 13.4277 22.2656 13.3398 22.2656 13.2324V8.34961C22.2656 7.91748 21.9165 7.56836 21.4844 7.56836ZM13.3301 5.76172C13.3301 4.81934 14.0967 4.05273 15.0391 4.05273C15.9814 4.05273 16.748 4.81934 16.748 5.76172C16.748 6.7041 15.9814 7.4707 15.0391 7.4707H13.3301V5.76172ZM9.96094 4.05273C10.9033 4.05273 11.6699 4.81934 11.6699 5.76172V7.4707H9.96094C9.01855 7.4707 8.25195 6.7041 8.25195 5.76172C8.25195 4.81934 9.01855 4.05273 9.96094 4.05273ZM4.39453 11.7676V9.22852H11.6699V11.7676H4.39453ZM5.56641 13.4277H11.6699V20.9473H5.56641V13.4277ZM19.4336 20.9473H13.3301V13.4277H19.4336V20.9473ZM20.6055 11.7676H13.3301V9.22852H20.6055V11.7676Z" fill="#19B219"/>
</svg>
