<svg width="24" height="24" viewBox="0 0 24 24" fill="none" xmlns="http://www.w3.org/2000/svg">
  <path
    d="M9.2757 15.2433C9.14597 15.2433 8.99462 15.2 8.88651 15.0919C8.06489 14.2703 7.61084 13.1676 7.61084 12C7.61084 9.57841 9.57841 7.61084 12 7.61084C13.1676 7.61084 14.2919 8.08652 15.0919 8.90814C15.3081 9.12435 15.3081 9.4703 15.0919 9.66489C14.8757 9.88111 14.5298 9.88111 14.3352 9.66489C13.7298 9.05949 12.8865 8.69192 12 8.69192C10.1838 8.69192 8.69192 10.1838 8.69192 12C8.69192 12.8865 9.03787 13.7081 9.66489 14.3352C9.88111 14.5514 9.88111 14.8973 9.66489 15.0919C9.55678 15.2 9.40543 15.2433 9.2757 15.2433Z"
    fill="#BFC4C8" />
  <path
    d="M12.6919 16.3245C12.4324 16.3245 12.2162 16.1515 12.1513 15.8704C12.1081 15.5677 12.3027 15.2866 12.5838 15.2434C13.9243 15.0056 14.9838 13.9245 15.2432 12.5839C15.2865 12.2812 15.5676 12.0866 15.8703 12.1515C16.173 12.1948 16.3676 12.4758 16.3027 12.7785C15.9784 14.5731 14.573 15.9785 12.7784 16.3029C12.7567 16.3245 12.7135 16.3245 12.6919 16.3245Z"
    fill="#BFC4C8" />
  <path
    d="M5.4919 19.0272C5.38379 19.0272 5.25406 18.9839 5.16757 18.9191C3.15676 17.3407 1.44865 15.0272 0.259464 12.2164C0.194599 12.0866 0.194599 11.9353 0.259464 11.7839C1.47027 8.97312 3.17838 6.63799 5.21082 5.03798C7.26487 3.41636 9.6 2.57312 12.0216 2.57312C14.4216 2.57312 16.7784 3.43799 18.8541 5.08123C19.0919 5.27582 19.1351 5.60015 18.9405 5.83799C18.7459 6.07582 18.4216 6.11907 18.1838 5.92447C16.3243 4.43258 14.1838 3.6542 12.0216 3.6542C9.85946 3.6542 7.74054 4.43258 5.88109 5.90285C4.04325 7.3515 2.48649 9.4488 1.34055 12.0001C2.46487 14.5515 4.02163 16.6488 5.83784 18.0758C6.07568 18.2704 6.11892 18.5947 5.92433 18.8326C5.81622 18.9623 5.66487 19.0272 5.4919 19.0272Z"
    fill="#BFC4C8" />
  <path
    d="M12 21.4271C10.8973 21.4271 9.7946 21.2541 8.75676 20.8865C8.47568 20.8001 8.32433 20.4757 8.41082 20.1947C8.4973 19.9136 8.82163 19.7622 9.10271 19.8487C10.0541 20.173 11.027 20.3244 12.0216 20.3244C16.3892 20.3244 20.3676 17.2109 22.6811 11.9784C22.0973 10.6811 21.427 9.49195 20.6487 8.47574C20.4757 8.2379 20.5189 7.89195 20.7568 7.71898C20.9946 7.54601 21.3405 7.58925 21.5135 7.82709C22.3784 8.97303 23.1351 10.292 23.7622 11.7622C23.827 11.892 23.827 12.0649 23.7622 12.1947C21.2541 17.9893 16.8649 21.4271 12 21.4271Z"
    fill="#BFC4C8" />
  <path
    d="M2.39998 22.1406C2.27025 22.1406 2.1189 22.0974 2.01079 21.9893C1.79458 21.7731 1.79458 21.4271 2.01079 21.2325L21.2108 2.03252C21.427 1.81631 21.773 1.81631 21.9676 2.03252C22.1838 2.24874 22.1838 2.59469 21.9676 2.78928L2.76755 21.9893C2.68107 22.0758 2.55134 22.1406 2.39998 22.1406Z"
    fill="#BFC4C8" />
</svg>
