<svg width="24" height="24" viewBox="0 0 24 24" fill="none" xmlns="http://www.w3.org/2000/svg">
  <path
    d="M16.1296 22.2703H18.0107C20.1729 22.2703 21.9459 20.519 21.9675 18.3784V9.83788C21.9459 8.9514 21.5351 8.10816 20.8215 7.56762L14.3783 2.42167C13.0378 1.36221 11.1783 1.36221 9.83776 2.42167L3.43776 7.54599C2.72424 8.08653 2.29181 8.92978 2.29181 9.83788V18.3784C2.29181 20.5406 4.06478 22.2919 6.22694 22.2919H8.10803C9.01613 22.2919 9.77289 21.6 9.85938 20.7136C9.881 20.6487 9.881 20.6055 9.881 20.5406V17.5352C9.881 17.0811 10.2486 16.6919 10.7242 16.6919H13.5567C14.0324 16.6919 14.4215 17.0595 14.4215 17.5352V20.5406C14.4215 21.4703 15.1783 22.2487 16.1296 22.2703Z"
    fill="#3D3397" />
  <circle cx="12.11" cy="9.08006" r="2.27" fill="white" />
</svg>