<svg width="20" height="22" viewBox="0 0 20 22" fill="none" xmlns="http://www.w3.org/2000/svg">
  <path
    d="M16.0107 21.2703H14.1296C13.1783 21.2487 12.4215 20.4703 12.4215 19.5406V16.5352C12.4215 16.0595 12.0324 15.6919 11.5567 15.6919H8.72424C8.24857 15.6919 7.881 16.0811 7.881 16.5352V19.5406C7.881 19.6055 7.881 19.6487 7.85938 19.7136C7.77289 20.6 7.01613 21.2919 6.10803 21.2919H4.22694C2.06478 21.2919 0.291809 19.5406 0.291809 17.3784V8.83788C0.291809 7.92978 0.724241 7.08653 1.43776 6.54599L7.83776 1.42167C9.1783 0.36221 11.0378 0.36221 12.3783 1.42167L18.8215 6.56762C19.5351 7.10816 19.9459 7.9514 19.9675 8.83788V17.3784C19.9459 19.519 18.1729 21.2703 16.0107 21.2703ZM11.5351 14.5892C12.6161 14.5892 13.481 15.4541 13.481 16.5136V19.5406C13.481 19.8865 13.7621 20.1892 14.1296 20.1892H15.9891C17.5675 20.1892 18.8432 18.9136 18.8432 17.3568V8.83788C18.8432 8.27572 18.5621 7.7568 18.108 7.41086L11.6864 2.26491C10.7567 1.52978 9.43776 1.52978 8.50803 2.26491L2.0864 7.38924C1.61073 7.73518 1.35127 8.27572 1.35127 8.83788V17.3568C1.35127 18.9136 2.62694 20.1892 4.20532 20.1892H6.0864C6.45397 20.1892 6.75667 19.8865 6.75667 19.519C6.75667 19.4757 6.75667 19.4325 6.7783 19.3676V16.5352C6.7783 15.4757 7.64316 14.6109 8.70262 14.6109H11.5351V14.5892Z"
    fill="#D4D7DB" />
  <path
    d="M10.1081 10.3513C8.85405 10.3513 7.83783 9.33512 7.83783 8.08106C7.83783 6.82701 8.85405 5.81079 10.1081 5.81079C11.3622 5.81079 12.3784 6.82701 12.3784 8.08106C12.3784 9.33512 11.3622 10.3513 10.1081 10.3513ZM10.1081 6.89187C9.45945 6.89187 8.91891 7.43241 8.91891 8.08106C8.91891 8.72971 9.45945 9.27025 10.1081 9.27025C10.7567 9.27025 11.2973 8.72971 11.2973 8.08106C11.2973 7.43241 10.7567 6.89187 10.1081 6.89187Z"
    fill="#D4D7DB" />
</svg>