<svg width="24" height="24" viewBox="0 0 24 24" fill="none" xmlns="http://www.w3.org/2000/svg">
  <path
    d="M12 16.3892C9.57841 16.3892 7.61084 14.4216 7.61084 12C7.61084 9.57841 9.57841 7.61084 12 7.61084C14.4216 7.61084 16.3892 9.57841 16.3892 12C16.3892 14.4216 14.4216 16.3892 12 16.3892ZM12 8.69192C10.1838 8.69192 8.69192 10.1838 8.69192 12C8.69192 13.8162 10.1838 15.3081 12 15.3081C13.8162 15.3081 15.3081 13.8162 15.3081 12C15.3081 10.1838 13.8162 8.69192 12 8.69192Z"
    fill="#BFC4C8" />
  <path
    d="M12 21.4271C7.11353 21.4271 2.72434 17.9892 0.237858 12.2162C0.172993 12.0865 0.172993 11.9352 0.237858 11.7838C2.72434 6.01084 7.11353 2.573 11.9784 2.573C16.8649 2.573 21.2541 6.01084 23.7189 11.7838C23.7838 11.9135 23.7838 12.0649 23.7189 12.2162C21.2757 17.9892 16.8865 21.4271 12 21.4271ZM1.34056 12C3.65407 17.2325 7.63245 20.346 12 20.346C16.3676 20.346 20.346 17.2325 22.6595 12C20.346 6.76759 16.3676 3.65408 12 3.65408C7.63245 3.65408 3.65407 6.76759 1.34056 12Z"
    fill="#BFC4C8" />
</svg>
