<svg width="64" height="64" viewBox="0 0 64 64" fill="none" xmlns="http://www.w3.org/2000/svg">
  <g clip-path="url(#clip0_1059_34241)">
    <path fill-rule="evenodd" clip-rule="evenodd"
      d="M55.8289 46.4576C53.7145 46.6841 51.2406 48.0439 49.0089 51.922C48.8467 52.2038 48.7004 52.4744 48.5688 52.7339C48.6208 52.7359 48.6728 52.7388 48.7247 52.7427C49.8713 52.8288 50.9351 53.386 51.8308 54.5122C52.3661 55.1852 52.6542 55.8485 52.7087 56.4811C52.7639 57.1211 52.5758 57.6871 52.2347 58.1409C51.5697 59.0258 50.3565 59.4562 49.25 59.3606C48.1101 59.2622 46.984 58.5933 46.61 57.1853C46.3937 56.3707 46.4434 55.3555 46.8353 54.1237C46.536 54.2406 46.2314 54.3873 45.9232 54.5615C44.0001 55.6484 42.114 57.7039 40.8317 59.5659C40.6647 59.8085 40.3326 59.8697 40.09 59.7027C39.8474 59.5356 39.7862 59.2035 39.9532 58.9609C41.2813 57.0325 43.2776 54.8315 45.3984 53.6329C46.0214 53.2808 46.6702 53.0067 47.3269 52.857C47.5367 52.3935 47.7882 51.9047 48.0844 51.39C50.4393 47.2978 53.1777 45.6688 55.7153 45.397C58.2212 45.1287 60.4074 46.1986 61.6619 47.2644C61.8864 47.4551 61.9138 47.7917 61.723 48.0162C61.5323 48.2406 61.1958 48.268 60.9713 48.0773C59.8803 47.1505 57.9749 46.2278 55.8289 46.4576ZM48.0789 53.8133C47.5179 55.2269 47.4613 56.2352 47.6409 56.9115C47.8778 57.8033 48.5596 58.2304 49.3418 58.2979C50.1573 58.3684 50.9801 58.035 51.382 57.5001C51.5743 57.2441 51.6774 56.9363 51.646 56.5727C51.614 56.2018 51.4379 55.7318 50.9959 55.1761C50.2636 54.2554 49.4621 53.8677 48.6448 53.8064C48.4601 53.7925 48.2713 53.7951 48.0789 53.8133Z"
      fill="#574DAA" />
    <path
      d="M39.1854 46.3369C12.4689 56.6086 3.07086 41.251 0.749551 33.1309C-0.932159 13.9088 19.1283 19.6214 27.6594 19.8085C36.1904 19.9956 36.0301 7.64134 46.9057 8.32343C57.7813 9.00552 65.9018 36.0652 39.1854 46.3369Z"
      fill="#01ACC9" fill-opacity="0.2" />
    <circle opacity="0.2" cx="15.7333" cy="44.4646" r="14.1333" fill="#3D3397" />
    <path
      d="M9 19C9 14.5817 12.5817 11 17 11H32C36.4183 11 40 14.5817 40 19V32C40 36.4183 36.4183 40 32 40H17C12.5817 40 9 36.4183 9 32V19Z"
      fill="#D4D7DB" />
    <rect x="9" y="20" width="31" height="7" fill="url(#paint0_linear_1059_34241)" />
    <path fill-rule="evenodd" clip-rule="evenodd"
      d="M18.0619 27C18.0211 27.3276 18 27.6613 18 28V40H17C14.9711 40 13.1186 39.2447 11.7084 38L18 27L18.0619 27Z"
      fill="#5F6A77" />
    <path
      d="M18 28C18 23.5817 21.5817 20 26 20H41C45.4183 20 49 23.5817 49 28V41C49 45.4183 45.4183 49 41 49H26C21.5817 49 18 45.4183 18 41V28Z"
      fill="#1F1D25" />
    <path
      d="M36 40C36 38.8954 36.8954 38 38 38H41C42.1046 38 43 38.8954 43 40V41C43 42.1046 42.1046 43 41 43H38C36.8954 43 36 42.1046 36 41V40Z"
      fill="#F2F3F4" />
    <path fill-rule="evenodd" clip-rule="evenodd"
      d="M41.0338 38.0003L41 38H38L39.5 40.5L36 40V41L39.5 40.5L38 43H41L39.5 40.5L43 41V40L39.5 40.5L41.0338 38.0003Z"
      fill="#D4D7DB" />
    <mask id="mask0_1059_34241" style="mask-type:alpha" maskUnits="userSpaceOnUse" x="22" y="26" width="8" height="9">
      <rect x="22" y="26" width="8" height="8.18605" rx="1" fill="#C4C4C4" />
    </mask>
    <g mask="url(#mask0_1059_34241)">
      <path d="M21.875 34.2498H30.25L26.0556 30.0554L21.875 34.2498Z" fill="#574DAA" />
      <path d="M30.1111 26L26.0556 30.0556L30.1111 34.1111V26Z" fill="#C7C2F2" />
      <path d="M22 26V34.1107L26.0556 30.0556L30.1107 26H22Z" fill="#3D3397" />
    </g>
    <path opacity="0.5"
      d="M38.902 23H36C36 23 37.801 24.5091 40.9168 27.2632C44.0092 29.9965 46 32 46 32V30.0737C46 26.167 42.8221 23 38.902 23Z"
      fill="#4976B2" />
  </g>
  <defs>
    <linearGradient id="paint0_linear_1059_34241" x1="38" y1="23" x2="9" y2="23" gradientUnits="userSpaceOnUse">
      <stop offset="0.293103" stop-color="#5F6A77" />
      <stop offset="1" stop-color="#1F1D25" />
    </linearGradient>
    <clipPath id="clip0_1059_34241">
      <rect width="64" height="64" fill="white" />
    </clipPath>
  </defs>
</svg>