<svg width="64" height="64" viewBox="0 0 64 64" fill="none" xmlns="http://www.w3.org/2000/svg">
  <circle opacity="0.2" cx="42.8833" cy="19.1333" r="14.1333" fill="#F3AEA5" />
  <path opacity="0.2"
    d="M54.6817 30.8607C52.2552 29.3088 50.0612 28.9274 48.0103 29.1267C34.0185 30.428 23.2847 25.9669 19.6668 23.5736C13.3874 20.5807 6.72881 20.1964 2.28593 30.1694C0.377646 38.3964 1.14792 56.3848 29.4936 60.3596C57.8393 64.3345 63.8618 36.7319 54.6817 30.8607Z"
    fill="#3D3397" />
  <path fill-rule="evenodd" clip-rule="evenodd"
    d="M2.87275 50.2999C2.92135 50.0094 3.19625 49.8133 3.48677 49.8619C7.52101 50.5368 11.8827 52.2391 15.1562 55.8503C16.0663 55.6042 17.1465 55.4531 18.4161 55.4258C25.4455 55.2741 30.0547 59.1008 32.4311 62.3638C32.6045 62.6019 32.552 62.9355 32.3139 63.1089C32.0758 63.2823 31.7422 63.2299 31.5688 62.9918C29.3338 59.9229 25.0231 56.3501 18.4391 56.4922C17.4637 56.5132 16.6305 56.6092 15.9206 56.7601C16.9768 58.1881 17.0917 59.8691 16.5354 61.1699C15.9538 62.5299 14.6195 63.4859 12.9314 63.2053C12.1949 63.106 11.6312 62.4658 11.3272 61.7668C11.008 61.033 10.9005 60.0895 11.1799 59.1486C11.5248 57.9871 12.4193 56.9204 14.0501 56.2285C11.0225 53.0775 7.06051 51.5412 3.31078 50.9139C3.02026 50.8653 2.82415 50.5904 2.87275 50.2999ZM14.8069 57.0742C13.1745 57.6667 12.4519 58.6121 12.2024 59.4523C11.999 60.1374 12.0799 60.8229 12.3054 61.3414C12.5444 61.8909 12.8773 62.1233 13.0772 62.1487L13.0882 62.1501L13.099 62.1519C14.2326 62.3435 15.1348 61.7323 15.5546 60.7505C15.9772 59.7624 15.8912 58.4116 14.951 57.2497C14.9033 57.1907 14.8552 57.1322 14.8069 57.0742Z"
    fill="#574DAA" />
  <path fill-rule="evenodd" clip-rule="evenodd"
    d="M51 50.0001H13C13 45.9504 16.2642 42.6675 20.2907 42.6675H43.7093C47.7358 42.6675 51 45.9504 51 50.0001Z"
    fill="#F7793C" />
  <path fill-rule="evenodd" clip-rule="evenodd"
    d="M50.2581 50.0001H51C51 45.9504 47.7358 42.6675 43.7093 42.6675H20.2907C16.2642 42.6675 13 45.9504 13 50.0001H13.7419C14.9286 47.5681 17.4153 45.8939 20.2907 45.8939H43.7093C46.5847 45.8939 49.0714 47.5681 50.2581 50.0001Z"
    fill="#B73D02" />
  <path fill-rule="evenodd" clip-rule="evenodd"
    d="M13.2745 50.0001C14.1401 46.9225 16.9535 44.6675 20.2907 44.6675H43.7093C47.0465 44.6675 49.8599 46.9225 50.7255 50.0001H51C51 45.9504 47.7358 42.6675 43.7093 42.6675H20.2907C16.2642 42.6675 13 45.9504 13 50.0001H13.2745Z"
    fill="#6A2200" />
  <path fill-rule="evenodd" clip-rule="evenodd"
    d="M27.5019 44.3007V30.5579H18.9473V44.3007C18.9473 44.3007 20.9492 45.3762 23.2246 45.3762C25.5 45.3762 27.5019 44.3007 27.5019 44.3007Z"
    fill="#B73D02" />
  <path d="M27.5019 44.3007V30.5579H24.9492V45.1885C26.4231 44.8802 27.5019 44.3007 27.5019 44.3007Z" fill="#F7793C" />
  <path d="M18.9473 30.5579V44.3007C18.9473 44.3007 20.0261 44.8802 21.5 45.1885V30.5579H18.9473Z" fill="#6A2200" />
  <path fill-rule="evenodd" clip-rule="evenodd"
    d="M44.5019 44.3007V30.5579H35.9473V44.3007C35.9473 44.3007 37.9492 45.3762 40.2246 45.3762C42.5 45.3762 44.5019 44.3007 44.5019 44.3007Z"
    fill="#B73D02" />
  <path d="M44.5019 44.3007V30.5579H41.9492V45.1885C43.4231 44.8802 44.5019 44.3007 44.5019 44.3007Z" fill="#F7793C" />
  <path d="M35.9473 30.5579V44.3007C35.9473 44.3007 37.0261 44.8802 38.5 45.1885V30.5579H35.9473Z" fill="#6A2200" />
  <path fill-rule="evenodd" clip-rule="evenodd"
    d="M34.258 12.8679C32.8056 11.7107 30.7525 11.7107 29.3002 12.8679L16.087 23.3952C13.1215 25.7579 14.7827 30.5575 18.566 30.5575H44.9922C48.7755 30.5575 50.4367 25.7579 47.4711 23.3952L34.258 12.8679Z"
    fill="#F7793C" />
  <path fill-rule="evenodd" clip-rule="evenodd"
    d="M34.258 12.8679C32.8056 11.7107 30.7525 11.7107 29.3002 12.8679L16.087 23.3952C13.1215 25.7579 14.7827 30.5575 18.566 30.5575H44.9922C48.7755 30.5575 50.4367 25.7579 47.4711 23.3952L34.258 12.8679Z"
    fill="#F7793C" />
  <path
    d="M34.258 12.8679L47.4711 23.3952C48.8642 24.5051 49.2363 26.1528 48.847 27.5881C48.6359 26.8331 48.1891 26.1182 47.4711 25.5461L34.258 15.0188C33.5318 14.4403 32.6555 14.151 31.7792 14.1509V12C32.6555 12 33.5318 12.2893 34.258 12.8679Z"
    fill="#B73D02" />
  <path
    d="M16.087 25.5461L29.3002 15.0188C30.0264 14.4402 30.9028 14.1509 31.7792 14.1509V12C30.9028 12 30.0264 12.2893 29.3002 12.8679L16.087 23.3952C14.6939 24.5051 14.3218 26.1528 14.7111 27.5881C14.9222 26.8331 15.369 26.1182 16.087 25.5461Z"
    fill="#6A2200" />
  <path
    d="M32.909 27.0319C30.5801 27.6595 28.1863 26.2695 27.5623 23.9273C26.9383 21.5851 28.3204 19.1775 30.6492 18.5499C32.9781 17.9223 35.3718 19.3123 35.9958 21.6546C36.6199 23.9968 35.2378 26.4043 32.909 27.0319Z"
    fill="#3D3397" />
  <path d="M27.9466 20.6887C27.4284 21.6439 27.2602 22.7933 27.5623 23.9274L35.9959 21.6547L27.9466 20.6887Z"
    fill="#574DAA" />
  <path
    d="M35.996 21.6546C35.372 19.3123 32.9782 17.9223 30.6493 18.5499C29.4481 18.8737 28.4987 19.671 27.9467 20.6886L35.996 21.6546Z"
    fill="#A098E0" />
</svg>