<svg width="64" height="64" viewBox="0 0 64 64" fill="none" xmlns="http://www.w3.org/2000/svg">
    <g clip-path="url(#clip0_1789_22503)">
        <path opacity="0.2" fill-rule="evenodd" clip-rule="evenodd"
            d="M33.9258 12.3723H22.2366C17.4418 12.3723 13.557 16.2557 13.557 21.0462V30.9162C9.8768 28.3647 7.46667 24.1103 7.46667 19.293C7.46667 11.4874 13.7944 5.15967 21.6 5.15967C26.8914 5.15967 31.5036 8.06749 33.9258 12.3723Z"
            fill="#3D3397" />
        <path opacity="0.2" fill-rule="evenodd" clip-rule="evenodd"
            d="M5.6964 44.6585C7.89349 52.8132 17.056 68.3124 43.9262 58.4497C70.7963 48.5871 63.0898 21.4066 52.2258 20.5586C46.4222 20.1055 43.7109 23.4204 41.1442 26.5585C38.9063 29.2946 36.7784 31.8963 32.8065 31.7485C31.4389 31.6976 29.777 31.5001 27.956 31.2837C18.4228 30.1507 4.53093 28.4996 5.6964 44.6585Z"
            fill="#01ACC9" />
        <path fill-rule="evenodd" clip-rule="evenodd"
            d="M14.0292 57.1861C13.567 57.1971 13.0694 57.1756 12.5349 57.1181C7.81954 56.6108 4.8882 53.825 3.21546 50.9789C3.06622 50.7249 3.15109 50.3981 3.40503 50.2488C3.65897 50.0996 3.98582 50.1845 4.13507 50.4384C5.6845 53.0748 8.35313 55.5954 12.649 56.0575C12.9586 56.0908 13.2509 56.1107 13.5268 56.1185C13.3334 55.5833 13.2325 55.0618 13.2144 54.562C13.1363 52.4062 14.6193 50.8039 16.4833 50.586C17.3735 50.482 18.0794 51.0081 18.4777 51.6935C18.8757 52.3784 19.0192 53.2884 18.8041 54.1701C18.5854 55.0663 17.9979 55.9273 16.9522 56.4981C16.4676 56.7625 15.8927 56.9606 15.2205 57.0754C15.9874 58.2006 17.2828 59.4243 19.3198 60.6357C19.573 60.7863 19.6561 61.1136 19.5056 61.3667C19.355 61.6199 19.0277 61.7031 18.7746 61.5525C16.3898 60.1343 14.8675 58.6308 14.0292 57.1861ZM14.6604 56.0771C15.4092 55.9947 15.9936 55.806 16.4411 55.5618C17.2204 55.1364 17.6195 54.5253 17.7678 53.9173C17.9197 53.2949 17.8107 52.6686 17.5555 52.2295C17.3006 51.7909 16.9526 51.6051 16.6071 51.6455C15.3019 51.798 14.2221 52.9166 14.2804 54.5234C14.2974 54.9928 14.4134 55.5162 14.6604 56.0771Z"
            fill="#574DAA" />
        <path fill-rule="evenodd" clip-rule="evenodd"
            d="M31.9036 52.5742C31.7588 52.5742 31.6202 52.5153 31.5197 52.4111L25.5694 46.2404C25.365 46.0284 25.3711 45.6908 25.5831 45.4863C25.7952 45.2819 26.1328 45.288 26.3372 45.5L31.9036 51.2725L37.47 45.5C37.6744 45.288 38.012 45.2819 38.2241 45.4863C38.4361 45.6908 38.4422 46.0284 38.2378 46.2404L32.2875 52.4111C32.187 52.5153 32.0484 52.5742 31.9036 52.5742Z"
            fill="#3D3397" />
        <path
            d="M13.557 31.9184C13.557 36.7089 17.4418 40.5923 22.2366 40.5923V12C17.4418 12 13.557 15.8834 13.557 20.6739V31.9184Z"
            fill="#3D3397" />
        <path fill-rule="evenodd" clip-rule="evenodd"
            d="M13.5667 22.2405V23.2405C13.5667 18.45 17.4514 14.5667 22.2462 14.5667V13.5667C17.4514 13.5667 13.5667 17.45 13.5667 22.2405Z"
            fill="#253434" />
        <path fill-rule="evenodd" clip-rule="evenodd"
            d="M13.5667 23.8406V24.8406C13.5667 20.0501 17.4514 16.1667 22.2462 16.1667V15.1667C17.4514 15.1667 13.5667 19.0501 13.5667 23.8406Z"
            fill="#253434" />
        <path fill-rule="evenodd" clip-rule="evenodd"
            d="M13.5667 20.6739V21.6739C13.5667 16.8834 17.4514 13 22.2462 13V12C17.4514 12 13.5667 15.8834 13.5667 20.6739Z"
            fill="#253434" />
        <path opacity="0.5"
            d="M22.2366 40.5923V12L19.5 40.1525C19.9826 40.3125 20.484 40.4314 21 40.5049C21.4039 40.5625 21.8168 40.5923 22.2366 40.5923Z"
            fill="#0C2525" />
        <path
            d="M50.2462 31.9184C50.2462 36.7089 46.3614 40.5923 41.5666 40.5923V12C46.3614 12 50.2462 15.8834 50.2462 20.6739V31.9184Z"
            fill="#3D3397" />
        <path fill-rule="evenodd" clip-rule="evenodd"
            d="M50.2366 22.2405V23.2405C50.2366 18.45 46.3518 14.5667 41.557 14.5667V13.5667C46.3518 13.5667 50.2366 17.45 50.2366 22.2405Z"
            fill="#253434" />
        <path fill-rule="evenodd" clip-rule="evenodd"
            d="M50.2366 23.8406V24.8406C50.2366 20.0501 46.3518 16.1667 41.557 16.1667V15.1667C46.3518 15.1667 50.2366 19.0501 50.2366 23.8406Z"
            fill="#253434" />
        <path fill-rule="evenodd" clip-rule="evenodd"
            d="M50.2366 20.6739V21.6739C50.2366 16.8834 46.3518 13 41.557 13V12C46.3518 12 50.2366 15.8834 50.2366 20.6739Z"
            fill="#253434" />
        <path fill-rule="evenodd" clip-rule="evenodd"
            d="M42.747 19.6624C42.8048 19.3736 43.0857 19.1862 43.3746 19.244C45.8242 19.7337 47.7383 21.6665 48.2274 24.1334C48.2847 24.4223 48.0969 24.703 47.808 24.7602C47.5191 24.8175 47.2384 24.6298 47.1811 24.3408C46.7748 22.2916 45.1868 20.694 43.1654 20.29C42.8766 20.2322 42.6893 19.9513 42.747 19.6624Z"
            fill="#A098E0" />
        <path d="M22.2366 40.5923H41.5708V12H22.2366V40.5923Z" fill="#EBE9FD" />
        <path fill-rule="evenodd" clip-rule="evenodd" d="M41.5708 12V16H22.2366V12H41.5708Z" fill="#A098E0" />
        <path fill-rule="evenodd" clip-rule="evenodd"
            d="M32.1415 19C32.409 19 32.6259 19.2312 32.6259 19.5164V22.0771C33.1375 22.2761 33.6038 22.6093 33.98 22.9749C34.4419 23.4238 34.8198 23.9722 34.9755 24.4763C35.0593 24.7472 34.9211 25.0391 34.6671 25.1284C34.413 25.2176 34.1391 25.0704 34.0554 24.7995C33.9692 24.5202 33.7147 24.1147 33.3274 23.7383C32.9451 23.3668 32.4848 23.0742 32.0344 22.9653C31.7576 22.8983 31.5005 22.8946 31.267 22.9672C31.0421 23.0371 30.8074 23.1874 30.5793 23.4849C30.3078 23.9057 30.1895 24.2686 30.1615 24.5836C30.1333 24.9005 30.1934 25.205 30.33 25.5128C30.6147 26.1548 31.2075 26.7654 31.9286 27.4205C32.0633 27.5428 32.2029 27.667 32.3445 27.793C32.9235 28.3081 33.5355 28.8525 33.9749 29.4164C34.5368 30.1373 34.9207 31.022 34.552 32.0484C34.3086 32.7262 33.9571 33.2158 33.5178 33.5271C33.2343 33.728 32.9311 33.8427 32.6259 33.8939V36.4836C32.6259 36.7688 32.409 37 32.1415 37C31.874 37 31.6571 36.7688 31.6571 36.4836V33.8675C31.0994 33.755 30.5735 33.4965 30.1556 33.2197C29.8853 33.0407 29.6464 32.8451 29.4597 32.6573C29.2893 32.4861 29.1103 32.2704 29.031 32.045C28.937 31.778 29.064 31.4803 29.3144 31.3801C29.5649 31.28 29.8441 31.4153 29.938 31.6824C29.938 31.6824 29.9382 31.682 29.9402 31.6853C29.9507 31.7022 29.998 31.779 30.1242 31.9058C30.2587 32.041 30.4449 32.1954 30.6667 32.3423C31.118 32.6411 31.6613 32.8729 32.1593 32.8923C32.4663 32.9043 32.7431 32.8358 32.9816 32.6669C33.22 32.498 33.4602 32.2001 33.6474 31.679C33.8343 31.1587 33.6915 30.6688 33.2299 30.0765C32.8527 29.5926 32.3318 29.1284 31.7607 28.6196C31.6102 28.4855 31.4562 28.3482 31.3004 28.2067C30.5896 27.5611 29.839 26.8219 29.4542 25.9544C29.256 25.5076 29.1499 25.0175 29.1971 24.4862C29.2441 23.9567 29.4402 23.4225 29.7936 22.8803C29.8001 22.8703 29.8069 22.8606 29.814 22.8512C30.1584 22.3948 30.5603 22.111 30.9958 21.9756C31.218 21.9065 31.4401 21.8788 31.6571 21.8812V19.5164C31.6571 19.2312 31.874 19 32.1415 19Z"
            fill="#574DAA" />
    </g>
    <defs>
        <clipPath id="clip0_1789_22503">
            <rect width="64" height="64" fill="white" />
        </clipPath>
    </defs>
</svg>