<svg width="64" height="64" viewBox="0 0 64 64" fill="none" xmlns="http://www.w3.org/2000/svg">
  <g clip-path="url(#clip0_1755_20917)">
    <path opacity="0.2"
      d="M39.2386 44.4874C12.7055 55.2238 3.04086 40.0326 0.578188 31.9542C-1.43874 12.7644 18.7184 18.126 27.2514 18.1642C35.7844 18.2024 35.4085 5.85279 46.2943 6.34497C57.1802 6.83715 65.7718 33.751 39.2386 44.4874Z"
      fill="#FFB18B" />
    <g clip-path="url(#clip1_1755_20917)">
      <ellipse opacity="0.2" cx="45.1339" cy="44.9385" rx="14.1333" ry="14.1333" fill="#3D3397" />
      <path fill-rule="evenodd" clip-rule="evenodd"
        d="M46.0138 46.0061H26.6796C21.8848 46.0061 18 42.1227 18 37.3322V26.0877C18 21.2972 21.8848 17.4138 26.6796 17.4138H46.0138C50.8085 17.4138 54.6933 21.2972 54.6933 26.0877V37.3322C54.6933 42.1227 50.8085 46.0061 46.0138 46.0061Z"
        fill="#3D3397" />
      <path fill-rule="evenodd" clip-rule="evenodd"
        d="M26.6796 46.0061H28.6796C23.8848 46.0061 20 42.1227 20 37.3322V26.0877C20 21.2972 23.8848 17.4138 28.6796 17.4138H26.6796C21.8848 17.4138 18 21.2972 18 26.0877V37.3322C18 42.1227 21.8848 46.0061 26.6796 46.0061Z"
        fill="#A098E0" />
      <path d="M46.1226 21.0881C48.2942 21.7818 49.8372 23.7315 50.03 26.0254" stroke="#EBE9FD" stroke-linecap="round"
        stroke-linejoin="round" />
      <path fill-rule="evenodd" clip-rule="evenodd"
        d="M36.9286 22.6858C37.2231 22.6858 37.4619 22.9246 37.4619 23.2191V25.8623C38.025 26.0678 38.5381 26.4117 38.9522 26.7891C39.4606 27.2525 39.8766 27.8187 40.048 28.3391C40.1402 28.6188 39.9881 28.9203 39.7083 29.0125C39.4286 29.1047 39.1271 28.9526 39.0349 28.6728C38.94 28.3846 38.6599 27.966 38.2337 27.5775C37.813 27.194 37.3063 26.892 36.8106 26.7795C36.5061 26.7105 36.2231 26.7066 35.9661 26.7815C35.7186 26.8537 35.4604 27.0088 35.2093 27.3159C34.9105 27.7502 34.7803 28.1248 34.7495 28.4499C34.7185 28.7771 34.7847 29.0913 34.9349 29.4091C35.2483 30.0717 35.9007 30.702 36.6944 31.3783C36.8426 31.5046 36.9963 31.6328 37.1522 31.7628C37.7894 32.2945 38.463 32.8566 38.9467 33.4386C39.5651 34.1828 39.9877 35.0963 39.5819 36.1559C39.3139 36.8556 38.927 37.3611 38.4435 37.6825C38.1315 37.8898 37.7978 38.0082 37.4619 38.0611V40.7342C37.4619 41.0287 37.2231 41.2675 36.9286 41.2675C36.634 41.2675 36.3952 41.0287 36.3952 40.7342V38.0338C35.7814 37.9177 35.2026 37.6508 34.7427 37.3651C34.4452 37.1803 34.1822 36.9784 33.9767 36.7846C33.7892 36.6078 33.5921 36.3851 33.5048 36.1524C33.4014 35.8766 33.5411 35.5692 33.8169 35.4658C34.0927 35.3623 34.4001 35.5021 34.5036 35.7779C34.503 35.7765 34.5037 35.7775 34.506 35.7809C34.5175 35.7984 34.5696 35.8776 34.7084 36.0085C34.8564 36.148 35.0614 36.3074 35.3055 36.459C35.8021 36.7675 36.4001 37.0067 36.9481 37.0268C37.286 37.0392 37.5907 36.9685 37.8531 36.7941C38.1154 36.6197 38.3798 36.3123 38.5858 35.7744C38.7915 35.2374 38.6344 34.7318 38.1263 34.1204C37.7112 33.6209 37.1378 33.1417 36.5094 32.6165C36.3437 32.478 36.1741 32.3363 36.0026 32.1902C35.2204 31.5237 34.3942 30.7606 33.9707 29.8651C33.7525 29.4038 33.6356 28.8978 33.6876 28.3493C33.7394 27.8027 33.9553 27.2512 34.3442 26.6915C34.3513 26.6812 34.3588 26.6712 34.3667 26.6615C34.7458 26.1903 35.1882 25.8973 35.6675 25.7575C35.912 25.6862 36.1565 25.6575 36.3952 25.66V23.2191C36.3952 22.9246 36.634 22.6858 36.9286 22.6858Z"
        fill="#EBE9FD" />
    </g>
    <path fill-rule="evenodd" clip-rule="evenodd"
      d="M6.10181 25.8503C6.10181 25.5742 6.32566 25.3503 6.60181 25.3503H13.4425C13.7187 25.3503 13.9425 25.5742 13.9425 25.8503C13.9425 26.1265 13.7187 26.3503 13.4425 26.3503H6.60181C6.32566 26.3503 6.10181 26.1265 6.10181 25.8503Z"
      fill="#3D3397" />
    <path fill-rule="evenodd" clip-rule="evenodd"
      d="M3.5495 31.0369C3.5495 30.7607 3.77336 30.5369 4.0495 30.5369H13.4425C13.7186 30.5369 13.9425 30.7607 13.9425 31.0369C13.9425 31.313 13.7186 31.5369 13.4425 31.5369H4.0495C3.77336 31.5369 3.5495 31.313 3.5495 31.0369Z"
      fill="#3D3397" />
    <path fill-rule="evenodd" clip-rule="evenodd"
      d="M0.84375 36.3081C0.84375 36.032 1.06761 35.8081 1.34375 35.8081H13.442C13.7182 35.8081 13.942 36.032 13.942 36.3081C13.942 36.5842 13.7182 36.8081 13.442 36.8081H1.34375C1.06761 36.8081 0.84375 36.5842 0.84375 36.3081Z"
      fill="#3D3397" />
    <path opacity="0.4"
      d="M32.7612 51.7091C32.7612 51.7091 34.2845 53.7331 35.368 53.9121C36.4514 54.0911 36.9979 54.5062 36.6856 55.0641C36.3734 55.622 35.3527 55.5497 34.6177 55.3611C33.8828 55.1726 31.613 53.954 31.078 52.8249C30.5429 51.6957 31.8282 50.6409 32.7612 51.7091Z"
      fill="#3D3397" />
    <path opacity="0.4"
      d="M42.8837 7.53473C42.8837 7.53473 41.8859 7.15391 42.143 5.79438C42.4 4.43484 43.4987 4.65191 44.0623 4.97561C44.626 5.29931 46.928 7.26054 46.9014 8.09644C46.8747 8.93234 46.1854 9.65781 45.5971 9.53023C45.0087 9.40266 43.7805 7.50807 42.8837 7.53473Z"
      fill="#3D3397" />
    <path opacity="0.4"
      d="M15.4629 6.2878L17.4051 5.90698C17.4051 5.90698 17.7859 7.92915 18.2734 8.5556C18.7608 9.18205 19.4425 10.0789 18.9036 10.6501C18.3648 11.2214 17.7002 11.4118 16.8091 10.3778C15.918 9.3439 15.2725 6.72385 15.4629 6.2878Z"
      fill="#3D3397" />
    <path opacity="0.4"
      d="M10.4111 51.3367C10.2271 51.2049 10.0974 51.0107 10.0463 50.7903C9.99511 50.5698 10.026 50.3383 10.1331 50.139C10.4967 49.3774 11.624 47.559 13.2025 47.0429C14.781 46.5269 15.2303 47.9093 14.8666 48.4748C14.503 49.0403 12.6826 49.9886 12.3913 50.3047C12.1 50.6207 11.5897 52.0126 10.4111 51.3367Z"
      fill="#F5BAB2" />
    <path opacity="0.4"
      d="M59.0588 40.6869C59.0588 40.6869 61.0924 37.9774 62.5738 37.7299C64.0552 37.4823 63.9943 38.2478 64 38.3715C64.0057 38.4953 63.6096 38.9637 63.2878 39.2855C62.966 39.6073 61.2657 41.6047 60.9686 41.6789C60.6716 41.7532 58.8513 42.1645 59.0588 40.6869Z"
      fill="#F5BAB2" />
    <path fill-rule="evenodd" clip-rule="evenodd"
      d="M51.0832 56.4635C51.514 56.6311 51.9892 56.7803 52.5114 56.9082C57.1178 58.0363 60.8224 56.4146 63.364 54.3078C63.5908 54.1198 63.6222 53.7836 63.4343 53.5568C63.2463 53.33 62.9101 53.2986 62.6833 53.4866C60.329 55.4381 56.9617 56.8998 52.7651 55.8721C52.4627 55.798 52.1811 55.7172 51.919 55.6306C52.283 55.1933 52.5554 54.7373 52.7425 54.2734C53.5498 52.273 52.7007 50.2615 51.0222 49.4222C50.2206 49.0214 49.3777 49.2758 48.7699 49.7847C48.1625 50.2932 47.7178 51.0999 47.62 52.0023C47.5206 52.9194 47.7799 53.929 48.5689 54.8216C48.9345 55.2352 49.4077 55.6171 50.0007 55.9539C48.8965 56.7508 47.262 57.4605 44.9343 57.9062C44.645 57.9616 44.4554 58.2411 44.5108 58.5304C44.5662 58.8197 44.8456 59.0093 45.1349 58.9539C47.86 58.4321 49.8031 57.5366 51.0832 56.4635ZM50.8672 55.2058C50.1911 54.8735 49.7058 54.4972 49.3681 54.1151C48.7802 53.45 48.613 52.7394 48.6804 52.1173C48.7495 51.4803 49.0652 50.9286 49.4546 50.6026C49.8436 50.2769 50.234 50.2207 50.5452 50.3763C51.7205 50.9639 52.355 52.3833 51.7534 53.8743C51.5776 54.3098 51.2903 54.7625 50.8672 55.2058Z"
      fill="#574DAA" />
  </g>
  <defs>
    <clipPath id="clip0_1755_20917">
      <rect width="64" height="64" fill="white" />
    </clipPath>
    <clipPath id="clip1_1755_20917">
      <rect width="45.8667" height="45.8667" fill="white" transform="translate(13.3685 13.3748)" />
    </clipPath>
  </defs>
</svg>