<svg width="64" height="64" viewBox="0 0 64 64" fill="none" xmlns="http://www.w3.org/2000/svg">
  <circle opacity="0.2" cx="46.5" cy="45.5" r="15.5" fill="#3D3397" />
  <path opacity="0.2"
    d="M1.14386 32.6411C2.3412 36.3231 5.20652 41.5493 10.8063 44.9028C31.8984 52.3726 41.6793 46.9497 51.2873 38.4168C64.7053 26.5001 57.0689 8.53065 47.8045 8.13798C41.869 7.88641 39.2138 11.1413 36.7003 14.2226C34.5087 16.9092 32.4248 19.4637 28.3681 19.4467C26.9714 19.4409 25.2694 19.304 23.4046 19.154C13.6419 18.3689 -0.584577 17.2249 1.14386 32.6411Z"
    fill="#01ACC9" />
  <path fill-rule="evenodd" clip-rule="evenodd"
    d="M19.7216 60.5471C19.254 60.7286 18.7381 60.8901 18.1714 61.0285C13.171 62.2498 9.14973 60.4942 6.39076 58.2133C6.1446 58.0098 6.11046 57.6458 6.31451 57.4003C6.51856 57.1548 6.88353 57.1207 7.12969 57.3242C9.68529 59.437 13.3405 61.0195 17.896 59.9069C18.2242 59.8267 18.5299 59.7392 18.8144 59.6454C18.4192 59.1719 18.1236 58.6783 17.9204 58.1761C17.0442 56.0104 17.9658 53.8327 19.7879 52.9241C20.658 52.4902 21.5729 52.7656 22.2327 53.3165C22.892 53.8671 23.3747 54.7405 23.481 55.7173C23.5889 56.7102 23.3074 57.8032 22.4509 58.7696C22.054 59.2173 21.5404 59.6309 20.8967 59.9954C22.0953 60.8582 23.8696 61.6265 26.3963 62.1091C26.7103 62.169 26.9162 62.4716 26.856 62.7848C26.7959 63.098 26.4926 63.3032 26.1785 63.2433C23.2205 62.6783 21.1112 61.7089 19.7216 60.5471ZM19.9561 59.1855C20.69 58.8258 21.2168 58.4184 21.5833 58.0048C22.2216 57.2846 22.4031 56.5154 22.3298 55.8418C22.2549 55.1523 21.9122 54.555 21.4895 54.202C21.0672 53.8494 20.6434 53.7886 20.3057 53.957C19.0299 54.5932 18.3411 56.1298 18.9942 57.744C19.185 58.2155 19.4968 58.7056 19.9561 59.1855Z"
    fill="#574DAA" />
  <path
    d="M25.9666 25.0537C25.9666 23.4767 27.245 22.1982 28.822 22.1982H37.2227C38.7997 22.1982 40.0781 23.4767 40.0781 25.0537V29.7766H25.9666V25.0537Z"
    fill="#D02B35" />
  <path
    d="M25.9666 29.7766H40.0781V47.3601C40.0781 48.4114 39.2258 49.2637 38.1745 49.2637H27.8702C26.8188 49.2637 25.9666 48.4114 25.9666 47.3601V29.7766Z"
    fill="#FAFAFA" />
  <path fill-rule="evenodd" clip-rule="evenodd" d="M25.9666 26.8391V29.7765H26.2393L25.9666 26.8391Z" fill="#AD262E" />
  <path fill-rule="evenodd" clip-rule="evenodd"
    d="M26.2393 29.7764L28.0484 49.2635H27.8702C26.8188 49.2635 25.9666 48.4112 25.9666 47.3598V29.7764H26.2393Z"
    fill="#F2F3F4" />
  <path
    d="M40.0781 25.0537C40.0781 23.4767 41.3565 22.1982 42.9336 22.1982H51.3342C52.9113 22.1982 54.1897 23.4767 54.1897 25.0537V29.7766H40.0781V25.0537Z"
    fill="#AD262E" />
  <path
    d="M40.0781 29.7766H54.1897V40.6974C54.1897 45.4285 50.3544 49.2637 45.6234 49.2637H41.9817C40.9304 49.2637 40.0781 48.4114 40.0781 47.3601V29.7766Z"
    fill="#F2F3F4" />
  <path
    d="M10.7695 19.6406C10.7695 18.0636 12.048 16.7852 13.625 16.7852H23.1112C24.6882 16.7852 25.9666 18.0636 25.9666 19.6406V24.3635H10.7695V19.6406Z"
    fill="#D02B35" />
  <path
    d="M10.7695 24.3635H25.9666V46.4083C25.9666 47.9853 24.6882 49.2637 23.1112 49.2637H13.625C12.048 49.2637 10.7695 47.9853 10.7695 46.4083V24.3635Z"
    fill="white" />
  <path fill-rule="evenodd" clip-rule="evenodd"
    d="M18.6223 27.1006C18.942 27.1006 19.2012 27.3591 19.2012 27.678V29.9815C19.6971 30.1734 20.1462 30.478 20.5098 30.8085C20.9749 31.2313 21.3618 31.753 21.5231 32.2415C21.6232 32.5443 21.4581 32.8708 21.1544 32.9705C20.8507 33.0703 20.5234 32.9057 20.4234 32.6028C20.3451 32.3657 20.1057 32.0037 19.7298 31.662C19.3599 31.3258 18.919 31.0654 18.4942 30.9693C18.2321 30.91 17.9952 30.9082 17.784 30.9696C17.5831 31.028 17.3682 31.1543 17.1546 31.4136C16.8951 31.7909 16.786 32.1102 16.7603 32.3812C16.7344 32.6543 16.7892 32.9185 16.9181 33.1903C17.1898 33.7633 17.7607 34.3167 18.4759 34.9244C18.6072 35.036 18.744 35.1499 18.8834 35.2658C19.4572 35.7432 20.0726 36.2553 20.5143 36.7854C21.081 37.4655 21.4859 38.3229 21.1021 39.3222C20.8553 39.965 20.4958 40.437 20.0402 40.739C19.7723 40.9166 19.4877 41.0244 19.2012 41.0795V43.3952C19.2012 43.7141 18.942 43.9726 18.6223 43.9726C18.3026 43.9726 18.0434 43.7141 18.0434 43.3952V41.0529C17.5056 40.9386 17.0035 40.7038 16.6033 40.4559C16.3306 40.287 16.0887 40.1018 15.8984 39.9229C15.7277 39.7624 15.5359 39.5496 15.449 39.3184C15.3367 39.0198 15.4884 38.687 15.7878 38.575C16.0872 38.4631 16.4209 38.6143 16.5332 38.9129C16.5294 38.9029 16.5295 38.9031 16.5368 38.9128C16.5513 38.9323 16.5945 38.9903 16.6927 39.0827C16.8205 39.2028 16.9995 39.3419 17.2142 39.4749C17.6527 39.7465 18.1738 39.9524 18.6435 39.9696C18.9311 39.9801 19.1837 39.9201 19.3993 39.7772C19.6148 39.6344 19.8412 39.3769 20.0208 38.9092C20.1873 38.4757 20.0707 38.0598 19.6238 37.5234C19.2566 37.0828 18.7499 36.6604 18.1856 36.19C18.0356 36.0649 17.8815 35.9365 17.7249 35.8034C17.0221 35.2062 16.2627 34.5092 15.8714 33.684C15.6688 33.2568 15.5589 32.785 15.6076 32.2723C15.6561 31.7616 15.858 31.2508 16.2156 30.7375C16.2234 30.7264 16.2315 30.7156 16.24 30.705C16.5927 30.2679 17.0075 29.9926 17.4599 29.861C17.656 29.8039 17.8516 29.7761 18.0434 29.7704V27.678C18.0434 27.3591 18.3026 27.1006 18.6223 27.1006Z"
    fill="#3D3397" />
  <ellipse cx="52.0187" cy="21.1157" rx="7.59852" ry="7.57832" fill="#3D3397" />
  <path fill-rule="evenodd" clip-rule="evenodd"
    d="M56.1935 18.0161C56.4089 18.2207 56.4173 18.5608 56.2122 18.7758L51.0396 24.1968C50.9379 24.3033 50.7969 24.3636 50.6495 24.3636C50.502 24.3636 50.361 24.3033 50.2594 24.1968L47.8252 21.6457C47.6201 21.4308 47.6285 21.0906 47.8439 20.886C48.0594 20.6814 48.4003 20.6898 48.6054 20.9047L50.6495 23.0469L55.432 18.0348C55.6371 17.8198 55.978 17.8115 56.1935 18.0161Z"
    fill="white" />
</svg>