<svg width="64" height="64" viewBox="0 0 64 64" fill="none" xmlns="http://www.w3.org/2000/svg">
    <path opacity="0.2" fill-rule="evenodd" clip-rule="evenodd"
        d="M49.2028 32.4792C56.6006 31.1318 62.2091 24.655 62.2091 16.8683C62.2091 8.10449 55.1047 1 46.3408 1C37.577 1 30.4725 8.10449 30.4725 16.8683C30.4725 17.3885 30.4975 17.9028 30.5465 18.4102C31.7053 18.1242 32.9171 17.9724 34.1643 17.9724C42.2941 17.9724 48.9181 24.4192 49.2028 32.4792Z"
        fill="#01ACC9" />
    <path opacity="0.2" fill-rule="evenodd" clip-rule="evenodd"
        d="M33.9613 46.7628C41.4929 46.7628 47.5986 40.6139 47.5986 33.0288C47.5986 31.8488 47.4508 30.7035 47.1729 29.6108C50.1068 28.6496 53.2651 28.3508 56.9505 30.7247C66.2912 36.7412 60.1634 65.0268 31.3217 60.9537C2.47992 56.8805 1.69616 38.4469 3.63784 30.0163C8.65125 18.6825 16.4374 20.4023 23.3952 24.3453C21.4755 26.7116 20.324 29.7348 20.324 33.0288C20.324 40.6139 26.4296 46.7628 33.9613 46.7628Z"
        fill="#3D3397" />
    <path fill-rule="evenodd" clip-rule="evenodd"
        d="M8.13379 46.9425C8.18835 46.6163 8.49701 46.3961 8.82318 46.4507C13.3527 47.2084 18.2498 49.1197 21.9251 53.1742C22.947 52.898 24.1598 52.7283 25.5852 52.6976C33.4775 52.5273 38.6525 56.8238 41.3206 60.4873C41.5153 60.7546 41.4564 61.1292 41.1891 61.3239C40.9218 61.5186 40.5472 61.4597 40.3525 61.1924C37.8432 57.7468 33.0033 53.7354 25.611 53.8949C24.5159 53.9185 23.5805 54.0262 22.7834 54.1958C23.9693 55.799 24.0982 57.6864 23.4736 59.1469C22.8207 60.6738 21.3225 61.7472 19.4272 61.4322C18.6003 61.3206 17.9675 60.6019 17.6261 59.817C17.2678 58.9931 17.147 57.9338 17.4607 56.8775C17.848 55.5733 18.8522 54.3757 20.6833 53.5988C17.284 50.0611 12.8356 48.3362 8.62559 47.6319C8.29941 47.5773 8.07922 47.2687 8.13379 46.9425ZM21.533 54.5484C19.7002 55.2136 18.8889 56.275 18.6088 57.2184C18.3803 57.9876 18.4711 58.7572 18.7243 59.3394C18.9927 59.9564 19.3665 60.2173 19.591 60.2458L19.6032 60.2473L19.6154 60.2494C20.8882 60.4645 21.9011 59.7783 22.3725 58.676C22.8469 57.5666 22.7504 56.0499 21.6947 54.7454C21.6411 54.6792 21.5872 54.6135 21.533 54.5484Z"
        fill="#574DAA" />
    <path fill-rule="evenodd" clip-rule="evenodd"
        d="M41.7185 20.0331C43.2219 16.9694 46.9397 12.1 51.5 14.0001C55.1 15.6001 54.6666 20.0001 54 22.0001C54.197 22.1971 54.4272 22.3988 54.6739 22.615C55.8881 23.6788 57.5 25.0911 57.5 28.0001C57.5 30.9091 56.1184 31.8608 55.0776 32.5778C54.8662 32.7234 54.6688 32.8594 54.5 33.0001C54.6644 35.9603 53.336 41.6466 46.7679 41.0285C48.2546 38.7002 49.1162 35.934 49.1162 32.9667C49.1162 27.4569 46.1456 22.6409 41.7185 20.0331Z"
        fill="#3D3397" />
    <path fill-rule="evenodd" clip-rule="evenodd"
        d="M47.6583 26.5076C47.4477 26.067 47.2163 25.6382 46.9653 25.2226L54 22C54.197 22.197 54.4272 22.3987 54.6739 22.6149C55.4739 23.3158 56.4466 24.168 57.0171 25.5L47.6583 26.5076Z"
        fill="#A098E0" />
    <path fill-rule="evenodd" clip-rule="evenodd"
        d="M48.8265 30.0178C48.5811 28.7867 48.185 27.61 47.6583 26.5076L57.0171 25.5C57.3124 26.1896 57.5 27.0077 57.5 28C57.5 30.909 56.1184 31.8607 55.0777 32.5777L55.0776 32.5777C54.8662 32.7233 54.6688 32.8593 54.5 33L48.8265 30.0178Z"
        fill="#574DAA" />
    <path fill-rule="evenodd" clip-rule="evenodd"
        d="M46.7679 41.0284C47.3323 41.0815 47.858 41.0881 48.3475 41.0538C53.5533 40.6894 54.6503 35.7058 54.4999 33L48.8265 30.0178C49.0165 30.9713 49.1162 31.9573 49.1162 32.9666C49.1162 35.934 48.2546 38.7001 46.7679 41.0284Z"
        fill="#A098E0" />
    <path fill-rule="evenodd" clip-rule="evenodd"
        d="M26.7521 20.0331C25.2487 16.9694 21.5309 12.1 16.9706 14.0001C13.3706 15.6001 13.804 20.0001 14.4706 22.0001C14.2736 22.1971 14.0434 22.3988 13.7967 22.615C12.5825 23.6788 10.9706 25.0911 10.9706 28.0001C10.9706 30.9091 12.3522 31.8608 13.393 32.5778C13.6044 32.7234 13.8018 32.8594 13.9706 33.0001C13.8062 35.9603 15.1346 41.6466 21.7027 41.0285C20.216 38.7002 19.3543 35.934 19.3543 32.9667C19.3543 27.4569 22.325 22.6409 26.7521 20.0331Z"
        fill="#3D3397" />
    <path fill-rule="evenodd" clip-rule="evenodd"
        d="M20.8123 26.5076C21.0229 26.067 21.2543 25.6382 21.5053 25.2226L14.4706 22C14.2736 22.197 14.0434 22.3987 13.7967 22.6149L13.7967 22.6149C12.9967 23.3158 12.024 24.168 11.4535 25.5L20.8123 26.5076Z"
        fill="#A098E0" />
    <path fill-rule="evenodd" clip-rule="evenodd"
        d="M19.6441 30.0178C19.8895 28.7867 20.2856 27.61 20.8123 26.5076L11.4535 25.5C11.1581 26.1896 10.9706 27.0077 10.9706 28C10.9706 30.909 12.3522 31.8607 13.3929 32.5777L13.393 32.5777C13.6044 32.7233 13.8018 32.8593 13.9706 33L19.6441 30.0178Z"
        fill="#574DAA" />
    <path fill-rule="evenodd" clip-rule="evenodd"
        d="M21.7027 41.0284C21.0292 41.0918 20.4108 41.0889 19.8434 41.0294C14.8779 40.509 13.823 35.6567 13.9706 33L19.6441 30.0178C19.454 30.9713 19.3544 31.9573 19.3544 32.9666C19.3544 35.934 20.216 38.7001 21.7027 41.0284Z"
        fill="#A098E0" />
    <path
        d="M49.1162 32.9668C49.1162 41.2511 42.4005 47.9668 34.1162 47.9668C25.832 47.9668 19.1162 41.2511 19.1162 32.9668C19.1162 24.6825 25.832 17.9668 34.1162 17.9668C42.4005 17.9668 49.1162 24.6825 49.1162 32.9668Z"
        fill="#F6D56A" />
    <path fill-rule="evenodd" clip-rule="evenodd"
        d="M34.3205 25C34.6512 25 34.9193 25.2681 34.9193 25.5988V27.9877C35.4322 28.1867 35.8967 28.5026 36.2728 28.8454C36.7538 29.2839 37.154 29.8249 37.3209 30.3315C37.4244 30.6456 37.2536 30.9841 36.9395 31.0876C36.6254 31.1911 36.2869 31.0203 36.1834 30.7062C36.1024 30.4603 35.8548 30.0849 35.4661 29.7305C35.0835 29.3819 34.6273 29.1118 34.188 29.0121C33.9169 28.9506 33.6719 28.9488 33.4535 29.0125C33.2456 29.0731 33.0233 29.204 32.8025 29.4729C32.5341 29.8642 32.4212 30.1953 32.3946 30.4764C32.3678 30.7596 32.4245 31.0336 32.5578 31.3155C32.8389 31.9098 33.4293 32.4837 34.1691 33.1139C34.3049 33.2297 34.4464 33.3478 34.5905 33.468C35.184 33.9631 35.8206 34.4942 36.2774 35.0439C36.8636 35.7492 37.2824 36.6384 36.8855 37.6747C36.6301 38.3414 36.2583 38.8309 35.787 39.1441C35.5099 39.3282 35.2157 39.44 34.9193 39.4972V41.8988C34.9193 42.2295 34.6512 42.4976 34.3205 42.4976C33.9898 42.4976 33.7217 42.2295 33.7217 41.8988V39.4697C33.1655 39.3511 32.6462 39.1076 32.2322 38.8505C31.9502 38.6753 31.6999 38.4833 31.5031 38.2977C31.3265 38.1312 31.1282 37.9106 31.0383 37.6708C30.9222 37.3612 31.0791 37.016 31.3887 36.8999C31.6984 36.7838 32.0436 36.9407 32.1597 37.2503C32.1558 37.2399 32.1559 37.2401 32.1634 37.2502C32.1784 37.2704 32.2231 37.3306 32.3247 37.4263C32.4568 37.551 32.642 37.6952 32.8641 37.8332C33.3176 38.1148 33.8566 38.3284 34.3425 38.3462C34.6399 38.3571 34.9012 38.2948 35.1242 38.1467C35.347 37.9985 35.5813 37.7315 35.7671 37.2464C35.9392 36.7969 35.8186 36.3655 35.3564 35.8093C34.9766 35.3523 34.4525 34.9143 33.8688 34.4264C33.7137 34.2967 33.5543 34.1635 33.3924 34.0255C32.6655 33.4062 31.8799 32.6833 31.4752 31.8275C31.2656 31.3845 31.152 30.8952 31.2024 30.3634C31.2525 29.8338 31.4614 29.3041 31.8313 28.7718C31.8393 28.7603 31.8477 28.749 31.8565 28.7381C32.2213 28.2848 32.6503 27.9992 33.1182 27.8627C33.3211 27.8036 33.5234 27.7747 33.7217 27.7689V25.5988C33.7217 25.2681 33.9898 25 34.3205 25Z"
        fill="url(#paint0_linear_1059_34240)" />
    <path fill-rule="evenodd" clip-rule="evenodd"
        d="M34.9193 25.5988C34.9193 25.2681 34.6512 25 34.3205 25C33.9898 25 33.7217 25.2681 33.7217 25.5988V26.3488C33.7217 26.0181 33.9898 25.75 34.3205 25.75C34.6512 25.75 34.9193 26.0181 34.9193 26.3488V25.5988ZM34.9193 27.9877V28.7377C35.4322 28.9367 35.8967 29.2526 36.2728 29.5954C36.687 29.9729 37.0412 30.4265 37.2382 30.8687C37.3461 30.7185 37.3832 30.5206 37.3209 30.3315C37.154 29.8249 36.7538 29.2839 36.2728 28.8454C35.8967 28.5026 35.4322 28.1867 34.9193 27.9877ZM32.4367 30.9864C32.4154 31.0702 32.4018 31.1501 32.3946 31.2264C32.3678 31.5096 32.4245 31.7836 32.5578 32.0655C32.8389 32.6598 33.4293 33.2337 34.1691 33.8639C34.3049 33.9797 34.4464 34.0977 34.5905 34.2179L34.5905 34.218L34.5905 34.218C35.1841 34.7131 35.8206 35.2442 36.2774 35.7939C36.625 36.2121 36.9137 36.6949 37.0084 37.2347C37.1578 36.3852 36.7789 35.6472 36.2774 35.0439C35.8206 34.4942 35.1841 33.9631 34.5905 33.468L34.5905 33.468L34.5905 33.4679C34.4464 33.3477 34.3049 33.2297 34.1691 33.1139C33.4293 32.4837 32.8389 31.9098 32.5578 31.3155C32.5055 31.2049 32.465 31.0956 32.4367 30.9864ZM31.1238 37.8461C31.1897 37.76 31.2798 37.6908 31.3887 37.6499C31.6984 37.5338 32.0436 37.6907 32.1597 38.0003C32.1558 37.9899 32.1559 37.9901 32.1634 38.0002C32.1784 38.0204 32.2231 38.0806 32.3247 38.1763C32.4568 38.301 32.642 38.4452 32.8641 38.5832C33.3176 38.8648 33.8566 39.0784 34.3425 39.0962C34.6399 39.1071 34.9012 39.0448 35.1242 38.8967C35.347 38.7485 35.5813 38.4815 35.7671 37.9964C35.8635 37.7446 35.8681 37.4985 35.7722 37.2329C35.7705 37.2374 35.7688 37.2419 35.7671 37.2464C35.5813 37.7315 35.347 37.9985 35.1242 38.1467C34.9012 38.2948 34.6399 38.3571 34.3425 38.3462C33.8566 38.3284 33.3176 38.1148 32.8641 37.8332C32.642 37.6952 32.4568 37.551 32.3247 37.4263C32.2231 37.3306 32.1784 37.2704 32.1634 37.2502C32.1559 37.2401 32.1558 37.2399 32.1597 37.2503C32.0436 36.9407 31.6984 36.7838 31.3887 36.8999C31.0791 37.016 30.9222 37.3612 31.0383 37.6708C31.0607 37.7306 31.0899 37.7892 31.1238 37.8461ZM31.2172 30.9877C31.2866 30.5 31.4907 30.012 31.8313 29.5218C31.8393 29.5103 31.8477 29.499 31.8565 29.4881C32.2213 29.0348 32.6503 28.7492 33.1182 28.6127C33.3211 28.5536 33.5234 28.5247 33.7217 28.5189V27.7689C33.5234 27.7747 33.3211 27.8036 33.1182 27.8627C32.6503 27.9992 32.2213 28.2848 31.8565 28.7381C31.8477 28.749 31.8393 28.7603 31.8313 28.7718C31.4614 29.3041 31.2525 29.8338 31.2024 30.3634C31.182 30.5786 31.1884 30.7867 31.2172 30.9877Z"
        fill="#BE9429" />
    <path fill-rule="evenodd" clip-rule="evenodd"
        d="M41.2057 22.2066C40.6295 22.0225 40.0116 22.3399 39.8268 22.9186C39.6417 23.4979 39.9618 24.1159 40.5385 24.3002C41.8777 24.728 42.8375 25.9339 42.9575 27.3624C43.0085 27.9683 43.5403 28.4159 44.143 28.3652C44.7458 28.3145 45.1957 27.7841 45.1448 27.1781C44.9511 24.8741 43.4002 22.9076 41.2057 22.2066Z"
        fill="#FFEEC1" />
    <path fill-rule="evenodd" clip-rule="evenodd"
        d="M49.0836 33.9666C49.1053 33.636 49.1164 33.3026 49.1164 32.9666C49.1164 24.6823 42.4006 17.9666 34.1164 17.9666C25.8321 17.9666 19.1164 24.6823 19.1164 32.9666C19.1164 33.3026 19.1274 33.636 19.1492 33.9666C19.6638 26.1485 26.1681 19.9666 34.1164 19.9666C42.0646 19.9666 48.569 26.1485 49.0836 33.9666Z"
        fill="#FCDB88" />
    <path opacity="0.4" fill-rule="evenodd" clip-rule="evenodd"
        d="M48.4297 28.4666C46.5183 34.5522 40.8328 38.9666 34.1164 38.9666C27.3999 38.9666 21.7145 34.5522 19.8031 28.4666C19.3569 29.8871 19.1164 31.3987 19.1164 32.9666C19.1164 41.2508 25.8321 47.9666 34.1164 47.9666C42.4006 47.9666 49.1164 41.2508 49.1164 32.9666C49.1164 31.3987 48.8758 29.8871 48.4297 28.4666Z"
        fill="#E7B639" />
    <path fill-rule="evenodd" clip-rule="evenodd"
        d="M49.0423 31.4666C48.2897 39.0465 41.8944 44.9666 34.1164 44.9666C26.3383 44.9666 19.943 39.0465 19.1904 31.4666C19.1414 31.9599 19.1164 32.4603 19.1164 32.9666C19.1164 41.2508 25.8321 47.9666 34.1164 47.9666C42.4006 47.9666 49.1164 41.2508 49.1164 32.9666C49.1164 32.4603 49.0913 31.9599 49.0423 31.4666Z"
        fill="#E7B639" />
    <defs>
        <linearGradient id="paint0_linear_1059_34240" x1="34.1756" y1="25" x2="24" y2="47"
            gradientUnits="userSpaceOnUse">
            <stop stop-color="#F3AB3C" />
            <stop offset="1" stop-color="#A46217" />
        </linearGradient>
    </defs>
</svg>