<svg width="33" height="32" viewBox="0 0 33 32" fill="none" xmlns="http://www.w3.org/2000/svg">
<g clip-path="url(#clip0_370_23192)">
<g clip-path="url(#clip1_370_23192)">
<path d="M16.5 32C25.3366 32 32.5 24.8366 32.5 16C32.5 7.16344 25.3366 0 16.5 0C7.66344 0 0.5 7.16344 0.5 16C0.5 24.8366 7.66344 32 16.5 32Z" fill="#EBE9FD"/>
</g>
<g clip-path="url(#clip2_370_23192)">
<path d="M13.6755 26.3744C12.5068 26.3744 11.5718 25.4395 11.5718 24.2707C11.5718 23.102 12.5068 22.167 13.6755 22.167C14.8443 22.167 15.7793 23.102 15.7793 24.2707C15.7793 25.4161 14.8209 26.3744 13.6755 26.3744ZM13.6755 23.3357C13.1613 23.3357 12.7405 23.7565 12.7405 24.2707C12.7405 24.785 13.1613 25.2057 13.6755 25.2057C14.1898 25.2057 14.6105 24.785 14.6105 24.2707C14.6105 23.7565 14.1898 23.3357 13.6755 23.3357Z" fill="#3D3397"/>
<path d="M21.8567 26.3744C20.6879 26.3744 19.753 25.4395 19.753 24.2707C19.753 23.102 20.6879 22.167 21.8567 22.167C23.0254 22.167 23.9604 23.102 23.9604 24.2707C23.9604 25.4161 23.002 26.3744 21.8567 26.3744ZM21.8567 23.3357C21.3424 23.3357 20.9217 23.7565 20.9217 24.2707C20.9217 24.785 21.3424 25.2057 21.8567 25.2057C22.3709 25.2057 22.7917 24.785 22.7917 24.2707C22.7917 23.7565 22.3709 23.3357 21.8567 23.3357Z" fill="#3D3397"/>
<path d="M23.7501 21.0917H11.9459C10.6369 21.0917 9.53829 20.0632 9.42142 18.7776L8.4163 6.83308L6.61645 6.52921C6.2892 6.48246 6.07883 6.17859 6.14895 5.85134C6.1957 5.5241 6.49958 5.31372 6.82682 5.38385L9.0708 5.78122C9.32792 5.82797 9.53829 6.03834 9.56166 6.31884L9.84216 9.54455H25.2929C25.8772 9.54455 26.4382 9.80167 26.8356 10.2458C27.233 10.6899 27.3966 11.2743 27.3031 11.8586L26.2746 18.9412C26.0642 20.1567 24.989 21.0917 23.7501 21.0917ZM9.91229 10.6665L10.5902 18.6607C10.6603 19.3853 11.2446 19.9229 11.9459 19.9229H23.7501C24.428 19.9229 25.0124 19.4087 25.1059 18.7542L26.111 11.6483C26.1577 11.3912 26.0642 11.1574 25.9006 10.947C25.737 10.76 25.5032 10.6432 25.2461 10.6432H9.91229V10.6665Z" fill="#3D3397"/>
<path d="M21.9971 14.6636H19.0051C18.6779 14.6636 18.4207 14.4065 18.4207 14.0792C18.4207 13.752 18.6779 13.4949 19.0051 13.4949H21.9971C22.3243 13.4949 22.5815 13.752 22.5815 14.0792C22.5815 14.4065 22.3243 14.6636 21.9971 14.6636Z" fill="#3D3397"/>
</g>
</g>
<defs>
<clipPath id="clip0_370_23192">
<rect width="32" height="32" fill="white" transform="translate(0.5)"/>
</clipPath>
<clipPath id="clip1_370_23192">
<rect width="32" height="32" fill="white" transform="translate(0.5)"/>
</clipPath>
<clipPath id="clip2_370_23192">
<rect width="25.9459" height="25.9459" fill="white" transform="translate(3.67117 2.88281)"/>
</clipPath>
</defs>
</svg>
